<svg xmlns="http://www.w3.org/2000/svg" xmlns:xlink="http://www.w3.org/1999/xlink" width="400" zoomAndPan="magnify" viewBox="0 0 300 299.999988" height="400" preserveAspectRatio="xMidYMid meet" version="1.0"><defs><clipPath id="0e7b5a7288"><path d="M 108 170 L 182 170 L 182 284.8125 L 108 284.8125 Z M 108 170 " clip-rule="nonzero"/></clipPath></defs><path fill="#eeb87a" d="M 224.738281 225.980469 C 234.832031 223.519531 243.660156 216.371094 248.265625 207.058594 C 248.628906 206.320312 249.691406 206.355469 250.027344 207.109375 C 253.777344 215.472656 252.964844 225.796875 247.535156 234.082031 C 247.070312 234.796875 247.679688 235.714844 248.515625 235.566406 L 250.882812 235.136719 C 251.644531 235 252.25 235.757812 251.960938 236.476562 C 250.054688 241.214844 246.582031 245.316406 242.207031 247.945312 C 237.332031 250.875 232.003906 251.492188 226.414062 250.453125 " fill-opacity="1" fill-rule="nonzero"/><path fill="#eeb87a" d="M 81.613281 153.515625 C 72.421875 164.964844 63.707031 177.027344 58.191406 190.636719 C 52.675781 204.25 50.550781 219.660156 54.773438 233.730469 C 59.859375 250.679688 73.746094 264.027344 89.742188 271.558594 C 105.734375 279.09375 123.707031 281.40625 141.378906 281.746094 C 160.820312 282.121094 180.769531 280.097656 198.28125 271.640625 C 215.796875 263.179688 230.414062 251.542969 233.167969 232.265625 C 236.519531 208.804688 231.785156 195.589844 224.605469 180.859375 C 220.257812 171.945312 214.757812 162.984375 206.066406 158.214844 C 197.890625 153.730469 188.113281 153.617188 178.789062 153.617188 C 147.328125 153.605469 115.867188 153.597656 81.613281 153.515625 Z M 81.613281 153.515625 " fill-opacity="1" fill-rule="nonzero"/><path fill="#eeb87a" d="M 76.996094 176.617188 C 115.425781 186.746094 171.492188 191.453125 212.890625 176.882812 C 222.144531 174.878906 247.328125 164.234375 256.117188 157.863281 C 264.902344 151.492188 262.394531 154.332031 264.859375 144.355469 C 267.050781 135.503906 265.507812 126.164062 262.175781 117.617188 C 258.847656 109.070312 253.796875 101.179688 248.773438 93.347656 C 244.597656 81.753906 238.816406 70.738281 231.199219 60.800781 C 223.578125 50.863281 214.050781 42.003906 202.613281 35.804688 C 186.496094 27.070312 167.507812 24.019531 148.441406 21.816406 C 125.707031 24.890625 101.914062 29.269531 84.5625 42.992188 C 68.707031 55.53125 60.511719 74.070312 52.867188 91.878906 C 47.46875 104.464844 42.058594 117.074219 37.984375 130.066406 C 35.589844 137.703125 33.699219 146.066406 37.019531 153.410156 C 39.589844 159.101562 45.933594 142.121094 50.074219 153.851562 C 53.816406 164.460938 66.496094 175.566406 76.996094 176.617188 Z M 76.996094 176.617188 " fill-opacity="1" fill-rule="nonzero"/><path fill="#ffffff" d="M 214.320312 176.617188 C 228.230469 171.515625 236.902344 172.78125 247.890625 162.824219 C 242.316406 155.53125 237.699219 147.511719 234.199219 139.027344 C 220.976562 128.519531 200.105469 137.03125 187.492188 127.066406 C 183.648438 124.027344 181.058594 119.695312 177.597656 116.226562 C 164.335938 102.949219 137.277344 102.988281 123.515625 116.226562 C 119.984375 119.625 117.464844 124.027344 113.621094 127.066406 C 101.007812 137.03125 80.136719 128.519531 66.914062 139.027344 C 63.410156 147.511719 58.796875 155.53125 53.222656 162.824219 C 64.207031 172.78125 78.273438 178.824219 92.683594 182.285156 C 107.089844 185.75 165.933594 194.359375 214.320312 176.617188 Z M 214.320312 176.617188 " fill-opacity="1" fill-rule="nonzero"/><path fill="#562c0f" d="M 92.410156 112.46875 C 88.714844 114.007812 84.800781 115.730469 82.613281 119.089844 C 81.851562 120.261719 81.332031 121.726562 81.777344 123.054688 C 82.242188 124.441406 83.679688 125.316406 85.121094 125.535156 C 86.566406 125.753906 88.03125 125.433594 89.453125 125.089844 C 92.554688 124.339844 95.636719 123.480469 98.59375 122.28125 C 100.300781 121.585938 102.007812 120.75 103.253906 119.394531 C 104.5 118.039062 105.210938 116.058594 104.632812 114.308594 C 104 112.390625 101.976562 111.207031 99.976562 110.960938 C 97.972656 110.714844 95.882812 111.019531 92.410156 112.46875 Z M 92.410156 112.46875 " fill-opacity="1" fill-rule="nonzero"/><path fill="#562c0f" d="M 202.28125 112.46875 C 205.945312 114.082031 209.828125 115.878906 211.945312 119.277344 C 212.6875 120.464844 213.179688 121.941406 212.707031 123.257812 C 212.214844 124.636719 210.761719 125.484375 209.3125 125.675781 C 207.867188 125.867188 206.40625 125.515625 204.992188 125.148438 C 201.90625 124.335938 198.839844 123.417969 195.90625 122.160156 C 194.214844 121.433594 192.527344 120.566406 191.304688 119.1875 C 190.082031 117.804688 189.410156 115.808594 190.023438 114.070312 C 190.695312 112.164062 192.738281 111.023438 194.746094 110.816406 C 196.753906 110.609375 198.835938 110.953125 202.28125 112.46875 Z M 202.28125 112.46875 " fill-opacity="1" fill-rule="nonzero"/><path fill="#eea269" d="M 130.292969 54.914062 C 130.253906 54.914062 130.21875 54.914062 130.183594 54.910156 C 129.125 54.851562 128.3125 53.945312 128.371094 52.882812 C 128.71875 46.671875 129.988281 40.527344 132.144531 34.628906 C 132.511719 33.632812 133.609375 33.121094 134.609375 33.488281 C 135.605469 33.851562 136.113281 34.957031 135.75 35.953125 C 133.722656 41.496094 132.527344 47.261719 132.207031 53.097656 C 132.148438 54.121094 131.300781 54.914062 130.292969 54.914062 Z M 130.292969 54.914062 " fill-opacity="1" fill-rule="nonzero"/><path fill="#eea269" d="M 148.566406 52.867188 C 148.460938 52.867188 148.351562 52.859375 148.242188 52.839844 C 147.199219 52.664062 146.496094 51.671875 146.671875 50.625 L 148.929688 37.265625 C 149.105469 36.222656 150.089844 35.507812 151.144531 35.691406 C 152.1875 35.871094 152.890625 36.863281 152.714844 37.910156 L 150.457031 51.269531 C 150.296875 52.207031 149.484375 52.867188 148.566406 52.867188 Z M 148.566406 52.867188 " fill-opacity="1" fill-rule="nonzero"/><path fill="#eea269" d="M 170.578125 57.476562 C 170.53125 57.476562 170.484375 57.472656 170.4375 57.472656 C 169.382812 57.398438 168.585938 56.476562 168.660156 55.417969 L 169.910156 37.699219 C 169.984375 36.640625 170.902344 35.871094 171.960938 35.917969 C 173.015625 35.992188 173.8125 36.914062 173.738281 37.972656 L 172.488281 55.691406 C 172.417969 56.703125 171.574219 57.476562 170.578125 57.476562 Z M 170.578125 57.476562 " fill-opacity="1" fill-rule="nonzero"/><path fill="#eea269" d="M 160.039062 83.433594 C 159.980469 83.433594 159.917969 83.429688 159.859375 83.421875 C 158.804688 83.324219 158.027344 82.390625 158.125 81.332031 L 159.863281 62.582031 C 159.960938 61.527344 160.890625 60.742188 161.953125 60.847656 C 163.007812 60.945312 163.785156 61.878906 163.6875 62.9375 L 161.945312 81.6875 C 161.855469 82.683594 161.019531 83.433594 160.039062 83.433594 Z M 160.039062 83.433594 " fill-opacity="1" fill-rule="nonzero"/><path fill="#eea269" d="M 142.925781 83.953125 C 142.886719 83.953125 142.847656 83.953125 142.8125 83.949219 C 141.753906 83.886719 140.945312 82.980469 141.003906 81.921875 L 141.851562 67.277344 C 141.914062 66.21875 142.832031 65.421875 143.878906 65.46875 C 144.9375 65.53125 145.746094 66.441406 145.683594 67.5 L 144.839844 82.140625 C 144.78125 83.164062 143.933594 83.953125 142.925781 83.953125 Z M 142.925781 83.953125 " fill-opacity="1" fill-rule="nonzero"/><path fill="#562c0f" d="M 142.980469 108.910156 C 142.101562 112.390625 144.128906 115.546875 147.496094 116.777344 C 150.863281 118.003906 154.886719 116.703125 157.1875 113.953125 C 158.125 112.832031 158.820312 111.445312 158.8125 109.984375 C 158.804688 108.527344 157.972656 107.023438 156.605469 106.519531 C 155.886719 106.253906 155.097656 106.273438 154.332031 106.296875 C 151.390625 106.394531 149.167969 106.488281 146.226562 106.582031 C 145.097656 106.621094 143.339844 107.5 142.980469 108.910156 Z M 142.980469 108.910156 " fill-opacity="1" fill-rule="nonzero"/><path fill="#562c0f" d="M 231.285156 252.84375 C 229.59375 252.84375 227.851562 252.675781 226.066406 252.34375 C 225.023438 252.148438 224.335938 251.148438 224.527344 250.101562 C 224.722656 249.058594 225.726562 248.367188 226.765625 248.5625 C 232.257812 249.589844 236.984375 248.84375 241.21875 246.296875 C 244.742188 244.183594 247.621094 241.042969 249.464844 237.347656 L 248.859375 237.457031 C 247.722656 237.664062 246.574219 237.171875 245.9375 236.207031 C 245.300781 235.242188 245.296875 233.996094 245.929688 233.027344 C 250.535156 226.003906 251.652344 217.257812 249.015625 209.742188 C 246.050781 214.972656 241.8125 219.476562 236.65625 222.84375 C 235.769531 223.421875 234.582031 223.171875 234 222.285156 C 233.421875 221.394531 233.671875 220.207031 234.558594 219.625 C 239.730469 216.246094 243.875 211.605469 246.546875 206.207031 C 247.046875 205.195312 247.984375 204.625 249.183594 204.601562 C 250.320312 204.625 251.3125 205.28125 251.777344 206.320312 C 255.566406 214.769531 254.953125 224.921875 250.257812 233.296875 L 250.542969 233.246094 C 251.578125 233.050781 252.632812 233.449219 253.296875 234.265625 C 253.964844 235.089844 254.136719 236.210938 253.738281 237.195312 C 251.667969 242.351562 247.921875 246.753906 243.195312 249.59375 C 239.597656 251.757812 235.605469 252.84375 231.285156 252.84375 Z M 231.285156 252.84375 " fill-opacity="1" fill-rule="nonzero"/><path fill="#562c0f" d="M 143.4375 282.382812 C 127.675781 282.382812 112.492188 280.8125 101.988281 278.128906 C 100.960938 277.867188 100.339844 276.824219 100.605469 275.792969 C 100.863281 274.765625 101.90625 274.136719 102.9375 274.40625 C 123.4375 279.640625 162.191406 280.542969 187.214844 273.539062 C 188.238281 273.246094 189.292969 273.851562 189.578125 274.871094 C 189.863281 275.894531 189.269531 276.953125 188.246094 277.238281 C 175.457031 280.820312 159.160156 282.382812 143.4375 282.382812 Z M 143.4375 282.382812 " fill-opacity="1" fill-rule="nonzero"/><path fill="#562c0f" d="M 63.570312 252.90625 C 62.984375 252.90625 62.40625 252.636719 62.03125 252.132812 C 61.726562 251.722656 61.417969 251.324219 61.113281 250.925781 C 59.816406 249.238281 58.476562 247.496094 57.039062 244.71875 C 50.175781 231.429688 48.8125 214.425781 53.304688 198.0625 C 55.699219 189.332031 61.644531 178.703125 66.210938 171.324219 C 66.769531 170.421875 67.953125 170.140625 68.851562 170.699219 C 69.753906 171.261719 70.03125 172.445312 69.472656 173.347656 C 65.039062 180.511719 59.28125 190.792969 57.003906 199.078125 C 52.765625 214.523438 54.023438 230.511719 60.449219 242.953125 C 61.726562 245.425781 62.90625 246.957031 64.152344 248.578125 C 64.472656 248.992188 64.789062 249.40625 65.109375 249.832031 C 65.742188 250.683594 65.566406 251.890625 64.714844 252.523438 C 64.371094 252.78125 63.96875 252.90625 63.570312 252.90625 Z M 63.570312 252.90625 " fill-opacity="1" fill-rule="nonzero"/><path fill="#ffffff" d="M 108.714844 259.597656 C 109.058594 267.894531 104.746094 276.667969 97.125 279.9375 C 89.558594 283.183594 80.539062 280.457031 74.027344 275.417969 C 70.523438 272.710938 67.480469 269.304688 65.660156 265.261719 C 63.84375 261.21875 63.324219 256.507812 64.726562 252.304688 C 66.4375 247.183594 70.730469 242.554688 75.308594 239.703125 C 79.421875 237.144531 83.988281 235.5625 88.828125 235.5625 C 103.609375 235.5625 108.367188 251.300781 108.714844 259.597656 Z M 108.714844 259.597656 " fill-opacity="1" fill-rule="nonzero"/><path fill="#562c0f" d="M 90.042969 283.28125 C 83.566406 283.28125 77.292969 280.375 72.851562 276.941406 C 68.738281 273.757812 65.730469 270.09375 63.910156 266.050781 C 61.796875 261.355469 61.429688 256.121094 62.90625 251.695312 C 64.628906 246.53125 68.886719 241.4375 74.292969 238.070312 C 79.015625 235.132812 83.90625 233.640625 88.828125 233.640625 C 104.035156 233.640625 110.195312 249.117188 110.628906 259.519531 C 111.03125 269.1875 105.789062 278.3125 97.878906 281.707031 C 95.304688 282.808594 92.660156 283.28125 90.042969 283.28125 Z M 88.828125 237.484375 C 84.632812 237.484375 80.425781 238.78125 76.320312 241.335938 C 71.71875 244.199219 67.972656 248.636719 66.546875 252.914062 C 65.375 256.433594 65.6875 260.644531 67.410156 264.472656 C 68.96875 267.933594 71.589844 271.105469 75.199219 273.898438 C 80.566406 278.054688 88.945312 281.359375 96.367188 278.171875 C 102.84375 275.394531 107.132812 267.789062 106.796875 259.675781 C 106.476562 252 102.308594 237.484375 88.828125 237.484375 Z M 88.828125 237.484375 " fill-opacity="1" fill-rule="nonzero"/><path fill="#562c0f" d="M 225.835938 251.488281 C 225.464844 251.488281 225.089844 251.382812 224.761719 251.15625 C 223.882812 250.5625 223.652344 249.367188 224.25 248.488281 C 225.039062 247.328125 225.46875 246.398438 226.019531 245.226562 C 226.332031 244.550781 226.675781 243.816406 227.125 242.953125 C 233.550781 230.511719 234.804688 214.523438 230.566406 199.078125 C 229.085938 193.683594 225.898438 183.445312 221.171875 175.503906 C 220.628906 174.589844 220.925781 173.410156 221.835938 172.867188 C 222.75 172.324219 223.925781 172.625 224.46875 173.535156 C 229.425781 181.867188 232.734375 192.476562 234.269531 198.058594 C 238.757812 214.425781 237.398438 231.429688 230.53125 244.71875 C 230.113281 245.53125 229.792969 246.21875 229.496094 246.851562 C 228.898438 248.128906 228.386719 249.230469 227.425781 250.648438 C 227.054688 251.195312 226.449219 251.488281 225.835938 251.488281 Z M 225.835938 251.488281 " fill-opacity="1" fill-rule="nonzero"/><path fill="#ffffff" d="M 182.324219 259.597656 C 181.976562 267.894531 186.289062 276.667969 193.914062 279.9375 C 201.476562 283.183594 210.496094 280.457031 217.011719 275.417969 C 220.511719 272.710938 223.554688 269.304688 225.375 265.261719 C 227.195312 261.21875 227.710938 256.507812 226.308594 252.304688 C 224.601562 247.183594 220.308594 242.554688 215.730469 239.703125 C 211.617188 237.144531 207.050781 235.5625 202.207031 235.5625 C 187.425781 235.5625 182.667969 251.300781 182.324219 259.597656 Z M 182.324219 259.597656 " fill-opacity="1" fill-rule="nonzero"/><path fill="#562c0f" d="M 200.992188 283.28125 C 198.378906 283.28125 195.730469 282.808594 193.15625 281.707031 C 185.246094 278.3125 180.003906 269.1875 180.40625 259.519531 C 180.839844 249.117188 187.003906 233.640625 202.207031 233.640625 C 207.128906 233.640625 212.019531 235.132812 216.742188 238.070312 C 222.148438 241.4375 226.40625 246.53125 228.128906 251.695312 C 229.605469 256.121094 229.242188 261.351562 227.125 266.050781 C 225.304688 270.09375 222.296875 273.757812 218.183594 276.941406 C 213.746094 280.375 207.46875 283.28125 200.992188 283.28125 Z M 184.242188 259.675781 C 183.902344 267.789062 188.191406 275.394531 194.667969 278.171875 C 202.09375 281.359375 210.46875 278.054688 215.835938 273.898438 C 219.445312 271.105469 222.066406 267.933594 223.625 264.472656 C 225.347656 260.644531 225.664062 256.433594 224.488281 252.914062 C 223.0625 248.636719 219.316406 244.199219 214.714844 241.335938 C 210.609375 238.78125 206.402344 237.484375 202.207031 237.484375 C 188.726562 237.484375 184.5625 252 184.242188 259.675781 Z M 184.242188 259.675781 " fill-opacity="1" fill-rule="nonzero"/><path fill="#562c0f" d="M 76.992188 178.539062 C 76.753906 178.539062 76.511719 178.496094 76.277344 178.398438 C 66.632812 174.503906 57.746094 169.136719 50.574219 162.875 C 49.777344 162.175781 49.695312 160.960938 50.390625 160.164062 C 51.085938 159.367188 52.300781 159.28125 53.097656 159.976562 C 59.949219 165.960938 68.460938 171.097656 77.710938 174.835938 C 78.695312 175.230469 79.171875 176.351562 78.773438 177.335938 C 78.472656 178.085938 77.753906 178.539062 76.992188 178.539062 Z M 76.992188 178.539062 " fill-opacity="1" fill-rule="nonzero"/><path fill="#562c0f" d="M 212.890625 178.804688 C 211.972656 178.804688 211.160156 178.144531 211 177.207031 C 210.820312 176.160156 211.523438 175.167969 212.566406 174.988281 C 225.78125 172.714844 234.652344 167.78125 237.851562 165.765625 C 240.804688 163.90625 243.605469 161.855469 246.175781 159.679688 C 246.980469 158.992188 248.195312 159.09375 248.878906 159.902344 C 249.5625 160.714844 249.464844 161.925781 248.652344 162.613281 C 245.949219 164.90625 243 167.0625 239.894531 169.019531 C 236.5 171.15625 227.109375 176.386719 213.21875 178.777344 C 213.105469 178.796875 213 178.804688 212.890625 178.804688 Z M 212.890625 178.804688 " fill-opacity="1" fill-rule="nonzero"/><path fill="#eea269" d="M 283.527344 151.875 C 287.355469 149.199219 290.757812 145.945312 293.070312 142.085938 C 295.382812 138.226562 296.558594 133.738281 295.929688 129.382812 C 295.25 124.703125 292.585938 120.472656 289.820312 116.480469 C 284.875 109.339844 279.4375 102.488281 274.007812 95.648438 C 267.410156 83.648438 264.257812 70.6875 258.183594 58.816406 C 252.109375 46.945312 242.148438 35.695312 228.273438 32.253906 C 218.535156 29.839844 208.207031 31.5625 198.292969 33.296875 C 199.878906 34.332031 201.464844 35.371094 203.050781 36.410156 C 210.105469 40.996094 216.496094 46.816406 221.214844 54.316406 C 219.523438 66.992188 219.75 79.878906 221.441406 93.414062 C 223.007812 109.25 228.0625 124.789062 236.074219 139.777344 C 238.101562 148.453125 242.902344 156.574219 249.742188 162.890625 C 252.644531 165.566406 256.085938 168.003906 260.148438 168.6875 C 265.441406 169.574219 270.894531 167.261719 274.742188 163.839844 C 278.589844 160.414062 279.472656 154.703125 283.527344 151.875 Z M 283.527344 151.875 " fill-opacity="1" fill-rule="nonzero"/><path fill="#562c0f" d="M 282.773438 153.121094 C 281.871094 153.121094 281.070312 152.488281 280.890625 151.570312 C 280.6875 150.527344 281.363281 149.519531 282.40625 149.316406 C 290.6875 147.691406 292.546875 139.984375 293.910156 134.359375 C 295.839844 126.375 290.527344 119.839844 283.804688 111.5625 C 277.667969 104.007812 270.710938 95.445312 267.285156 83.433594 C 260.679688 60.25 249.921875 44.617188 235.316406 36.960938 C 219.699219 28.777344 204.503906 32.503906 198.695312 34.488281 C 197.691406 34.832031 196.601562 34.292969 196.257812 33.289062 C 195.917969 32.285156 196.453125 31.191406 197.457031 30.851562 C 210.726562 26.320312 225.171875 27.308594 237.09375 33.554688 C 252.671875 41.71875 264.070312 58.144531 270.976562 82.378906 C 274.183594 93.632812 280.875 101.867188 286.78125 109.136719 C 293.882812 117.878906 300.015625 125.425781 297.648438 135.234375 C 296.21875 141.144531 293.839844 150.988281 283.144531 153.085938 C 283.019531 153.113281 282.894531 153.121094 282.773438 153.121094 Z M 282.773438 153.121094 " fill-opacity="1" fill-rule="nonzero"/><path fill="#562c0f" d="M 262.292969 169.75 C 261.050781 169.75 259.785156 169.625 258.507812 169.363281 C 249.425781 167.5 243.964844 159.574219 240.222656 152.875 C 223.386719 122.753906 216.09375 87.636719 219.691406 53.992188 C 219.800781 52.9375 220.753906 52.171875 221.800781 52.285156 C 222.855469 52.398438 223.621094 53.34375 223.507812 54.398438 C 219.996094 87.261719 227.121094 121.566406 243.570312 150.996094 C 246.914062 156.980469 251.722656 164.046875 259.28125 165.597656 C 266.792969 167.136719 274.382812 162.390625 277.992188 156.902344 C 282.121094 150.621094 282.835938 142.878906 282.996094 136.132812 C 283.019531 135.085938 283.871094 134.253906 284.910156 134.253906 C 284.925781 134.253906 284.941406 134.253906 284.957031 134.253906 C 286.019531 134.28125 286.855469 135.160156 286.832031 136.222656 C 286.660156 143.511719 285.859375 151.921875 281.199219 159.015625 C 277.566406 164.535156 270.402344 169.75 262.292969 169.75 Z M 262.292969 169.75 " fill-opacity="1" fill-rule="nonzero"/><path fill="#eea269" d="M 16.539062 151.875 C 12.707031 149.199219 9.308594 145.945312 6.996094 142.085938 C 4.683594 138.226562 3.503906 133.738281 4.136719 129.382812 C 4.8125 124.703125 7.480469 120.472656 10.246094 116.480469 C 15.191406 109.339844 20.625 102.488281 26.058594 95.648438 C 32.65625 83.648438 35.804688 70.6875 41.878906 58.816406 C 47.953125 46.945312 57.914062 35.695312 71.792969 32.253906 C 81.53125 29.839844 91.859375 31.5625 101.769531 33.296875 C 100.183594 34.332031 98.597656 35.371094 97.011719 36.410156 C 89.960938 40.996094 83.566406 46.816406 78.851562 54.316406 C 80.542969 66.992188 80.316406 79.878906 78.625 93.414062 C 77.054688 109.25 72.003906 124.789062 63.992188 139.777344 C 61.964844 148.453125 57.160156 156.574219 50.320312 162.890625 C 47.417969 165.566406 43.976562 168.003906 39.914062 168.6875 C 34.621094 169.574219 29.171875 167.261719 25.324219 163.839844 C 21.476562 160.414062 20.59375 154.703125 16.539062 151.875 Z M 16.539062 151.875 " fill-opacity="1" fill-rule="nonzero"/><path fill="#562c0f" d="M 17.253906 153.121094 C 17.132812 153.121094 17.007812 153.113281 16.882812 153.085938 C 6.183594 150.988281 3.804688 141.144531 2.386719 135.261719 C 0.0078125 125.425781 6.144531 117.878906 13.242188 109.136719 C 19.148438 101.867188 25.839844 93.632812 29.046875 82.378906 C 35.953125 58.144531 47.355469 41.71875 62.929688 33.554688 C 74.851562 27.308594 89.296875 26.324219 102.570312 30.851562 C 103.574219 31.191406 104.109375 32.285156 103.765625 33.289062 C 103.425781 34.292969 102.335938 34.828125 101.332031 34.488281 C 95.523438 32.507812 80.328125 28.777344 64.710938 36.960938 C 50.101562 44.617188 39.347656 60.25 32.738281 83.433594 C 29.316406 95.445312 22.359375 104.007812 16.222656 111.5625 C 9.496094 119.839844 4.1875 126.375 6.109375 134.332031 C 7.476562 139.984375 9.335938 147.691406 17.621094 149.316406 C 18.660156 149.519531 19.339844 150.527344 19.136719 151.570312 C 18.957031 152.488281 18.152344 153.121094 17.253906 153.121094 Z M 17.253906 153.121094 " fill-opacity="1" fill-rule="nonzero"/><path fill="#562c0f" d="M 37.734375 169.75 C 29.621094 169.75 22.457031 164.535156 18.828125 159.015625 C 14.167969 151.925781 13.363281 143.511719 13.195312 136.222656 C 13.167969 135.160156 14.007812 134.28125 15.066406 134.253906 C 16.082031 134.148438 17.007812 135.070312 17.03125 136.132812 C 17.1875 142.878906 17.90625 150.621094 22.035156 156.902344 C 25.640625 162.390625 33.226562 167.132812 40.746094 165.597656 C 48.300781 164.046875 53.109375 156.980469 56.457031 150.996094 C 72.90625 121.566406 80.03125 87.257812 76.519531 54.398438 C 76.40625 53.34375 77.167969 52.398438 78.222656 52.285156 C 79.28125 52.171875 80.222656 52.933594 80.335938 53.992188 C 83.929688 87.636719 76.640625 122.753906 59.804688 152.875 C 56.0625 159.574219 50.597656 167.5 41.515625 169.363281 C 40.238281 169.625 38.976562 169.75 37.734375 169.75 Z M 37.734375 169.75 " fill-opacity="1" fill-rule="nonzero"/><path fill="#562c0f" d="M 160 125.789062 C 159.128906 125.789062 158.261719 125.699219 157.40625 125.507812 C 153.675781 124.683594 150.636719 121.914062 149.070312 117.914062 C 148.683594 116.925781 149.167969 115.808594 150.15625 115.421875 C 151.140625 115.03125 152.257812 115.523438 152.640625 116.507812 C 153.734375 119.296875 155.773438 121.210938 158.238281 121.753906 C 160.902344 122.347656 163.902344 121.507812 165.875 119.625 C 166.640625 118.890625 167.859375 118.917969 168.589844 119.6875 C 169.320312 120.457031 169.292969 121.671875 168.523438 122.40625 C 166.238281 124.585938 163.128906 125.789062 160 125.789062 Z M 160 125.789062 " fill-opacity="1" fill-rule="nonzero"/><path fill="#562c0f" d="M 141.347656 125.789062 C 138.214844 125.789062 135.109375 124.585938 132.824219 122.40625 C 132.054688 121.671875 132.027344 120.457031 132.757812 119.6875 C 133.488281 118.921875 134.707031 118.894531 135.472656 119.625 C 137.445312 121.511719 140.445312 122.347656 143.109375 121.753906 C 145.707031 121.179688 148.046875 119.121094 149.070312 116.507812 C 149.457031 115.523438 150.566406 115.035156 151.558594 115.421875 C 152.542969 115.808594 153.03125 116.925781 152.644531 117.914062 C 151.144531 121.742188 147.808594 124.652344 143.9375 125.507812 C 143.085938 125.699219 142.214844 125.789062 141.347656 125.789062 Z M 141.347656 125.789062 " fill-opacity="1" fill-rule="nonzero"/><path fill="#562c0f" d="M 150.203125 119.167969 C 149.058594 119.167969 147.921875 118.976562 146.839844 118.582031 C 142.371094 116.953125 140.023438 112.78125 141.121094 108.4375 C 141.691406 106.1875 144.183594 104.726562 146.164062 104.664062 L 154.269531 104.378906 C 155.125 104.351562 156.1875 104.316406 157.269531 104.714844 C 159.296875 105.464844 160.71875 107.628906 160.730469 109.976562 C 160.742188 112.222656 159.613281 114.050781 158.660156 115.1875 C 156.527344 117.734375 153.347656 119.167969 150.203125 119.167969 Z M 144.839844 109.382812 C 144.234375 111.78125 145.566406 114.027344 148.152344 114.96875 C 150.679688 115.890625 153.855469 114.945312 155.71875 112.71875 C 156.480469 111.808594 156.898438 110.839844 156.890625 109.996094 C 156.886719 109.253906 156.46875 108.515625 155.9375 108.320312 C 155.5625 108.183594 154.96875 108.199219 154.390625 108.21875 L 146.289062 108.503906 C 145.769531 108.519531 144.929688 109.03125 144.839844 109.382812 Z M 144.839844 109.382812 " fill-opacity="1" fill-rule="nonzero"/><path fill="#562c0f" d="M 206.945312 40.335938 C 206.609375 40.335938 206.265625 40.25 205.957031 40.0625 C 172.65625 19.941406 128.222656 19.683594 95.386719 39.414062 C 94.476562 39.960938 93.296875 39.664062 92.753906 38.757812 C 92.207031 37.847656 92.503906 36.664062 93.410156 36.121094 C 127.433594 15.675781 173.457031 15.9375 207.9375 36.769531 C 208.847656 37.320312 209.136719 38.5 208.589844 39.410156 C 208.230469 40.007812 207.597656 40.335938 206.945312 40.335938 Z M 206.945312 40.335938 " fill-opacity="1" fill-rule="nonzero"/><path fill="#834e6b" d="M 110.679688 279.113281 L 110.679688 180.5 C 110.679688 176.230469 114.167969 172.769531 118.472656 172.769531 L 171.722656 172.769531 C 176.027344 172.769531 179.515625 176.230469 179.515625 180.5 L 179.515625 279.316406 C 179.515625 281.242188 177.9375 282.808594 175.996094 282.808594 L 114.402344 282.808594 C 112.347656 282.808594 110.679688 281.152344 110.679688 279.113281 Z M 110.679688 279.113281 " fill-opacity="1" fill-rule="nonzero"/><path fill="#834e6b" d="M 119.816406 163.132812 L 170.375 163.132812 L 170.375 176.433594 L 119.816406 176.433594 Z M 119.816406 163.132812 " fill-opacity="1" fill-rule="nonzero"/><path fill="#f3b2bd" d="M 166.492188 227.789062 C 166.492188 228.484375 166.460938 229.175781 166.390625 229.871094 C 166.320312 230.5625 166.21875 231.25 166.082031 231.929688 C 165.945312 232.613281 165.777344 233.285156 165.574219 233.953125 C 165.367188 234.617188 165.132812 235.273438 164.863281 235.914062 C 164.597656 236.558594 164.296875 237.183594 163.96875 237.796875 C 163.636719 238.410156 163.277344 239.007812 162.886719 239.585938 C 162.5 240.164062 162.082031 240.722656 161.636719 241.261719 C 161.191406 241.796875 160.722656 242.3125 160.226562 242.804688 C 159.730469 243.296875 159.210938 243.761719 158.671875 244.203125 C 158.128906 244.644531 157.566406 245.058594 156.984375 245.445312 C 156.402344 245.832031 155.800781 246.1875 155.183594 246.515625 C 154.566406 246.84375 153.933594 247.140625 153.285156 247.40625 C 152.636719 247.675781 151.980469 247.910156 151.308594 248.109375 C 150.636719 248.3125 149.957031 248.480469 149.273438 248.617188 C 148.585938 248.753906 147.890625 248.855469 147.195312 248.921875 C 146.496094 248.992188 145.796875 249.023438 145.097656 249.023438 C 144.398438 249.023438 143.699219 248.992188 143 248.921875 C 142.300781 248.855469 141.609375 248.753906 140.921875 248.617188 C 140.234375 248.480469 139.558594 248.3125 138.886719 248.109375 C 138.214844 247.910156 137.558594 247.675781 136.910156 247.40625 C 136.261719 247.140625 135.628906 246.84375 135.011719 246.515625 C 134.394531 246.1875 133.792969 245.832031 133.210938 245.445312 C 132.628906 245.058594 132.066406 244.644531 131.523438 244.203125 C 130.980469 243.761719 130.464844 243.296875 129.96875 242.804688 C 129.472656 242.3125 129.003906 241.796875 128.558594 241.261719 C 128.113281 240.722656 127.695312 240.164062 127.308594 239.585938 C 126.917969 239.007812 126.558594 238.410156 126.226562 237.796875 C 125.898438 237.183594 125.597656 236.558594 125.328125 235.914062 C 125.0625 235.273438 124.824219 234.617188 124.621094 233.953125 C 124.417969 233.285156 124.25 232.613281 124.113281 231.929688 C 123.976562 231.25 123.871094 230.5625 123.804688 229.871094 C 123.734375 229.175781 123.699219 228.484375 123.699219 227.789062 C 123.699219 227.09375 123.734375 226.398438 123.804688 225.707031 C 123.871094 225.015625 123.976562 224.328125 124.113281 223.644531 C 124.25 222.960938 124.417969 222.289062 124.621094 221.621094 C 124.824219 220.957031 125.0625 220.304688 125.328125 219.660156 C 125.597656 219.019531 125.898438 218.390625 126.226562 217.777344 C 126.558594 217.164062 126.917969 216.566406 127.308594 215.988281 C 127.695312 215.410156 128.113281 214.851562 128.558594 214.316406 C 129.003906 213.777344 129.472656 213.261719 129.96875 212.769531 C 130.464844 212.277344 130.980469 211.8125 131.523438 211.371094 C 132.066406 210.929688 132.628906 210.515625 133.210938 210.128906 C 133.792969 209.742188 134.394531 209.386719 135.011719 209.058594 C 135.628906 208.730469 136.261719 208.433594 136.910156 208.167969 C 137.558594 207.902344 138.214844 207.667969 138.886719 207.464844 C 139.558594 207.261719 140.234375 207.09375 140.921875 206.957031 C 141.609375 206.824219 142.300781 206.722656 143 206.652344 C 143.699219 206.585938 144.398438 206.550781 145.097656 206.550781 C 145.796875 206.550781 146.496094 206.585938 147.195312 206.652344 C 147.890625 206.722656 148.585938 206.824219 149.273438 206.957031 C 149.957031 207.09375 150.636719 207.261719 151.308594 207.464844 C 151.980469 207.667969 152.636719 207.902344 153.285156 208.167969 C 153.933594 208.433594 154.566406 208.730469 155.183594 209.058594 C 155.800781 209.386719 156.402344 209.742188 156.984375 210.128906 C 157.566406 210.515625 158.128906 210.929688 158.671875 211.371094 C 159.210938 211.8125 159.730469 212.277344 160.226562 212.769531 C 160.722656 213.261719 161.191406 213.777344 161.636719 214.316406 C 162.082031 214.851562 162.5 215.410156 162.886719 215.988281 C 163.277344 216.566406 163.636719 217.164062 163.96875 217.777344 C 164.296875 218.390625 164.597656 219.019531 164.863281 219.660156 C 165.132812 220.304688 165.367188 220.957031 165.570312 221.621094 C 165.777344 222.289062 165.945312 222.960938 166.082031 223.644531 C 166.21875 224.328125 166.320312 225.015625 166.390625 225.707031 C 166.460938 226.398438 166.492188 227.09375 166.492188 227.789062 Z M 166.492188 227.789062 " fill-opacity="1" fill-rule="nonzero"/><path fill="#f2eef2" d="M 110.679688 159.625 L 110.679688 139.394531 C 110.679688 136.464844 113.070312 134.09375 116.023438 134.09375 L 174.171875 134.09375 C 177.121094 134.09375 179.515625 136.464844 179.515625 139.394531 L 179.515625 159.625 C 179.515625 162.554688 177.121094 164.925781 174.171875 164.925781 L 116.023438 164.925781 C 113.070312 164.925781 110.679688 162.554688 110.679688 159.625 Z M 110.679688 159.625 " fill-opacity="1" fill-rule="nonzero"/><path fill="#f3b2bd" d="M 117.84375 158.953125 L 117.84375 140.066406 C 117.84375 140.023438 117.878906 139.988281 117.921875 139.988281 L 119.285156 139.988281 C 119.328125 139.988281 119.363281 140.023438 119.363281 140.066406 L 119.363281 158.953125 C 119.363281 158.996094 119.328125 159.03125 119.285156 159.03125 L 117.921875 159.03125 C 117.878906 159.03125 117.84375 158.996094 117.84375 158.953125 Z M 117.84375 158.953125 " fill-opacity="1" fill-rule="nonzero"/><path fill="#f3b2bd" d="M 128.441406 158.953125 L 128.441406 140.066406 C 128.441406 140.023438 128.476562 139.988281 128.519531 139.988281 L 129.882812 139.988281 C 129.925781 139.988281 129.960938 140.023438 129.960938 140.066406 L 129.960938 158.953125 C 129.960938 158.996094 129.925781 159.03125 129.882812 159.03125 L 128.519531 159.03125 C 128.476562 159.03125 128.441406 158.996094 128.441406 158.953125 Z M 128.441406 158.953125 " fill-opacity="1" fill-rule="nonzero"/><path fill="#f3b2bd" d="M 139.035156 158.953125 L 139.035156 140.066406 C 139.035156 140.023438 139.074219 139.988281 139.117188 139.988281 L 140.480469 139.988281 C 140.523438 139.988281 140.558594 140.023438 140.558594 140.066406 L 140.558594 158.953125 C 140.558594 158.996094 140.523438 159.03125 140.480469 159.03125 L 139.117188 159.03125 C 139.074219 159.03125 139.035156 158.996094 139.035156 158.953125 Z M 139.035156 158.953125 " fill-opacity="1" fill-rule="nonzero"/><path fill="#f3b2bd" d="M 149.632812 158.953125 L 149.632812 140.066406 C 149.632812 140.023438 149.671875 139.988281 149.714844 139.988281 L 151.078125 139.988281 C 151.121094 139.988281 151.15625 140.023438 151.15625 140.066406 L 151.15625 158.953125 C 151.15625 158.996094 151.121094 159.03125 151.078125 159.03125 L 149.714844 159.03125 C 149.667969 159.03125 149.632812 158.996094 149.632812 158.953125 Z M 149.632812 158.953125 " fill-opacity="1" fill-rule="nonzero"/><path fill="#f3b2bd" d="M 160.230469 158.953125 L 160.230469 140.066406 C 160.230469 140.023438 160.265625 139.988281 160.3125 139.988281 L 161.675781 139.988281 C 161.71875 139.988281 161.753906 140.023438 161.753906 140.066406 L 161.753906 158.953125 C 161.753906 158.996094 161.71875 159.03125 161.675781 159.03125 L 160.3125 159.03125 C 160.265625 159.03125 160.230469 158.996094 160.230469 158.953125 Z M 160.230469 158.953125 " fill-opacity="1" fill-rule="nonzero"/><path fill="#f3b2bd" d="M 170.828125 158.953125 L 170.828125 140.066406 C 170.828125 140.023438 170.863281 139.988281 170.910156 139.988281 L 172.273438 139.988281 C 172.316406 139.988281 172.351562 140.023438 172.351562 140.066406 L 172.351562 158.953125 C 172.351562 158.996094 172.316406 159.03125 172.273438 159.03125 L 170.910156 159.03125 C 170.863281 159.03125 170.828125 158.996094 170.828125 158.953125 Z M 170.828125 158.953125 " fill-opacity="1" fill-rule="nonzero"/><path fill="#f2eef2" d="M 140.222656 212.976562 L 149.96875 212.976562 L 149.96875 242.601562 L 140.222656 242.601562 Z M 140.222656 212.976562 " fill-opacity="1" fill-rule="nonzero"/><path fill="#f2eef2" d="M 160.019531 222.949219 L 160.019531 232.625 L 130.171875 232.625 L 130.171875 222.949219 Z M 160.019531 222.949219 " fill-opacity="1" fill-rule="nonzero"/><g clip-path="url(#0e7b5a7288)"><path fill="#562c0f" d="M 175.550781 284.730469 L 115.140625 284.730469 C 111.625 284.730469 108.761719 281.863281 108.761719 278.339844 L 108.761719 183.53125 C 108.761719 176.535156 114.441406 170.847656 121.425781 170.847656 L 168.351562 170.847656 C 175.566406 170.847656 181.433594 176.722656 181.433594 183.945312 L 181.433594 278.839844 C 181.433594 282.085938 178.792969 284.730469 175.550781 284.730469 Z M 121.425781 174.691406 C 116.558594 174.691406 112.601562 178.65625 112.601562 183.53125 L 112.601562 278.339844 C 112.601562 279.742188 113.742188 280.886719 115.140625 280.886719 L 175.550781 280.886719 C 176.679688 280.886719 177.59375 279.96875 177.59375 278.839844 L 177.59375 183.945312 C 177.59375 178.84375 173.449219 174.691406 168.351562 174.691406 Z M 121.425781 174.691406 " fill-opacity="1" fill-rule="nonzero"/></g><path fill="#562c0f" d="M 170.375 174.691406 C 169.316406 174.691406 168.457031 173.828125 168.457031 172.769531 L 168.457031 164.953125 C 168.457031 163.894531 169.316406 163.03125 170.375 163.03125 C 171.4375 163.03125 172.296875 163.894531 172.296875 164.953125 L 172.296875 172.769531 C 172.296875 173.828125 171.4375 174.691406 170.375 174.691406 Z M 170.375 174.691406 " fill-opacity="1" fill-rule="nonzero"/><path fill="#562c0f" d="M 119.816406 174.691406 C 118.757812 174.691406 117.898438 173.828125 117.898438 172.769531 L 117.898438 164.925781 C 117.898438 163.867188 118.757812 163.003906 119.816406 163.003906 C 120.878906 163.003906 121.738281 163.867188 121.738281 164.925781 L 121.738281 172.769531 C 121.738281 173.828125 120.878906 174.691406 119.816406 174.691406 Z M 119.816406 174.691406 " fill-opacity="1" fill-rule="nonzero"/><path fill="#562c0f" d="M 145.097656 250.945312 C 132.242188 250.945312 121.78125 240.558594 121.78125 227.789062 C 121.78125 215.019531 132.242188 204.628906 145.097656 204.628906 C 157.953125 204.628906 168.414062 215.019531 168.414062 227.789062 C 168.414062 240.558594 157.953125 250.945312 145.097656 250.945312 Z M 145.097656 208.472656 C 134.359375 208.472656 125.621094 217.136719 125.621094 227.789062 C 125.621094 238.4375 134.359375 247.101562 145.097656 247.101562 C 155.835938 247.101562 164.574219 238.4375 164.574219 227.789062 C 164.574219 217.136719 155.835938 208.472656 145.097656 208.472656 Z M 145.097656 208.472656 " fill-opacity="1" fill-rule="nonzero"/><path fill="#562c0f" d="M 172.800781 166.847656 L 117.390625 166.847656 C 112.632812 166.847656 108.761719 162.972656 108.761719 158.207031 L 108.761719 140.8125 C 108.761719 136.046875 112.632812 132.171875 117.390625 132.171875 L 172.800781 132.171875 C 177.5625 132.171875 181.433594 136.046875 181.433594 140.8125 L 181.433594 158.207031 C 181.433594 162.972656 177.5625 166.847656 172.800781 166.847656 Z M 117.390625 136.015625 C 114.75 136.015625 112.601562 138.167969 112.601562 140.8125 L 112.601562 158.207031 C 112.601562 160.851562 114.75 163.003906 117.390625 163.003906 L 172.800781 163.003906 C 175.445312 163.003906 177.59375 160.851562 177.59375 158.207031 L 177.59375 140.8125 C 177.59375 138.167969 175.445312 136.015625 172.800781 136.015625 Z M 117.390625 136.015625 " fill-opacity="1" fill-rule="nonzero"/><path fill="#eeb87a" d="M 195.945312 188.644531 C 200.800781 194.253906 204.382812 200.988281 206.347656 208.195312 C 207.820312 213.609375 208.117188 220.144531 204.203125 224.160156 C 201.617188 226.820312 197.765625 227.722656 194.113281 228.0625 C 188.25 228.601562 182.296875 227.996094 176.679688 226.28125 C 170.460938 224.382812 164.011719 220.257812 162.992188 213.742188 C 162.195312 208.625 165.128906 203.476562 169.152344 200.253906 C 173.175781 197.03125 178.152344 195.363281 183.015625 193.75 C 187.28125 192.339844 191.546875 190.925781 195.945312 188.644531 Z M 195.945312 188.644531 " fill-opacity="1" fill-rule="nonzero"/><path fill="#ffffff" d="M 184.109375 193.46875 C 191.917969 203.175781 195.074219 216.476562 192.464844 228.664062 C 184.433594 229.574219 176.441406 227.910156 169.875 223.191406 C 168.089844 221.910156 165.703125 219.351562 164.660156 217.410156 C 163.378906 215.027344 162.441406 212.234375 162.863281 209.5625 C 163.269531 206.972656 165.695312 203.570312 167.476562 201.648438 C 171.589844 197.203125 179.203125 197.785156 184.109375 193.46875 Z M 184.109375 193.46875 " fill-opacity="1" fill-rule="nonzero"/><path fill="#562c0f" d="M 188.417969 230.464844 C 183.761719 230.464844 179.097656 229.609375 174.789062 227.894531 C 167.707031 225.070312 160.679688 218.675781 160.949219 210.75 C 161.214844 202.859375 168.484375 197.242188 175.195312 194.613281 C 177.710938 193.628906 180.320312 192.871094 182.847656 192.140625 C 187.027344 190.925781 190.976562 189.78125 194.472656 187.707031 C 195.386719 187.167969 196.5625 187.472656 197.101562 188.382812 C 197.640625 189.296875 197.339844 190.476562 196.429688 191.015625 C 192.511719 193.335938 188.140625 194.605469 183.914062 195.832031 C 181.46875 196.539062 178.945312 197.273438 176.59375 198.191406 C 171.019531 200.375 164.988281 204.855469 164.785156 210.878906 C 164.582031 216.941406 170.375 221.996094 176.207031 224.320312 C 184.40625 227.589844 194.039062 227.375 201.972656 223.742188 C 202.9375 223.300781 204.074219 223.726562 204.515625 224.691406 C 204.957031 225.65625 204.53125 226.796875 203.566406 227.238281 C 198.875 229.386719 193.652344 230.464844 188.417969 230.464844 Z M 188.417969 230.464844 " fill-opacity="1" fill-rule="nonzero"/><path fill="#eeb87a" d="M 95.753906 189.191406 C 90.210938 196.855469 87.613281 206.277344 88.515625 215.4375 C 88.75 217.8125 89.316406 220.355469 91.230469 221.96875 C 93.316406 223.730469 96.417969 223.914062 99.25 223.941406 C 106.242188 224.015625 113.554688 223.65625 119.621094 220.464844 C 125.683594 217.273438 130.011719 210.441406 127.785156 204.359375 C 125.785156 198.90625 119.472656 195.859375 113.441406 194.289062 C 107.40625 192.71875 100.925781 191.996094 95.753906 189.191406 Z M 95.753906 189.191406 " fill-opacity="1" fill-rule="nonzero"/><path fill="#ffffff" d="M 108.425781 192.929688 C 103.933594 202.582031 102.816406 213.527344 105.273438 223.777344 C 113.125 223.382812 120.738281 219.9375 125.867188 214.464844 C 127.398438 212.828125 128.753906 210.933594 129.058594 208.789062 C 129.398438 206.410156 128.378906 203.996094 126.792969 202.085938 C 125.207031 200.175781 123.09375 198.703125 120.957031 197.3125 C 117.882812 195.316406 114.570312 193.398438 108.425781 192.929688 Z M 108.425781 192.929688 " fill-opacity="1" fill-rule="nonzero"/><path fill="#562c0f" d="M 102.929688 226 C 98.375 226 93.835938 225.234375 89.667969 223.695312 C 88.671875 223.328125 88.164062 222.222656 88.527344 221.226562 C 88.894531 220.230469 89.996094 219.71875 90.992188 220.085938 C 98.988281 223.039062 108.503906 222.828125 116.449219 219.527344 C 122.035156 217.207031 127.464844 212.480469 127 207.15625 C 126.53125 201.835938 120.425781 198.101562 114.867188 196.375 C 112.511719 195.644531 109.988281 195.089844 107.550781 194.550781 C 103.34375 193.625 98.992188 192.664062 95.039062 190.742188 C 94.085938 190.277344 93.691406 189.125 94.152344 188.171875 C 94.617188 187.214844 95.765625 186.820312 96.71875 187.285156 C 100.261719 189.007812 104.203125 189.878906 108.375 190.796875 C 110.890625 191.351562 113.492188 191.925781 116.003906 192.703125 C 124.746094 195.417969 130.285156 200.691406 130.820312 206.820312 C 131.503906 214.582031 124.296875 220.429688 117.921875 223.078125 C 113.246094 225.019531 108.078125 226 102.929688 226 Z M 102.929688 226 " fill-opacity="1" fill-rule="nonzero"/></svg>