<svg xmlns="http://www.w3.org/2000/svg" xmlns:xlink="http://www.w3.org/1999/xlink" width="400" zoomAndPan="magnify" viewBox="0 0 300 299.999988" height="400" preserveAspectRatio="xMidYMid meet" version="1.0"><defs><clipPath id="d7106b1a01"><path d="M 1.003906 8.660156 L 287.078125 8.660156 L 287.078125 291.683594 L 1.003906 291.683594 Z M 1.003906 8.660156 " clip-rule="nonzero"/></clipPath><clipPath id="2d6dcaf193"><path d="M 34 84 L 285.882812 84 L 285.882812 291.683594 L 34 291.683594 Z M 34 84 " clip-rule="nonzero"/></clipPath><clipPath id="784b59afd3"><path d="M 8 8.183594 L 284 8.183594 L 284 288 L 8 288 Z M 8 8.183594 " clip-rule="nonzero"/></clipPath></defs><g clip-path="url(#d7106b1a01)"><path fill="#996f38" d="M 240.535156 263.953125 C 239.734375 263.851562 238.820312 263.617188 238.472656 262.886719 C 238.199219 262.328125 238.363281 261.660156 238.558594 261.066406 C 240.574219 254.851562 245.402344 249.609375 247.996094 243.753906 C 248.9375 250.839844 249.875 257.925781 250.820312 265.011719 C 247.515625 264.027344 243.960938 264.40625 240.535156 263.953125 Z M 283.355469 65.09375 C 282.417969 62.074219 281.480469 59.058594 280.542969 56.035156 C 283.394531 47.199219 285.554688 38.101562 284.339844 28.984375 C 284.074219 26.980469 283.613281 24.933594 282.425781 23.3125 C 281.234375 21.6875 279.140625 20.578125 277.183594 21.0625 C 275.984375 21.355469 275.003906 22.179688 274.078125 22.984375 C 267.402344 28.765625 261.082031 34.941406 255.140625 41.46875 C 250.542969 38.703125 245.511719 36.648438 240.296875 35.40625 C 235.988281 34.378906 231.558594 33.902344 227.136719 34.03125 C 226.125 32.316406 224.957031 30.679688 223.742188 29.113281 C 220.414062 24.820312 216.621094 20.816406 214.125 15.992188 C 213.1875 14.179688 212.417969 12.230469 211.050781 10.714844 C 209.679688 9.195312 207.496094 8.183594 205.574219 8.890625 C 204.226562 9.378906 203.289062 10.601562 202.554688 11.835938 C 198.773438 18.191406 198.527344 25.980469 198.648438 33.378906 C 198.761719 40.332031 199.105469 47.273438 199.683594 54.203125 C 196.851562 58.164062 194.195312 62.246094 192.054688 66.605469 C 189.089844 72.648438 187.117188 79.332031 187.28125 86.03125 C 187.300781 86.886719 187.355469 87.742188 187.445312 88.59375 C 187.816406 92.128906 188.894531 95.644531 190.617188 98.773438 C 189.726562 99.570312 188.753906 100.324219 187.75 101.0625 C 183.472656 104.160156 178.4375 106.871094 175.355469 111.046875 C 173.023438 114.203125 171.914062 118.097656 169.910156 121.476562 C 165.871094 128.292969 158.710938 132.363281 151.628906 136.097656 C 150.695312 136.59375 149.761719 137.078125 148.835938 137.566406 C 134.460938 145.140625 120.535156 154.101562 109.8125 166.304688 C 101.78125 175.445312 95.992188 186.347656 92.550781 197.980469 C 86.851562 217.140625 87.5 238.292969 94.847656 256.839844 C 89.878906 256.488281 84.871094 256.183594 79.859375 255.984375 C 72.335938 255.683594 64.8125 255.617188 57.378906 256.019531 C 54.910156 256.148438 52.453125 256.332031 50.019531 256.574219 C 47.480469 256.820312 44.949219 257.132812 42.441406 257.519531 C 32.355469 259.078125 22.566406 261.800781 13.335938 266.289062 C 12.703125 266.589844 12.078125 266.898438 11.453125 267.226562 C 8.117188 268.945312 4.792969 270.992188 2.734375 274.125 C 0.675781 277.253906 0.234375 281.726562 2.617188 284.621094 C 4.128906 286.453125 6.242188 287.234375 8.582031 287.421875 C 11.574219 287.667969 14.9375 286.9375 17.890625 286.191406 C 24.457031 284.53125 31.152344 283.398438 37.898438 282.804688 C 41.417969 282.484375 44.949219 282.316406 48.484375 282.296875 C 51.09375 282.273438 53.699219 282.339844 56.308594 282.480469 C 60.1875 282.6875 64.050781 283.074219 67.894531 283.640625 C 76.621094 284.921875 85.328125 287.109375 94.132812 286.597656 C 98.910156 286.320312 103.8125 285.066406 107.960938 282.726562 C 110.976562 284.242188 113.90625 286.027344 117.082031 287.140625 C 120.207031 288.234375 123.515625 288.664062 126.800781 289.082031 C 130 289.492188 133.210938 289.898438 136.410156 290.308594 C 141.863281 291.007812 147.328125 291.707031 152.820312 291.707031 C 157.574219 291.707031 162.324219 291.175781 166.957031 290.140625 C 170.222656 289.40625 173.609375 288.3125 175.84375 285.8125 C 176.507812 285.054688 177.027344 284.132812 177.351562 283.160156 C 185.753906 284.453125 194.582031 283.085938 202.15625 279.238281 C 205.527344 284.347656 209.683594 289.894531 215.757812 290.542969 C 217.316406 290.710938 218.945312 290.515625 220.3125 289.757812 C 223.421875 288.042969 224.410156 284 224.222656 280.457031 C 224.214844 280.390625 224.214844 280.332031 224.210938 280.265625 C 225.386719 280.484375 226.570312 280.375 227.574219 279.742188 C 228.628906 279.078125 229.332031 277.945312 230.4375 277.390625 C 231.390625 276.921875 232.503906 276.9375 233.5625 276.976562 C 236.046875 277.046875 238.539062 277.125 241.023438 277.203125 C 244.03125 277.292969 247.132812 277.371094 249.957031 276.332031 C 250.488281 276.132812 251.019531 275.878906 251.519531 275.589844 C 253.3125 279.921875 255.585938 284.09375 259.484375 286.542969 C 264.378906 289.617188 272.484375 287.941406 273.566406 282.269531 C 274.003906 279.960938 273.21875 277.617188 272.589844 275.351562 C 269.472656 264.039062 270.417969 252.054688 271.386719 240.363281 C 271.828125 235 272.273438 229.640625 272.71875 224.28125 C 272.917969 221.90625 273.109375 219.535156 273.308594 217.164062 C 274.023438 208.535156 274.746094 199.875 276.613281 191.421875 C 278.195312 184.261719 280.605469 177.195312 280.757812 169.867188 C 280.863281 164.78125 279.875 159.699219 280.328125 154.636719 C 280.761719 149.777344 282.519531 145.101562 282.972656 140.242188 C 283.453125 135.023438 282.414062 129.820312 281.4375 124.628906 C 280.484375 119.550781 279.597656 114.476562 280.246094 109.390625 C 281.015625 103.355469 283.90625 97.789062 285.648438 91.96875 C 286.160156 90.257812 286.574219 88.527344 286.804688 86.753906 C 287.761719 79.445312 285.546875 72.132812 283.355469 65.09375 " fill-opacity="1" fill-rule="nonzero"/></g><g clip-path="url(#2d6dcaf193)"><path fill="#f2eff1" d="M 42.441406 257.519531 C 42.117188 258.089844 41.730469 258.636719 41.359375 259.140625 C 39.105469 262.191406 37.171875 265.464844 35.582031 268.902344 C 34.738281 270.726562 33.980469 272.679688 34.15625 274.675781 C 34.402344 277.546875 36.480469 279.875 37.742188 282.460938 C 37.796875 282.574219 37.851562 282.683594 37.898438 282.804688 C 41.417969 282.484375 44.949219 282.316406 48.484375 282.296875 C 47.554688 279.550781 46.601562 276.792969 46.550781 273.933594 C 46.453125 268.011719 50.238281 262.359375 50.019531 256.574219 C 47.480469 256.820312 44.949219 257.132812 42.441406 257.519531 Z M 250.820312 265.011719 C 249.875 257.925781 248.9375 250.839844 247.996094 243.753906 C 245.402344 249.609375 240.574219 254.851562 238.558594 261.066406 C 238.363281 261.660156 238.199219 262.328125 238.472656 262.886719 C 238.820312 263.617188 239.734375 263.851562 240.535156 263.953125 C 243.960938 264.40625 247.515625 264.027344 250.820312 265.011719 Z M 285.648438 91.96875 C 283.90625 97.789062 281.015625 103.355469 280.246094 109.394531 C 279.597656 114.476562 280.484375 119.550781 281.4375 124.628906 C 280.4375 127.070312 278.921875 129.386719 277.195312 131.308594 C 272.742188 136.261719 266.898438 140.027344 263.410156 145.699219 C 260.230469 150.863281 259.335938 157.378906 261.007812 163.214844 C 262.351562 167.898438 265.207031 171.988281 267.070312 176.492188 C 269.546875 182.496094 270.203125 189.238281 268.925781 195.609375 C 267.746094 201.519531 264.945312 207.195312 265.136719 213.21875 C 265.285156 217.96875 268.5 223.058594 272.71875 224.28125 C 272.273438 229.640625 271.828125 235 271.386719 240.363281 C 270.417969 252.054688 269.472656 264.039062 272.589844 275.351562 C 273.21875 277.617188 274.003906 279.960938 273.566406 282.269531 C 272.484375 287.941406 264.378906 289.617188 259.484375 286.542969 C 255.585938 284.09375 253.3125 279.921875 251.519531 275.589844 C 251.019531 275.878906 250.488281 276.132812 249.957031 276.332031 C 247.132812 277.371094 244.03125 277.292969 241.023438 277.203125 C 238.539062 277.125 236.046875 277.046875 233.5625 276.976562 C 232.503906 276.9375 231.390625 276.921875 230.4375 277.390625 C 229.332031 277.945312 228.628906 279.078125 227.574219 279.742188 C 226.570312 280.375 225.386719 280.484375 224.210938 280.265625 C 224.214844 280.332031 224.214844 280.390625 224.222656 280.457031 C 224.410156 284 223.421875 288.042969 220.3125 289.757812 C 218.945312 290.515625 217.316406 290.710938 215.757812 290.542969 C 209.683594 289.894531 205.527344 284.347656 202.15625 279.238281 C 194.582031 283.085938 185.753906 284.453125 177.351562 283.160156 C 177.027344 284.132812 176.507812 285.054688 175.84375 285.8125 C 173.609375 288.3125 170.222656 289.40625 166.957031 290.140625 C 162.324219 291.175781 157.574219 291.707031 152.820312 291.707031 C 147.328125 291.707031 141.863281 291.007812 136.410156 290.308594 C 133.210938 289.898438 130 289.492188 126.800781 289.082031 C 123.515625 288.664062 120.207031 288.234375 117.082031 287.140625 C 113.90625 286.027344 110.976562 284.242188 107.960938 282.726562 C 103.8125 285.066406 98.910156 286.320312 94.132812 286.597656 C 85.328125 287.109375 76.621094 284.921875 67.894531 283.640625 C 64.050781 283.074219 60.1875 282.6875 56.308594 282.480469 C 56.757812 280.621094 56.828125 278.671875 56.492188 276.792969 C 57.773438 277.242188 59.027344 277.914062 60.300781 278.398438 C 62.507812 279.238281 65.511719 279.25 66.667969 277.191406 C 67.269531 276.109375 67.175781 274.738281 67.824219 273.679688 C 69.441406 271.039062 73.671875 272.566406 76.476562 271.230469 C 79.039062 270.011719 79.761719 266.738281 79.949219 263.90625 C 80.117188 261.265625 80.089844 258.617188 79.859375 255.984375 C 84.871094 256.183594 89.878906 256.488281 94.847656 256.839844 C 87.5 238.292969 86.851562 217.140625 92.550781 197.980469 C 96.085938 201.75 100.539062 204.730469 105.097656 207.273438 C 110.941406 210.542969 117.425781 213.304688 124.097656 212.785156 C 130.777344 212.269531 137.515625 207.539062 138.316406 200.902344 C 138.757812 197.269531 137.441406 193.683594 136.824219 190.074219 C 136.210938 186.46875 136.554688 182.226562 139.425781 179.953125 C 141.53125 178.285156 144.222656 178.195312 146.984375 178.449219 C 148.578125 178.59375 150.195312 178.859375 151.738281 178.996094 C 161.273438 179.859375 171.101562 174.777344 175.910156 166.503906 C 177.882812 163.117188 180.699219 158.523438 184.351562 159.933594 C 186.625 160.8125 187.421875 163.664062 189.351562 165.148438 C 192.199219 167.332031 196.65625 165.679688 198.585938 162.652344 C 200.507812 159.628906 200.550781 155.800781 200.316406 152.222656 C 199.738281 143.226562 197.824219 134.320312 194.667969 125.875 C 191.632812 117.785156 187.382812 109.5 187.75 101.0625 C 188.753906 100.324219 189.726562 99.570312 190.617188 98.773438 C 188.894531 95.644531 187.816406 92.128906 187.445312 88.59375 C 187.355469 87.742188 187.300781 86.886719 187.28125 86.03125 C 189.785156 85.148438 192.175781 84.566406 193.941406 86.304688 C 195.894531 88.226562 195.121094 91.492188 195.898438 94.121094 C 197.09375 98.175781 202.035156 100.125 206.207031 99.425781 C 210.378906 98.730469 213.921875 96.09375 217.289062 93.539062 C 220.738281 90.914062 224.390625 87.972656 226.382812 84.261719 C 233.972656 85.472656 241.140625 89.359375 246.214844 95.140625 C 249.597656 98.980469 253.019531 104.082031 258.132812 103.871094 C 263.625 103.648438 266.707031 97.136719 266.539062 91.636719 C 266.507812 90.796875 266.441406 89.925781 266.699219 89.117188 C 267.253906 87.421875 269.191406 86.484375 270.984375 86.519531 C 272.773438 86.554688 274.445312 87.351562 276.054688 88.144531 C 279.132812 89.671875 282.324219 91.296875 285.648438 91.96875 " fill-opacity="1" fill-rule="nonzero"/></g><g clip-path="url(#784b59afd3)"><path fill="#fac264" d="M 13.335938 266.289062 C 13.535156 270.28125 14.527344 274.59375 13.347656 278.367188 C 12.511719 281.054688 10.621094 283.265625 9.308594 285.75 C 9.035156 286.28125 8.78125 286.839844 8.582031 287.421875 C 11.574219 287.667969 14.9375 286.9375 17.890625 286.191406 C 24.457031 284.53125 31.152344 283.398438 37.898438 282.804688 C 37.851562 282.683594 37.796875 282.574219 37.742188 282.460938 C 36.480469 279.875 34.402344 277.546875 34.15625 274.675781 C 33.980469 272.679688 34.738281 270.726562 35.582031 268.902344 C 37.171875 265.464844 39.105469 262.191406 41.359375 259.140625 C 41.730469 258.636719 42.117188 258.089844 42.441406 257.519531 C 32.355469 259.078125 22.566406 261.800781 13.335938 266.289062 Z M 50.019531 256.574219 C 50.238281 262.359375 46.453125 268.011719 46.550781 273.933594 C 46.601562 276.792969 47.554688 279.550781 48.484375 282.296875 C 51.09375 282.273438 53.699219 282.339844 56.308594 282.480469 C 56.757812 280.621094 56.828125 278.671875 56.492188 276.792969 C 56.371094 276.109375 56.199219 275.429688 55.960938 274.769531 C 55.621094 273.800781 55.167969 272.851562 55.09375 271.828125 C 54.820312 268.296875 58.902344 265.992188 59.941406 262.601562 C 60.6875 260.175781 59.496094 257.363281 57.378906 256.019531 C 54.910156 256.148438 52.453125 256.332031 50.019531 256.574219 Z M 151.628906 136.097656 C 150.695312 136.59375 149.761719 137.078125 148.835938 137.566406 C 134.460938 145.140625 120.535156 154.101562 109.8125 166.304688 C 101.78125 175.445312 95.992188 186.347656 92.550781 197.980469 C 96.085938 201.75 100.539062 204.730469 105.097656 207.273438 C 110.941406 210.542969 117.425781 213.304688 124.097656 212.785156 C 130.777344 212.269531 137.515625 207.539062 138.316406 200.902344 C 138.757812 197.269531 137.441406 193.683594 136.824219 190.074219 C 136.210938 186.46875 136.554688 182.226562 139.425781 179.953125 C 141.53125 178.285156 144.222656 178.195312 146.984375 178.449219 C 146.707031 176.367188 147.574219 173.878906 148.875 172.097656 C 150.925781 169.285156 153.855469 166.78125 154.253906 163.320312 C 154.546875 160.746094 153.339844 158.269531 152.433594 155.832031 C 150.125 149.554688 149.871094 142.550781 151.628906 136.097656 Z M 227.136719 34.03125 C 226.125 32.316406 224.957031 30.679688 223.742188 29.113281 C 220.414062 24.820312 216.621094 20.816406 214.125 15.992188 C 213.1875 14.179688 212.417969 12.230469 211.050781 10.714844 C 209.679688 9.195312 207.496094 8.183594 205.574219 8.890625 C 204.226562 9.378906 203.289062 10.601562 202.554688 11.835938 C 198.773438 18.191406 198.527344 25.980469 198.648438 33.378906 C 198.761719 40.332031 199.105469 47.273438 199.683594 54.203125 C 196.851562 58.164062 194.195312 62.246094 192.054688 66.605469 C 189.089844 72.648438 187.117188 79.332031 187.28125 86.03125 C 189.785156 85.148438 192.175781 84.566406 193.941406 86.304688 C 195.894531 88.226562 195.121094 91.492188 195.898438 94.121094 C 197.09375 98.175781 202.035156 100.125 206.207031 99.425781 C 210.378906 98.730469 213.921875 96.09375 217.289062 93.539062 C 220.738281 90.914062 224.390625 87.972656 226.382812 84.261719 C 227.0625 83.007812 227.550781 81.664062 227.773438 80.214844 C 228.328125 76.675781 227.183594 73.078125 227.382812 69.492188 C 227.75 62.808594 232.59375 57.371094 235.777344 51.476562 C 238.4375 46.539062 239.976562 41.007812 240.296875 35.40625 C 235.988281 34.378906 231.558594 33.902344 227.136719 34.03125 Z M 281.4375 124.628906 C 282.414062 129.820312 283.453125 135.023438 282.972656 140.242188 C 282.519531 145.101562 280.761719 149.777344 280.328125 154.636719 C 279.875 159.699219 280.863281 164.78125 280.757812 169.867188 C 280.605469 177.195312 278.195312 184.261719 276.613281 191.421875 C 274.746094 199.875 274.023438 208.535156 273.308594 217.164062 C 273.109375 219.535156 272.917969 221.90625 272.71875 224.28125 C 268.5 223.058594 265.285156 217.96875 265.136719 213.21875 C 264.945312 207.195312 267.746094 201.519531 268.925781 195.609375 C 270.203125 189.238281 269.546875 182.496094 267.070312 176.492188 C 265.207031 171.988281 262.351562 167.898438 261.007812 163.214844 C 259.335938 157.378906 260.230469 150.863281 263.410156 145.699219 C 266.898438 140.027344 272.742188 136.261719 277.195312 131.308594 C 278.921875 129.386719 280.4375 127.070312 281.4375 124.628906 " fill-opacity="1" fill-rule="nonzero"/></g><path fill="#996f38" d="M 11.453125 267.226562 C 8.117188 268.945312 4.792969 270.992188 2.734375 274.125 C 0.675781 277.253906 0.234375 281.726562 2.617188 284.621094 C 4.128906 286.453125 6.242188 287.234375 8.582031 287.421875 C 8.78125 286.839844 9.035156 286.28125 9.308594 285.75 C 10.621094 283.265625 12.511719 281.054688 13.347656 278.367188 C 14.527344 274.59375 13.535156 270.28125 13.335938 266.289062 C 12.703125 266.589844 12.078125 266.898438 11.453125 267.226562 Z M 57.378906 256.019531 C 59.496094 257.363281 60.6875 260.175781 59.941406 262.601562 C 58.902344 265.992188 54.820312 268.296875 55.09375 271.828125 C 55.167969 272.851562 55.621094 273.800781 55.960938 274.769531 C 56.199219 275.429688 56.371094 276.109375 56.492188 276.792969 C 57.773438 277.242188 59.027344 277.914062 60.300781 278.398438 C 62.507812 279.238281 65.511719 279.25 66.667969 277.191406 C 67.269531 276.109375 67.175781 274.738281 67.824219 273.679688 C 69.441406 271.039062 73.671875 272.566406 76.476562 271.230469 C 79.039062 270.011719 79.761719 266.738281 79.949219 263.90625 C 80.117188 261.265625 80.089844 258.617188 79.859375 255.984375 C 72.335938 255.683594 64.8125 255.617188 57.378906 256.019531 Z M 194.667969 125.875 C 191.632812 117.785156 187.382812 109.5 187.75 101.0625 C 183.472656 104.160156 178.4375 106.871094 175.355469 111.046875 C 173.023438 114.203125 171.914062 118.097656 169.910156 121.476562 C 165.871094 128.292969 158.710938 132.363281 151.628906 136.097656 C 149.871094 142.550781 150.125 149.554688 152.433594 155.832031 C 153.339844 158.269531 154.546875 160.746094 154.253906 163.320312 C 153.855469 166.78125 150.925781 169.285156 148.875 172.097656 C 147.574219 173.878906 146.707031 176.367188 146.984375 178.449219 C 148.578125 178.59375 150.195312 178.859375 151.738281 178.996094 C 161.273438 179.859375 171.101562 174.777344 175.910156 166.503906 C 177.882812 163.117188 180.699219 158.523438 184.351562 159.933594 C 186.625 160.8125 187.421875 163.664062 189.351562 165.148438 C 192.199219 167.332031 196.65625 165.679688 198.585938 162.652344 C 200.507812 159.628906 200.550781 155.800781 200.316406 152.222656 C 199.738281 143.226562 197.824219 134.320312 194.667969 125.875 Z M 283.355469 65.09375 C 285.546875 72.132812 287.761719 79.445312 286.804688 86.753906 C 286.574219 88.527344 286.160156 90.257812 285.648438 91.96875 C 282.324219 91.296875 279.132812 89.671875 276.054688 88.144531 C 274.445312 87.351562 272.773438 86.554688 270.984375 86.519531 C 269.191406 86.484375 267.253906 87.421875 266.699219 89.117188 C 266.441406 89.925781 266.507812 90.796875 266.539062 91.636719 C 266.707031 97.136719 263.625 103.648438 258.132812 103.871094 C 253.019531 104.082031 249.597656 98.980469 246.214844 95.140625 C 241.140625 89.359375 233.972656 85.472656 226.382812 84.261719 C 227.0625 83.007812 227.550781 81.664062 227.773438 80.214844 C 228.328125 76.675781 227.183594 73.078125 227.382812 69.492188 C 227.75 62.808594 232.59375 57.371094 235.777344 51.476562 C 238.4375 46.539062 239.976562 41.007812 240.296875 35.40625 C 245.511719 36.648438 250.542969 38.703125 255.140625 41.46875 C 261.082031 34.941406 267.402344 28.765625 274.078125 22.984375 C 275.003906 22.179688 275.984375 21.355469 277.183594 21.0625 C 279.140625 20.578125 281.234375 21.6875 282.425781 23.3125 C 283.613281 24.933594 284.074219 26.980469 284.335938 28.984375 C 285.554688 38.101562 283.394531 47.199219 280.542969 56.035156 C 281.480469 59.058594 282.417969 62.074219 283.355469 65.09375 " fill-opacity="1" fill-rule="nonzero"/><path fill="#f68c64" d="M 277.855469 51.027344 C 279.25 47.003906 280.179688 42.828125 280.617188 38.59375 C 280.746094 37.355469 280.832031 36.078125 280.480469 34.886719 C 280.125 33.691406 279.25 32.578125 278.042969 32.273438 C 276.015625 31.769531 274.210938 33.570312 272.90625 35.203125 C 270.582031 38.09375 268.257812 40.976562 265.933594 43.863281 C 264.707031 45.386719 265.203125 47.644531 266.949219 48.527344 C 269.089844 49.605469 271.117188 50.914062 272.988281 52.414062 C 274.667969 53.753906 277.152344 53.058594 277.855469 51.027344 Z M 214.359375 40.199219 C 212.320312 41.449219 210.390625 42.878906 208.589844 44.445312 C 206.675781 46.117188 203.703125 44.902344 203.496094 42.371094 C 203.101562 37.535156 203.046875 32.667969 203.335938 27.820312 C 203.453125 25.980469 203.957031 23.714844 205.75 23.285156 C 207.554688 22.851562 209.035156 24.671875 209.980469 26.265625 C 211.90625 29.519531 213.734375 32.832031 215.449219 36.199219 C 216.171875 37.613281 215.714844 39.363281 214.359375 40.199219 " fill-opacity="1" fill-rule="nonzero"/><path fill="#fac264" d="M 261.238281 61.34375 C 261.246094 63.875 257.566406 63.296875 253.03125 63.316406 C 248.492188 63.332031 244.816406 63.9375 244.808594 61.40625 C 244.796875 58.871094 248.46875 56.804688 253.003906 56.789062 C 257.542969 56.773438 261.226562 58.808594 261.238281 61.34375 " fill-opacity="1" fill-rule="nonzero"/><path fill="#996f38" d="M 219.171875 61.375 C 219.171875 63.910156 215.492188 63.316406 210.957031 63.316406 C 206.417969 63.316406 202.742188 63.910156 202.742188 61.375 C 202.742188 58.84375 206.417969 56.789062 210.957031 56.789062 C 215.492188 56.789062 219.171875 58.84375 219.171875 61.375 " fill-opacity="1" fill-rule="nonzero"/><path fill="#3e393a" d="M 267.265625 109 C 269.09375 107.847656 267.472656 105.644531 265.777344 106.699219 C 254.097656 113.949219 241.167969 121.574219 226.851562 119.515625 C 219.914062 118.515625 213.480469 115.488281 207.738281 111.5625 C 204.640625 109.441406 201.769531 107.039062 198.957031 104.554688 C 198.910156 104.515625 198.863281 104.46875 198.816406 104.425781 C 200.472656 102.957031 202.171875 101.535156 203.910156 100.171875 C 206.867188 97.855469 210.320312 95.898438 213.035156 93.316406 C 213.578125 92.804688 212.769531 92.261719 212.253906 92.445312 C 208.351562 93.828125 204.722656 96.683594 201.46875 99.191406 C 199.96875 100.351562 198.511719 101.566406 197.089844 102.820312 C 195.308594 101.113281 193.535156 99.347656 191.496094 98.015625 C 191.203125 97.824219 190.328125 98.035156 190.617188 98.511719 C 191.886719 100.617188 193.679688 102.496094 195.496094 104.269531 C 194.425781 105.257812 193.371094 106.265625 192.34375 107.300781 C 186.363281 113.335938 181.234375 120.101562 177.027344 127.480469 C 176.339844 128.6875 178.574219 129.058594 179.171875 128.074219 C 183.5 120.953125 188.625 114.320312 194.535156 108.4375 C 195.398438 107.578125 196.285156 106.738281 197.183594 105.90625 C 197.40625 106.121094 197.628906 106.339844 197.847656 106.550781 C 200.679688 109.328125 203.730469 111.902344 206.988281 114.167969 C 212.710938 118.160156 219.34375 121.105469 226.273438 122.128906 C 241.328125 124.355469 254.988281 116.730469 267.265625 109 Z M 245.347656 95.210938 C 244.644531 95.367188 244.9375 96.300781 245.609375 96.199219 C 254.011719 94.890625 262.351562 97.351562 269.5 101.746094 C 276.597656 106.109375 282.21875 112.164062 288.675781 117.335938 C 289.28125 117.816406 290.527344 117.050781 289.925781 116.328125 C 279.394531 103.699219 262.6875 91.335938 245.347656 95.210938 Z M 298.683594 101.148438 C 284.792969 88.191406 264.261719 84.394531 246.355469 90.265625 C 245.121094 90.671875 246.003906 92.007812 247.085938 91.695312 C 264.21875 86.746094 283.054688 91.304688 296.746094 102.523438 C 297.683594 103.292969 299.789062 102.179688 298.683594 101.148438 Z M 156.695312 109.257812 C 172.1875 96.804688 191.242188 90.167969 211.183594 91.503906 C 212.496094 91.589844 212.953125 89.832031 211.496094 89.699219 C 191.316406 87.859375 170.25 94.417969 155.234375 108.144531 C 154.351562 108.953125 155.949219 109.859375 156.695312 109.257812 Z M 209.609375 281.050781 C 209.441406 280.96875 209.125 281.046875 209.082031 281.253906 C 208.898438 282.128906 209.273438 283.109375 209.167969 284.027344 C 209.066406 284.960938 208.378906 285.886719 208.636719 286.792969 C 208.738281 287.144531 209.339844 287.230469 209.621094 287.113281 C 211.675781 286.242188 211.589844 282.007812 209.609375 281.050781 Z M 259.78125 279.492188 C 260.632812 281.984375 260.300781 284.257812 260.21875 286.808594 C 260.195312 287.578125 261.566406 287.5 261.824219 286.957031 C 263.023438 284.449219 262.359375 281.414062 261.113281 279.054688 C 260.777344 278.421875 259.519531 278.734375 259.78125 279.492188 Z M 267.949219 276.007812 C 267.449219 275.550781 266.230469 276.027344 266.789062 276.703125 C 267.929688 278.066406 268.6875 279.585938 269.105469 281.3125 C 269.425781 282.636719 269.308594 284.113281 269.898438 285.347656 C 270.148438 285.859375 271.023438 285.8125 271.289062 285.339844 C 272.992188 282.285156 270.152344 278.03125 267.949219 276.007812 Z M 251.105469 264.4375 C 251.089844 264.160156 250.5625 264.125 250.519531 264.394531 C 249.980469 268.089844 249.636719 273.308594 251.808594 276.554688 C 252.199219 277.140625 253.492188 277.054688 253.414062 276.183594 C 253.242188 274.207031 252.324219 272.3125 251.902344 270.359375 C 251.488281 268.410156 251.230469 266.421875 251.105469 264.4375 Z M 216.902344 282.179688 C 218.167969 284.445312 218.207031 286.71875 217.988281 289.246094 C 217.921875 290.019531 219.207031 290.261719 219.496094 289.566406 C 220.605469 286.921875 219.957031 284.003906 218.4375 281.644531 C 218 280.964844 216.445312 281.363281 216.902344 282.179688 Z M 163.300781 281.539062 C 162.421875 281.367188 161.804688 282.585938 162.78125 282.9375 C 165.707031 283.992188 167.300781 286.429688 168.570312 289.113281 C 169.023438 290.074219 170.863281 289.570312 170.746094 288.507812 C 170.339844 284.738281 166.78125 282.222656 163.300781 281.539062 Z M 245.492188 83.851562 C 247.179688 81.285156 248.730469 78.78125 251.488281 77.21875 C 254.777344 75.351562 258.167969 75.71875 261.714844 76.386719 C 262.441406 76.527344 263.328125 75.714844 262.5 75.167969 C 255.84375 70.816406 245.628906 76.234375 244.066406 83.640625 C 243.886719 84.480469 245.1875 84.316406 245.492188 83.851562 Z M 213.429688 98.421875 C 212.894531 100.238281 214.957031 101.585938 216.46875 102.167969 C 218.417969 102.917969 220.535156 102.785156 222.472656 102.058594 C 224.878906 101.148438 226.789062 99.429688 228.21875 97.332031 C 229.589844 99.667969 231.726562 101.574219 234.277344 102.390625 C 237.457031 103.410156 241.953125 102.832031 243.472656 99.480469 C 243.660156 99.070312 243.121094 98.773438 242.78125 99 C 239.816406 100.988281 236.433594 101.042969 233.582031 98.777344 C 231.984375 97.503906 230.949219 95.839844 229.933594 94.148438 C 230.019531 93.9375 230.105469 93.726562 230.183594 93.511719 L 232.121094 92.578125 C 236.605469 90.410156 235.0625 83.667969 230.078125 83.667969 L 225.6875 83.667969 C 220.707031 83.667969 219.160156 90.410156 223.644531 92.578125 L 225.839844 93.636719 C 226.175781 93.800781 226.519531 93.917969 226.875 93.996094 C 225.914062 95.78125 224.832031 97.484375 223.21875 98.730469 C 221.417969 100.128906 219.335938 100.722656 217.140625 100.015625 C 215.894531 99.617188 215.054688 98.664062 213.828125 98.273438 C 213.6875 98.230469 213.480469 98.25 213.429688 98.421875 Z M 207.484375 87.777344 C 210.15625 87.777344 212.320312 83.960938 212.320312 79.253906 C 212.320312 77.285156 211.9375 75.476562 211.304688 74.035156 C 212.527344 74.78125 213.398438 75.839844 214.460938 76.835938 C 214.886719 77.234375 216.039062 77.101562 215.925781 76.335938 C 215.203125 71.34375 207.640625 68.894531 203.835938 71.828125 C 203.160156 72.347656 203.464844 73.011719 204.074219 73.210938 C 203.195312 74.757812 202.652344 76.890625 202.652344 79.253906 C 202.652344 83.960938 204.816406 87.777344 207.484375 87.777344 Z M 158.1875 265.921875 C 148.554688 262.902344 129.144531 263.246094 127.730469 249.980469 C 127.671875 249.4375 126.761719 249.535156 126.726562 250.050781 C 125.949219 261.785156 140.894531 264.660156 149.46875 266.6875 C 154.871094 267.964844 160.375 269.421875 164.914062 272.777344 C 169.703125 276.3125 172.664062 281.542969 174.707031 287.035156 C 175.191406 288.332031 177.480469 287.980469 177.332031 286.527344 C 176.300781 276.148438 167.648438 268.886719 158.1875 265.921875 Z M 237.476562 262.957031 C 235.554688 265.722656 234.132812 268.78125 232.101562 271.488281 C 229.953125 274.34375 227.414062 276.800781 224.6875 279.09375 C 224.574219 272.71875 223.910156 266.335938 223.742188 259.960938 C 223.542969 252.320312 223.503906 244.671875 223.625 237.027344 C 223.730469 230.449219 223.722656 223.785156 224.296875 217.226562 C 224.511719 214.742188 224.871094 212.222656 225.625 209.835938 C 226.613281 206.710938 228.492188 204.507812 230.253906 201.832031 C 230.449219 201.53125 229.972656 201.328125 229.75 201.46875 C 225.386719 204.144531 223.289062 209.777344 222.484375 214.59375 C 221.359375 221.324219 221.480469 228.367188 221.335938 235.171875 C 221.179688 242.414062 221.167969 249.65625 221.292969 256.894531 C 221.433594 264.769531 221.25 272.871094 222.167969 280.695312 C 222.28125 281.652344 223.800781 281.699219 224.433594 281.105469 C 224.546875 281.089844 224.652344 281.058594 224.738281 281.007812 C 230.773438 277.382812 237.976562 270.582031 239.183594 263.296875 C 239.351562 262.300781 237.886719 262.363281 237.476562 262.957031 Z M 250.234375 213.292969 C 253.34375 206.480469 261.0625 201.988281 261.597656 194.035156 C 261.636719 193.488281 260.644531 193.558594 260.511719 194.003906 C 257.996094 202.503906 249.152344 206.914062 246.460938 215.367188 C 245.027344 219.859375 245 224.625 245.15625 229.292969 C 245.242188 231.894531 245.367188 234.496094 245.476562 237.09375 C 245.59375 239.863281 245.425781 242.800781 246.039062 245.511719 C 246.328125 246.8125 248.605469 246.511719 248.757812 245.269531 C 249.429688 239.785156 248.332031 233.832031 248.152344 228.300781 C 247.988281 223.246094 248.097656 217.976562 250.234375 213.292969 Z M 190.734375 223.507812 C 189.980469 214.453125 190.058594 205.742188 186.019531 197.386719 C 183.816406 192.820312 181.289062 188.523438 179.832031 183.628906 C 178.453125 179 177.832031 174.214844 177.800781 169.386719 C 177.792969 168.964844 176.96875 168.945312 176.917969 169.347656 C 175.785156 178.175781 177.691406 186.496094 181.5625 194.433594 C 183.796875 199.011719 185.875 203.402344 186.695312 208.484375 C 187.464844 213.277344 187.492188 218.164062 187.863281 223 C 189.335938 242.210938 193.75 261.863281 201.621094 279.507812 C 202.175781 280.746094 204.976562 279.878906 204.449219 278.558594 C 197.351562 260.746094 192.332031 242.683594 190.734375 223.507812 Z M 105.339844 276.964844 C 105.695312 277.859375 104.308594 278.308594 103.753906 277.738281 C 98.246094 272.109375 95.105469 261.871094 95.738281 254.128906 C 95.808594 253.289062 97.253906 253.367188 97.433594 254.101562 C 98.417969 258.066406 99.113281 262.082031 100.433594 265.960938 C 101.742188 269.804688 103.835938 273.222656 105.339844 276.964844 " fill-opacity="1" fill-rule="nonzero"/></svg>