<svg xmlns="http://www.w3.org/2000/svg" xmlns:xlink="http://www.w3.org/1999/xlink" width="400" zoomAndPan="magnify" viewBox="0 0 300 299.999988" height="400" preserveAspectRatio="xMidYMid meet" version="1.0"><defs><clipPath id="882bec6c24"><path d="M 13 190 L 127 190 L 127 266.316406 L 13 266.316406 Z M 13 190 " clip-rule="nonzero"/></clipPath><clipPath id="179f0d82ce"><path d="M 13 190 L 127 190 L 127 266.316406 L 13 266.316406 Z M 13 190 " clip-rule="nonzero"/></clipPath></defs><path fill="#3b272b" d="M 294.203125 138.929688 C 290.339844 134.847656 285.128906 132.605469 279.515625 132.605469 C 272.089844 132.605469 265.277344 136.671875 261.726562 143.214844 C 261.320312 143.976562 260.703125 144.59375 259.957031 145.035156 L 213.257812 118.054688 C 216 114.851562 217.707031 110.835938 218.0625 106.636719 C 218.0625 106.625 218.0625 106.609375 218.0625 106.601562 C 218.0625 106.601562 218.0625 106.601562 218.0625 106.59375 C 218.136719 105.671875 218.15625 104.742188 218.105469 103.828125 C 217.582031 93.707031 209.265625 85.304688 199.164062 84.703125 C 191.75 84.25 184.722656 87.875 180.789062 94.148438 C 179.382812 96.386719 176.886719 97.722656 174.054688 97.722656 C 169.0625 97.722656 164.273438 99.558594 160.566406 102.890625 C 160.550781 102.90625 160.542969 102.914062 160.53125 102.929688 C 156.285156 106.753906 153.847656 112.230469 153.847656 117.953125 C 153.847656 129.0625 162.875 138.136719 173.960938 138.1875 C 173.992188 138.1875 174.019531 138.1875 174.050781 138.1875 C 178.257812 138.1875 182.257812 136.910156 185.660156 134.507812 C 185.738281 134.558594 185.8125 134.609375 185.890625 134.652344 L 235.601562 163.371094 C 235.5 164.207031 235.433594 165.039062 235.433594 165.90625 C 235.433594 177.058594 244.507812 186.136719 255.644531 186.136719 C 262.046875 186.136719 267.910156 183.207031 271.757812 178.109375 C 271.761719 178.105469 271.761719 178.105469 271.761719 178.097656 C 271.777344 178.082031 271.785156 178.066406 271.800781 178.054688 C 272.105469 177.667969 272.402344 177.238281 272.707031 176.761719 C 274.171875 174.453125 276.632812 173.078125 279.273438 173.078125 C 279.289062 173.078125 279.304688 173.078125 279.324219 173.078125 C 280.027344 173.085938 280.734375 173.058594 281.464844 172.992188 C 291.304688 172.054688 299.152344 163.894531 299.703125 153.996094 C 300.015625 148.355469 298.054688 143.011719 294.203125 138.929688 Z M 294.203125 138.929688 " fill-opacity="1" fill-rule="nonzero"/><path fill="#3b272b" d="M 176.820312 183.671875 C 176.820312 183.660156 176.828125 183.652344 176.828125 183.636719 L 176.828125 153.664062 C 176.828125 153.613281 176.8125 153.566406 176.800781 153.523438 C 177.199219 151.527344 176.199219 149.667969 173.984375 148.382812 L 137.132812 127.085938 C 137.671875 126.199219 137.960938 125.257812 137.960938 124.269531 C 137.960938 122.671875 137.214844 121.160156 135.839844 119.859375 C 137.214844 118.570312 137.960938 117.058594 137.960938 115.46875 C 137.960938 113.871094 137.214844 112.359375 135.839844 111.058594 C 137.214844 109.769531 137.960938 108.257812 137.960938 106.667969 C 137.960938 104.792969 136.9375 103.035156 135.074219 101.605469 C 136.632812 100.648438 138.054688 99.484375 139.3125 98.15625 L 210.878906 56.769531 C 212.351562 56.136719 213.164062 54.53125 213.164062 52.25 C 213.164062 48.316406 210.378906 43.507812 206.953125 41.535156 C 205.144531 40.488281 203.417969 40.351562 202.054688 41.15625 L 201.71875 41.382812 L 190.59375 47.816406 L 176.675781 39.855469 C 168.984375 35.457031 159.949219 33.945312 151.242188 35.585938 L 86.066406 47.917969 C 85.59375 47.351562 85.058594 46.863281 84.46875 46.523438 C 83.460938 45.925781 82.445312 45.855469 81.65625 46.339844 L 57.214844 60.617188 L 56.84375 60.828125 C 56.742188 60.886719 56.667969 60.972656 56.617188 61.066406 C 56.523438 61.167969 56.445312 61.285156 56.371094 61.402344 C 56.125 61.351562 55.871094 61.3125 55.601562 61.300781 C 48.046875 60.738281 36.710938 60.601562 25.644531 63.085938 C 13.953125 65.726562 5.492188 70.738281 1.488281 73.496094 C 0.582031 74.121094 0.195312 74.980469 0.433594 75.851562 C 0.769531 77.0625 2.214844 77.933594 4.121094 78.074219 C 6.40625 78.246094 9.507812 78.40625 13.097656 78.40625 C 15.835938 78.40625 18.859375 78.304688 22.023438 78.050781 C 18.027344 81.644531 15.585938 85.332031 14.136719 88.195312 C 13.796875 88.878906 13.859375 89.632812 14.324219 90.265625 C 15.027344 91.222656 16.546875 91.804688 18.164062 91.804688 C 18.535156 91.804688 18.910156 91.773438 19.289062 91.710938 C 25.253906 90.707031 36.582031 88.261719 45.480469 83.125 C 52.117188 79.285156 56.226562 74.695312 58.738281 70.839844 C 63.492188 76.539062 70.878906 84.296875 79.289062 89.160156 C 86.988281 93.605469 93.867188 94.664062 98.671875 94.664062 C 99.179688 94.664062 99.667969 94.648438 100.128906 94.628906 C 100.898438 94.59375 101.523438 94.15625 101.84375 93.4375 C 102.429688 92.101562 101.910156 90.003906 100.601562 88.433594 C 96.726562 83.765625 88.890625 75.160156 79.941406 69.996094 C 75.769531 67.585938 71.851562 66.179688 68.375 65.386719 L 86.453125 54.828125 C 86.972656 54.597656 87.785156 53.964844 87.785156 52.242188 C 87.785156 51.214844 87.4375 50.101562 86.878906 49.101562 L 151.480469 36.886719 C 159.882812 35.296875 168.597656 36.761719 176.03125 41.003906 L 189.289062 48.585938 L 142.988281 75.363281 C 139.710938 68.386719 132.621094 63.535156 124.414062 63.535156 C 113.097656 63.535156 103.890625 72.75 103.890625 84.070312 C 103.890625 88.441406 105.269531 92.492188 107.605469 95.828125 L 4.773438 155.28125 L 4.71875 155.316406 C 3.308594 156.03125 2.503906 157.628906 2.503906 159.753906 C 2.503906 163.683594 5.28125 168.488281 8.707031 170.472656 C 9.746094 171.066406 10.753906 171.371094 11.675781 171.371094 C 12.285156 171.371094 12.859375 171.234375 13.375 170.964844 C 13.441406 170.953125 13.503906 170.921875 13.570312 170.886719 L 13.621094 170.855469 L 110.53125 114.808594 C 110.507812 114.996094 110.492188 115.191406 110.492188 115.382812 C 110.492188 116.976562 111.242188 118.488281 112.613281 119.789062 C 111.242188 121.082031 110.492188 122.589844 110.492188 124.183594 C 110.492188 125.191406 110.796875 126.15625 111.363281 127.0625 L 75.894531 147.5625 C 73.402344 148.992188 71.988281 150.867188 71.914062 152.804688 C 71.914062 152.820312 71.914062 152.828125 71.914062 152.84375 L 71.914062 184.574219 C 71.914062 184.582031 71.914062 184.582031 71.914062 184.582031 C 71.835938 186.351562 72.867188 187.949219 74.820312 189.074219 L 117.320312 213.632812 C 119.144531 214.6875 121.582031 215.203125 124.128906 215.203125 C 127.191406 215.203125 130.40625 214.460938 132.917969 213.007812 L 172.917969 189.894531 C 175.820312 188.226562 177.265625 185.910156 176.820312 183.671875 Z M 123.453125 122.300781 C 120.5 122.183594 117.597656 121.480469 115.339844 120.171875 C 115.125 120.050781 114.921875 119.910156 114.71875 119.78125 C 114.898438 119.65625 115.078125 119.542969 115.28125 119.425781 C 117.730469 118.015625 120.9375 117.3125 124.152344 117.3125 C 127.394531 117.3125 130.644531 118.03125 133.128906 119.460938 C 133.34375 119.585938 133.546875 119.722656 133.75 119.855469 C 133.570312 119.976562 133.390625 120.09375 133.1875 120.210938 C 131.066406 121.429688 128.375 122.121094 125.601562 122.285156 C 124.890625 122.25 124.171875 122.257812 123.453125 122.300781 Z M 136.660156 124.269531 C 136.660156 125.007812 136.429688 125.742188 136.007812 126.433594 L 131.496094 123.824219 C 130.921875 123.492188 130.277344 123.222656 129.59375 123 C 131.140625 122.621094 132.582031 122.074219 133.839844 121.351562 C 134.195312 121.144531 134.519531 120.929688 134.832031 120.703125 C 136.015625 121.777344 136.660156 123.003906 136.660156 124.269531 Z M 136.660156 106.660156 C 136.660156 107.921875 136.015625 109.144531 134.839844 110.210938 C 134.515625 109.972656 134.164062 109.738281 133.78125 109.519531 C 130.980469 107.902344 127.265625 107.148438 123.605469 107.234375 L 129.113281 104.046875 C 130.769531 103.652344 132.359375 103.066406 133.832031 102.296875 C 135.660156 103.546875 136.660156 105.070312 136.660156 106.660156 Z M 120.996094 108.746094 C 122.03125 108.589844 123.089844 108.503906 124.15625 108.503906 C 127.402344 108.503906 130.652344 109.222656 133.136719 110.652344 C 133.351562 110.777344 133.554688 110.914062 133.757812 111.046875 C 133.578125 111.167969 133.394531 111.285156 133.191406 111.402344 C 128.476562 114.125 120.894531 114.210938 115.929688 111.671875 Z M 111.808594 115.367188 C 111.808594 114.859375 111.914062 114.363281 112.113281 113.878906 L 114.59375 112.441406 C 114.621094 112.460938 114.660156 112.476562 114.6875 112.5 C 117.34375 114.039062 120.835938 114.800781 124.316406 114.800781 C 127.773438 114.800781 131.21875 114.046875 133.839844 112.527344 C 134.195312 112.324219 134.519531 112.105469 134.832031 111.882812 C 136.015625 112.957031 136.660156 114.183594 136.660156 115.453125 C 136.660156 116.71875 136.015625 117.9375 134.839844 119.003906 C 134.515625 118.765625 134.164062 118.53125 133.78125 118.316406 C 128.484375 115.257812 119.890625 115.242188 114.628906 118.277344 C 114.273438 118.480469 113.949219 118.699219 113.636719 118.925781 C 112.445312 117.863281 111.808594 116.636719 111.808594 115.367188 Z M 113.628906 120.625 C 113.953125 120.863281 114.304688 121.09375 114.6875 121.3125 C 116.023438 122.089844 117.578125 122.664062 119.230469 123.050781 C 118.039062 123.40625 116.910156 123.863281 115.894531 124.449219 L 112.496094 126.410156 C 112.054688 125.699219 111.808594 124.945312 111.808594 124.175781 C 111.808594 122.910156 112.445312 121.691406 113.628906 120.625 Z M 113.628906 120.625 " fill-opacity="1" fill-rule="nonzero"/><path fill="#3b272b" d="M 202.503906 189.15625 C 184.171875 189.15625 169.253906 204.085938 169.253906 222.433594 C 169.253906 236.207031 177.902344 248.726562 190.777344 253.578125 C 190.777344 253.578125 190.777344 253.578125 190.785156 253.578125 C 190.785156 253.578125 190.785156 253.578125 190.789062 253.578125 C 194.527344 254.992188 198.46875 255.707031 202.511719 255.707031 C 220.847656 255.707031 235.761719 240.777344 235.761719 222.425781 C 235.761719 213.472656 232.257812 205.074219 225.90625 198.785156 C 219.636719 192.574219 211.328125 189.15625 202.503906 189.15625 Z M 202.503906 189.15625 " fill-opacity="1" fill-rule="nonzero"/><g clip-path="url(#882bec6c24)"><path fill="#3b272b" d="M 126.964844 235.792969 C 126.769531 233.261719 125.007812 230.902344 121.980469 229.152344 C 117.308594 226.449219 110.304688 225.628906 104.144531 227.058594 C 101.8125 227.597656 99.171875 227.285156 97.410156 226.273438 L 64.304688 207.140625 C 63.425781 206.632812 62.859375 205.996094 62.707031 205.332031 C 62.597656 204.855469 62.707031 204.375 63.035156 203.902344 C 64.222656 202.191406 64.59375 200.308594 64.105469 198.472656 C 63.46875 196.054688 61.351562 193.875 58.136719 192.335938 C 52.015625 189.402344 42.835938 189.476562 36.777344 192.503906 C 33.757812 194.011719 31.785156 196.023438 31.066406 198.328125 C 30.789062 199.210938 29.398438 199.960938 27.671875 200.140625 C 24.332031 200.496094 21.285156 201.421875 18.851562 202.820312 C 15.53125 204.746094 13.730469 207.332031 13.78125 210.117188 L 13.78125 220 C 13.75 222.738281 15.53125 225.296875 18.796875 227.183594 C 23.46875 229.882812 30.472656 230.703125 36.640625 229.273438 C 38.910156 228.738281 41.617188 229.054688 43.359375 230.058594 L 76.464844 249.183594 C 77.015625 249.503906 77.4375 249.867188 77.722656 250.265625 C 78.214844 250.964844 78.222656 251.71875 77.734375 252.429688 C 76.554688 254.136719 76.183594 256.011719 76.660156 257.847656 C 77.292969 260.257812 79.40625 262.4375 82.589844 263.976562 C 85.601562 265.429688 89.355469 266.15625 93.121094 266.15625 C 96.988281 266.15625 100.863281 265.382812 103.941406 263.851562 C 106.996094 262.335938 108.984375 260.308594 109.703125 258 C 109.976562 257.113281 111.378906 256.375 113.105469 256.191406 C 116.445312 255.835938 119.484375 254.914062 121.910156 253.511719 C 124.992188 251.726562 126.792969 249.328125 126.972656 246.765625 C 127.003906 246.484375 126.996094 246.191406 126.972656 245.902344 L 126.972656 235.832031 C 126.960938 235.816406 126.964844 235.800781 126.964844 235.792969 Z M 126.964844 235.792969 " fill-opacity="1" fill-rule="nonzero"/></g><path fill="#edb04a" d="M 210.585938 56.171875 L 13.292969 170.277344 L 13.289062 170.269531 C 14.296875 169.636719 14.921875 168.351562 14.921875 166.542969 C 14.921875 162.8125 12.285156 158.265625 9.035156 156.394531 C 7.527344 155.519531 6.152344 155.375 5.117188 155.839844 L 202.046875 41.941406 L 202.417969 41.695312 C 203.492188 41.054688 204.976562 41.140625 206.617188 42.09375 C 209.871094 43.964844 212.503906 48.519531 212.503906 52.242188 C 212.511719 54.285156 211.835938 55.648438 210.585938 56.171875 Z M 82.015625 46.886719 L 81.820312 47.015625 L 57.539062 61.183594 C 58.070312 60.9375 58.765625 61.007812 59.542969 61.453125 C 61.199219 62.402344 62.527344 64.710938 62.527344 66.601562 C 62.527344 67.609375 62.148438 68.292969 61.554688 68.574219 L 61.558594 68.582031 L 86.148438 54.226562 C 86.777344 53.964844 87.125 53.269531 87.125 52.230469 C 87.125 50.335938 85.785156 48.03125 84.136719 47.082031 C 83.308594 46.59375 82.546875 46.558594 82.015625 46.886719 Z M 82.015625 46.886719 " fill-opacity="1" fill-rule="nonzero"/><path fill="#4fc8a2" d="M 55.550781 61.953125 C 58.367188 62.164062 59.679688 64.085938 57.859375 65.335938 C 53.484375 68.355469 45.253906 73.105469 33.933594 75.648438 C 22.605469 78.195312 10.957031 77.925781 4.164062 77.417969 C 1.351562 77.214844 0.0351562 75.292969 1.859375 74.035156 C 6.234375 71.023438 14.46875 66.28125 25.785156 63.722656 C 37.113281 61.183594 48.765625 61.453125 55.550781 61.953125 Z M 55.550781 61.953125 " fill-opacity="1" fill-rule="nonzero"/><path fill="#3b272b" d="M 59.289062 63.535156 C 58.960938 62.324219 57.519531 61.445312 55.601562 61.300781 C 48.046875 60.738281 36.710938 60.601562 25.644531 63.085938 C 13.953125 65.726562 5.492188 70.738281 1.488281 73.496094 C 0.582031 74.121094 0.195312 74.980469 0.433594 75.851562 C 0.769531 77.0625 2.214844 77.933594 4.121094 78.074219 C 6.40625 78.246094 9.507812 78.40625 13.097656 78.40625 C 19.203125 78.40625 26.71875 77.941406 34.078125 76.285156 C 45.785156 73.65625 54.238281 68.632812 58.230469 65.875 C 59.136719 65.257812 59.519531 64.398438 59.289062 63.535156 Z M 57.488281 64.800781 C 53.570312 67.507812 45.277344 72.429688 33.789062 75.007812 C 22.265625 77.609375 10.3125 77.222656 4.210938 76.765625 C 2.75 76.65625 1.835938 76.054688 1.691406 75.503906 C 1.582031 75.109375 1.921875 74.777344 2.226562 74.574219 C 6.152344 71.871094 14.457031 66.949219 25.929688 64.363281 C 33.046875 62.765625 40.28125 62.273438 46.523438 62.273438 C 49.855469 62.273438 52.910156 62.410156 55.507812 62.605469 C 56.972656 62.714844 57.882812 63.332031 58.035156 63.875 C 58.136719 64.261719 57.792969 64.589844 57.488281 64.800781 Z M 57.488281 64.800781 " fill-opacity="1" fill-rule="nonzero"/><path fill="#3b272b" d="M 48.695312 64.785156 L 10 73.492188 C 9.652344 73.570312 9.425781 73.917969 9.507812 74.273438 C 9.570312 74.578125 9.847656 74.78125 10.144531 74.78125 C 10.195312 74.78125 10.238281 74.777344 10.289062 74.769531 L 48.984375 66.0625 C 49.332031 65.984375 49.558594 65.632812 49.476562 65.277344 C 49.398438 64.921875 49.050781 64.703125 48.695312 64.785156 Z M 48.695312 64.785156 " fill-opacity="1" fill-rule="nonzero"/><path fill="#cc8e36" d="M 41.980469 153.691406 L 39.332031 155.222656 L 49.964844 129.902344 L 52.613281 128.371094 Z M 101.210938 100.261719 L 98.5625 101.796875 L 87.933594 127.109375 L 90.582031 125.574219 Z M 149.820312 72.148438 L 147.167969 73.679688 L 136.539062 98.992188 L 139.1875 97.460938 Z M 198.425781 44.039062 L 195.777344 45.570312 L 185.152344 70.882812 L 187.800781 69.351562 Z M 3.15625 159.746094 C 3.15625 163.472656 5.789062 168.023438 9.035156 169.898438 C 10.703125 170.855469 12.214844 170.9375 13.289062 170.269531 C 14.296875 169.636719 14.921875 168.351562 14.921875 166.542969 C 14.921875 162.8125 12.285156 158.265625 9.035156 156.394531 C 7.527344 155.519531 6.152344 155.375 5.117188 155.839844 C 3.917969 156.386719 3.15625 157.742188 3.15625 159.746094 Z M 59.542969 61.453125 C 61.199219 62.402344 62.527344 64.710938 62.527344 66.601562 C 62.527344 67.609375 62.148438 68.292969 61.554688 68.574219 C 61.015625 68.820312 60.3125 68.75 59.535156 68.304688 C 57.886719 67.355469 56.554688 65.046875 56.554688 63.152344 C 56.554688 62.140625 56.929688 61.457031 57.53125 61.183594 C 58.070312 60.9375 58.765625 61.007812 59.542969 61.453125 Z M 59.542969 61.453125 " fill-opacity="1" fill-rule="nonzero"/><path fill="#3b272b" d="M 206.953125 41.527344 C 205.144531 40.480469 203.417969 40.34375 202.054688 41.148438 L 201.71875 41.375 L 190.59375 47.808594 L 176.675781 39.855469 C 168.984375 35.457031 159.949219 33.945312 151.242188 35.585938 L 86.066406 47.917969 C 85.59375 47.351562 85.058594 46.863281 84.46875 46.523438 C 83.460938 45.925781 82.445312 45.855469 81.65625 46.339844 L 57.214844 60.617188 L 56.84375 60.828125 C 56.742188 60.886719 56.667969 60.972656 56.617188 61.066406 C 56.160156 61.554688 55.90625 62.277344 55.90625 63.152344 C 55.90625 65.285156 57.359375 67.796875 59.222656 68.878906 C 59.796875 69.207031 60.363281 69.375 60.894531 69.375 C 60.988281 69.375 61.074219 69.359375 61.167969 69.34375 C 61.226562 69.359375 61.285156 69.375 61.351562 69.375 C 61.457031 69.375 61.574219 69.34375 61.675781 69.285156 L 86.453125 54.820312 C 86.972656 54.589844 87.785156 53.957031 87.785156 52.238281 C 87.785156 51.207031 87.4375 50.09375 86.878906 49.09375 L 151.480469 36.878906 C 159.882812 35.289062 168.597656 36.753906 176.03125 40.996094 L 189.289062 48.578125 L 4.773438 155.28125 L 4.71875 155.316406 C 3.308594 156.03125 2.503906 157.628906 2.503906 159.753906 C 2.503906 163.683594 5.28125 168.488281 8.707031 170.472656 C 9.746094 171.066406 10.753906 171.371094 11.675781 171.371094 C 12.285156 171.371094 12.859375 171.234375 13.375 170.964844 C 13.441406 170.953125 13.503906 170.921875 13.570312 170.886719 L 13.621094 170.855469 L 210.878906 56.753906 C 212.351562 56.121094 213.164062 54.515625 213.164062 52.238281 C 213.164062 48.308594 210.378906 43.5 206.953125 41.527344 Z M 61.285156 67.988281 C 60.9375 68.152344 60.429688 68.066406 59.875 67.746094 C 58.433594 66.910156 57.21875 64.804688 57.21875 63.152344 C 57.21875 62.453125 57.4375 61.953125 57.816406 61.777344 L 57.824219 61.769531 C 57.933594 61.71875 58.0625 61.691406 58.207031 61.691406 C 58.503906 61.691406 58.851562 61.800781 59.222656 62.011719 C 60.660156 62.839844 61.878906 64.9375 61.878906 66.59375 C 61.871094 67.304688 61.65625 67.804688 61.285156 67.988281 Z M 85.90625 53.632812 L 63.164062 66.898438 C 63.171875 66.796875 63.179688 66.703125 63.179688 66.601562 C 63.179688 64.464844 61.726562 61.953125 59.863281 60.886719 C 59.769531 60.835938 59.671875 60.785156 59.585938 60.738281 L 82.175781 47.554688 L 82.34375 47.4375 C 82.691406 47.226562 83.222656 47.304688 83.800781 47.648438 C 85.246094 48.484375 86.464844 50.582031 86.464844 52.230469 C 86.480469 52.664062 86.40625 53.421875 85.90625 53.632812 Z M 12.9375 169.71875 C 12.03125 170.277344 10.761719 170.144531 9.363281 169.339844 C 6.300781 167.566406 3.808594 163.269531 3.808594 159.753906 C 3.808594 158.148438 4.355469 156.972656 5.296875 156.488281 C 5.3125 156.480469 5.328125 156.480469 5.332031 156.472656 L 5.40625 156.429688 C 6.285156 156.050781 7.453125 156.242188 8.707031 156.960938 C 11.769531 158.730469 14.265625 163.03125 14.265625 166.542969 C 14.265625 168.054688 13.796875 169.179688 12.9375 169.71875 Z M 210.332031 55.5625 L 210.296875 55.578125 L 15.347656 168.335938 C 15.492188 167.792969 15.574219 167.199219 15.574219 166.542969 C 15.574219 162.542969 12.84375 157.835938 9.363281 155.828125 C 8.789062 155.5 8.222656 155.261719 7.679688 155.113281 L 202.417969 42.484375 L 202.757812 42.253906 C 203.664062 41.714844 204.921875 41.851562 206.300781 42.652344 C 209.363281 44.421875 211.859375 48.722656 211.859375 52.238281 C 211.859375 53.472656 211.589844 55.046875 210.332031 55.5625 Z M 210.332031 55.5625 " fill-opacity="1" fill-rule="nonzero"/><path fill="#fca8bb" d="M 55.421875 64.964844 C 58.148438 64.5 60.675781 65.96875 59.882812 67.542969 C 57.960938 71.328125 53.730469 77.585938 45.144531 82.554688 C 36.558594 87.503906 25.726562 89.960938 19.171875 91.054688 C 16.445312 91.519531 13.917969 90.054688 14.710938 88.484375 C 16.632812 84.695312 20.863281 78.4375 29.449219 73.476562 C 38.035156 68.515625 48.875 66.078125 55.421875 64.964844 Z M 55.421875 64.964844 " fill-opacity="1" fill-rule="nonzero"/><path fill="#3b272b" d="M 60.277344 65.765625 C 59.40625 64.589844 57.320312 63.976562 55.3125 64.328125 C 48.003906 65.5625 37.527344 68.058594 29.121094 72.917969 C 20.652344 77.804688 16.292969 83.925781 14.128906 88.195312 C 13.789062 88.878906 13.851562 89.632812 14.316406 90.265625 C 15.023438 91.222656 16.539062 91.804688 18.15625 91.804688 C 18.527344 91.804688 18.902344 91.773438 19.28125 91.710938 C 25.246094 90.707031 36.574219 88.261719 45.472656 83.125 C 53.933594 78.230469 58.292969 72.117188 60.464844 67.847656 C 60.8125 67.152344 60.746094 66.394531 60.277344 65.765625 Z M 59.304688 67.253906 C 57.214844 71.363281 53.003906 77.253906 44.824219 81.988281 C 36.109375 87.019531 24.949219 89.429688 19.070312 90.417969 C 17.394531 90.699219 15.878906 90.167969 15.378906 89.488281 C 15.152344 89.183594 15.21875 88.949219 15.304688 88.78125 C 17.386719 84.671875 21.597656 78.777344 29.789062 74.050781 C 38.027344 69.285156 48.339844 66.832031 55.542969 65.613281 C 55.855469 65.5625 56.167969 65.53125 56.464844 65.53125 C 57.75 65.53125 58.832031 65.988281 59.238281 66.542969 C 59.40625 66.78125 59.425781 67 59.304688 67.253906 Z M 59.304688 67.253906 " fill-opacity="1" fill-rule="nonzero"/><path fill="#3b272b" d="M 51.363281 69.132812 L 22.023438 86.082031 C 21.710938 86.261719 21.605469 86.664062 21.785156 86.976562 C 21.910156 87.183594 22.125 87.300781 22.351562 87.300781 C 22.460938 87.300781 22.578125 87.273438 22.679688 87.214844 L 52.023438 70.265625 C 52.335938 70.085938 52.445312 69.6875 52.265625 69.375 C 52.074219 69.0625 51.675781 68.953125 51.363281 69.132812 Z M 51.363281 69.132812 " fill-opacity="1" fill-rule="nonzero"/><path fill="#4fc8a2" d="M 100.09375 88.839844 C 101.863281 90.96875 101.863281 93.878906 100.09375 93.960938 C 95.835938 94.15625 88.257812 93.574219 79.609375 88.578125 C 70.972656 83.582031 63.394531 75.414062 59.136719 70.289062 C 57.367188 68.160156 57.367188 65.25 59.136719 65.167969 C 63.394531 64.964844 70.972656 65.554688 79.609375 70.550781 C 88.257812 75.546875 95.835938 83.707031 100.09375 88.839844 Z M 100.09375 88.839844 " fill-opacity="1" fill-rule="nonzero"/><path fill="#3b272b" d="M 100.59375 88.417969 C 96.71875 83.75 88.882812 75.144531 79.933594 69.984375 C 71.402344 65.046875 63.890625 64.289062 59.101562 64.515625 C 58.332031 64.550781 57.707031 64.988281 57.386719 65.707031 C 56.800781 67.042969 57.320312 69.140625 58.628906 70.710938 C 63.375 76.417969 70.8125 84.25 79.273438 89.144531 C 86.972656 93.589844 93.851562 94.648438 98.65625 94.648438 C 99.164062 94.648438 99.652344 94.636719 100.117188 94.613281 C 100.886719 94.578125 101.507812 94.140625 101.828125 93.421875 C 102.421875 92.085938 101.902344 89.980469 100.59375 88.417969 Z M 100.644531 92.894531 C 100.523438 93.167969 100.347656 93.292969 100.066406 93.308594 C 95.433594 93.515625 88.179688 92.769531 79.941406 88.011719 C 71.648438 83.222656 64.324219 75.503906 59.644531 69.875 C 58.554688 68.574219 58.257812 67.007812 58.59375 66.238281 C 58.714844 65.960938 58.890625 65.835938 59.171875 65.824219 C 62.945312 65.640625 70.585938 66.089844 79.289062 71.117188 C 88.0625 76.175781 95.777344 84.652344 99.59375 89.253906 C 100.683594 90.5625 100.980469 92.128906 100.644531 92.894531 Z M 100.644531 92.894531 " fill-opacity="1" fill-rule="nonzero"/><path fill="#3b272b" d="M 94.425781 87.367188 L 64.898438 70.308594 C 64.585938 70.128906 64.1875 70.238281 64.003906 70.550781 C 63.824219 70.863281 63.933594 71.261719 64.246094 71.441406 L 93.773438 88.5 C 93.875 88.558594 93.992188 88.585938 94.101562 88.585938 C 94.324219 88.585938 94.542969 88.46875 94.667969 88.261719 C 94.847656 87.949219 94.738281 87.546875 94.425781 87.367188 Z M 94.425781 87.367188 " fill-opacity="1" fill-rule="nonzero"/><path fill="#4fc8a2" d="M 185.988281 101.316406 C 199.441406 98.550781 217.410156 106.585938 217.410156 106.585938 C 217.03125 111.074219 215.136719 115.121094 212.257812 118.226562 L 199.59375 110.914062 C 191.363281 106.152344 181.203125 111.292969 179.730469 120.246094 L 179.550781 120.210938 C 177.066406 113.136719 175.636719 102.890625 175.636719 102.890625 C 178.808594 102.566406 182.328125 102.0625 185.988281 101.316406 Z M 262.015625 162.71875 C 262.015625 162.71875 262.386719 174.582031 271.292969 177.640625 C 271.605469 177.238281 271.894531 176.824219 272.164062 176.398438 C 273.730469 173.929688 276.421875 172.398438 279.339844 172.410156 C 280.023438 172.417969 280.703125 172.390625 281.40625 172.332031 C 290.949219 171.421875 298.519531 163.53125 299.054688 153.953125 C 299.054688 153.953125 283.191406 166.371094 269.09375 164.039062 C 266.769531 163.660156 264.390625 163.203125 262.015625 162.71875 Z M 172.589844 189.328125 L 132.589844 212.441406 C 128.164062 215 121.472656 215.273438 117.648438 213.066406 L 75.144531 188.507812 C 73.339844 187.464844 72.488281 186.046875 72.570312 184.574219 L 72.570312 152.847656 C 72.628906 151.195312 73.867188 149.472656 76.21875 148.121094 L 116.21875 125.007812 C 120.644531 122.453125 127.335938 122.175781 131.167969 124.386719 L 173.664062 148.941406 C 175.789062 150.175781 176.589844 151.917969 176.117188 153.65625 L 176.175781 153.65625 L 176.175781 183.628906 L 176.152344 183.652344 C 176.617188 185.570312 175.398438 187.71875 172.589844 189.328125 Z M 86.617188 154.242188 L 121.988281 174.675781 C 123.390625 175.496094 125.839844 175.394531 127.453125 174.453125 L 161.792969 154.621094 C 163.410156 153.675781 163.578125 152.269531 162.183594 151.460938 L 126.8125 131.027344 C 125.414062 130.207031 122.960938 130.308594 121.351562 131.253906 L 87.015625 151.085938 C 85.390625 152.019531 85.21875 153.4375 86.617188 154.242188 Z M 86.617188 154.242188 " fill-opacity="1" fill-rule="nonzero"/><path fill="#fca8bb" d="M 217.453125 103.871094 C 217.496094 104.792969 217.480469 105.703125 217.410156 106.585938 C 217.410156 106.585938 199.441406 98.554688 185.988281 101.316406 C 182.328125 102.0625 178.808594 102.566406 175.632812 102.882812 C 175.632812 102.882812 177.054688 113.128906 179.542969 120.203125 L 179.722656 120.238281 C 179.601562 120.972656 179.542969 121.71875 179.542969 122.496094 C 179.542969 124.886719 180.179688 127.1875 181.335938 129.183594 C 182.378906 131 183.847656 132.570312 185.652344 133.722656 C 182.394531 136.132812 178.339844 137.550781 173.960938 137.535156 C 163.140625 137.492188 154.492188 128.769531 154.492188 117.953125 C 154.492188 112.164062 157.003906 106.957031 160.996094 103.378906 C 164.457031 100.261719 169.042969 98.375 174.050781 98.375 C 174.070312 98.375 174.085938 98.375 174.105469 98.375 C 177.023438 98.375 179.78125 96.980469 181.34375 94.496094 C 185 88.667969 191.648438 84.898438 199.128906 85.355469 C 208.96875 85.949219 216.945312 94.003906 217.453125 103.871094 Z M 279.515625 133.257812 C 272.074219 133.257812 265.617188 137.410156 262.300781 143.519531 C 261.761719 144.527344 260.9375 145.304688 259.957031 145.792969 C 259.078125 146.226562 258.089844 146.4375 257.082031 146.363281 C 256.609375 146.328125 256.132812 146.308594 255.652344 146.308594 C 248.085938 146.308594 241.523438 150.605469 238.28125 156.902344 C 238.273438 156.902344 238.273438 156.902344 238.273438 156.902344 C 237.316406 158.753906 236.648438 160.777344 236.3125 162.898438 C 236.167969 163.878906 236.089844 164.867188 236.089844 165.882812 C 236.089844 176.6875 244.847656 185.460938 255.644531 185.460938 C 262.046875 185.460938 267.730469 182.382812 271.285156 177.632812 C 262.378906 174.574219 262.011719 162.710938 262.011719 162.710938 C 264.382812 163.195312 266.769531 163.652344 269.085938 164.03125 C 283.1875 166.363281 299.050781 153.945312 299.050781 153.945312 C 299.671875 142.632812 290.6875 133.257812 279.515625 133.257812 Z M 126.8125 131.027344 C 125.414062 130.207031 122.960938 130.308594 121.351562 131.253906 L 87.015625 151.085938 C 85.390625 152.027344 85.21875 153.4375 86.617188 154.242188 L 121.988281 174.675781 C 123.390625 175.496094 125.839844 175.394531 127.453125 174.453125 L 161.792969 154.621094 C 163.410156 153.675781 163.578125 152.269531 162.183594 151.460938 Z M 124.40625 64.175781 C 135.382812 64.175781 144.273438 73.085938 144.273438 84.054688 C 144.273438 95.042969 135.382812 103.945312 124.40625 103.945312 C 113.425781 103.945312 104.535156 95.035156 104.535156 84.054688 C 104.535156 73.085938 113.425781 64.175781 124.40625 64.175781 Z M 202.503906 222.425781 C 187.367188 232.214844 191.007812 252.960938 191.007812 252.960938 C 194.585938 254.3125 198.453125 255.050781 202.503906 255.050781 C 220.507812 255.050781 235.101562 240.449219 235.101562 222.425781 C 235.101562 213.359375 231.40625 205.160156 225.433594 199.25 C 224.15625 205.652344 217.648438 212.636719 202.503906 222.425781 Z M 202.503906 222.425781 " fill-opacity="1" fill-rule="nonzero"/><path fill="#edb04a" d="M 259.957031 145.796875 C 259.078125 146.234375 258.089844 146.445312 257.082031 146.371094 C 256.609375 146.335938 256.132812 146.3125 255.652344 146.3125 C 248.085938 146.3125 241.523438 150.613281 238.28125 156.910156 C 238.273438 156.910156 238.273438 156.910156 238.273438 156.910156 C 237.316406 158.761719 236.648438 160.785156 236.3125 162.90625 L 236.089844 162.882812 L 186.21875 134.070312 C 186.023438 133.960938 185.835938 133.839844 185.644531 133.707031 C 183.847656 132.554688 182.371094 130.976562 181.328125 129.171875 C 180.175781 127.171875 179.535156 124.871094 179.535156 122.484375 C 179.535156 121.707031 179.601562 120.957031 179.71875 120.222656 C 181.199219 111.269531 191.351562 106.136719 199.578125 110.894531 L 212.242188 118.207031 L 242.988281 135.972656 Z M 202.503906 189.808594 C 184.5 189.808594 169.90625 204.417969 169.90625 222.433594 C 169.90625 236.40625 178.671875 248.320312 191 252.96875 C 191 252.96875 187.367188 232.222656 202.496094 222.433594 C 217.632812 212.644531 224.144531 205.660156 225.429688 199.257812 C 219.550781 193.402344 211.445312 189.808594 202.503906 189.808594 Z M 121.65625 229.71875 C 116.964844 227.007812 110.09375 226.347656 104.289062 227.699219 C 101.800781 228.273438 98.960938 227.921875 97.082031 226.839844 L 63.984375 207.707031 C 62.082031 206.617188 61.503906 204.976562 62.503906 203.527344 C 65.007812 199.910156 63.460938 195.605469 57.859375 192.917969 C 51.886719 190.054688 42.984375 190.128906 37.074219 193.078125 C 34.121094 194.558594 32.328125 196.488281 31.699219 198.507812 C 31.335938 199.675781 29.769531 200.570312 27.75 200.78125 C 24.617188 201.113281 21.617188 201.980469 19.1875 203.375 C 15.972656 205.230469 14.390625 207.671875 14.441406 210.105469 C 14.492188 212.441406 16.050781 214.765625 19.128906 216.546875 C 23.816406 219.246094 30.6875 219.914062 36.496094 218.5625 C 38.976562 217.984375 41.808594 218.332031 43.695312 219.421875 L 76.792969 238.546875 C 78.695312 239.636719 79.265625 241.285156 78.273438 242.738281 C 76.699219 245.003906 76.71875 247.550781 78.367188 249.800781 C 79.316406 251.117188 80.820312 252.320312 82.875 253.316406 C 88.816406 256.191406 97.734375 256.140625 103.648438 253.191406 C 106.640625 251.710938 108.445312 249.773438 109.078125 247.738281 C 109.441406 246.570312 111.015625 245.683594 113.035156 245.46875 C 116.160156 245.140625 119.15625 244.277344 121.582031 242.882812 C 124.558594 241.160156 126.140625 238.945312 126.320312 236.695312 L 126.320312 235.832031 C 126.140625 233.609375 124.585938 231.410156 121.65625 229.71875 Z M 89.671875 236.566406 C 88.59375 235.941406 88.59375 234.921875 89.6875 234.285156 C 90.777344 233.652344 92.539062 233.652344 93.628906 234.285156 C 94.710938 234.910156 94.710938 235.925781 93.613281 236.566406 C 92.527344 237.1875 90.753906 237.1875 89.671875 236.566406 Z M 79.441406 228.367188 C 78.34375 229 76.582031 229 75.492188 228.375 C 74.414062 227.742188 74.417969 226.726562 75.507812 226.09375 C 76.597656 225.460938 78.367188 225.453125 79.449219 226.085938 C 80.535156 226.71875 80.53125 227.734375 79.441406 228.367188 Z M 47.148438 209.707031 C 48.238281 209.074219 50.007812 209.066406 51.089844 209.699219 C 52.175781 210.328125 52.167969 211.347656 51.082031 211.976562 C 49.984375 212.609375 48.222656 212.609375 47.132812 211.984375 C 46.046875 211.359375 46.050781 210.335938 47.148438 209.707031 Z M 61.320312 217.894531 C 62.417969 217.265625 64.179688 217.265625 65.269531 217.886719 C 66.351562 218.519531 66.34375 219.535156 65.253906 220.167969 C 64.164062 220.800781 62.394531 220.808594 61.3125 220.175781 C 60.226562 219.550781 60.230469 218.527344 61.320312 217.894531 Z M 61.320312 217.894531 " fill-opacity="1" fill-rule="nonzero"/><path fill="#cc8e36" d="M 116.21875 125.007812 C 118.054688 123.949219 120.277344 123.289062 122.523438 123.027344 C 122.523438 123.042969 122.523438 123.050781 122.523438 123.0625 C 122.523438 126.339844 119.875 128.988281 116.605469 128.988281 C 114.949219 128.988281 113.460938 128.3125 112.386719 127.21875 Z M 98.148438 137.308594 C 94.875 137.308594 92.226562 139.960938 92.226562 143.234375 C 92.226562 144.761719 92.808594 146.140625 93.75 147.191406 L 103.78125 141.398438 C 103.011719 139.023438 100.785156 137.308594 98.148438 137.308594 Z M 171.945312 149.167969 C 172.523438 149.167969 173.089844 149.082031 173.621094 148.921875 L 166.191406 144.628906 C 166.820312 147.230469 169.152344 149.167969 171.945312 149.167969 Z M 79.703125 162.890625 C 82.976562 162.890625 85.625 160.234375 85.625 156.964844 C 85.625 153.699219 82.976562 151.042969 79.703125 151.042969 C 76.429688 151.042969 73.78125 153.699219 73.78125 156.964844 C 73.78125 160.234375 76.429688 162.890625 79.703125 162.890625 Z M 153.496094 162.890625 C 156.769531 162.890625 159.417969 160.234375 159.417969 156.964844 C 159.417969 156.652344 159.390625 156.34375 159.339844 156.042969 L 149.769531 161.570312 C 150.789062 162.390625 152.082031 162.890625 153.496094 162.890625 Z M 92.226562 177.132812 C 92.226562 180.40625 94.875 183.054688 98.148438 183.054688 C 101.421875 183.054688 104.070312 180.398438 104.070312 177.132812 C 104.070312 173.863281 101.421875 171.207031 98.148438 171.207031 C 94.882812 171.207031 92.226562 173.855469 92.226562 177.132812 Z M 129.128906 177.132812 C 129.128906 180.40625 131.777344 183.054688 135.050781 183.054688 C 138.324219 183.054688 140.972656 180.398438 140.972656 177.132812 C 140.972656 173.863281 138.324219 171.207031 135.050781 171.207031 C 131.777344 171.207031 129.128906 173.855469 129.128906 177.132812 Z M 171.945312 171.207031 C 168.671875 171.207031 166.023438 173.863281 166.023438 177.132812 C 166.023438 180.398438 168.671875 183.054688 171.945312 183.054688 C 173.605469 183.054688 175.101562 182.375 176.175781 181.277344 L 176.175781 172.984375 C 175.101562 171.886719 173.605469 171.207031 171.945312 171.207031 Z M 84.695312 194.035156 C 85.28125 193.113281 85.625 192.023438 85.625 190.855469 C 85.625 187.578125 82.976562 184.929688 79.703125 184.929688 C 77.4375 184.929688 75.464844 186.207031 74.46875 188.082031 C 74.679688 188.234375 74.898438 188.378906 75.136719 188.515625 Z M 116.605469 184.929688 C 113.332031 184.929688 110.683594 187.578125 110.683594 190.855469 C 110.683594 194.128906 113.332031 196.78125 116.605469 196.78125 C 119.875 196.78125 122.523438 194.128906 122.523438 190.855469 C 122.523438 187.578125 119.871094 184.929688 116.605469 184.929688 Z M 153.496094 196.78125 C 156.769531 196.78125 159.417969 194.128906 159.417969 190.855469 C 159.417969 187.578125 156.769531 184.929688 153.496094 184.929688 C 150.226562 184.929688 147.578125 187.578125 147.578125 190.855469 C 147.578125 194.128906 150.226562 196.78125 153.496094 196.78125 Z M 140.175781 208.0625 C 139.152344 206.292969 137.242188 205.101562 135.050781 205.101562 C 131.777344 205.101562 129.128906 207.75 129.128906 211.027344 C 129.128906 211.984375 129.363281 212.886719 129.761719 213.683594 C 130.761719 213.359375 131.71875 212.949219 132.589844 212.449219 Z M 14.433594 220 C 14.40625 222.40625 15.964844 224.792969 19.121094 226.625 C 23.808594 229.332031 30.683594 229.992188 36.488281 228.640625 C 38.96875 228.0625 41.800781 228.417969 43.6875 229.5 L 76.785156 248.625 C 77.429688 248.996094 77.917969 249.425781 78.242188 249.894531 L 78.359375 249.816406 C 76.710938 247.574219 76.691406 245.015625 78.265625 242.75 C 79.261719 241.304688 78.6875 239.65625 76.785156 238.5625 L 43.6875 219.433594 C 41.808594 218.347656 38.96875 217.996094 36.488281 218.578125 C 30.683594 219.929688 23.800781 219.261719 19.121094 216.558594 C 16.046875 214.78125 14.484375 212.449219 14.433594 210.117188 C 14.433594 210.117188 14.433594 220 14.433594 220 Z M 78.257812 252.808594 C 75.761719 256.402344 77.285156 260.695312 82.859375 263.386719 C 88.800781 266.261719 97.722656 266.21875 103.636719 263.273438 C 106.625 261.78125 108.433594 259.84375 109.0625 257.804688 C 109.425781 256.640625 111 255.75 113.019531 255.539062 C 116.148438 255.203125 119.144531 254.339844 121.566406 252.945312 C 124.570312 251.210938 126.148438 248.972656 126.304688 246.707031 L 126.304688 236.703125 C 126.117188 238.945312 124.535156 241.160156 121.566406 242.890625 C 119.144531 244.289062 116.148438 245.15625 113.019531 245.472656 C 111 245.691406 109.425781 246.570312 109.0625 247.746094 C 108.433594 249.789062 106.625 251.726562 103.636719 253.199219 C 97.722656 256.140625 88.800781 256.199219 82.859375 253.324219 C 80.804688 252.328125 79.304688 251.125 78.351562 249.808594 L 78.238281 249.890625 C 78.890625 250.804688 78.910156 251.847656 78.257812 252.808594 Z M 78.257812 252.808594 " fill-opacity="1" fill-rule="nonzero"/><path fill="#3b272b" d="M 294.203125 138.929688 C 290.339844 134.847656 285.128906 132.605469 279.515625 132.605469 C 272.089844 132.605469 265.277344 136.671875 261.726562 143.214844 C 261.320312 143.976562 260.703125 144.59375 259.957031 145.035156 L 213.257812 118.054688 C 216 114.851562 217.707031 110.835938 218.0625 106.636719 C 218.0625 106.625 218.0625 106.609375 218.0625 106.601562 C 218.0625 106.601562 218.0625 106.601562 218.0625 106.59375 C 218.136719 105.671875 218.15625 104.742188 218.105469 103.828125 C 217.582031 93.707031 209.265625 85.304688 199.164062 84.703125 C 191.75 84.25 184.722656 87.875 180.789062 94.148438 C 179.382812 96.386719 176.886719 97.722656 174.054688 97.722656 C 169.0625 97.722656 164.273438 99.558594 160.566406 102.890625 C 160.550781 102.90625 160.542969 102.914062 160.53125 102.929688 C 156.285156 106.753906 153.847656 112.230469 153.847656 117.953125 C 153.847656 129.0625 162.875 138.136719 173.960938 138.1875 C 173.992188 138.1875 174.019531 138.1875 174.050781 138.1875 C 178.257812 138.1875 182.257812 136.910156 185.660156 134.507812 C 185.738281 134.558594 185.8125 134.609375 185.890625 134.652344 L 235.601562 163.371094 C 235.5 164.207031 235.433594 165.039062 235.433594 165.90625 C 235.433594 177.058594 244.507812 186.136719 255.644531 186.136719 C 262.046875 186.136719 267.910156 183.207031 271.757812 178.109375 C 271.761719 178.105469 271.761719 178.105469 271.761719 178.097656 C 271.777344 178.082031 271.785156 178.066406 271.800781 178.054688 C 272.105469 177.667969 272.402344 177.238281 272.707031 176.761719 C 274.171875 174.453125 276.632812 173.078125 279.273438 173.078125 C 279.289062 173.078125 279.304688 173.078125 279.324219 173.078125 C 280.027344 173.085938 280.734375 173.058594 281.464844 172.992188 C 291.304688 172.054688 299.152344 163.894531 299.703125 153.996094 C 300.015625 148.355469 298.054688 143.011719 294.203125 138.929688 Z M 212.105469 117.390625 L 199.914062 110.347656 C 195.871094 108.011719 191.140625 107.816406 186.9375 109.804688 C 183.382812 111.480469 180.734375 114.53125 179.566406 118.175781 C 177.832031 112.503906 176.707031 105.601562 176.378906 103.464844 C 179.703125 103.101562 182.984375 102.601562 186.125 101.960938 C 198.0625 99.507812 213.890625 105.816406 216.707031 107 C 216.277344 110.828125 214.660156 114.480469 212.105469 117.390625 Z M 174.105469 99.027344 C 177.335938 99.027344 180.246094 97.46875 181.894531 94.847656 C 185.574219 88.972656 192.15625 85.582031 199.085938 86.007812 C 208.535156 86.574219 216.3125 94.433594 216.808594 103.902344 C 216.835938 104.46875 216.828125 105.039062 216.808594 105.613281 C 213.019531 104.039062 197.84375 98.207031 185.855469 100.675781 C 182.539062 101.351562 179.078125 101.882812 175.566406 102.238281 C 169.789062 102.820312 165.136719 102.839844 162.75 102.789062 C 165.996094 100.355469 169.957031 99.027344 174.105469 99.027344 Z M 173.960938 136.882812 C 163.585938 136.839844 155.144531 128.351562 155.144531 117.953125 C 155.144531 112.671875 157.367188 107.617188 161.242188 104.046875 C 162.511719 104.105469 167.882812 104.285156 175.074219 103.597656 C 175.429688 105.917969 176.792969 114.363281 178.917969 120.421875 C 178.941406 120.484375 178.976562 120.550781 179.019531 120.601562 C 178.941406 121.234375 178.882812 121.867188 178.882812 122.496094 C 178.882812 124.957031 179.535156 127.382812 180.761719 129.503906 C 181.710938 131.152344 182.996094 132.589844 184.492188 133.707031 C 181.378906 135.792969 177.75 136.890625 173.960938 136.882812 Z M 186.539062 133.511719 C 186.363281 133.410156 186.183594 133.300781 185.996094 133.171875 C 184.316406 132.097656 182.902344 130.601562 181.894531 128.859375 C 180.777344 126.933594 180.1875 124.734375 180.1875 122.503906 C 180.1875 121.785156 180.246094 121.066406 180.363281 120.355469 C 181.039062 116.28125 183.699219 112.78125 187.488281 110.988281 C 191.304688 109.1875 195.59375 109.367188 199.253906 111.480469 L 214.558594 120.324219 L 206.160156 124.953125 C 205.839844 125.125 205.734375 125.523438 205.90625 125.835938 C 206.023438 126.054688 206.25 126.179688 206.480469 126.179688 C 206.589844 126.179688 206.699219 126.148438 206.792969 126.097656 L 215.878906 121.09375 L 223.585938 125.554688 L 215.238281 130.144531 C 214.921875 130.316406 214.8125 130.71875 214.976562 131.027344 C 215.09375 131.246094 215.320312 131.371094 215.550781 131.371094 C 215.660156 131.371094 215.761719 131.339844 215.863281 131.289062 L 224.898438 126.316406 L 232.605469 130.769531 L 224.324219 135.335938 C 224.003906 135.507812 223.898438 135.910156 224.070312 136.222656 C 224.1875 136.4375 224.414062 136.5625 224.644531 136.5625 C 224.753906 136.5625 224.863281 136.53125 224.957031 136.480469 L 233.925781 131.53125 L 241.648438 135.988281 L 233.417969 140.519531 C 233.097656 140.695312 232.988281 141.09375 233.164062 141.40625 C 233.28125 141.625 233.503906 141.746094 233.738281 141.746094 C 233.847656 141.746094 233.953125 141.71875 234.050781 141.667969 L 242.976562 136.75 L 258.367188 145.644531 C 257.953125 145.726562 257.53125 145.753906 257.117188 145.726562 C 256.632812 145.691406 256.132812 145.667969 255.636719 145.667969 C 248.078125 145.667969 241.226562 149.828125 237.734375 156.53125 C 237.714844 156.558594 237.699219 156.589844 237.675781 156.617188 C 236.808594 158.296875 236.191406 160.101562 235.8125 162 Z M 255.644531 184.8125 C 245.21875 184.8125 236.742188 176.324219 236.742188 165.898438 C 236.742188 164.910156 236.8125 163.964844 236.953125 163.015625 C 237.242188 161.140625 237.816406 159.355469 238.621094 157.691406 C 241.152344 158.402344 251.058594 161.132812 261.386719 163.261719 C 261.558594 165.5625 262.730469 174.742188 270.21875 177.9375 C 266.625 182.316406 261.363281 184.8125 255.644531 184.8125 Z M 281.351562 171.683594 C 280.667969 171.75 280.007812 171.773438 279.347656 171.765625 C 279.324219 171.765625 279.3125 171.765625 279.289062 171.765625 C 276.191406 171.765625 273.324219 173.363281 271.609375 176.054688 C 271.429688 176.347656 271.25 176.609375 271.066406 176.855469 C 264.417969 174.242188 263.019531 166.160156 262.734375 163.53125 C 265 163.988281 267.0625 164.371094 268.984375 164.683594 C 270.246094 164.894531 271.515625 164.988281 272.785156 164.988281 C 283.75 164.988281 294.671875 157.910156 298.25 155.363281 C 297.097656 163.953125 290.066406 170.855469 281.351562 171.683594 Z M 298.410156 153.617188 C 296.402344 155.121094 281.9375 165.503906 269.195312 163.394531 C 267.039062 163.042969 264.730469 162.609375 262.140625 162.078125 C 252.03125 160.015625 242.214844 157.335938 239.253906 156.507812 C 242.613281 150.613281 248.816406 146.96875 255.644531 146.96875 C 256.109375 146.96875 256.574219 146.980469 257.03125 147.019531 C 258.121094 147.097656 259.238281 146.878906 260.246094 146.378906 C 261.386719 145.8125 262.292969 144.925781 262.875 143.832031 C 266.199219 137.710938 272.570312 133.910156 279.515625 133.910156 C 284.761719 133.910156 289.644531 136.011719 293.25 139.828125 C 296.792969 143.578125 298.613281 148.464844 298.410156 153.617188 Z M 298.410156 153.617188 " fill-opacity="1" fill-rule="nonzero"/><path fill="#3b272b" d="M 176.820312 183.671875 C 176.820312 183.660156 176.828125 183.652344 176.828125 183.636719 L 176.828125 153.664062 C 176.828125 153.613281 176.8125 153.566406 176.800781 153.523438 C 177.199219 151.527344 176.199219 149.667969 173.984375 148.382812 L 137.132812 127.085938 C 137.671875 126.199219 137.960938 125.257812 137.960938 124.269531 C 137.960938 122.671875 137.214844 121.160156 135.839844 119.859375 C 137.214844 118.570312 137.960938 117.058594 137.960938 115.46875 C 137.960938 113.871094 137.214844 112.359375 135.839844 111.058594 C 137.214844 109.769531 137.960938 108.257812 137.960938 106.667969 C 137.960938 104.792969 136.9375 103.035156 135.074219 101.605469 C 140.972656 97.988281 144.921875 91.484375 144.921875 84.0625 C 144.921875 72.742188 135.710938 63.527344 124.398438 63.527344 C 113.085938 63.527344 103.875 72.742188 103.875 84.0625 C 103.875 91.375 107.714844 97.808594 113.484375 101.445312 C 111.554688 102.882812 110.492188 104.664062 110.492188 106.574219 C 110.492188 108.171875 111.242188 109.679688 112.613281 110.980469 C 111.242188 112.273438 110.492188 113.785156 110.492188 115.375 C 110.492188 116.972656 111.242188 118.480469 112.613281 119.78125 C 111.242188 121.074219 110.492188 122.585938 110.492188 124.175781 C 110.492188 125.183594 110.796875 126.148438 111.363281 127.058594 L 75.894531 147.554688 C 73.402344 148.984375 71.988281 150.859375 71.914062 152.796875 C 71.914062 152.8125 71.914062 152.820312 71.914062 152.835938 L 71.914062 184.566406 C 71.914062 184.574219 71.914062 184.574219 71.914062 184.574219 C 71.835938 186.34375 72.867188 187.941406 74.820312 189.070312 L 117.320312 213.625 C 119.144531 214.679688 121.582031 215.195312 124.128906 215.195312 C 127.191406 215.195312 130.40625 214.453125 132.917969 213 L 172.917969 189.890625 C 175.820312 188.226562 177.265625 185.910156 176.820312 183.671875 Z M 136.660156 124.269531 C 136.660156 125.007812 136.429688 125.742188 136.007812 126.433594 L 131.496094 123.824219 C 130.921875 123.492188 130.277344 123.222656 129.59375 123 C 131.140625 122.621094 132.582031 122.074219 133.839844 121.351562 C 134.195312 121.144531 134.519531 120.929688 134.832031 120.703125 C 136.015625 121.777344 136.660156 123.003906 136.660156 124.269531 Z M 124.316406 123.617188 C 124.769531 123.617188 125.21875 123.601562 125.667969 123.570312 C 127.613281 123.6875 129.433594 124.136719 130.839844 124.953125 L 135.203125 127.472656 C 135.085938 127.585938 134.964844 127.703125 134.832031 127.820312 C 134.507812 127.578125 134.15625 127.347656 133.773438 127.128906 C 128.476562 124.074219 119.882812 124.058594 114.621094 127.09375 C 114.265625 127.296875 113.941406 127.515625 113.628906 127.738281 C 113.519531 127.636719 113.410156 127.542969 113.308594 127.441406 L 116.539062 125.574219 C 118.527344 124.429688 121 123.761719 123.441406 123.585938 C 123.738281 123.601562 124.027344 123.617188 124.316406 123.617188 Z M 115.339844 120.179688 C 115.125 120.058594 114.921875 119.917969 114.71875 119.789062 C 114.898438 119.664062 115.078125 119.550781 115.28125 119.433594 C 117.730469 118.023438 120.9375 117.320312 124.152344 117.320312 C 127.394531 117.320312 130.644531 118.039062 133.128906 119.46875 C 133.34375 119.59375 133.546875 119.730469 133.75 119.859375 C 133.570312 119.984375 133.390625 120.101562 133.1875 120.21875 C 131.066406 121.4375 128.375 122.125 125.601562 122.292969 C 124.898438 122.257812 124.179688 122.265625 123.453125 122.308594 C 120.5 122.183594 117.597656 121.480469 115.339844 120.179688 Z M 124.316406 150.03125 C 127.773438 150.03125 131.21875 149.277344 133.839844 147.757812 C 134.195312 147.554688 134.519531 147.339844 134.832031 147.113281 C 136.015625 148.1875 136.660156 149.414062 136.660156 150.683594 C 136.660156 152.449219 135.429688 154.132812 133.1875 155.433594 C 128.28125 158.265625 120.277344 158.25 115.339844 155.398438 C 113.0625 154.082031 111.808594 152.371094 111.808594 150.589844 C 111.808594 149.328125 112.453125 148.109375 113.628906 147.039062 C 113.953125 147.28125 114.304688 147.511719 114.6875 147.730469 C 117.34375 149.261719 120.835938 150.03125 124.316406 150.03125 Z M 114.71875 146.199219 C 114.898438 146.074219 115.078125 145.957031 115.28125 145.84375 C 117.722656 144.433594 120.9375 143.730469 124.152344 143.730469 C 127.394531 143.730469 130.644531 144.449219 133.128906 145.878906 C 133.34375 146 133.546875 146.140625 133.75 146.269531 C 133.570312 146.394531 133.390625 146.511719 133.1875 146.625 C 128.28125 149.457031 120.277344 149.445312 115.339844 146.589844 C 115.117188 146.464844 114.921875 146.335938 114.71875 146.199219 Z M 134.839844 145.433594 C 134.515625 145.195312 134.164062 144.964844 133.78125 144.746094 C 128.484375 141.6875 119.890625 141.675781 114.628906 144.710938 C 114.273438 144.914062 113.949219 145.128906 113.636719 145.355469 C 112.453125 144.28125 111.808594 143.054688 111.808594 141.78125 C 111.808594 140.519531 112.453125 139.300781 113.628906 138.230469 C 113.953125 138.472656 114.304688 138.703125 114.6875 138.921875 C 117.34375 140.460938 120.835938 141.222656 124.316406 141.222656 C 127.773438 141.222656 131.21875 140.46875 133.839844 138.949219 C 134.195312 138.746094 134.519531 138.53125 134.832031 138.304688 C 136.015625 139.378906 136.660156 140.605469 136.660156 141.878906 C 136.660156 143.148438 136.015625 144.367188 134.839844 145.433594 Z M 114.71875 137.398438 C 114.898438 137.273438 115.078125 137.15625 115.28125 137.042969 C 117.722656 135.632812 120.9375 134.929688 124.152344 134.929688 C 127.394531 134.929688 130.652344 135.648438 133.128906 137.078125 C 133.34375 137.203125 133.546875 137.339844 133.75 137.46875 C 133.570312 137.59375 133.390625 137.710938 133.1875 137.824219 C 128.28125 140.65625 120.277344 140.644531 115.339844 137.789062 C 115.117188 137.664062 114.921875 137.527344 114.71875 137.398438 Z M 134.839844 136.628906 C 134.515625 136.386719 134.164062 136.15625 133.78125 135.9375 C 128.484375 132.878906 119.890625 132.859375 114.628906 135.902344 C 114.273438 136.105469 113.949219 136.324219 113.636719 136.546875 C 113.613281 136.53125 113.597656 136.511719 113.578125 136.496094 L 121.046875 132.183594 C 122.117188 132.335938 123.214844 132.421875 124.316406 132.421875 C 125.398438 132.421875 126.472656 132.34375 127.523438 132.191406 L 134.976562 136.496094 C 134.925781 136.539062 134.882812 136.582031 134.839844 136.628906 Z M 127.140625 130.460938 C 125.53125 129.527344 122.84375 129.621094 121.015625 130.6875 L 120.753906 130.839844 C 118.773438 130.507812 116.902344 129.890625 115.332031 128.988281 C 115.117188 128.863281 114.914062 128.726562 114.710938 128.597656 C 114.890625 128.472656 115.074219 128.355469 115.277344 128.242188 C 117.722656 126.832031 120.929688 126.128906 124.144531 126.128906 C 127.386719 126.128906 130.636719 126.847656 133.121094 128.277344 C 133.339844 128.402344 133.542969 128.539062 133.746094 128.667969 C 133.5625 128.792969 133.382812 128.910156 133.179688 129.023438 C 131.632812 129.917969 129.773438 130.527344 127.800781 130.855469 Z M 113.628906 129.425781 C 113.953125 129.664062 114.304688 129.894531 114.6875 130.113281 C 115.988281 130.863281 117.480469 131.429688 119.070312 131.8125 L 112.679688 135.503906 C 112.105469 134.703125 111.800781 133.855469 111.800781 132.980469 C 111.808594 131.71875 112.445312 130.492188 113.628906 129.425781 Z M 112.402344 137.171875 C 112.472656 137.246094 112.546875 137.316406 112.621094 137.390625 C 111.25 138.683594 110.5 140.191406 110.5 141.78125 C 110.5 143.378906 111.25 144.890625 112.621094 146.191406 C 111.25 147.484375 110.5 148.992188 110.5 150.582031 C 110.5 152.855469 111.988281 154.960938 114.6875 156.523438 C 117.34375 158.0625 120.835938 158.824219 124.316406 158.824219 C 127.773438 158.824219 131.21875 158.070312 133.839844 156.550781 C 136.503906 155.011719 137.96875 152.929688 137.96875 150.671875 C 137.96875 149.074219 137.21875 147.5625 135.847656 146.261719 C 137.21875 144.972656 137.96875 143.460938 137.96875 141.871094 C 137.96875 140.273438 137.21875 138.761719 135.847656 137.460938 C 135.949219 137.359375 136.058594 137.265625 136.152344 137.164062 L 161.863281 152.015625 C 162.148438 152.175781 162.480469 152.449219 162.480469 152.820312 C 162.480469 153.21875 162.105469 153.675781 161.472656 154.046875 L 127.132812 173.878906 C 125.726562 174.699219 123.519531 174.800781 122.320312 174.101562 L 86.953125 153.667969 C 86.667969 153.511719 86.335938 153.234375 86.335938 152.863281 C 86.335938 152.464844 86.710938 152.007812 87.351562 151.636719 Z M 135.847656 135.488281 L 129.5 131.820312 C 131.082031 131.441406 132.554688 130.882812 133.839844 130.144531 C 134.195312 129.941406 134.519531 129.722656 134.832031 129.496094 C 136.015625 130.570312 136.660156 131.796875 136.660156 133.070312 C 136.660156 133.910156 136.378906 134.726562 135.847656 135.488281 Z M 105.1875 84.054688 C 105.1875 73.453125 113.808594 64.828125 124.40625 64.828125 C 135 64.828125 143.621094 73.453125 143.621094 84.054688 C 143.621094 91.214844 139.695312 97.46875 133.882812 100.777344 C 133.847656 100.757812 133.816406 100.734375 133.78125 100.714844 C 128.503906 97.664062 119.964844 97.640625 114.695312 100.640625 C 109.011719 97.300781 105.1875 91.121094 105.1875 84.054688 Z M 132.472656 101.511719 C 130.023438 102.652344 127.285156 103.296875 124.40625 103.296875 C 121.429688 103.296875 118.605469 102.617188 116.089844 101.402344 C 118.410156 100.277344 121.277344 99.710938 124.152344 99.710938 C 127.117188 99.703125 130.09375 100.304688 132.472656 101.511719 Z M 111.808594 106.566406 C 111.808594 104.953125 112.84375 103.414062 114.730469 102.171875 C 117.621094 103.726562 120.914062 104.605469 124.414062 104.605469 C 127.808594 104.605469 131.015625 103.769531 133.839844 102.304688 C 135.667969 103.550781 136.667969 105.078125 136.667969 106.667969 C 136.667969 107.929688 136.023438 109.152344 134.847656 110.21875 C 134.519531 109.980469 134.171875 109.746094 133.789062 109.527344 C 128.492188 106.472656 119.898438 106.457031 114.636719 109.492188 C 114.28125 109.695312 113.953125 109.914062 113.644531 110.136719 C 112.445312 109.054688 111.808594 107.828125 111.808594 106.566406 Z M 133.75 111.046875 C 133.570312 111.167969 133.390625 111.285156 133.1875 111.402344 C 128.28125 114.234375 120.277344 114.21875 115.339844 111.367188 C 115.125 111.242188 114.921875 111.105469 114.71875 110.972656 C 114.898438 110.851562 115.078125 110.734375 115.28125 110.617188 C 117.730469 109.207031 120.9375 108.503906 124.152344 108.503906 C 127.394531 108.503906 130.644531 109.222656 133.128906 110.652344 C 133.34375 110.785156 133.546875 110.914062 133.75 111.046875 Z M 111.808594 115.367188 C 111.808594 114.101562 112.453125 112.882812 113.628906 111.816406 C 113.953125 112.054688 114.304688 112.289062 114.6875 112.503906 C 117.34375 114.046875 120.835938 114.808594 124.316406 114.808594 C 127.773438 114.808594 131.21875 114.050781 133.839844 112.535156 C 134.195312 112.332031 134.519531 112.113281 134.832031 111.886719 C 136.015625 112.964844 136.660156 114.191406 136.660156 115.460938 C 136.660156 116.722656 136.015625 117.945312 134.839844 119.011719 C 134.515625 118.773438 134.164062 118.539062 133.78125 118.320312 C 128.484375 115.265625 119.890625 115.25 114.628906 118.285156 C 114.273438 118.488281 113.949219 118.707031 113.636719 118.933594 C 112.445312 117.863281 111.808594 116.636719 111.808594 115.367188 Z M 113.628906 120.625 C 113.953125 120.863281 114.304688 121.09375 114.6875 121.3125 C 116.023438 122.089844 117.578125 122.664062 119.230469 123.050781 C 118.039062 123.40625 116.910156 123.863281 115.894531 124.449219 L 112.496094 126.410156 C 112.054688 125.699219 111.808594 124.945312 111.808594 124.175781 C 111.808594 122.910156 112.445312 121.691406 113.628906 120.625 Z M 73.222656 152.871094 C 73.28125 151.398438 74.484375 149.871094 76.546875 148.6875 L 112.15625 128.117188 C 112.300781 128.277344 112.46875 128.429688 112.628906 128.582031 C 111.253906 129.875 110.507812 131.386719 110.507812 132.976562 C 110.507812 134.085938 110.871094 135.160156 111.554688 136.15625 L 86.699219 150.511719 C 85.636719 151.128906 85.027344 151.984375 85.027344 152.871094 C 85.027344 153.648438 85.480469 154.332031 86.300781 154.800781 L 121.667969 175.234375 C 122.410156 175.664062 123.375 175.882812 124.382812 175.882812 C 125.566406 175.882812 126.808594 175.589844 127.792969 175.019531 L 162.132812 155.1875 C 163.191406 154.570312 163.796875 153.714844 163.796875 152.828125 C 163.796875 152.050781 163.339844 151.367188 162.527344 150.894531 L 136.996094 136.148438 C 137.632812 135.191406 137.984375 134.152344 137.984375 133.078125 C 137.984375 131.480469 137.234375 129.96875 135.863281 128.667969 C 136.046875 128.503906 136.226562 128.328125 136.378906 128.144531 L 173.351562 149.507812 C 175.152344 150.554688 175.914062 151.96875 175.5 153.488281 C 175.167969 154.765625 174.019531 156.015625 172.277344 157.011719 L 132.277344 180.121094 C 128.039062 182.570312 121.632812 182.851562 117.988281 180.746094 L 75.484375 156.1875 C 74.105469 155.390625 73.332031 154.367188 73.238281 153.234375 L 73.238281 152.871094 Z M 132.265625 211.875 C 128.027344 214.324219 121.617188 214.605469 117.976562 212.5 L 75.472656 187.941406 C 73.949219 187.0625 73.148438 185.878906 73.222656 184.609375 C 73.222656 184.601562 73.222656 184.601562 73.222656 184.59375 L 73.222656 184.589844 C 73.230469 184.429688 73.257812 184.246094 73.289062 184.085938 C 73.316406 183.933594 73.289062 183.78125 73.222656 183.652344 L 73.222656 156.082031 C 73.65625 156.539062 74.1875 156.960938 74.820312 157.320312 L 117.320312 181.878906 C 119.144531 182.933594 121.582031 183.449219 124.128906 183.449219 C 127.191406 183.449219 130.40625 182.707031 132.917969 181.253906 L 172.917969 158.144531 C 173.992188 157.53125 174.871094 156.820312 175.53125 156.042969 L 175.53125 183.511719 C 175.507812 183.609375 175.507812 183.703125 175.53125 183.804688 C 175.9375 185.503906 174.71875 187.355469 172.269531 188.761719 Z M 132.265625 211.875 " fill-opacity="1" fill-rule="nonzero"/><path fill="#3b272b" d="M 202.503906 189.15625 C 184.171875 189.15625 169.253906 204.085938 169.253906 222.433594 C 169.253906 236.207031 177.902344 248.726562 190.777344 253.578125 C 190.777344 253.578125 190.777344 253.578125 190.785156 253.578125 C 190.785156 253.578125 190.785156 253.578125 190.789062 253.578125 C 194.527344 254.992188 198.46875 255.707031 202.511719 255.707031 C 220.847656 255.707031 235.761719 240.777344 235.761719 222.425781 C 235.761719 213.472656 232.257812 205.074219 225.90625 198.785156 C 219.636719 192.574219 211.328125 189.15625 202.503906 189.15625 Z M 190.21875 251.945312 C 178.417969 247.019531 170.566406 235.292969 170.566406 222.433594 C 170.566406 204.804688 184.898438 190.460938 202.503906 190.460938 C 210.863281 190.460938 218.738281 193.664062 224.71875 199.464844 C 223.242188 205.820312 216.261719 212.753906 202.148438 221.882812 C 188.875 230.464844 189.730469 247.425781 190.21875 251.945312 Z M 202.503906 254.398438 C 198.746094 254.398438 195.078125 253.746094 191.597656 252.472656 C 191.21875 249.699219 189.347656 231.714844 202.859375 222.980469 C 216.710938 214.027344 223.867188 207.039062 225.785156 200.546875 C 231.378906 206.496094 234.449219 214.214844 234.449219 222.425781 C 234.457031 240.058594 220.125 254.398438 202.503906 254.398438 Z M 202.503906 254.398438 " fill-opacity="1" fill-rule="nonzero"/><path fill="#3b272b" d="M 51.089844 209.699219 C 50.007812 209.066406 48.238281 209.074219 47.148438 209.707031 C 46.058594 210.335938 46.050781 211.351562 47.132812 211.984375 C 48.222656 212.609375 49.984375 212.609375 51.082031 211.976562 C 52.167969 211.347656 52.175781 210.328125 51.089844 209.699219 Z M 51.089844 209.699219 " fill-opacity="1" fill-rule="nonzero"/><path fill="#3b272b" d="M 65.269531 217.886719 C 64.179688 217.265625 62.417969 217.265625 61.320312 217.894531 C 60.230469 218.527344 60.226562 219.550781 61.3125 220.175781 C 62.394531 220.808594 64.164062 220.800781 65.253906 220.167969 C 66.34375 219.535156 66.351562 218.519531 65.269531 217.886719 Z M 65.269531 217.886719 " fill-opacity="1" fill-rule="nonzero"/><path fill="#3b272b" d="M 79.449219 226.085938 C 78.367188 225.453125 76.597656 225.460938 75.507812 226.09375 C 74.417969 226.726562 74.414062 227.742188 75.492188 228.375 C 76.582031 229 78.34375 229 79.441406 228.367188 C 80.53125 227.734375 80.535156 226.71875 79.449219 226.085938 Z M 79.449219 226.085938 " fill-opacity="1" fill-rule="nonzero"/><path fill="#3b272b" d="M 93.628906 234.285156 C 92.539062 233.652344 90.777344 233.652344 89.6875 234.285156 C 88.59375 234.921875 88.59375 235.941406 89.671875 236.566406 C 90.753906 237.195312 92.527344 237.195312 93.613281 236.566406 C 94.71875 235.925781 94.71875 234.902344 93.628906 234.285156 Z M 93.628906 234.285156 " fill-opacity="1" fill-rule="nonzero"/><g clip-path="url(#179f0d82ce)"><path fill="#3b272b" d="M 126.964844 235.792969 C 126.769531 233.261719 125.007812 230.902344 121.980469 229.152344 C 117.308594 226.449219 110.304688 225.628906 104.144531 227.058594 C 101.8125 227.597656 99.171875 227.285156 97.410156 226.273438 L 64.304688 207.140625 C 63.425781 206.632812 62.859375 205.996094 62.707031 205.332031 C 62.597656 204.855469 62.707031 204.375 63.035156 203.902344 C 64.222656 202.191406 64.59375 200.308594 64.105469 198.472656 C 63.46875 196.054688 61.351562 193.875 58.136719 192.335938 C 52.015625 189.402344 42.835938 189.476562 36.777344 192.503906 C 33.757812 194.011719 31.785156 196.023438 31.066406 198.328125 C 30.789062 199.210938 29.398438 199.960938 27.671875 200.140625 C 24.332031 200.496094 21.285156 201.421875 18.851562 202.820312 C 15.53125 204.746094 13.730469 207.332031 13.78125 210.117188 L 13.78125 220 C 13.75 222.738281 15.53125 225.296875 18.796875 227.183594 C 23.46875 229.882812 30.472656 230.703125 36.640625 229.273438 C 38.910156 228.738281 41.617188 229.054688 43.359375 230.058594 L 76.464844 249.183594 C 77.015625 249.503906 77.4375 249.867188 77.722656 250.265625 C 78.214844 250.964844 78.222656 251.71875 77.734375 252.429688 C 76.554688 254.136719 76.183594 256.011719 76.660156 257.847656 C 77.292969 260.257812 79.40625 262.4375 82.589844 263.976562 C 85.601562 265.429688 89.355469 266.15625 93.121094 266.15625 C 96.988281 266.15625 100.863281 265.382812 103.941406 263.851562 C 106.996094 262.335938 108.984375 260.308594 109.703125 258 C 109.976562 257.113281 111.378906 256.375 113.105469 256.191406 C 116.445312 255.835938 119.484375 254.914062 121.910156 253.511719 C 124.992188 251.726562 126.792969 249.328125 126.972656 246.765625 C 127.003906 246.484375 126.996094 246.191406 126.972656 245.902344 L 126.972656 235.832031 C 126.960938 235.816406 126.964844 235.800781 126.964844 235.792969 Z M 76.65625 247.789062 L 44.003906 228.925781 C 41.960938 227.75 38.949219 227.386719 36.335938 227.996094 C 30.480469 229.363281 23.847656 228.589844 19.441406 226.050781 C 16.597656 224.402344 15.050781 222.253906 15.078125 219.996094 C 15.078125 219.914062 15.078125 219.835938 15.085938 219.753906 C 15.085938 219.738281 15.078125 219.71875 15.078125 219.703125 L 15.078125 213.886719 C 15.929688 215.09375 17.175781 216.1875 18.789062 217.117188 C 23.476562 219.820312 30.480469 220.640625 36.632812 219.210938 C 38.917969 218.671875 41.617188 218.992188 43.351562 219.996094 L 76.457031 239.121094 C 77.335938 239.621094 77.894531 240.269531 78.046875 240.929688 C 78.15625 241.414062 78.046875 241.894531 77.730469 242.367188 C 76.523438 244.09375 76.167969 245.984375 76.65625 247.789062 Z M 125.660156 246.679688 C 125.507812 248.808594 123.941406 250.832031 121.25 252.394531 C 118.984375 253.703125 116.117188 254.574219 112.960938 254.90625 C 110.660156 255.144531 108.890625 256.214844 108.445312 257.628906 C 107.851562 259.5625 106.039062 261.363281 103.351562 262.707031 C 97.613281 265.558594 88.925781 265.609375 83.148438 262.8125 C 80.3125 261.441406 78.445312 259.566406 77.917969 257.527344 C 77.53125 256.074219 77.835938 254.574219 78.800781 253.1875 C 79.09375 252.757812 79.28125 252.300781 79.355469 251.84375 C 80.246094 252.613281 81.320312 253.308594 82.582031 253.917969 C 85.585938 255.371094 89.339844 256.097656 93.097656 256.097656 C 96.972656 256.097656 100.855469 255.328125 103.933594 253.796875 C 106.988281 252.285156 108.976562 250.257812 109.695312 247.949219 C 109.972656 247.058594 111.34375 246.324219 113.097656 246.136719 C 116.429688 245.792969 119.476562 244.863281 121.902344 243.460938 C 123.535156 242.519531 124.796875 241.394531 125.660156 240.167969 Z M 125.660156 236.667969 C 125.480469 238.773438 123.910156 240.785156 121.25 242.324219 C 118.976562 243.636719 116.109375 244.5 112.960938 244.828125 C 110.625 245.082031 108.890625 246.128906 108.445312 247.558594 C 107.84375 249.496094 106.039062 251.289062 103.351562 252.621094 C 97.605469 255.480469 88.917969 255.53125 83.148438 252.734375 C 81.242188 251.8125 79.804688 250.695312 78.890625 249.425781 C 77.410156 247.40625 77.378906 245.167969 78.800781 243.113281 C 79.332031 242.335938 79.515625 241.480469 79.324219 240.636719 C 79.09375 239.601562 78.324219 238.683594 77.113281 237.988281 L 44.003906 218.867188 C 42.628906 218.070312 40.804688 217.640625 38.953125 217.640625 C 38.070312 217.640625 37.183594 217.734375 36.335938 217.9375 C 30.484375 219.296875 23.851562 218.535156 19.441406 215.984375 C 16.675781 214.386719 15.128906 212.296875 15.078125 210.097656 C 15.035156 207.800781 16.605469 205.617188 19.5 203.945312 C 21.777344 202.640625 24.652344 201.769531 27.800781 201.433594 C 30.128906 201.195312 31.859375 200.140625 32.308594 198.703125 C 32.910156 196.78125 34.703125 194.992188 37.359375 193.664062 C 43.089844 190.796875 51.777344 190.730469 57.570312 193.503906 C 60.429688 194.871094 62.300781 196.75 62.835938 198.796875 C 63.222656 200.257812 62.917969 201.761719 61.960938 203.15625 C 61.421875 203.925781 61.242188 204.78125 61.429688 205.617188 C 61.660156 206.65625 62.429688 207.570312 63.644531 208.265625 L 96.75 227.402344 C 98.78125 228.570312 101.800781 228.933594 104.425781 228.332031 C 110.28125 226.964844 116.914062 227.734375 121.320312 230.285156 C 123.953125 231.808594 125.484375 233.789062 125.652344 235.882812 L 125.652344 236.667969 Z M 125.660156 236.667969 " fill-opacity="1" fill-rule="nonzero"/></g><path fill="#3b272b" d="M 119.957031 232.652344 C 117.488281 231.21875 113.984375 230.40625 110.332031 230.40625 C 108.511719 230.40625 106.734375 230.601562 105.050781 230.996094 C 101.75 231.75 97.996094 231.269531 95.382812 229.773438 L 62.285156 210.640625 C 60.421875 209.558594 59.171875 207.992188 58.765625 206.21875 C 58.417969 204.636719 58.757812 202.996094 59.71875 201.601562 C 60.230469 200.867188 60.390625 200.15625 60.203125 199.511719 C 59.875 198.269531 58.492188 196.984375 56.394531 195.980469 C 54.011719 194.839844 50.914062 194.210938 47.664062 194.210938 C 44.273438 194.210938 41.050781 194.886719 38.59375 196.113281 C 36.625 197.09375 35.289062 198.332031 34.933594 199.515625 C 34.15625 202.015625 31.539062 203.792969 28.097656 204.148438 C 25.320312 204.441406 22.824219 205.1875 20.878906 206.3125 C 18.960938 207.425781 17.824219 208.796875 17.824219 210.003906 C 17.824219 211.1875 18.941406 212.535156 20.8125 213.625 C 23.292969 215.050781 26.800781 215.871094 30.429688 215.871094 C 32.25 215.871094 34.027344 215.675781 35.71875 215.28125 C 36.757812 215.035156 37.84375 214.910156 38.953125 214.910156 C 41.320312 214.910156 43.605469 215.476562 45.382812 216.5 L 78.484375 235.628906 C 80.347656 236.710938 81.597656 238.277344 81.996094 240.058594 C 82.351562 241.632812 82.015625 243.273438 81.050781 244.675781 C 80.535156 245.421875 80.382812 246.113281 80.574219 246.757812 C 80.894531 247.992188 82.265625 249.277344 84.347656 250.28125 C 86.734375 251.4375 89.847656 252.066406 93.113281 252.066406 C 96.496094 252.066406 99.703125 251.398438 102.15625 250.179688 C 104.144531 249.183594 105.484375 247.9375 105.847656 246.753906 C 106.625 244.253906 109.246094 242.476562 112.691406 242.121094 C 115.457031 241.835938 117.945312 241.089844 119.898438 239.960938 C 121.8125 238.851562 122.960938 237.472656 122.960938 236.265625 C 122.945312 235.082031 121.828125 233.734375 119.957031 232.652344 Z M 119.222656 238.824219 C 117.429688 239.855469 115.117188 240.542969 112.53125 240.804688 C 108.5625 241.21875 105.515625 243.347656 104.578125 246.359375 C 104.382812 247.007812 103.484375 248.039062 101.554688 249.003906 C 99.28125 250.128906 96.277344 250.753906 93.097656 250.753906 C 90.023438 250.753906 87.113281 250.164062 84.898438 249.097656 C 83.242188 248.300781 82.03125 247.246094 81.8125 246.410156 C 81.785156 246.300781 81.699219 246.011719 82.113281 245.410156 C 83.28125 243.703125 83.6875 241.699219 83.25 239.757812 C 82.773438 237.625 81.304688 235.75 79.121094 234.488281 L 46.023438 215.363281 C 44.050781 214.222656 41.539062 213.589844 38.941406 213.589844 C 37.730469 213.589844 36.539062 213.726562 35.40625 213.996094 C 33.816406 214.367188 32.140625 214.554688 30.414062 214.554688 C 27.003906 214.554688 23.738281 213.800781 21.453125 212.484375 C 19.839844 211.558594 19.113281 210.546875 19.113281 209.996094 C 19.113281 209.4375 19.871094 208.398438 21.515625 207.441406 C 23.300781 206.410156 25.625 205.71875 28.222656 205.441406 C 32.191406 205.027344 35.230469 202.902344 36.167969 199.894531 C 36.363281 199.257812 37.257812 198.230469 39.164062 197.273438 C 41.453125 196.132812 44.464844 195.507812 47.65625 195.507812 C 50.710938 195.507812 53.613281 196.089844 55.820312 197.148438 C 57.84375 198.125 58.75 199.167969 58.933594 199.851562 C 58.960938 199.953125 59.050781 200.25 58.636719 200.847656 C 57.46875 202.546875 57.0625 204.550781 57.488281 206.496094 C 57.976562 208.628906 59.441406 210.503906 61.625 211.765625 L 94.730469 230.902344 C 97.628906 232.5625 101.71875 233.09375 105.339844 232.265625 C 106.929688 231.894531 108.605469 231.707031 110.332031 231.707031 C 113.757812 231.707031 117.03125 232.460938 119.304688 233.777344 C 120.90625 234.707031 121.632812 235.714844 121.632812 236.257812 C 121.640625 236.839844 120.894531 237.855469 119.222656 238.824219 Z M 119.222656 238.824219 " fill-opacity="1" fill-rule="nonzero"/></svg>