<svg xmlns="http://www.w3.org/2000/svg" xmlns:xlink="http://www.w3.org/1999/xlink" width="400" zoomAndPan="magnify" viewBox="0 0 300 149.999998" height="200" preserveAspectRatio="xMidYMid meet" version="1.0"><defs><clipPath id="7e560c64fb"><path d="M 261 69 L 290.734375 69 L 290.734375 74 L 261 74 Z M 261 69 " clip-rule="nonzero"/></clipPath><clipPath id="4251c2a2cb"><path d="M 9.484375 73 L 73 73 L 73 100 L 9.484375 100 Z M 9.484375 73 " clip-rule="nonzero"/></clipPath></defs><path fill="#663233" d="M 262.367188 69.230469 C 262.414062 69.230469 262.460938 69.226562 262.507812 69.214844 C 273.5 66.929688 288.390625 66.769531 288.539062 66.765625 C 288.917969 66.761719 289.222656 66.453125 289.21875 66.074219 C 289.214844 65.699219 288.910156 65.394531 288.535156 65.394531 C 288.53125 65.394531 288.53125 65.394531 288.527344 65.394531 C 288.378906 65.398438 273.355469 65.558594 262.226562 67.875 C 261.855469 67.949219 261.617188 68.3125 261.695312 68.683594 C 261.761719 69.007812 262.050781 69.230469 262.367188 69.230469 Z M 262.367188 69.230469 " fill-opacity="1" fill-rule="nonzero"/><g clip-path="url(#7e560c64fb)"><path fill="#663233" d="M 289.898438 73.222656 C 290.226562 73.222656 290.519531 72.980469 290.574219 72.644531 C 290.632812 72.269531 290.378906 71.917969 290.003906 71.859375 C 289.242188 71.738281 271.242188 68.875 262.429688 70.039062 C 262.054688 70.085938 261.789062 70.433594 261.839844 70.808594 C 261.886719 71.183594 262.234375 71.445312 262.609375 71.398438 C 271.226562 70.261719 289.601562 73.183594 289.785156 73.214844 C 289.824219 73.21875 289.859375 73.222656 289.898438 73.222656 Z M 289.898438 73.222656 " fill-opacity="1" fill-rule="nonzero"/></g><path fill="#f2b86d" d="M 245.488281 88.109375 C 250.792969 89.292969 257.425781 90.316406 265.089844 90.46875 C 273.394531 90.636719 280.5625 89.734375 286.195312 88.625 C 286.472656 87.71875 286.542969 86.878906 286.464844 86.097656 C 285.402344 75.332031 255.496094 70.78125 252.492188 70.347656 C 250.15625 76.269531 247.824219 82.1875 245.488281 88.109375 Z M 245.488281 88.109375 " fill-opacity="1" fill-rule="nonzero"/><path fill="#f2b86d" d="M 68.015625 83.046875 C 68.277344 115.679688 84.695312 143.628906 96.390625 148.488281 C 97.433594 148.925781 100.054688 150.011719 101.636719 148.839844 C 105.503906 145.972656 99.992188 132.046875 94.984375 121.191406 C 100.820312 121.878906 105.390625 121.007812 108.53125 120.027344 C 129.3125 113.515625 134.890625 87.199219 135.265625 85.285156 C 144.984375 85.363281 154.800781 85.492188 164.699219 85.683594 C 173.050781 85.839844 181.335938 86.039062 189.554688 86.273438 C 190 102.980469 191.308594 122.492188 195.488281 122.945312 C 196.640625 123.070312 197.730469 121.71875 199.34375 119.09375 C 202.722656 113.585938 207.886719 103.304688 210.214844 86.992188 C 215.988281 87.21875 221.792969 87.472656 227.628906 87.746094 C 239.898438 88.328125 252.03125 89.007812 264.019531 89.769531 C 264.941406 88.15625 266.121094 85.757812 266.957031 82.695312 C 267.710938 79.933594 268.019531 77.28125 268.027344 74.792969 C 268.035156 71.25 267.449219 68.050781 266.722656 65.355469 C 266.167969 63.292969 265.535156 61.527344 265.03125 60.121094 C 261.492188 50.339844 255.523438 43.808594 251.546875 40.175781 C 251.078125 38.441406 247.023438 23.648438 243.601562 24.015625 C 240.757812 24.332031 239.714844 34.960938 239.472656 37.820312 C 239.472656 37.839844 239.464844 37.867188 239.464844 37.886719 C 238.148438 37.886719 236.550781 37.886719 234.734375 37.902344 C 232.019531 37.921875 229.835938 37.96875 228.5625 37.996094 C 227.949219 38.011719 227.304688 38.023438 226.621094 38.046875 C 225.558594 38.078125 224.40625 38.113281 223.175781 38.15625 C 222.464844 36.738281 221.324219 34.652344 219.671875 32.300781 C 218.757812 31 211.597656 20.808594 208.285156 21.972656 C 204.625 23.269531 206.921875 38.050781 207.066406 38.949219 C 199.027344 29.199219 189.9375 21.296875 180.363281 15.238281 C 176.605469 12.851562 172.777344 10.753906 168.902344 8.945312 C 164.511719 6.882812 160.066406 5.191406 155.625 3.867188 C 149.417969 2.011719 143.210938 0.867188 137.144531 0.441406 C 131.015625 0.00390625 125.03125 0.289062 119.339844 1.3125 C 115.128906 2.058594 111.074219 3.210938 107.234375 4.757812 C 104.167969 5.984375 101.246094 7.472656 98.488281 9.207031 C 67.5625 28.664062 67.941406 73.21875 68.015625 83.046875 Z M 68.015625 83.046875 " fill-opacity="1" fill-rule="nonzero"/><path fill="#663233" d="M 216.042969 66.914062 C 216.351562 66.914062 216.632812 66.707031 216.707031 66.390625 C 216.796875 66.023438 216.570312 65.652344 216.203125 65.5625 C 205.160156 62.871094 190.152344 62.199219 190.003906 62.195312 C 189.621094 62.183594 189.304688 62.472656 189.289062 62.851562 C 189.273438 63.226562 189.566406 63.546875 189.945312 63.5625 C 190.09375 63.570312 204.96875 64.238281 215.878906 66.894531 C 215.933594 66.910156 215.988281 66.914062 216.042969 66.914062 Z M 216.042969 66.914062 " fill-opacity="1" fill-rule="nonzero"/><path fill="#663233" d="M 188.390625 69.96875 C 188.421875 69.96875 188.449219 69.96875 188.480469 69.964844 C 188.664062 69.941406 207.136719 67.644531 215.703125 69.070312 C 216.082031 69.132812 216.429688 68.882812 216.492188 68.507812 C 216.554688 68.136719 216.300781 67.78125 215.929688 67.71875 C 207.164062 66.257812 189.074219 68.507812 188.308594 68.605469 C 187.933594 68.652344 187.664062 68.996094 187.714844 69.371094 C 187.757812 69.714844 188.050781 69.96875 188.390625 69.96875 Z M 188.390625 69.96875 " fill-opacity="1" fill-rule="nonzero"/><path fill="#f2615d" d="M 218.710938 71.980469 C 219.121094 75.792969 224.996094 78.84375 228.613281 76.820312 C 230.253906 75.902344 231.519531 73.894531 231.296875 71.980469 C 230.851562 68.085938 224.34375 65.1875 220.886719 67.46875 C 219.457031 68.410156 218.523438 70.253906 218.710938 71.980469 Z M 218.710938 71.980469 " fill-opacity="1" fill-rule="nonzero"/><path fill="#f2615d" d="M 263.691406 74.308594 C 264.785156 75.117188 266.402344 75.214844 268.027344 74.796875 C 268.035156 71.253906 267.453125 68.050781 266.722656 65.359375 C 264.652344 66.324219 262.800781 68.046875 262.328125 70 C 261.945312 71.609375 262.472656 73.398438 263.691406 74.308594 Z M 263.691406 74.308594 " fill-opacity="1" fill-rule="nonzero"/><path fill="#f2615d" d="M 250.367188 78.574219 C 250.085938 81.441406 250.808594 83.722656 252.238281 84.289062 C 252.6875 84.46875 253.085938 84.429688 253.238281 84.414062 C 254.875 84.238281 256.289062 82.214844 256.953125 79.453125 C 255.941406 78.425781 254.757812 76.988281 253.769531 75.089844 C 253.371094 74.324219 253.058594 73.585938 252.8125 72.902344 C 252.863281 73.585938 252.894531 75.28125 251.84375 76.945312 C 251.367188 77.703125 250.808594 78.230469 250.367188 78.574219 Z M 250.367188 78.574219 " fill-opacity="1" fill-rule="nonzero"/><path fill="#663233" d="M 212.011719 39.210938 C 213.855469 39.035156 215.695312 38.859375 217.539062 38.683594 C 217.390625 38.351562 217.171875 37.882812 216.882812 37.332031 C 216.652344 36.902344 214.1875 32.292969 212.976562 32.363281 C 211.78125 32.429688 211.902344 37.039062 212.011719 39.210938 Z M 212.011719 39.210938 " fill-opacity="1" fill-rule="nonzero"/><path fill="#663233" d="M 242.855469 38.261719 C 244.265625 38.429688 245.675781 38.59375 247.085938 38.761719 C 247.019531 38.40625 246.921875 37.90625 246.78125 37.3125 C 246.671875 36.847656 245.46875 31.863281 244.546875 31.707031 C 243.640625 31.554688 243.082031 36.105469 242.855469 38.261719 Z M 242.855469 38.261719 " fill-opacity="1" fill-rule="nonzero"/><path fill="#663233" d="M 248.617188 69.714844 C 249.25 71.226562 250.117188 72.160156 250.667969 72.660156 C 251.476562 73.398438 252.355469 74.199219 253.390625 74.050781 C 254.226562 73.933594 254.753906 73.261719 255.449219 72.371094 C 256.28125 71.3125 256.714844 70.265625 256.949219 69.539062 C 255.808594 69.320312 254.351562 69.144531 252.667969 69.191406 C 251.074219 69.234375 249.703125 69.460938 248.617188 69.714844 Z M 248.617188 69.714844 " fill-opacity="1" fill-rule="nonzero"/><path fill="#663233" d="M 248.386719 81.460938 C 248.503906 81.460938 248.625 81.429688 248.734375 81.367188 C 249.671875 80.804688 251.402344 79.527344 252.46875 77.234375 C 252.773438 76.578125 252.980469 75.9375 253.117188 75.328125 C 253.605469 76.246094 254.1875 77.113281 254.863281 77.921875 C 255.902344 79.160156 257.128906 80.222656 258.515625 81.078125 C 258.835938 81.277344 259.261719 81.179688 259.457031 80.855469 C 259.65625 80.535156 259.558594 80.113281 259.234375 79.914062 C 257.976562 79.136719 256.859375 78.167969 255.914062 77.039062 C 254.6875 75.570312 253.789062 73.882812 253.25 72.023438 C 253.152344 71.679688 252.804688 71.472656 252.457031 71.542969 C 252.105469 71.613281 251.871094 71.941406 251.910156 72.296875 C 252.039062 73.339844 252.019531 74.941406 251.222656 76.65625 C 250.3125 78.617188 248.835938 79.710938 248.03125 80.1875 C 247.707031 80.382812 247.601562 80.804688 247.796875 81.128906 C 247.925781 81.34375 248.152344 81.460938 248.386719 81.460938 Z M 248.386719 81.460938 " fill-opacity="1" fill-rule="nonzero"/><g clip-path="url(#4251c2a2cb)"><path fill="#f2b86d" d="M 13.730469 99.03125 C 18.835938 102.171875 23.941406 95.234375 41.515625 89.929688 C 50.925781 87.09375 58.605469 86.296875 63.464844 86.046875 C 65.378906 85.949219 66.972656 85.929688 68.082031 85.929688 C 69.664062 83.25 71.25 80.566406 72.835938 77.886719 C 70.441406 76.910156 65.882812 75.234375 59.960938 74.300781 C 37.3125 70.726562 10.433594 80.527344 9.761719 91.332031 C 9.578125 94.28125 11.230469 97.492188 13.730469 99.03125 Z M 13.730469 99.03125 " fill-opacity="1" fill-rule="nonzero"/></g><path fill="#663233" d="M 233.800781 67.628906 C 236.03125 67.628906 238.25 67.117188 240.097656 65.691406 C 240.933594 65.050781 241.65625 64.242188 242.246094 63.296875 C 242.449219 62.976562 242.347656 62.550781 242.027344 62.351562 C 241.707031 62.152344 241.285156 62.25 241.082031 62.570312 C 240.578125 63.378906 239.964844 64.0625 239.261719 64.609375 C 233.574219 68.992188 223.195312 63.210938 223.089844 63.152344 C 222.761719 62.964844 222.339844 63.082031 222.15625 63.414062 C 221.96875 63.742188 222.085938 64.160156 222.414062 64.347656 C 222.738281 64.53125 228.308594 67.628906 233.800781 67.628906 Z M 233.800781 67.628906 " fill-opacity="1" fill-rule="nonzero"/><path fill="#663233" d="M 261.40625 65.628906 C 265.542969 65.628906 267.296875 63.171875 267.386719 63.042969 C 267.601562 62.730469 267.523438 62.304688 267.210938 62.089844 C 266.902344 61.875 266.476562 61.953125 266.257812 62.261719 C 266.164062 62.398438 263.914062 65.4375 258.121094 63.746094 C 257.753906 63.640625 257.375 63.847656 257.269531 64.210938 C 257.164062 64.574219 257.371094 64.957031 257.734375 65.0625 C 259.125 65.464844 260.34375 65.628906 261.40625 65.628906 Z M 261.40625 65.628906 " fill-opacity="1" fill-rule="nonzero"/><path fill="#d18a52" d="M 226.621094 38.046875 C 228.5625 40.605469 230.3125 42.734375 231.757812 44.433594 C 240.566406 54.804688 243.898438 55.949219 246.09375 55.433594 C 246.496094 55.347656 246.859375 55.257812 247.167969 54.933594 C 249.460938 52.5625 243.265625 43.140625 239.472656 37.820312 C 239.472656 37.84375 239.46875 37.871094 239.46875 37.890625 C 238.148438 37.890625 236.550781 37.890625 234.734375 37.902344 C 232.019531 37.925781 229.835938 37.972656 228.5625 38 C 227.953125 38.015625 227.304688 38.027344 226.621094 38.046875 Z M 226.621094 38.046875 " fill-opacity="1" fill-rule="nonzero"/><path fill="#ffeae0" d="M 188.851562 85.113281 C 188.867188 85.113281 188.878906 85.113281 188.894531 85.113281 C 189.273438 85.085938 189.558594 84.761719 189.535156 84.382812 C 189.53125 84.347656 189.292969 80.554688 189.417969 75.808594 C 189.425781 75.429688 189.128906 75.113281 188.75 75.105469 C 188.382812 75.074219 188.054688 75.394531 188.046875 75.769531 C 187.917969 80.585938 188.164062 84.433594 188.167969 84.472656 C 188.191406 84.835938 188.492188 85.113281 188.851562 85.113281 Z M 188.851562 85.113281 " fill-opacity="1" fill-rule="nonzero"/><path fill="#ffeae0" d="M 136.039062 83.023438 C 136.378906 83.023438 136.671875 82.773438 136.71875 82.425781 C 138.136719 71.753906 138.328125 61.574219 137.277344 52.980469 C 137.230469 52.605469 136.890625 52.335938 136.511719 52.382812 C 136.136719 52.429688 135.867188 52.769531 135.914062 53.148438 C 136.953125 61.625 136.761719 71.6875 135.359375 82.246094 C 135.308594 82.621094 135.574219 82.964844 135.949219 83.015625 C 135.980469 83.019531 136.007812 83.023438 136.039062 83.023438 Z M 136.039062 83.023438 " fill-opacity="1" fill-rule="nonzero"/><path fill="#ffeae0" d="M 67.851562 81.453125 C 67.855469 81.453125 67.855469 81.453125 67.859375 81.453125 C 68.238281 81.449219 68.542969 81.136719 68.539062 80.761719 C 68.511719 78.363281 68.671875 77.613281 68.671875 77.605469 C 68.753906 77.238281 68.527344 76.871094 68.164062 76.785156 C 67.796875 76.699219 67.429688 76.917969 67.339844 77.285156 C 67.320312 77.367188 67.136719 78.179688 67.167969 80.777344 C 67.171875 81.152344 67.476562 81.453125 67.851562 81.453125 Z M 67.851562 81.453125 " fill-opacity="1" fill-rule="nonzero"/><path fill="#ffeae0" d="M 265.183594 88.640625 C 265.417969 88.640625 265.644531 88.523438 265.773438 88.308594 C 268.667969 83.507812 268.710938 77.777344 268.710938 77.539062 C 268.710938 77.160156 268.40625 76.851562 268.027344 76.851562 C 267.648438 76.851562 267.339844 77.15625 267.339844 77.535156 C 267.339844 77.589844 267.292969 83.132812 264.597656 87.601562 C 264.402344 87.925781 264.507812 88.347656 264.832031 88.542969 C 264.941406 88.609375 265.0625 88.640625 265.183594 88.640625 Z M 265.183594 88.640625 " fill-opacity="1" fill-rule="nonzero"/><path fill="#ffeae0" d="M 210.65625 85.953125 C 210.988281 85.953125 211.277344 85.710938 211.332031 85.375 C 211.347656 85.28125 211.691406 83.050781 211.691406 80.109375 C 211.691406 79.730469 211.382812 79.421875 211.003906 79.421875 C 210.625 79.421875 210.316406 79.730469 210.316406 80.109375 C 210.316406 82.9375 209.980469 85.140625 209.976562 85.164062 C 209.917969 85.535156 210.171875 85.886719 210.546875 85.945312 C 210.582031 85.953125 210.621094 85.953125 210.65625 85.953125 Z M 210.65625 85.953125 " fill-opacity="1" fill-rule="nonzero"/><path fill="#ffeae0" d="M 195.023438 122.230469 C 195.238281 122.230469 195.445312 122.128906 195.582031 121.945312 C 197.855469 118.78125 199.84375 112.351562 199.925781 112.078125 C 200.039062 111.714844 199.835938 111.332031 199.472656 111.222656 C 199.109375 111.113281 198.726562 111.3125 198.613281 111.675781 C 198.59375 111.738281 196.609375 118.167969 194.46875 121.144531 C 194.246094 121.453125 194.316406 121.878906 194.625 122.101562 C 194.746094 122.1875 194.886719 122.230469 195.023438 122.230469 Z M 195.023438 122.230469 " fill-opacity="1" fill-rule="nonzero"/><path fill="#ffeae0" d="M 194.0625 119.78125 C 194.351562 119.78125 194.621094 119.59375 194.714844 119.300781 C 195.160156 117.90625 195.535156 116.46875 195.828125 115.03125 C 196.066406 113.859375 196.257812 112.65625 196.394531 111.464844 C 196.4375 111.085938 196.167969 110.746094 195.792969 110.703125 C 195.417969 110.664062 195.074219 110.929688 195.03125 111.308594 C 194.902344 112.460938 194.714844 113.621094 194.484375 114.757812 C 194.199219 116.144531 193.839844 117.535156 193.40625 118.886719 C 193.292969 119.246094 193.492188 119.632812 193.851562 119.746094 C 193.921875 119.769531 193.992188 119.78125 194.0625 119.78125 Z M 194.0625 119.78125 " fill-opacity="1" fill-rule="nonzero"/><path fill="#ffeae0" d="M 100.679688 148.496094 C 101.054688 148.496094 101.359375 148.191406 101.363281 147.816406 C 101.410156 142.488281 99.550781 137.980469 99.472656 137.792969 C 99.328125 137.441406 98.925781 137.277344 98.574219 137.421875 C 98.226562 137.570312 98.0625 137.96875 98.207031 138.320312 C 98.226562 138.363281 100.035156 142.765625 99.992188 147.804688 C 99.988281 148.183594 100.292969 148.492188 100.671875 148.496094 C 100.675781 148.496094 100.675781 148.496094 100.679688 148.496094 Z M 100.679688 148.496094 " fill-opacity="1" fill-rule="nonzero"/><path fill="#ffeae0" d="M 98.386719 148.496094 C 98.417969 148.496094 98.445312 148.496094 98.472656 148.492188 C 98.851562 148.445312 99.117188 148.101562 99.070312 147.726562 C 98.625 144.167969 96.230469 138.667969 96.128906 138.4375 C 95.976562 138.089844 95.570312 137.933594 95.222656 138.085938 C 94.878906 138.234375 94.71875 138.640625 94.871094 138.988281 C 94.894531 139.042969 97.289062 144.535156 97.707031 147.894531 C 97.75 148.242188 98.046875 148.496094 98.386719 148.496094 Z M 98.386719 148.496094 " fill-opacity="1" fill-rule="nonzero"/><path fill="#d18a52" d="M 160.597656 32.71875 C 163.140625 34.378906 174.738281 25.203125 180.363281 15.238281 C 176.605469 12.851562 172.777344 10.753906 168.902344 8.945312 C 167.097656 11.824219 165.453125 14.941406 164.210938 17.785156 C 162.820312 20.988281 158.332031 31.253906 160.597656 32.71875 Z M 160.597656 32.71875 " fill-opacity="1" fill-rule="nonzero"/><path fill="#d18a52" d="M 137.144531 0.441406 C 137.117188 2.605469 137.195312 4.8125 137.261719 6.9375 C 137.476562 13.402344 137.921875 26.710938 142.261719 27.585938 C 146.515625 28.449219 153.097656 17.15625 155.128906 6.9375 C 155.308594 6.03125 155.480469 5 155.625 3.867188 C 149.417969 2.011719 143.210938 0.867188 137.144531 0.441406 Z M 137.144531 0.441406 " fill-opacity="1" fill-rule="nonzero"/><path fill="#d18a52" d="M 107.234375 4.757812 C 108.425781 7.644531 109.886719 10.515625 111.097656 12.894531 C 113.175781 16.976562 116.800781 24.132812 119.03125 23.503906 C 121.398438 22.84375 120.875 14.414062 120.78125 12.894531 C 120.671875 11.152344 120.484375 6.136719 119.339844 1.3125 C 115.128906 2.058594 111.074219 3.210938 107.234375 4.757812 Z M 107.234375 4.757812 " fill-opacity="1" fill-rule="nonzero"/></svg>