<svg xmlns="http://www.w3.org/2000/svg" xmlns:xlink="http://www.w3.org/1999/xlink" width="400" zoomAndPan="magnify" viewBox="0 0 300 299.999988" height="400" preserveAspectRatio="xMidYMid meet" version="1.0"><defs><clipPath id="bc98ca0dda"><path d="M 145 283 L 150.675781 283 L 150.675781 297.453125 L 145 297.453125 Z M 145 283 " clip-rule="nonzero"/></clipPath><clipPath id="3244ff5d61"><path d="M 105.9375 132.019531 C 105.03125 143.085938 115.613281 153.808594 116.109375 155.097656 C 119.128906 162.980469 118.992188 174.875 121.5625 183.207031 C 122.929688 187.640625 124.660156 193.785156 127.988281 197.230469 C 131.144531 200.488281 131.84375 194.425781 133.523438 195.90625 C 137.226562 199.179688 135.476562 206.925781 140.671875 209.40625 C 145.699219 211.8125 147.371094 204.761719 150.65625 209.402344 C 158.933594 221.089844 164.746094 256.984375 162.628906 259.550781 C 157.265625 266.058594 122.390625 258.3125 129.03125 277.5 C 130.019531 280.355469 135.054688 293.054688 137.496094 295.703125 C 141.328125 299.871094 167.40625 295.90625 169.992188 290.988281 C 171.832031 287.488281 167.425781 277.882812 167.6875 277.691406 C 168.414062 277.160156 173.703125 278.648438 179.023438 278.125 C 184.898438 277.546875 188.675781 276.757812 190.898438 275.574219 C 190.96875 275.535156 193.167969 287.621094 195.625 290.171875 C 198.785156 293.464844 225.324219 293.410156 229.351562 288.3125 C 235.875 280.070312 222.964844 259.390625 222.054688 257.058594 C 221.597656 255.890625 222.511719 245.910156 222.976562 240.421875 C 224.324219 224.636719 224.144531 209.398438 223.546875 193.667969 C 223.511719 192.835938 225.609375 193.535156 226.105469 192.246094 C 227.300781 189.117188 226.292969 184.230469 225.699219 181.074219 C 223.132812 167.519531 215.398438 153.171875 212.308594 141.445312 C 211.46875 138.273438 212.785156 133.117188 213.9375 127.011719 C 215.023438 121.289062 213.988281 99.535156 208.289062 94.769531 C 208.117188 94.625 205.324219 101.832031 199.261719 105.066406 C 192.46875 108.699219 183.964844 105.648438 178.320312 101.335938 C 166.5625 92.347656 161.085938 77.882812 151.90625 66.703125 C 148.191406 62.175781 142.394531 56.941406 136.421875 61.066406 C 131.542969 64.429688 130.21875 70.359375 131.707031 75.828125 C 135.808594 90.890625 144.875 106.265625 141.058594 122.453125 C 138.949219 131.398438 126.5625 141.351562 116.976562 138.496094 C 113.839844 137.566406 108.074219 134.472656 105.9375 132.019531 Z M 105.9375 132.019531 " clip-rule="nonzero"/></clipPath><clipPath id="b3f86f7f97"><path d="M 205 278.0625 L 209 278.0625 L 209 293.929688 L 205 293.929688 Z M 205 278.0625 " clip-rule="nonzero"/></clipPath><clipPath id="354639e8c0"><path d="M 105.9375 132.019531 C 105.03125 143.085938 115.613281 153.808594 116.109375 155.097656 C 119.128906 162.980469 118.992188 174.875 121.5625 183.207031 C 122.929688 187.640625 124.660156 193.785156 127.988281 197.230469 C 131.144531 200.488281 131.84375 194.425781 133.523438 195.90625 C 137.226562 199.179688 135.476562 206.925781 140.671875 209.40625 C 145.699219 211.8125 147.371094 204.761719 150.65625 209.402344 C 158.933594 221.089844 164.746094 256.984375 162.628906 259.550781 C 157.265625 266.058594 122.390625 258.3125 129.03125 277.5 C 130.019531 280.355469 135.054688 293.054688 137.496094 295.703125 C 141.328125 299.871094 167.40625 295.90625 169.992188 290.988281 C 171.832031 287.488281 167.425781 277.882812 167.6875 277.691406 C 168.414062 277.160156 173.703125 278.648438 179.023438 278.125 C 184.898438 277.546875 188.675781 276.757812 190.898438 275.574219 C 190.96875 275.535156 193.167969 287.621094 195.625 290.171875 C 198.785156 293.464844 225.324219 293.410156 229.351562 288.3125 C 235.875 280.070312 222.964844 259.390625 222.054688 257.058594 C 221.597656 255.890625 222.511719 245.910156 222.976562 240.421875 C 224.324219 224.636719 224.144531 209.398438 223.546875 193.667969 C 223.511719 192.835938 225.609375 193.535156 226.105469 192.246094 C 227.300781 189.117188 226.292969 184.230469 225.699219 181.074219 C 223.132812 167.519531 215.398438 153.171875 212.308594 141.445312 C 211.46875 138.273438 212.785156 133.117188 213.9375 127.011719 C 215.023438 121.289062 213.988281 99.535156 208.289062 94.769531 C 208.117188 94.625 205.324219 101.832031 199.261719 105.066406 C 192.46875 108.699219 183.964844 105.648438 178.320312 101.335938 C 166.5625 92.347656 161.085938 77.882812 151.90625 66.703125 C 148.191406 62.175781 142.394531 56.941406 136.421875 61.066406 C 131.542969 64.429688 130.21875 70.359375 131.707031 75.828125 C 135.808594 90.890625 144.875 106.265625 141.058594 122.453125 C 138.949219 131.398438 126.5625 141.351562 116.976562 138.496094 C 113.839844 137.566406 108.074219 134.472656 105.9375 132.019531 Z M 105.9375 132.019531 " clip-rule="nonzero"/></clipPath><clipPath id="690b3410d3"><path d="M 156.550781 280.414062 L 162.425781 280.414062 L 162.425781 296.867188 L 156.550781 296.867188 Z M 156.550781 280.414062 " clip-rule="nonzero"/></clipPath><clipPath id="2c3ef9c3d4"><path d="M 105.9375 132.019531 C 105.03125 143.085938 115.613281 153.808594 116.109375 155.097656 C 119.128906 162.980469 118.992188 174.875 121.5625 183.207031 C 122.929688 187.640625 124.660156 193.785156 127.988281 197.230469 C 131.144531 200.488281 131.84375 194.425781 133.523438 195.90625 C 137.226562 199.179688 135.476562 206.925781 140.671875 209.40625 C 145.699219 211.8125 147.371094 204.761719 150.65625 209.402344 C 158.933594 221.089844 164.746094 256.984375 162.628906 259.550781 C 157.265625 266.058594 122.390625 258.3125 129.03125 277.5 C 130.019531 280.355469 135.054688 293.054688 137.496094 295.703125 C 141.328125 299.871094 167.40625 295.90625 169.992188 290.988281 C 171.832031 287.488281 167.425781 277.882812 167.6875 277.691406 C 168.414062 277.160156 173.703125 278.648438 179.023438 278.125 C 184.898438 277.546875 188.675781 276.757812 190.898438 275.574219 C 190.96875 275.535156 193.167969 287.621094 195.625 290.171875 C 198.785156 293.464844 225.324219 293.410156 229.351562 288.3125 C 235.875 280.070312 222.964844 259.390625 222.054688 257.058594 C 221.597656 255.890625 222.511719 245.910156 222.976562 240.421875 C 224.324219 224.636719 224.144531 209.398438 223.546875 193.667969 C 223.511719 192.835938 225.609375 193.535156 226.105469 192.246094 C 227.300781 189.117188 226.292969 184.230469 225.699219 181.074219 C 223.132812 167.519531 215.398438 153.171875 212.308594 141.445312 C 211.46875 138.273438 212.785156 133.117188 213.9375 127.011719 C 215.023438 121.289062 213.988281 99.535156 208.289062 94.769531 C 208.117188 94.625 205.324219 101.832031 199.261719 105.066406 C 192.46875 108.699219 183.964844 105.648438 178.320312 101.335938 C 166.5625 92.347656 161.085938 77.882812 151.90625 66.703125 C 148.191406 62.175781 142.394531 56.941406 136.421875 61.066406 C 131.542969 64.429688 130.21875 70.359375 131.707031 75.828125 C 135.808594 90.890625 144.875 106.265625 141.058594 122.453125 C 138.949219 131.398438 126.5625 141.351562 116.976562 138.496094 C 113.839844 137.566406 108.074219 134.472656 105.9375 132.019531 Z M 105.9375 132.019531 " clip-rule="nonzero"/></clipPath><clipPath id="58b22de839"><path d="M 216.484375 277 L 221.183594 277 L 221.183594 293.339844 L 216.484375 293.339844 Z M 216.484375 277 " clip-rule="nonzero"/></clipPath><clipPath id="1a8ad3cc4a"><path d="M 105.9375 132.019531 C 105.03125 143.085938 115.613281 153.808594 116.109375 155.097656 C 119.128906 162.980469 118.992188 174.875 121.5625 183.207031 C 122.929688 187.640625 124.660156 193.785156 127.988281 197.230469 C 131.144531 200.488281 131.84375 194.425781 133.523438 195.90625 C 137.226562 199.179688 135.476562 206.925781 140.671875 209.40625 C 145.699219 211.8125 147.371094 204.761719 150.65625 209.402344 C 158.933594 221.089844 164.746094 256.984375 162.628906 259.550781 C 157.265625 266.058594 122.390625 258.3125 129.03125 277.5 C 130.019531 280.355469 135.054688 293.054688 137.496094 295.703125 C 141.328125 299.871094 167.40625 295.90625 169.992188 290.988281 C 171.832031 287.488281 167.425781 277.882812 167.6875 277.691406 C 168.414062 277.160156 173.703125 278.648438 179.023438 278.125 C 184.898438 277.546875 188.675781 276.757812 190.898438 275.574219 C 190.96875 275.535156 193.167969 287.621094 195.625 290.171875 C 198.785156 293.464844 225.324219 293.410156 229.351562 288.3125 C 235.875 280.070312 222.964844 259.390625 222.054688 257.058594 C 221.597656 255.890625 222.511719 245.910156 222.976562 240.421875 C 224.324219 224.636719 224.144531 209.398438 223.546875 193.667969 C 223.511719 192.835938 225.609375 193.535156 226.105469 192.246094 C 227.300781 189.117188 226.292969 184.230469 225.699219 181.074219 C 223.132812 167.519531 215.398438 153.171875 212.308594 141.445312 C 211.46875 138.273438 212.785156 133.117188 213.9375 127.011719 C 215.023438 121.289062 213.988281 99.535156 208.289062 94.769531 C 208.117188 94.625 205.324219 101.832031 199.261719 105.066406 C 192.46875 108.699219 183.964844 105.648438 178.320312 101.335938 C 166.5625 92.347656 161.085938 77.882812 151.90625 66.703125 C 148.191406 62.175781 142.394531 56.941406 136.421875 61.066406 C 131.542969 64.429688 130.21875 70.359375 131.707031 75.828125 C 135.808594 90.890625 144.875 106.265625 141.058594 122.453125 C 138.949219 131.398438 126.5625 141.351562 116.976562 138.496094 C 113.839844 137.566406 108.074219 134.472656 105.9375 132.019531 Z M 105.9375 132.019531 " clip-rule="nonzero"/></clipPath></defs><path fill="#fcecde" d="M 105.9375 132.019531 C 105.03125 143.085938 115.613281 153.808594 116.109375 155.097656 C 119.128906 162.980469 118.992188 174.875 121.5625 183.207031 C 122.929688 187.640625 124.660156 193.785156 127.988281 197.230469 C 131.144531 200.488281 131.84375 194.425781 133.523438 195.90625 C 137.226562 199.179688 135.476562 206.925781 140.671875 209.40625 C 145.699219 211.8125 147.371094 204.761719 150.65625 209.402344 C 158.933594 221.089844 164.746094 256.984375 162.628906 259.550781 C 157.265625 266.058594 122.390625 258.3125 129.03125 277.5 C 130.019531 280.355469 135.054688 293.054688 137.496094 295.703125 C 141.328125 299.871094 167.40625 295.90625 169.992188 290.988281 C 171.832031 287.488281 167.425781 277.882812 167.6875 277.691406 C 168.414062 277.160156 173.703125 278.648438 179.023438 278.125 C 184.898438 277.546875 188.675781 276.757812 190.898438 275.574219 C 190.96875 275.535156 193.167969 287.621094 195.625 290.171875 C 198.785156 293.464844 225.324219 293.410156 229.351562 288.3125 C 235.875 280.070312 222.964844 259.390625 222.054688 257.058594 C 221.597656 255.890625 222.511719 245.910156 222.976562 240.421875 C 224.324219 224.636719 224.144531 209.398438 223.546875 193.667969 C 223.511719 192.835938 225.609375 193.535156 226.105469 192.246094 C 227.300781 189.117188 226.292969 184.230469 225.699219 181.074219 C 223.132812 167.519531 215.398438 153.171875 212.308594 141.445312 C 211.46875 138.273438 212.785156 133.117188 213.9375 127.011719 C 215.023438 121.289062 213.988281 99.535156 208.289062 94.769531 C 208.117188 94.625 205.324219 101.832031 199.261719 105.066406 C 192.46875 108.699219 183.964844 105.648438 178.320312 101.335938 C 166.5625 92.347656 161.085938 77.882812 151.90625 66.703125 C 148.191406 62.175781 142.394531 56.941406 136.421875 61.066406 C 131.542969 64.429688 130.21875 70.359375 131.707031 75.828125 C 135.808594 90.890625 144.875 106.265625 141.058594 122.453125 C 138.949219 131.398438 126.5625 141.351562 116.976562 138.496094 C 113.839844 137.566406 108.074219 134.472656 105.9375 132.019531 " fill-opacity="1" fill-rule="evenodd"/><g clip-path="url(#bc98ca0dda)"><g clip-path="url(#3244ff5d61)"><path fill="#ead2c1" d="M 148.871094 296.152344 L 148.859375 296.15625 L 148.882812 296.148438 Z M 148.820312 296.160156 C 148.753906 296.171875 148.6875 296.1875 148.625 296.214844 C 148.6875 296.1875 148.75 296.171875 148.820312 296.160156 Z M 148.085938 296.699219 L 148.121094 296.289062 C 148.167969 295.527344 148.113281 294.753906 148.042969 293.992188 C 147.761719 290.84375 147.121094 287.402344 145.441406 284.679688 C 145.144531 284.203125 145.292969 283.578125 145.765625 283.28125 C 146.242188 282.988281 146.867188 283.132812 147.160156 283.609375 C 149.003906 286.59375 149.75 290.355469 150.0625 293.8125 C 150.136719 294.671875 150.195312 295.546875 150.144531 296.410156 C 150.140625 296.453125 150.117188 296.957031 150.054688 297.234375 C 150.003906 297.457031 149.921875 297.621094 149.851562 297.71875 C 149.617188 298.058594 149.308594 298.164062 149.03125 298.175781 C 148.472656 298.199219 148 297.761719 147.980469 297.203125 C 147.972656 297.023438 148.011719 296.851562 148.085938 296.699219 " fill-opacity="1" fill-rule="evenodd"/></g></g><g clip-path="url(#b3f86f7f97)"><g clip-path="url(#354639e8c0)"><path fill="#ead2c1" d="M 207.507812 291.617188 L 207.535156 291.613281 L 207.523438 291.613281 Z M 207.46875 291.617188 C 207.402344 291.621094 207.332031 291.628906 207.269531 291.652344 C 207.332031 291.632812 207.398438 291.621094 207.46875 291.617188 Z M 206.683594 292.074219 L 206.761719 291.671875 C 206.890625 290.917969 206.917969 290.140625 206.933594 289.378906 C 207 286.21875 206.738281 282.726562 205.371094 279.835938 C 205.128906 279.328125 205.34375 278.71875 205.847656 278.480469 C 206.355469 278.238281 206.960938 278.453125 207.199219 278.960938 C 208.703125 282.132812 209.03125 285.953125 208.957031 289.421875 C 208.941406 290.28125 208.902344 291.164062 208.757812 292.015625 C 208.75 292.058594 208.671875 292.554688 208.578125 292.828125 C 208.507812 293.039062 208.402344 293.195312 208.324219 293.28125 C 208.050781 293.59375 207.734375 293.667969 207.457031 293.644531 C 206.898438 293.605469 206.480469 293.121094 206.519531 292.5625 C 206.53125 292.382812 206.589844 292.214844 206.683594 292.074219 " fill-opacity="1" fill-rule="evenodd"/></g></g><g clip-path="url(#690b3410d3)"><g clip-path="url(#2c3ef9c3d4)"><path fill="#ead2c1" d="M 157.121094 282.417969 C 157.316406 282.597656 157.492188 282.640625 157.585938 282.652344 C 157.417969 282.617188 157.257812 282.539062 157.121094 282.417969 Z M 160.730469 294.480469 C 160.640625 294.539062 160.542969 294.628906 160.457031 294.777344 C 160.527344 294.65625 160.625 294.554688 160.730469 294.480469 Z M 162.328125 295.121094 C 162.363281 295.335938 162.332031 295.558594 162.226562 295.765625 C 162 296.203125 161.675781 296.273438 161.539062 296.304688 C 161.273438 296.367188 161.035156 296.328125 160.8125 296.199219 C 160.664062 296.113281 160.484375 295.96875 160.375 295.703125 C 160.34375 295.636719 160.3125 295.53125 160.296875 295.394531 C 160.289062 295.3125 160.308594 295.066406 160.308594 294.964844 C 160.308594 294.722656 160.300781 294.484375 160.289062 294.246094 C 160.261719 293.492188 160.195312 292.742188 160.117188 291.992188 C 159.910156 289.886719 159.542969 287.773438 158.808594 285.78125 C 158.492188 284.917969 158.128906 284.078125 157.679688 283.277344 C 157.542969 283.039062 157.390625 282.816406 157.230469 282.59375 C 157.171875 282.515625 156.894531 282.125 156.878906 282.09375 C 156.613281 281.53125 156.902344 281.15625 156.992188 281.035156 C 157.160156 280.816406 157.394531 280.667969 157.71875 280.644531 C 157.785156 280.636719 158.140625 280.566406 158.515625 280.941406 C 158.566406 280.996094 158.613281 281.054688 158.652344 281.113281 C 158.707031 281.183594 158.835938 281.355469 158.863281 281.394531 C 159.070312 281.675781 159.265625 281.96875 159.4375 282.273438 C 159.945312 283.167969 160.355469 284.113281 160.707031 285.078125 C 161.5 287.234375 161.90625 289.515625 162.132812 291.792969 C 162.210938 292.578125 162.28125 293.367188 162.316406 294.160156 C 162.324219 294.421875 162.332031 294.6875 162.335938 294.949219 C 162.335938 294.984375 162.332031 295.054688 162.328125 295.121094 " fill-opacity="1" fill-rule="evenodd"/></g></g><g clip-path="url(#58b22de839)"><g clip-path="url(#1a8ad3cc4a)"><path fill="#ead2c1" d="M 217.226562 278.875 C 217.402344 279.078125 217.574219 279.140625 217.664062 279.164062 C 217.5 279.109375 217.351562 279.011719 217.226562 278.875 Z M 219.492188 291.261719 C 219.398438 291.3125 219.289062 291.394531 219.191406 291.53125 C 219.273438 291.417969 219.375 291.328125 219.492188 291.261719 Z M 221.007812 292.082031 C 221.019531 292.296875 220.96875 292.515625 220.835938 292.710938 C 220.5625 293.121094 220.234375 293.152344 220.097656 293.167969 C 219.828125 293.199219 219.59375 293.132812 219.386719 292.980469 C 219.242188 292.882812 219.085938 292.71875 219.003906 292.441406 C 218.984375 292.371094 218.960938 292.265625 218.960938 292.125 C 218.960938 292.042969 219.007812 291.800781 219.019531 291.695312 C 219.046875 291.457031 219.066406 291.222656 219.082031 290.984375 C 219.132812 290.230469 219.148438 289.476562 219.15625 288.726562 C 219.179688 286.605469 219.042969 284.46875 218.535156 282.40625 C 218.316406 281.515625 218.050781 280.636719 217.6875 279.792969 C 217.578125 279.542969 217.449219 279.300781 217.316406 279.0625 C 217.265625 278.980469 217.035156 278.5625 217.023438 278.527344 C 216.820312 277.9375 217.144531 277.601562 217.25 277.488281 C 217.445312 277.289062 217.691406 277.167969 218.019531 277.179688 C 218.085938 277.183594 218.445312 277.148438 218.777344 277.5625 C 218.820312 277.621094 218.859375 277.683594 218.890625 277.75 C 218.9375 277.828125 219.050781 278.011719 219.070312 278.050781 C 219.246094 278.355469 219.410156 278.667969 219.550781 278.992188 C 219.953125 279.9375 220.257812 280.921875 220.5 281.917969 C 221.050781 284.144531 221.207031 286.457031 221.179688 288.746094 C 221.175781 289.539062 221.15625 290.332031 221.101562 291.121094 C 221.085938 291.382812 221.0625 291.648438 221.035156 291.90625 C 221.03125 291.945312 221.019531 292.015625 221.007812 292.082031 " fill-opacity="1" fill-rule="evenodd"/></g></g><path fill="#fdc175" d="M 141.203125 52.574219 C 142.269531 52.144531 144.082031 51.480469 145.601562 51.125 C 148.4375 50.453125 151.464844 50.199219 151.421875 49.859375 C 151.289062 48.78125 151.808594 36.117188 152.28125 31.679688 C 153.40625 21.199219 160.957031 0.128906 173.699219 4.171875 C 186.742188 8.3125 194.609375 26.078125 197.667969 33.699219 C 202.101562 44.75 203.578125 56.824219 204.183594 68.699219 C 204.398438 73.011719 204.761719 78.117188 205.113281 79.820312 C 205.25 80.492188 211.101562 84.996094 211.300781 85.941406 C 213.398438 95.796875 202.246094 111.214844 191.855469 112.742188 C 184.105469 113.882812 173.410156 106.628906 165.0625 97.710938 C 161.167969 93.554688 155.429688 87.554688 149.476562 75.039062 C 149.113281 74.277344 148.058594 71.515625 146.78125 68.1875 C 146.722656 68.136719 146.636719 68.011719 146.519531 67.800781 C 145.6875 66.320312 144.929688 64.773438 144.085938 64.125 C 138.023438 59.476562 133.316406 65.316406 134.691406 70.296875 C 135.417969 72.933594 138.308594 80.226562 138.550781 80.808594 C 143.882812 93.609375 144.519531 101.902344 145.019531 107.585938 C 146.082031 119.773438 144.347656 132.613281 138.335938 137.660156 C 130.28125 144.417969 112.015625 142.796875 106.089844 134.664062 C 105.519531 133.882812 105.453125 126.207031 105.046875 125.652344 C 104.011719 124.253906 100.457031 120.585938 97.402344 117.550781 C 88.976562 109.1875 80.996094 100.039062 75.734375 89.363281 C 72.109375 81.996094 64.144531 64.273438 69.761719 51.746094 C 75.242188 39.515625 95.925781 47.894531 104.464844 54.035156 C 108.074219 56.632812 117.832031 64.683594 118.542969 65.5 C 118.769531 65.757812 121.535156 62.472656 124.027344 60.957031 C 133.363281 55.265625 138.925781 53.242188 141.203125 52.574219 " fill-opacity="1" fill-rule="evenodd"/><path fill="#292d3e" d="M 166.105469 121.703125 C 165.496094 123.28125 164.589844 125.40625 160.820312 124.902344 C 156.796875 124.367188 149.359375 122.71875 151.253906 117.613281 C 152.746094 113.597656 158.347656 110.941406 162.230469 110.382812 C 163.773438 110.160156 166.242188 109.96875 167.234375 111.496094 C 169.035156 114.273438 167.257812 118.699219 166.105469 121.703125 " fill-opacity="1" fill-rule="evenodd"/><path fill="#292d3e" d="M 165.878906 128.257812 C 165.820312 129.589844 165.441406 131.152344 164.4375 132.902344 C 160.90625 139.0625 153.421875 137.710938 153.105469 137.664062 C 152.554688 137.585938 152.167969 137.070312 152.25 136.511719 C 152.332031 135.957031 152.84375 135.574219 153.398438 135.65625 C 153.65625 135.691406 159.804688 136.910156 162.683594 131.886719 C 165.007812 127.832031 163.152344 124.996094 162.894531 124.234375 C 162.851562 124.101562 164.234375 122.257812 164.820312 123.589844 C 165.050781 124.113281 166.402344 127.007812 169.308594 127.855469 C 173.234375 129.003906 177.878906 126.859375 178.695312 122.414062 C 178.800781 121.859375 179.328125 121.496094 179.875 121.597656 C 180.425781 121.699219 180.792969 122.230469 180.6875 122.78125 C 179.644531 128.460938 173.757812 131.273438 168.742188 129.808594 C 167.613281 129.476562 166.660156 128.90625 165.878906 128.257812 " fill-opacity="1" fill-rule="evenodd"/><path fill="#292d3e" d="M 133.769531 105.003906 C 137.5 105.003906 140.527344 108.121094 140.527344 111.960938 C 140.527344 115.800781 137.5 118.917969 133.769531 118.917969 C 130.035156 118.917969 127.007812 115.800781 127.007812 111.960938 C 127.007812 108.121094 130.035156 105.003906 133.769531 105.003906 " fill-opacity="1" fill-rule="evenodd"/><path fill="#ffffff" d="M 135.292969 107.097656 C 136.3125 107.097656 137.136719 107.917969 137.136719 108.929688 C 137.136719 109.945312 136.3125 110.761719 135.292969 110.761719 C 134.273438 110.761719 133.449219 109.945312 133.449219 108.929688 C 133.449219 107.917969 134.273438 107.097656 135.292969 107.097656 " fill-opacity="1" fill-rule="evenodd"/><path fill="#ffffff" d="M 128.667969 110.964844 C 128.574219 113.96875 129.828125 115.789062 132.378906 116.527344 C 133.132812 116.746094 135.089844 116.644531 136.058594 116.058594 C 136.804688 115.605469 136.816406 115.136719 136.585938 114.820312 C 136.433594 114.605469 136.050781 114.5 135.65625 114.664062 C 135.320312 114.804688 134.800781 114.910156 134.234375 114.964844 C 133.527344 115.03125 132.714844 114.945312 131.742188 114.390625 C 130.554688 113.710938 130.332031 111.882812 130.214844 110.785156 C 130.191406 110.585938 130.101562 109.453125 129.367188 109.628906 C 128.863281 109.75 128.691406 110.390625 128.667969 110.964844 " fill-opacity="1" fill-rule="evenodd"/><path fill="#292d3e" d="M 174.097656 86.8125 C 177.828125 86.8125 180.859375 89.933594 180.859375 93.773438 C 180.859375 97.613281 177.828125 100.730469 174.097656 100.730469 C 170.367188 100.730469 167.335938 97.613281 167.335938 93.773438 C 167.335938 89.933594 170.367188 86.8125 174.097656 86.8125 " fill-opacity="1" fill-rule="evenodd"/><path fill="#ffffff" d="M 175.621094 88.90625 C 176.640625 88.90625 177.46875 89.730469 177.46875 90.742188 C 177.46875 91.75 176.640625 92.574219 175.621094 92.574219 C 174.605469 92.574219 173.777344 91.75 173.777344 90.742188 C 173.777344 89.730469 174.605469 88.90625 175.621094 88.90625 " fill-opacity="1" fill-rule="evenodd"/><path fill="#ffffff" d="M 169 92.777344 C 168.898438 95.777344 170.15625 97.601562 172.707031 98.335938 C 173.457031 98.554688 175.417969 98.457031 176.390625 97.867188 C 177.132812 97.417969 177.144531 96.945312 176.914062 96.628906 C 176.761719 96.414062 176.378906 96.308594 175.988281 96.472656 C 175.648438 96.617188 175.128906 96.722656 174.5625 96.773438 C 173.855469 96.84375 173.039062 96.753906 172.070312 96.203125 C 170.882812 95.523438 170.660156 93.695312 170.542969 92.59375 C 170.519531 92.398438 170.429688 91.261719 169.695312 91.441406 C 169.1875 91.5625 169.019531 92.199219 169 92.777344 " fill-opacity="1" fill-rule="evenodd"/><path fill="#fbb0a2" d="M 105.988281 113.277344 C 104.128906 113.941406 101.042969 110.21875 99.976562 109.234375 C 96.851562 106.359375 94.140625 103.15625 91.582031 99.789062 C 84.429688 90.382812 78.417969 79.578125 75.582031 68.121094 C 74.457031 63.582031 73.855469 56.296875 79.109375 53.9375 C 89.84375 49.121094 104.960938 64.035156 111.097656 71.304688 C 113.222656 73.824219 116.859375 78.066406 117.015625 81.636719 C 117.183594 85.429688 112.152344 78.316406 110.792969 79.898438 C 108.859375 82.140625 115.09375 89.398438 113.480469 92.296875 C 112.109375 94.769531 109.386719 90.214844 108.859375 92.507812 C 107.84375 96.914062 107.644531 103.34375 107.507812 107.582031 C 107.457031 109.140625 107.9375 112.582031 105.988281 113.277344 " fill-opacity="1" fill-rule="evenodd"/><path fill="#fbb0a2" d="M 192.945312 71.753906 C 194.660156 70.925781 194.160156 66.246094 194.199219 64.835938 C 194.308594 60.707031 193.914062 56.644531 193.304688 52.566406 C 191.601562 41.191406 188.15625 29.640625 182.109375 19.835938 C 179.71875 15.953125 175.058594 10.546875 169.875 12.558594 C 159.277344 16.671875 159.429688 37.320312 160.335938 46.539062 C 160.652344 49.730469 161.140625 55.144531 163.515625 57.699219 C 166.042969 60.414062 164.492188 52.066406 166.511719 52.210938 C 169.375 52.410156 170.207031 61.683594 173.308594 62.5625 C 175.949219 63.304688 174.632812 58.304688 176.578125 59.511719 C 180.324219 61.828125 184.929688 66.09375 187.964844 68.902344 C 189.078125 69.9375 191.148438 72.621094 192.945312 71.753906 " fill-opacity="1" fill-rule="evenodd"/><path fill="#fdc175" d="M 115.722656 154.367188 C 111.917969 160.882812 105.753906 174.164062 102.761719 180.542969 C 94.023438 199.175781 86.203125 218.59375 84.785156 239.328125 C 83.777344 254.128906 86.34375 271.054688 96.136719 278.605469 C 100.296875 281.816406 107.574219 282.625 114.265625 282.222656 C 121.84375 281.761719 126.386719 283.347656 130.625 281.722656 C 130.753906 281.671875 128.125 274 128.734375 272.226562 C 129.761719 269.230469 134.144531 267.386719 136.769531 266.539062 C 144.1875 264.140625 150.292969 264.402344 157 265.695312 C 157.640625 265.816406 163.746094 267.535156 164.128906 266.980469 C 166.457031 263.625 167.3125 252.980469 167.347656 249.183594 C 167.558594 225.535156 164.527344 223.789062 154.273438 209.171875 C 152.226562 206.253906 149.546875 197.636719 146.695312 195.664062 C 143.761719 193.640625 145.269531 204.726562 142.546875 202.714844 C 138.8125 199.953125 135.871094 193.277344 135.65625 188.933594 C 135.507812 185.910156 135.871094 183.40625 135.539062 183.023438 C 134.46875 181.78125 132.378906 186.789062 132.089844 189.472656 C 131.824219 191.925781 130.628906 192.746094 129.039062 191.046875 C 118.554688 179.871094 123.042969 160.292969 122.246094 158.796875 C 121.28125 156.988281 118.460938 155.328125 115.722656 154.367188 " fill-opacity="1" fill-rule="evenodd"/><path fill="#d37a6e" d="M 115.414062 81.550781 C 115.433594 81.523438 115.453125 81.492188 115.464844 81.464844 C 115.832031 80.789062 115.683594 79.953125 115.398438 79.117188 C 114.867188 77.570312 113.75 76.042969 113.050781 75.238281 C 110.117188 71.867188 103.382812 64.152344 95.644531 59.140625 C 90.664062 55.914062 85.269531 53.78125 80.230469 54.878906 C 78.007812 55.367188 76.765625 57.089844 76.167969 59.140625 C 75.515625 61.375 75.609375 64.007812 76.140625 66.113281 C 78.898438 77.019531 85.984375 88.910156 92.125 98.183594 C 92.433594 98.652344 92.304688 99.28125 91.839844 99.59375 C 91.375 99.90625 90.746094 99.777344 90.4375 99.308594 C 84.183594 89.855469 76.984375 77.726562 74.175781 66.613281 C 73.4375 63.683594 73.464844 59.875 74.800781 57.03125 C 75.761719 54.988281 77.371094 53.421875 79.800781 52.894531 C 85.328125 51.6875 91.28125 53.894531 96.742188 57.433594 C 104.667969 62.5625 111.574219 70.449219 114.574219 73.898438 C 115.394531 74.84375 116.691406 76.640625 117.3125 78.457031 C 117.796875 79.867188 117.867188 81.289062 117.246094 82.429688 C 116.796875 83.277344 116.222656 83.566406 115.679688 83.625 C 115.039062 83.691406 114.269531 83.324219 113.519531 82.683594 C 113.050781 82.28125 112.554688 81.78125 112.054688 81.449219 C 111.867188 81.320312 111.695312 81.195312 111.507812 81.210938 C 111.351562 81.226562 111.242188 81.378906 111.09375 81.601562 C 111.09375 81.625 111.085938 81.699219 111.09375 81.75 C 111.101562 81.890625 111.140625 82.050781 111.195312 82.222656 C 111.367188 82.785156 111.6875 83.453125 112.054688 84.171875 C 112.796875 85.628906 113.703125 87.277344 114.175781 88.800781 C 114.546875 90.003906 114.648438 91.144531 114.332031 92.109375 C 113.917969 93.375 112.933594 93.679688 111.699219 93.539062 C 111.171875 93.476562 110.589844 93.316406 110.066406 93.261719 C 109.960938 93.25 109.863281 93.242188 109.765625 93.25 C 109.726562 93.25 109.667969 93.261719 109.640625 93.265625 C 109.367188 93.597656 109.171875 94.082031 109.003906 94.660156 C 108.699219 95.738281 108.527344 97.105469 108.433594 98.585938 C 108.171875 102.5 108.398438 107.132812 108.113281 109.421875 C 107.96875 110.566406 107.679688 111.738281 107.15625 112.523438 C 106.671875 113.246094 106.015625 113.695312 105.152344 113.761719 C 104.449219 113.8125 103.550781 113.585938 102.445312 112.820312 C 101.113281 111.902344 99.367188 110.132812 97.09375 107.101562 C 96.757812 106.65625 96.847656 106.015625 97.296875 105.679688 C 97.742188 105.34375 98.375 105.429688 98.710938 105.882812 C 100.796875 108.660156 102.375 110.304688 103.589844 111.148438 C 103.992188 111.417969 104.332031 111.597656 104.636719 111.6875 C 104.878906 111.753906 105.074219 111.757812 105.226562 111.660156 C 105.472656 111.496094 105.617188 111.183594 105.742188 110.835938 C 105.925781 110.335938 106.035156 109.746094 106.105469 109.167969 C 106.433594 106.511719 106.066406 100.683594 106.589844 96.515625 C 106.847656 94.484375 107.351562 92.824219 108.121094 91.917969 C 108.433594 91.554688 108.835938 91.339844 109.3125 91.257812 C 109.773438 91.171875 110.328125 91.230469 110.898438 91.335938 C 111.300781 91.410156 111.714844 91.507812 112.089844 91.535156 C 112.160156 91.539062 112.234375 91.539062 112.300781 91.535156 C 112.34375 91.527344 112.394531 91.527344 112.40625 91.480469 C 112.605469 90.871094 112.476562 90.160156 112.242188 89.402344 C 111.800781 87.984375 110.941406 86.453125 110.253906 85.097656 C 109.730469 84.066406 109.300781 83.125 109.144531 82.375 C 108.976562 81.597656 109.082031 80.960938 109.394531 80.492188 C 109.890625 79.753906 110.429688 79.402344 110.941406 79.257812 C 111.472656 79.109375 112.015625 79.171875 112.550781 79.40625 C 113.105469 79.648438 113.671875 80.105469 114.207031 80.582031 C 114.515625 80.855469 114.808594 81.132812 115.09375 81.351562 C 115.1875 81.417969 115.320312 81.496094 115.414062 81.550781 " fill-opacity="1" fill-rule="evenodd"/><path fill="#d37a6e" d="M 173.367188 61.550781 C 173.402344 61.503906 173.46875 61.421875 173.507812 61.363281 C 173.632812 61.164062 173.757812 60.9375 173.90625 60.707031 C 174.335938 60.042969 174.925781 59.355469 176.035156 58.945312 C 176.472656 58.78125 177.007812 58.753906 177.617188 58.898438 C 178.28125 59.054688 179.074219 59.421875 179.925781 59.960938 C 182.878906 61.828125 186.742188 65.785156 188.664062 68.128906 C 189.207031 68.789062 190.238281 69.898438 191.308594 70.410156 C 191.734375 70.609375 192.164062 70.75 192.519531 70.457031 C 192.636719 70.359375 192.679688 70.160156 192.753906 69.921875 C 192.945312 69.265625 193.042969 68.351562 193.085938 67.304688 C 193.265625 62.894531 192.421875 56.222656 192.210938 54.597656 C 190.84375 44.128906 188.910156 37.683594 184.46875 26.265625 C 183.496094 23.765625 181.832031 20.554688 179.667969 18.023438 C 178.292969 16.417969 176.71875 15.082031 174.984375 14.445312 C 172.425781 13.507812 170.320312 13.578125 168.589844 14.417969 C 166.835938 15.269531 165.488281 16.882812 164.4375 18.898438 C 162.179688 23.230469 161.308594 29.378906 161.183594 34.589844 C 161.167969 35.152344 160.707031 35.597656 160.148438 35.582031 C 159.589844 35.570312 159.144531 35.101562 159.160156 34.542969 C 159.292969 29.03125 160.257812 22.535156 162.640625 17.957031 C 163.914062 15.519531 165.585938 13.613281 167.710938 12.585938 C 169.863281 11.539062 172.488281 11.367188 175.679688 12.535156 C 177.71875 13.28125 179.589844 14.8125 181.203125 16.699219 C 183.519531 19.410156 185.3125 22.847656 186.351562 25.523438 C 190.871094 37.132812 192.824219 43.691406 194.222656 54.335938 C 194.4375 56 195.296875 62.855469 195.109375 67.386719 C 195.054688 68.632812 194.921875 69.71875 194.695312 70.496094 C 194.480469 71.222656 194.160156 71.730469 193.808594 72.023438 C 192.824219 72.839844 191.628906 72.808594 190.441406 72.246094 C 189.101562 71.609375 187.777344 70.246094 187.101562 69.417969 C 185.285156 67.203125 181.644531 63.445312 178.84375 61.683594 C 178.308594 61.34375 177.8125 61.082031 177.371094 60.9375 C 177.121094 60.855469 176.90625 60.785156 176.734375 60.851562 C 175.730469 61.222656 175.488281 62.039062 175.160156 62.539062 C 174.859375 62.988281 174.515625 63.308594 174.082031 63.472656 C 173.765625 63.589844 173.390625 63.636719 172.921875 63.535156 C 172.359375 63.417969 171.699219 62.90625 171.101562 62.015625 C 170.128906 60.570312 169.105469 58.003906 168.136719 55.917969 C 167.71875 55.011719 167.316406 54.203125 166.929688 53.65625 L 166.914062 53.636719 C 166.820312 54.074219 166.773438 54.609375 166.710938 55.136719 C 166.605469 56.023438 166.4375 56.898438 166.085938 57.519531 C 165.742188 58.125 165.25 58.539062 164.558594 58.6875 C 164.007812 58.8125 163.363281 58.664062 162.738281 58.167969 C 161.820312 57.4375 160.835938 55.789062 160.410156 53.695312 C 160.300781 53.144531 160.652344 52.605469 161.199219 52.492188 C 161.746094 52.382812 162.28125 52.738281 162.394531 53.289062 C 162.667969 54.621094 163.195312 55.734375 163.773438 56.363281 C 163.898438 56.5 164.109375 56.640625 164.179688 56.683594 C 164.367188 56.605469 164.40625 56.371094 164.476562 56.136719 C 164.652344 55.550781 164.707031 54.824219 164.785156 54.164062 C 164.867188 53.476562 164.980469 52.84375 165.179688 52.394531 C 165.421875 51.859375 165.777344 51.515625 166.226562 51.347656 C 166.667969 51.1875 167.128906 51.222656 167.601562 51.503906 C 168.113281 51.808594 168.714844 52.578125 169.285156 53.65625 C 170.203125 55.382812 171.1875 57.953125 172.152344 59.800781 C 172.441406 60.355469 172.722656 60.835938 173.003906 61.191406 C 173.125 61.34375 173.324219 61.515625 173.367188 61.550781 " fill-opacity="1" fill-rule="evenodd"/><path fill="#ead2c1" d="M 158.238281 159.359375 C 160.625 159.289062 162.996094 159.101562 165.371094 158.902344 C 169.824219 158.535156 179.761719 156.890625 186.507812 154.085938 C 187.023438 153.871094 187.269531 153.277344 187.054688 152.757812 C 186.839844 152.238281 186.246094 151.992188 185.730469 152.207031 C 179.183594 154.933594 169.527344 156.519531 165.203125 156.878906 C 162.863281 157.070312 160.527344 157.257812 158.179688 157.328125 C 157.621094 157.34375 157.179688 157.8125 157.195312 158.375 C 157.210938 158.933594 157.679688 159.375 158.238281 159.359375 " fill-opacity="1" fill-rule="evenodd"/><path fill="#ead2c1" d="M 199.066406 148.015625 C 200.242188 147.40625 201.417969 146.796875 202.550781 146.109375 C 205.511719 144.3125 208.613281 142.113281 210.863281 139.433594 C 211.222656 139 211.167969 138.359375 210.742188 138 C 210.3125 137.636719 209.675781 137.695312 209.316406 138.121094 C 207.203125 140.636719 204.285156 142.683594 201.503906 144.367188 C 200.410156 145.035156 199.269531 145.621094 198.132812 146.210938 C 197.640625 146.46875 197.445312 147.082031 197.703125 147.582031 C 197.960938 148.078125 198.574219 148.273438 199.066406 148.015625 " fill-opacity="1" fill-rule="evenodd"/><path fill="#b96f30" d="M 115.710938 231.957031 C 118.226562 241.699219 123.625 261.210938 127.054688 270.632812 C 127.246094 271.160156 127.828125 271.433594 128.351562 271.242188 C 128.878906 271.050781 129.148438 270.464844 128.957031 269.9375 C 125.546875 260.5625 120.175781 241.140625 117.671875 231.445312 C 117.53125 230.902344 116.976562 230.578125 116.4375 230.71875 C 115.894531 230.859375 115.570312 231.414062 115.710938 231.957031 " fill-opacity="1" fill-rule="evenodd"/><path fill="#fdc175" d="M 222.316406 257.585938 C 222.097656 257.734375 215.699219 256.257812 208.996094 257.503906 C 200.742188 259.039062 192.035156 264.664062 192.089844 264.449219 C 192.277344 263.667969 192.9375 256.609375 193.554688 254.199219 C 194.355469 251.054688 195.839844 246.015625 197.59375 243.1875 C 199.507812 240.109375 202.964844 236.914062 205.164062 233.726562 C 208.832031 228.402344 209.503906 220.527344 210 214.914062 C 210.019531 214.671875 211.398438 217.730469 211.636719 217.824219 C 212.304688 218.085938 216.484375 211.734375 217.519531 205.460938 C 217.617188 204.867188 217.824219 201.484375 217.957031 201.4375 C 218.851562 201.140625 219.996094 204.621094 220.546875 204.234375 C 221.375 203.660156 222.433594 201.066406 222.808594 198.394531 C 223.203125 195.574219 223.4375 193.367188 223.640625 193.429688 C 225.476562 193.976562 225.519531 198.015625 225.699219 199.441406 C 226.644531 206.980469 226.300781 214.636719 225.9375 222.199219 C 225.492188 231.3125 223.867188 240.230469 222.839844 249.277344 C 222.757812 250.003906 222.417969 257.519531 222.316406 257.585938 " fill-opacity="1" fill-rule="evenodd"/><path fill="#ead2c1" d="M 163.667969 268.410156 C 164.667969 270.390625 165.945312 273.242188 166.898438 276.863281 C 166.992188 277.214844 167.351562 277.425781 167.703125 277.332031 C 168.054688 277.238281 168.265625 276.878906 168.171875 276.527344 C 167.1875 272.792969 165.875 269.851562 164.84375 267.808594 C 164.675781 267.484375 164.28125 267.355469 163.957031 267.519531 C 163.632812 267.6875 163.5 268.085938 163.667969 268.410156 " fill-opacity="1" fill-rule="evenodd"/><path fill="#ead2c1" d="M 191.535156 265.179688 C 190.457031 267.339844 190.09375 270.390625 190.195312 274.488281 C 190.203125 274.855469 190.507812 275.140625 190.871094 275.132812 C 191.234375 275.125 191.523438 274.820312 191.515625 274.457031 C 191.421875 270.636719 191.707031 267.789062 192.714844 265.773438 C 192.878906 265.449219 192.746094 265.050781 192.421875 264.886719 C 192.09375 264.722656 191.699219 264.855469 191.535156 265.179688 " fill-opacity="1" fill-rule="evenodd"/></svg>