<svg xmlns="http://www.w3.org/2000/svg" xmlns:xlink="http://www.w3.org/1999/xlink" width="400" zoomAndPan="magnify" viewBox="0 0 300 299.999988" height="400" preserveAspectRatio="xMidYMid meet" version="1.0"><defs><clipPath id="55af193d69"><path d="M 27 0 L 274.839844 0 L 274.839844 300 L 27 300 Z M 27 0 " clip-rule="nonzero"/></clipPath></defs><path fill="#ffe64d" d="M 107.21875 255.882812 L 142.503906 229.410156 L 177.789062 255.882812 C 177.789062 275.375 161.992188 291.175781 142.503906 291.175781 C 123.011719 291.175781 107.21875 275.375 107.21875 255.882812 Z M 107.21875 255.882812 " fill-opacity="1" fill-rule="nonzero"/><path fill="#ffe64d" d="M 213.117188 158.824219 C 213.105469 158.824219 213.085938 158.824219 213.074219 158.824219 L 186.910156 59.847656 C 174.640625 49.890625 159.148438 44.117188 142.503906 44.117188 C 103.285156 44.117188 71.929688 75.96875 71.929688 114.707031 L 71.929688 155.265625 C 71.929688 171.546875 69.46875 187.605469 64.714844 202.941406 L 142.503906 221.410156 L 220.289062 202.941406 C 215.886719 188.722656 213.445312 173.882812 213.117188 158.824219 Z M 213.117188 158.824219 " fill-opacity="1" fill-rule="nonzero"/><path fill="#ffbb00" d="M 248.359375 255.882812 C 242.53125 255.882812 45.875 255.882812 36.644531 255.882812 C 49.320312 240.035156 58.792969 222.058594 64.714844 202.941406 L 220.289062 202.941406 C 226.527344 222.964844 236.1875 240.660156 248.359375 255.882812 Z M 248.359375 255.882812 " fill-opacity="1" fill-rule="nonzero"/><path fill="#ff6767" d="M 266.003906 105.882812 C 266.003906 107.617188 265.917969 109.347656 265.75 111.070312 C 265.578125 112.796875 265.324219 114.511719 264.988281 116.210938 C 264.648438 117.910156 264.226562 119.589844 263.722656 121.25 C 263.222656 122.910156 262.636719 124.539062 261.972656 126.140625 C 261.3125 127.742188 260.570312 129.308594 259.753906 130.839844 C 258.9375 132.367188 258.046875 133.851562 257.082031 135.292969 C 256.121094 136.738281 255.089844 138.128906 253.988281 139.46875 C 252.890625 140.808594 251.726562 142.089844 250.5 143.316406 C 249.273438 144.542969 247.992188 145.707031 246.652344 146.804688 C 245.3125 147.90625 243.921875 148.9375 242.480469 149.902344 C 241.039062 150.863281 239.554688 151.753906 238.023438 152.570312 C 236.496094 153.390625 234.929688 154.128906 233.328125 154.792969 C 231.726562 155.457031 230.097656 156.039062 228.4375 156.542969 C 226.78125 157.046875 225.101562 157.46875 223.402344 157.804688 C 221.699219 158.144531 219.988281 158.398438 218.261719 158.570312 C 216.539062 158.738281 214.808594 158.824219 213.074219 158.824219 C 211.339844 158.824219 209.613281 158.738281 207.886719 158.570312 C 206.160156 158.398438 204.449219 158.144531 202.75 157.804688 C 201.046875 157.46875 199.367188 157.046875 197.710938 156.542969 C 196.050781 156.039062 194.421875 155.457031 192.820312 154.792969 C 191.21875 154.128906 189.652344 153.390625 188.125 152.574219 C 186.59375 151.753906 185.109375 150.863281 183.667969 149.902344 C 182.226562 148.9375 180.835938 147.90625 179.496094 146.804688 C 178.15625 145.707031 176.875 144.542969 175.648438 143.316406 C 174.421875 142.089844 173.261719 140.808594 172.160156 139.46875 C 171.058594 138.128906 170.027344 136.738281 169.066406 135.292969 C 168.101562 133.851562 167.210938 132.367188 166.394531 130.839844 C 165.578125 129.308594 164.839844 127.742188 164.175781 126.140625 C 163.511719 124.539062 162.929688 122.910156 162.425781 121.25 C 161.921875 119.589844 161.5 117.910156 161.164062 116.210938 C 160.824219 114.511719 160.570312 112.796875 160.402344 111.070312 C 160.230469 109.347656 160.144531 107.617188 160.144531 105.882812 C 160.144531 104.148438 160.230469 102.417969 160.402344 100.691406 C 160.570312 98.96875 160.824219 97.253906 161.164062 95.554688 C 161.5 93.851562 161.921875 92.171875 162.425781 90.515625 C 162.929688 88.855469 163.511719 87.222656 164.175781 85.621094 C 164.839844 84.019531 165.578125 82.457031 166.394531 80.925781 C 167.210938 79.398438 168.101562 77.910156 169.066406 76.46875 C 170.027344 75.027344 171.058594 73.636719 172.160156 72.296875 C 173.261719 70.957031 174.421875 69.671875 175.648438 68.449219 C 176.875 67.222656 178.15625 66.058594 179.496094 64.957031 C 180.835938 63.859375 182.226562 62.828125 183.667969 61.863281 C 185.109375 60.898438 186.59375 60.007812 188.125 59.191406 C 189.652344 58.375 191.21875 57.632812 192.820312 56.972656 C 194.421875 56.308594 196.050781 55.722656 197.710938 55.222656 C 199.367188 54.71875 201.046875 54.296875 202.75 53.957031 C 204.449219 53.621094 206.160156 53.367188 207.886719 53.195312 C 209.613281 53.027344 211.339844 52.941406 213.074219 52.941406 C 214.808594 52.941406 216.539062 53.027344 218.261719 53.195312 C 219.988281 53.367188 221.699219 53.621094 223.402344 53.957031 C 225.101562 54.296875 226.78125 54.71875 228.4375 55.222656 C 230.097656 55.722656 231.726562 56.308594 233.328125 56.972656 C 234.929688 57.632812 236.496094 58.375 238.023438 59.191406 C 239.554688 60.007812 241.039062 60.898438 242.480469 61.863281 C 243.921875 62.828125 245.3125 63.859375 246.652344 64.957031 C 247.992188 66.058594 249.273438 67.222656 250.5 68.449219 C 251.726562 69.671875 252.890625 70.957031 253.988281 72.296875 C 255.089844 73.636719 256.121094 75.027344 257.082031 76.46875 C 258.046875 77.910156 258.9375 79.398438 259.753906 80.925781 C 260.570312 82.457031 261.3125 84.019531 261.972656 85.621094 C 262.636719 87.222656 263.222656 88.855469 263.722656 90.515625 C 264.226562 92.171875 264.648438 93.851562 264.988281 95.554688 C 265.324219 97.253906 265.578125 98.96875 265.75 100.691406 C 265.917969 102.417969 266.003906 104.148438 266.003906 105.882812 Z M 266.003906 105.882812 " fill-opacity="1" fill-rule="nonzero"/><g clip-path="url(#55af193d69)"><path fill="#000000" d="M 222.351562 166.949219 C 252.015625 162.460938 274.824219 136.785156 274.824219 105.882812 C 274.824219 61.183594 228.523438 31.214844 187.835938 49.515625 C 181.996094 45.457031 175.640625 42.207031 168.964844 39.847656 L 168.964844 26.46875 C 168.964844 11.84375 157.125 0 142.503906 0 C 127.910156 0 116.039062 11.875 116.039062 26.46875 L 116.039062 39.8125 C 85.183594 50.703125 63.109375 80.109375 63.109375 114.707031 L 63.109375 155.265625 C 63.109375 189.703125 51.265625 223.480469 29.757812 250.371094 C 25.140625 256.140625 29.265625 264.707031 36.644531 264.707031 L 99.28125 264.707031 C 103.382812 284.820312 121.203125 300 142.503906 300 C 163.804688 300 181.625 284.820312 185.722656 264.707031 L 248.359375 264.707031 C 255.75 264.707031 259.859375 256.136719 255.25 250.371094 C 235.5625 225.75 224.628906 196.5 222.351562 166.949219 Z M 257.183594 105.882812 C 257.183594 130.207031 237.394531 150 213.074219 150 C 188.753906 150 168.96875 130.207031 168.96875 105.882812 C 168.96875 81.554688 188.753906 61.765625 213.074219 61.765625 C 237.394531 61.765625 257.183594 81.554688 257.183594 105.882812 Z M 133.679688 26.46875 C 133.679688 21.605469 137.640625 17.648438 142.503906 17.648438 C 147.375 17.648438 151.324219 21.597656 151.324219 26.46875 L 151.324219 35.792969 C 145.535156 35.140625 139.707031 35.117188 133.679688 35.785156 Z M 80.753906 114.707031 C 80.753906 80.558594 108.382812 52.941406 142.503906 52.941406 C 152.667969 52.941406 162.660156 55.484375 171.542969 60.214844 C 159.128906 71.519531 151.324219 87.804688 151.324219 105.882812 C 151.324219 137.089844 174.582031 162.960938 204.671875 167.074219 C 205.3125 176.289062 206.691406 185.328125 208.757812 194.117188 L 76.21875 194.117188 C 79.207031 181.4375 80.753906 168.394531 80.753906 155.265625 Z M 142.503906 282.351562 C 131.003906 282.351562 121.199219 274.976562 117.554688 264.707031 L 167.449219 264.707031 C 163.808594 274.976562 154.003906 282.351562 142.503906 282.351562 Z M 53.8125 247.058594 C 60.910156 235.984375 66.6875 224.125 71.046875 211.765625 L 213.925781 211.765625 C 218.335938 224.277344 224.152344 236.125 231.175781 247.058594 Z M 53.8125 247.058594 " fill-opacity="1" fill-rule="nonzero"/></g><path fill="#000000" d="M 213.074219 132.351562 C 217.945312 132.351562 221.894531 128.402344 221.894531 123.53125 L 221.894531 88.234375 C 221.894531 83.363281 217.945312 79.410156 213.074219 79.410156 C 208.203125 79.410156 204.253906 83.363281 204.253906 88.234375 L 204.253906 123.53125 C 204.253906 128.402344 208.203125 132.351562 213.074219 132.351562 Z M 213.074219 132.351562 " fill-opacity="1" fill-rule="nonzero"/></svg>