<svg xmlns="http://www.w3.org/2000/svg" xmlns:xlink="http://www.w3.org/1999/xlink" width="400" zoomAndPan="magnify" viewBox="0 0 300 299.999988" height="400" preserveAspectRatio="xMidYMid meet" version="1.0"><defs><clipPath id="2d1c79a51c"><path d="M 16 40 L 284 40 L 284 270.75 L 16 270.75 Z M 16 40 " clip-rule="nonzero"/></clipPath><clipPath id="ff437f56b0"><path d="M 16 40 L 269 40 L 269 270.75 L 16 270.75 Z M 16 40 " clip-rule="nonzero"/></clipPath></defs><g clip-path="url(#2d1c79a51c)"><path fill="#ad4545" d="M 281.878906 84.980469 C 274.960938 49.691406 226.945312 29.277344 189.703125 46.347656 C 189.703125 46.347656 165 56.539062 151.828125 77.292969 C 150.960938 78.660156 149.121094 78.660156 148.253906 77.292969 C 135.082031 56.539062 110.378906 46.347656 110.378906 46.347656 C 73.097656 29.261719 25.121094 49.71875 18.203125 84.980469 C 0.402344 175.816406 135.339844 261.855469 148.929688 270.261719 C 149.632812 270.695312 150.417969 270.695312 151.125 270.261719 C 164.742188 261.84375 299.679688 175.800781 281.878906 84.980469 Z M 281.878906 84.980469 " fill-opacity="1" fill-rule="nonzero"/></g><g clip-path="url(#ff437f56b0)"><path fill="#f05454" d="M 266.945312 84.980469 C 260.027344 49.691406 226.945312 29.277344 189.703125 46.347656 C 189.703125 46.347656 165 56.539062 151.828125 77.292969 C 150.960938 78.660156 149.121094 78.660156 148.253906 77.292969 C 135.082031 56.539062 110.378906 46.347656 110.378906 46.347656 C 73.097656 29.261719 25.121094 49.71875 18.203125 84.980469 C 0.402344 175.816406 135.339844 261.855469 148.929688 270.261719 C 149.632812 270.695312 150.417969 270.695312 151.125 270.261719 C 164.742188 261.84375 284.746094 175.800781 266.945312 84.980469 Z M 266.945312 84.980469 " fill-opacity="1" fill-rule="nonzero"/></g><path fill="#f6f4e6" d="M 172.738281 100.601562 C 173.539062 100.742188 174.308594 100.996094 175.050781 101.367188 C 175.792969 101.738281 176.492188 102.21875 177.148438 102.804688 C 177.804688 103.390625 178.40625 104.074219 178.953125 104.851562 C 179.5 105.632812 179.984375 106.492188 180.398438 107.433594 C 180.816406 108.378906 181.15625 109.382812 181.425781 110.453125 C 181.695312 111.523438 181.882812 112.636719 181.996094 113.789062 C 182.105469 114.945312 182.136719 116.121094 182.085938 117.320312 C 182.035156 118.515625 181.90625 119.710938 181.695312 120.902344 C 181.484375 122.09375 181.199219 123.261719 180.835938 124.402344 C 180.476562 125.546875 180.042969 126.640625 179.542969 127.6875 C 179.042969 128.734375 178.484375 129.714844 177.867188 130.628906 C 177.25 131.542969 176.582031 132.371094 175.871094 133.113281 C 175.15625 133.855469 174.410156 134.5 173.628906 135.046875 C 172.847656 135.59375 172.050781 136.027344 171.230469 136.355469 C 170.414062 136.679688 169.59375 136.890625 168.769531 136.984375 C 167.945312 137.078125 167.132812 137.054688 166.335938 136.914062 C 165.535156 136.773438 164.765625 136.519531 164.023438 136.148438 C 163.28125 135.777344 162.582031 135.300781 161.925781 134.710938 C 161.269531 134.125 160.667969 133.441406 160.121094 132.664062 C 159.574219 131.882812 159.089844 131.023438 158.675781 130.082031 C 158.261719 129.136719 157.917969 128.132812 157.648438 127.0625 C 157.378906 125.992188 157.191406 124.878906 157.078125 123.726562 C 156.96875 122.570312 156.9375 121.394531 156.988281 120.195312 C 157.039062 119 157.167969 117.804688 157.378906 116.613281 C 157.589844 115.421875 157.875 114.253906 158.238281 113.113281 C 158.601562 111.972656 159.03125 110.875 159.53125 109.828125 C 160.03125 108.78125 160.589844 107.800781 161.207031 106.886719 C 161.824219 105.972656 162.492188 105.144531 163.203125 104.402344 C 163.917969 103.660156 164.664062 103.015625 165.445312 102.46875 C 166.226562 101.925781 167.027344 101.488281 167.84375 101.164062 C 168.660156 100.835938 169.484375 100.625 170.304688 100.53125 C 171.128906 100.4375 171.941406 100.460938 172.738281 100.601562 Z M 172.738281 100.601562 " fill-opacity="1" fill-rule="nonzero"/><path fill="#f6f4e6" d="M 198.558594 134.453125 C 199.152344 134.667969 199.710938 134.96875 200.230469 135.355469 C 200.75 135.742188 201.222656 136.203125 201.648438 136.742188 C 202.074219 137.28125 202.445312 137.890625 202.761719 138.5625 C 203.074219 139.234375 203.328125 139.960938 203.519531 140.742188 C 203.714844 141.523438 203.839844 142.34375 203.902344 143.203125 C 203.964844 144.0625 203.957031 144.941406 203.886719 145.84375 C 203.816406 146.746094 203.679688 147.65625 203.480469 148.570312 C 203.277344 149.480469 203.015625 150.382812 202.695312 151.269531 C 202.371094 152.15625 201.992188 153.015625 201.558594 153.84375 C 201.125 154.671875 200.648438 155.457031 200.121094 156.195312 C 199.59375 156.929688 199.03125 157.609375 198.433594 158.226562 C 197.835938 158.84375 197.210938 159.390625 196.5625 159.867188 C 195.914062 160.339844 195.25 160.734375 194.578125 161.046875 C 193.902344 161.363281 193.230469 161.589844 192.554688 161.726562 C 191.882812 161.867188 191.222656 161.917969 190.578125 161.878906 C 189.929688 161.839844 189.308594 161.710938 188.714844 161.496094 C 188.121094 161.28125 187.5625 160.980469 187.042969 160.59375 C 186.523438 160.207031 186.050781 159.746094 185.625 159.207031 C 185.199219 158.664062 184.828125 158.058594 184.511719 157.386719 C 184.199219 156.710938 183.945312 155.984375 183.753906 155.203125 C 183.5625 154.421875 183.433594 153.605469 183.371094 152.746094 C 183.308594 151.886719 183.316406 151.007812 183.386719 150.101562 C 183.457031 149.199219 183.59375 148.292969 183.792969 147.378906 C 183.996094 146.464844 184.257812 145.566406 184.578125 144.675781 C 184.902344 143.789062 185.28125 142.929688 185.714844 142.101562 C 186.148438 141.273438 186.625 140.492188 187.152344 139.753906 C 187.679688 139.015625 188.242188 138.339844 188.839844 137.71875 C 189.4375 137.101562 190.0625 136.554688 190.710938 136.082031 C 191.363281 135.605469 192.023438 135.210938 192.695312 134.898438 C 193.371094 134.585938 194.042969 134.359375 194.71875 134.21875 C 195.390625 134.078125 196.050781 134.03125 196.695312 134.070312 C 197.34375 134.109375 197.964844 134.234375 198.558594 134.453125 Z M 198.558594 134.453125 " fill-opacity="1" fill-rule="nonzero"/><path fill="#f6f4e6" d="M 115.492188 144.675781 C 115.8125 145.5625 116.074219 146.464844 116.277344 147.375 C 116.476562 148.289062 116.613281 149.199219 116.683594 150.101562 C 116.753906 151.003906 116.761719 151.882812 116.699219 152.742188 C 116.636719 153.601562 116.511719 154.421875 116.316406 155.203125 C 116.125 155.984375 115.871094 156.710938 115.558594 157.382812 C 115.242188 158.054688 114.871094 158.664062 114.445312 159.203125 C 114.019531 159.742188 113.546875 160.203125 113.027344 160.589844 C 112.507812 160.976562 111.949219 161.277344 111.355469 161.492188 C 110.761719 161.710938 110.140625 161.835938 109.492188 161.875 C 108.847656 161.914062 108.1875 161.863281 107.515625 161.726562 C 106.839844 161.585938 106.167969 161.359375 105.492188 161.046875 C 104.820312 160.734375 104.15625 160.339844 103.507812 159.863281 C 102.859375 159.390625 102.234375 158.84375 101.636719 158.222656 C 101.039062 157.605469 100.476562 156.929688 99.949219 156.191406 C 99.421875 155.453125 98.945312 154.671875 98.511719 153.84375 C 98.078125 153.011719 97.699219 152.15625 97.375 151.265625 C 97.054688 150.378906 96.792969 149.480469 96.589844 148.566406 C 96.390625 147.652344 96.253906 146.746094 96.183594 145.84375 C 96.113281 144.9375 96.105469 144.058594 96.167969 143.199219 C 96.230469 142.339844 96.355469 141.519531 96.550781 140.742188 C 96.742188 139.960938 96.996094 139.234375 97.308594 138.558594 C 97.625 137.886719 97.996094 137.28125 98.421875 136.738281 C 98.847656 136.199219 99.320312 135.738281 99.839844 135.351562 C 100.359375 134.964844 100.917969 134.664062 101.511719 134.449219 C 102.105469 134.234375 102.726562 134.105469 103.375 134.066406 C 104.019531 134.027344 104.679688 134.078125 105.351562 134.21875 C 106.027344 134.355469 106.699219 134.582031 107.375 134.898438 C 108.046875 135.210938 108.707031 135.605469 109.359375 136.078125 C 110.007812 136.554688 110.632812 137.101562 111.230469 137.71875 C 111.828125 138.335938 112.390625 139.011719 112.917969 139.75 C 113.445312 140.488281 113.921875 141.273438 114.355469 142.101562 C 114.789062 142.929688 115.167969 143.785156 115.492188 144.675781 Z M 115.492188 144.675781 " fill-opacity="1" fill-rule="nonzero"/><path fill="#f6f4e6" d="M 143.640625 116.605469 C 143.851562 117.796875 143.984375 118.992188 144.035156 120.1875 C 144.085938 121.386719 144.054688 122.5625 143.941406 123.71875 C 143.832031 124.871094 143.640625 125.984375 143.371094 127.054688 C 143.105469 128.125 142.761719 129.128906 142.347656 130.074219 C 141.929688 131.015625 141.449219 131.875 140.902344 132.65625 C 140.355469 133.433594 139.753906 134.117188 139.097656 134.703125 C 138.4375 135.289062 137.738281 135.769531 136.996094 136.140625 C 136.253906 136.511719 135.484375 136.765625 134.6875 136.90625 C 133.886719 137.046875 133.078125 137.070312 132.253906 136.976562 C 131.429688 136.882812 130.609375 136.671875 129.789062 136.34375 C 128.972656 136.019531 128.171875 135.582031 127.390625 135.039062 C 126.613281 134.492188 125.863281 133.847656 125.152344 133.105469 C 124.4375 132.363281 123.773438 131.535156 123.15625 130.621094 C 122.535156 129.707031 121.976562 128.726562 121.476562 127.679688 C 120.976562 126.632812 120.546875 125.535156 120.183594 124.394531 C 119.824219 123.253906 119.535156 122.085938 119.328125 120.894531 C 119.117188 119.703125 118.984375 118.507812 118.933594 117.3125 C 118.882812 116.113281 118.914062 114.9375 119.027344 113.78125 C 119.136719 112.628906 119.328125 111.515625 119.597656 110.445312 C 119.863281 109.375 120.207031 108.371094 120.621094 107.425781 C 121.039062 106.484375 121.519531 105.625 122.066406 104.84375 C 122.613281 104.066406 123.214844 103.382812 123.871094 102.796875 C 124.53125 102.210938 125.230469 101.730469 125.972656 101.359375 C 126.714844 100.988281 127.484375 100.734375 128.28125 100.59375 C 129.078125 100.453125 129.890625 100.429688 130.714844 100.523438 C 131.539062 100.617188 132.359375 100.828125 133.179688 101.152344 C 133.996094 101.480469 134.796875 101.914062 135.574219 102.460938 C 136.355469 103.007812 137.105469 103.652344 137.816406 104.394531 C 138.53125 105.136719 139.195312 105.964844 139.8125 106.878906 C 140.433594 107.792969 140.992188 108.773438 141.492188 109.820312 C 141.992188 110.867188 142.421875 111.960938 142.785156 113.105469 C 143.144531 114.246094 143.433594 115.414062 143.640625 116.605469 Z M 143.640625 116.605469 " fill-opacity="1" fill-rule="nonzero"/><path fill="#f6f4e6" d="M 150.269531 204.867188 C 156.917969 204.867188 163.265625 211.296875 170.578125 213 C 178.902344 214.9375 189.542969 213.949219 195.089844 207.019531 C 199.800781 201.128906 200.074219 191.042969 193.765625 185.332031 C 188.863281 180.90625 183.042969 180.632812 177.871094 173.214844 C 174.054688 167.746094 173.785156 160.695312 170.277344 155.089844 C 166.082031 148.375 157.703125 146.695312 150.285156 146.695312 C 142.988281 146.695312 135.070312 148.699219 130.738281 155.023438 C 127.054688 160.410156 126.378906 167.21875 122.859375 172.675781 C 118.988281 178.683594 111.90625 180.703125 106.789062 185.332031 C 100.480469 191.042969 100.753906 201.128906 105.464844 207.019531 C 111.011719 213.949219 121.652344 214.9375 129.980469 213 C 137.273438 211.296875 143.625 204.867188 150.269531 204.867188 Z M 150.269531 204.867188 " fill-opacity="1" fill-rule="nonzero"/></svg>