<svg xmlns="http://www.w3.org/2000/svg" xmlns:xlink="http://www.w3.org/1999/xlink" width="400" zoomAndPan="magnify" viewBox="0 0 300 299.999988" height="400" preserveAspectRatio="xMidYMid meet" version="1.0"><defs><clipPath id="cd4af9c7d0"><path d="M 36.214844 53.425781 L 263.464844 53.425781 L 263.464844 247.675781 L 36.214844 247.675781 Z M 36.214844 53.425781 " clip-rule="nonzero"/></clipPath><clipPath id="713f653923"><path d="M 36.214844 53.425781 L 263.464844 53.425781 L 263.464844 247.675781 L 36.214844 247.675781 Z M 36.214844 53.425781 " clip-rule="nonzero"/></clipPath></defs><g clip-path="url(#cd4af9c7d0)"><path fill="#ffffff" d="M 30 30 L 270 30 L 270 270 L 30 270 Z M 30 30 " fill-opacity="1" fill-rule="evenodd"/></g><path fill="#644f78" d="M 59.085938 74.882812 L 145.019531 74.882812 L 145.019531 149.511719 L 59.085938 149.511719 Z M 59.085938 74.882812 " fill-opacity="1" fill-rule="evenodd"/><path fill="#cc2229" d="M 154.980469 74.878906 L 240.914062 74.878906 L 240.914062 149.507812 L 154.980469 149.507812 Z M 154.980469 74.878906 " fill-opacity="1" fill-rule="evenodd"/><path fill="#000000" d="M 64.292969 225.476562 C 62.953125 225.476562 61.898438 225.117188 61.15625 224.367188 C 60.414062 223.632812 60.042969 222.785156 60.042969 221.859375 C 60.042969 220.75 60.414062 219.855469 61.132812 219.136719 C 61.539062 218.679688 62.128906 218.242188 62.894531 217.785156 C 63.648438 217.328125 64.1875 216.824219 64.484375 216.285156 C 64.785156 215.730469 64.941406 214.753906 64.941406 213.355469 L 64.941406 171.816406 C 64.941406 170.414062 64.785156 169.4375 64.484375 168.898438 C 64.1875 168.347656 63.648438 167.839844 62.894531 167.386719 C 62.128906 166.945312 61.539062 166.488281 61.132812 166.046875 C 60.417969 165.332031 60.042969 164.550781 60.042969 163.703125 C 60.042969 162.707031 60.414062 161.78125 61.15625 160.949219 C 61.886719 160.117188 62.941406 159.695312 64.292969 159.695312 L 77.722656 159.695312 C 79.039062 159.695312 80.058594 160.101562 80.761719 160.933594 C 81.46875 161.765625 81.824219 162.691406 81.824219 163.703125 C 81.824219 164.550781 81.613281 165.265625 81.179688 165.855469 C 80.726562 166.441406 80.078125 166.945312 79.253906 167.351562 C 78.414062 167.777344 77.839844 168.230469 77.503906 168.753906 C 77.171875 169.273438 77.003906 170.300781 77.003906 171.816406 L 77.003906 181.996094 C 77.003906 183.15625 77.253906 184.097656 77.769531 184.816406 C 78.285156 185.550781 78.964844 185.90625 79.800781 185.90625 L 93.519531 185.90625 C 94.441406 185.90625 95.148438 185.566406 95.648438 184.863281 C 96.140625 184.164062 96.390625 183.203125 96.390625 181.996094 L 96.390625 171.816406 C 96.390625 170.414062 96.234375 169.453125 95.9375 168.898438 C 95.636719 168.347656 95.101562 167.839844 94.34375 167.398438 C 93.578125 166.945312 92.992188 166.488281 92.585938 166.046875 C 91.859375 165.355469 91.507812 164.507812 91.519531 163.507812 C 91.519531 162.515625 91.878906 161.617188 92.609375 160.851562 C 93.328125 160.085938 94.382812 159.695312 95.746094 159.695312 L 109.175781 159.695312 C 110.503906 159.695312 111.511719 160.101562 112.214844 160.933594 C 112.921875 161.765625 113.28125 162.691406 113.28125 163.703125 C 113.28125 164.550781 113.0625 165.265625 112.632812 165.855469 C 112.191406 166.421875 111.554688 166.929688 110.742188 167.335938 C 109.914062 167.757812 109.339844 168.230469 109.015625 168.738281 C 108.695312 169.242188 108.527344 170.269531 108.527344 171.816406 L 108.527344 213.355469 C 108.527344 214.933594 108.695312 215.976562 109.015625 216.480469 C 109.339844 216.988281 109.914062 217.445312 110.714844 217.835938 C 111.519531 218.226562 112.164062 218.714844 112.632812 219.316406 C 113.0625 220.015625 113.277344 220.863281 113.277344 221.859375 C 113.277344 222.867188 112.929688 223.730469 112.234375 224.429688 C 111.542969 225.128906 110.511719 225.472656 109.171875 225.472656 L 95.746094 225.472656 C 94.382812 225.472656 93.332031 225.132812 92.609375 224.429688 C 91.878906 223.730469 91.523438 222.867188 91.523438 221.859375 C 91.523438 220.734375 91.878906 219.835938 92.585938 219.136719 C 92.996094 218.679688 93.578125 218.242188 94.347656 217.785156 C 95.101562 217.328125 95.640625 216.824219 95.9375 216.285156 C 96.238281 215.730469 96.390625 214.753906 96.390625 213.355469 L 96.390625 199.085938 C 96.390625 196.476562 95.433594 195.171875 93.519531 195.171875 L 79.804688 195.171875 C 77.9375 195.171875 77.003906 196.476562 77.003906 199.085938 L 77.003906 213.355469 C 77.003906 214.917969 77.171875 215.960938 77.507812 216.46875 C 77.839844 216.988281 78.417969 217.445312 79.230469 217.816406 C 80.042969 218.207031 80.703125 218.695312 81.179688 219.316406 C 81.613281 220.015625 81.824219 220.863281 81.824219 221.859375 C 81.824219 222.867188 81.480469 223.730469 80.785156 224.429688 C 80.089844 225.128906 79.0625 225.472656 77.722656 225.472656 L 64.292969 225.472656 Z M 122.160156 195.273438 C 122.160156 194.199219 122.054688 193.484375 121.835938 193.121094 C 121.621094 192.765625 121.214844 192.4375 120.640625 192.148438 C 120.109375 191.90625 119.640625 191.582031 119.230469 191.167969 C 118.691406 190.777344 118.425781 190.289062 118.425781 189.71875 C 118.425781 189.066406 118.761719 188.398438 119.429688 187.699219 C 120.101562 187.011719 120.699219 186.542969 121.226562 186.28125 L 128.765625 181.800781 C 129.449219 181.394531 130.070312 181.199219 130.644531 181.199219 C 131.449219 181.199219 131.855469 182.109375 131.855469 183.9375 L 131.855469 214.152344 C 131.855469 215.585938 131.988281 216.597656 132.261719 217.183594 C 132.539062 217.753906 133.027344 218.308594 133.710938 218.828125 C 134.402344 219.367188 134.957031 219.953125 135.375 220.585938 C 135.675781 221.171875 135.816406 221.792969 135.816406 222.445312 C 135.816406 223.226562 135.554688 223.925781 135.015625 224.546875 C 134.476562 225.167969 133.902344 225.476562 133.289062 225.476562 L 120.652344 225.476562 C 120.007812 225.476562 119.382812 225.148438 118.773438 224.464844 C 118.175781 223.796875 117.867188 223.046875 117.867188 222.265625 C 117.867188 221.582031 118.152344 220.929688 118.726562 220.292969 C 119.132812 219.804688 119.671875 219.269531 120.355469 218.695312 C 121.035156 218.128906 121.503906 217.554688 121.765625 216.96875 C 122.03125 216.402344 122.160156 215.453125 122.160156 214.152344 Z M 120.308594 173.070312 C 120.007812 172.078125 119.863281 171.492188 119.863281 171.34375 C 119.863281 170.121094 120.292969 168.851562 121.167969 167.53125 C 122.042969 166.195312 123.070312 165.152344 124.242188 164.386719 C 125.917969 163.558594 127.308594 163.132812 128.421875 163.132812 C 130.144531 163.132812 131.292969 163.898438 131.855469 165.460938 C 131.914062 165.851562 131.9375 166.472656 131.9375 167.316406 C 131.9375 168.636719 131.496094 169.910156 130.609375 171.164062 C 129.71875 172.425781 128.609375 173.453125 127.28125 174.242188 C 125.964844 175.042969 124.734375 175.433594 123.597656 175.433594 C 121.886719 175.433594 120.785156 174.652344 120.308594 173.070312 Z M 144.015625 176.328125 C 144.015625 175.136719 143.898438 174.324219 143.65625 173.902344 C 143.417969 173.476562 142.976562 173.101562 142.339844 172.742188 C 141.707031 172.402344 141.203125 172.027344 140.84375 171.621094 C 140.316406 171.195312 140.054688 170.742188 140.054688 170.269531 C 140.054688 169.53125 140.378906 168.753906 141.023438 167.921875 C 141.671875 167.089844 142.28125 166.472656 142.855469 166.046875 L 150.695312 159.402344 C 151.375 158.882812 151.902344 158.621094 152.273438 158.621094 C 153.230469 158.621094 153.710938 159.53125 153.710938 161.355469 L 153.710938 214.152344 C 153.710938 215.585938 153.839844 216.59375 154.117188 217.183594 C 154.394531 217.753906 154.894531 218.308594 155.601562 218.875 C 156.320312 219.429688 156.878906 220 157.289062 220.585938 C 157.671875 221.367188 157.863281 221.988281 157.863281 222.445312 C 157.863281 223.210938 157.574219 223.910156 157.011719 224.527344 C 156.449219 225.164062 155.851562 225.472656 155.21875 225.472656 L 142.421875 225.472656 C 141.789062 225.472656 141.191406 225.164062 140.628906 224.527344 C 140.054688 223.894531 139.777344 223.191406 139.777344 222.445312 C 139.777344 221.695312 140.03125 220.976562 140.554688 220.292969 C 140.9375 219.820312 141.464844 219.28125 142.160156 218.695312 C 142.867188 218.109375 143.34375 217.523438 143.609375 216.957031 C 143.882812 216.367188 144.015625 215.4375 144.015625 214.152344 Z M 165.773438 176.328125 C 165.773438 175.136719 165.65625 174.324219 165.414062 173.902344 C 165.175781 173.476562 164.734375 173.101562 164.097656 172.742188 C 163.464844 172.402344 162.960938 172.027344 162.601562 171.621094 C 162.074219 171.195312 161.8125 170.742188 161.8125 170.269531 C 161.8125 169.53125 162.136719 168.753906 162.78125 167.921875 C 163.425781 167.089844 164.039062 166.472656 164.613281 166.046875 L 172.453125 159.402344 C 173.136719 158.882812 173.660156 158.621094 174.03125 158.621094 C 174.992188 158.621094 175.46875 159.53125 175.46875 161.355469 L 175.46875 214.152344 C 175.46875 215.585938 175.601562 216.59375 175.875 217.183594 C 176.152344 217.753906 176.652344 218.308594 177.359375 218.875 C 178.078125 219.429688 178.640625 220 179.046875 220.585938 C 179.429688 221.367188 179.621094 221.988281 179.621094 222.445312 C 179.621094 223.210938 179.332031 223.910156 178.769531 224.527344 C 178.207031 225.164062 177.609375 225.472656 176.976562 225.472656 L 164.179688 225.472656 C 163.546875 225.472656 162.949219 225.164062 162.386719 224.527344 C 161.8125 223.894531 161.535156 223.191406 161.535156 222.445312 C 161.535156 221.695312 161.789062 220.976562 162.316406 220.292969 C 162.699219 219.820312 163.222656 219.28125 163.921875 218.695312 C 164.625 218.109375 165.105469 217.523438 165.367188 216.957031 C 165.640625 216.367188 165.773438 215.4375 165.773438 214.152344 Z M 210.007812 215.878906 C 209 213.632812 208.5 212.003906 208.5 211.027344 C 208.5 210.636719 208.59375 210.277344 208.800781 209.953125 C 208.992188 209.613281 209.253906 209.445312 209.566406 209.445312 C 210.042969 209.445312 211.410156 210.570312 213.65625 212.851562 C 215.90625 215.117188 217.425781 216.417969 218.195312 216.777344 C 220.78125 218.148438 223.054688 218.828125 225.015625 218.828125 C 226.667969 218.828125 228.078125 218.421875 229.242188 217.621094 C 230.390625 216.839844 230.980469 215.894531 230.980469 214.804688 C 230.980469 213.8125 230.5 212.785156 229.566406 211.757812 C 228.621094 210.734375 227.171875 209.816406 225.21875 209.054688 C 223.679688 208.367188 222.035156 207.636719 220.289062 206.855469 C 218.5625 206.082031 216.929688 205.140625 215.394531 204.039062 C 213.859375 202.925781 212.582031 201.566406 211.566406 199.964844 C 210.523438 198.351562 209.914062 196.429688 209.710938 194.199219 C 209.710938 194.097656 209.683594 193.871094 209.636719 193.5 C 209.605469 193.277344 209.578125 193.054688 209.566406 192.832031 C 209.566406 190.46875 210.117188 188.382812 211.203125 186.574219 C 212.28125 184.765625 213.683594 183.367188 215.382812 182.390625 C 217.078125 181.394531 218.78125 180.90625 220.492188 180.90625 C 221.472656 180.90625 222.898438 181.167969 224.753906 181.6875 C 226.605469 182.226562 227.839844 182.488281 228.449219 182.488281 C 229.167969 182.488281 229.804688 182.246094 230.332031 181.789062 C 230.53125 181.609375 230.847656 181.316406 231.238281 180.875 C 231.644531 180.433594 231.945312 180.125 232.125 179.980469 C 232.304688 179.816406 232.496094 179.734375 232.6875 179.734375 C 233.296875 179.734375 233.824219 180.289062 234.269531 181.414062 L 238.375 190.78125 C 238.902344 191.855469 239.164062 192.960938 239.164062 194.101562 C 239.164062 195.015625 238.78125 195.453125 238 195.453125 C 237.738281 195.453125 236.792969 194.722656 235.164062 193.238281 C 233.832031 192.019531 232.46875 190.835938 231.074219 189.6875 C 229.972656 188.792969 228.859375 188.15625 227.734375 187.75 C 226.414062 187.359375 225.207031 187.164062 224.082031 187.164062 C 222.933594 187.164062 221.941406 187.4375 221.105469 187.992188 C 220.265625 188.546875 219.847656 189.378906 219.847656 190.46875 C 219.847656 190.515625 219.855469 190.601562 219.878906 190.714844 C 219.902344 190.828125 219.914062 190.90625 219.914062 190.972656 C 220.179688 192.097656 220.632812 192.929688 221.292969 193.449219 C 221.9375 193.953125 222.921875 194.539062 224.222656 195.175781 C 225.300781 195.617188 226.605469 196.105469 228.136719 196.628906 C 229.519531 197.085938 230.875 197.605469 232.207031 198.191406 C 233.378906 198.710938 234.503906 199.332031 235.570312 200.0625 C 237.472656 201.203125 238.980469 202.949219 240.117188 205.292969 C 241.25 207.617188 241.8125 210.070312 241.804688 212.65625 C 241.804688 215.621094 241.109375 218.324219 239.722656 220.769531 C 237.542969 224.5 234.121094 226.355469 229.464844 226.355469 C 227.308594 226.355469 224.847656 225.996094 222.070312 225.28125 C 221.640625 225.148438 221.003906 225.070312 220.191406 225.070312 C 219.601562 225.070312 219.210938 225.199219 219.019531 225.429688 C 218.8125 225.671875 218.527344 226.195312 218.144531 226.992188 C 217.78125 227.753906 217.320312 228.449219 216.757812 229.074219 C 216.578125 229.355469 216.316406 229.484375 215.964844 229.484375 C 215.628906 229.484375 215.28125 229.222656 214.933594 228.6875 C 214.589844 228.144531 214.28125 227.496094 213.980469 226.730469 C 213.679688 225.964844 213.453125 225.378906 213.296875 224.972656 Z M 189.84375 184.707031 L 189.84375 182.605469 C 191.019531 182.089844 192.089844 181.398438 193.046875 180.539062 C 194.003906 179.679688 194.804688 178.6875 195.441406 177.570312 C 196.761719 175.292969 197.417969 172.878906 197.417969 170.335938 C 197.417969 169.738281 197.308594 169.230469 197.105469 168.808594 C 196.9375 168.53125 196.769531 168.382812 196.617188 168.382812 C 196.351562 168.382812 195.789062 168.710938 194.929688 169.34375 C 194.507812 169.621094 194.066406 169.765625 193.597656 169.765625 C 192.453125 169.765625 191.542969 169.3125 190.859375 168.382812 C 190.191406 167.453125 189.84375 166.183594 189.84375 164.570312 C 189.84375 163.007812 190.285156 161.671875 191.160156 160.5625 C 192.035156 159.441406 193.113281 158.886719 194.367188 158.886719 C 195.910156 158.886719 197.289062 159.796875 198.484375 161.636719 C 199.691406 163.464844 200.289062 165.890625 200.289062 168.90625 C 200.289062 172.179688 199.453125 175.222656 197.789062 178.042969 C 196.113281 180.863281 193.46875 183.078125 189.84375 184.707031 Z M 221.144531 159.871094 C 222.433594 159.871094 223.695312 160.203125 224.921875 160.863281 C 226.164062 161.527344 227.121094 162.472656 227.792969 163.707031 C 228.480469 164.933594 228.820312 166.222656 228.820312 167.558594 C 228.820312 168.882812 228.484375 170.15625 227.808594 171.378906 C 227.140625 172.605469 226.195312 173.550781 224.96875 174.222656 C 223.75 174.902344 222.476562 175.238281 221.144531 175.238281 C 219.78125 175.234375 218.507812 174.898438 217.324219 174.222656 C 216.097656 173.554688 215.148438 172.605469 214.480469 171.378906 C 213.800781 170.195312 213.460938 168.921875 213.460938 167.558594 C 213.460938 166.222656 213.800781 164.9375 214.492188 163.707031 C 215.167969 162.472656 216.125 161.523438 217.371094 160.863281 C 218.59375 160.203125 219.855469 159.871094 221.144531 159.871094 Z M 221.144531 161.144531 C 220.066406 161.144531 219.015625 161.421875 217.992188 161.976562 C 216.960938 162.527344 216.164062 163.320312 215.59375 164.34375 C 215.023438 165.339844 214.734375 166.410156 214.730469 167.558594 C 214.730469 168.664062 215.015625 169.726562 215.582031 170.738281 C 216.148438 171.753906 216.941406 172.546875 217.960938 173.113281 C 218.945312 173.675781 220.007812 173.960938 221.144531 173.964844 C 222.253906 173.964844 223.316406 173.679688 224.335938 173.113281 C 225.355469 172.550781 226.144531 171.761719 226.707031 170.738281 C 227.265625 169.753906 227.546875 168.691406 227.550781 167.558594 C 227.550781 166.445312 227.261719 165.371094 226.691406 164.34375 C 226.125 163.316406 225.324219 162.527344 224.292969 161.976562 C 223.265625 161.421875 222.214844 161.144531 221.144531 161.144531 Z M 217.773438 171.804688 L 217.773438 163.539062 L 220.613281 163.539062 C 221.585938 163.539062 222.289062 163.613281 222.722656 163.765625 C 223.15625 163.917969 223.5 164.1875 223.761719 164.566406 C 224.019531 164.949219 224.148438 165.347656 224.148438 165.777344 C 224.148438 166.382812 223.929688 166.910156 223.5 167.355469 C 223.070312 167.804688 222.496094 168.054688 221.785156 168.109375 C 222.074219 168.230469 222.3125 168.378906 222.484375 168.550781 C 222.820312 168.875 223.226562 169.421875 223.707031 170.1875 L 224.714844 171.804688 L 223.085938 171.804688 L 222.355469 170.5 C 221.773438 169.480469 221.3125 168.835938 220.957031 168.578125 C 220.714844 168.390625 220.359375 168.292969 219.886719 168.292969 L 219.109375 168.292969 L 219.109375 171.804688 Z M 219.109375 167.152344 L 220.730469 167.152344 C 221.5 167.152344 222.027344 167.035156 222.308594 166.804688 C 222.605469 166.570312 222.746094 166.265625 222.734375 165.890625 C 222.734375 165.648438 222.667969 165.429688 222.53125 165.234375 C 222.386719 165.03125 222.199219 164.886719 221.964844 164.800781 C 221.722656 164.703125 221.28125 164.660156 220.625 164.660156 L 219.109375 164.660156 Z M 219.109375 167.152344 " fill-opacity="1" fill-rule="evenodd"/><g clip-path="url(#713f653923)"><path fill="#000000" d="M 49.429688 66.769531 L 250.570312 66.769531 L 250.570312 233.230469 L 49.429688 233.230469 Z M 33.527344 50.492188 L 266.46875 50.492188 L 266.46875 249.507812 L 33.527344 249.507812 Z M 33.527344 50.492188 " fill-opacity="1" fill-rule="evenodd"/></g></svg>