<svg xmlns="http://www.w3.org/2000/svg" xmlns:xlink="http://www.w3.org/1999/xlink" width="400" zoomAndPan="magnify" viewBox="0 0 300 299.999988" height="400" preserveAspectRatio="xMidYMid meet" version="1.0"><defs><clipPath id="836142ee20"><path d="M 2 116.566406 L 67 116.566406 L 67 165 L 2 165 Z M 2 116.566406 " clip-rule="nonzero"/></clipPath><clipPath id="8c493185b9"><path d="M 62 116.566406 L 106 116.566406 L 106 166 L 62 166 Z M 62 116.566406 " clip-rule="nonzero"/></clipPath><clipPath id="dce6c8683d"><path d="M 0 175 L 9 175 L 9 183.316406 L 0 183.316406 Z M 0 175 " clip-rule="nonzero"/></clipPath><clipPath id="91e4718633"><path d="M 58 175 L 67 175 L 67 183.316406 L 58 183.316406 Z M 58 175 " clip-rule="nonzero"/></clipPath><clipPath id="4e39ec0bc3"><path d="M 146 175 L 155 175 L 155 183.316406 L 146 183.316406 Z M 146 175 " clip-rule="nonzero"/></clipPath><clipPath id="13a91acb78"><path d="M 259 130 L 274 130 L 274 150 L 259 150 Z M 259 130 " clip-rule="nonzero"/></clipPath><clipPath id="9f9c098f53"><path d="M 277.226562 118.730469 C 271.445312 128.652344 275.964844 134.066406 275.058594 140.199219 C 274.515625 143.628906 271.808594 148.136719 268.011719 150.300781 C 263.855469 152.648438 260.242188 153.007812 257.53125 152.828125 C 255.902344 147.054688 256.445312 140.199219 259.699219 133.523438 C 262.046875 128.832031 267.289062 121.4375 277.226562 118.730469 Z M 277.226562 118.730469 " clip-rule="nonzero"/></clipPath><clipPath id="b070349708"><path d="M 258 129 L 275 129 L 275 150 L 258 150 Z M 258 129 " clip-rule="nonzero"/></clipPath><clipPath id="4a5a2ecdeb"><path d="M 277.226562 118.730469 C 271.445312 128.652344 275.964844 134.066406 275.058594 140.199219 C 274.515625 143.628906 271.808594 148.136719 268.011719 150.300781 C 263.855469 152.648438 260.242188 153.007812 257.53125 152.828125 C 255.902344 147.054688 256.445312 140.199219 259.699219 133.523438 C 262.046875 128.832031 267.289062 121.4375 277.226562 118.730469 Z M 277.226562 118.730469 " clip-rule="nonzero"/></clipPath><clipPath id="c8b21e9175"><path d="M 260 131 L 274 131 L 274 149 L 260 149 Z M 260 131 " clip-rule="nonzero"/></clipPath><clipPath id="698859e34e"><path d="M 277.226562 118.730469 C 271.445312 128.652344 275.964844 134.066406 275.058594 140.199219 C 274.515625 143.628906 271.808594 148.136719 268.011719 150.300781 C 263.855469 152.648438 260.242188 153.007812 257.53125 152.828125 C 255.902344 147.054688 256.445312 140.199219 259.699219 133.523438 C 262.046875 128.832031 267.289062 121.4375 277.226562 118.730469 Z M 277.226562 118.730469 " clip-rule="nonzero"/></clipPath><clipPath id="f59ca9bfba"><path d="M 260 131 L 270 131 L 270 144 L 260 144 Z M 260 131 " clip-rule="nonzero"/></clipPath><clipPath id="cdac597054"><path d="M 277.226562 118.730469 C 271.445312 128.652344 275.964844 134.066406 275.058594 140.199219 C 274.515625 143.628906 271.808594 148.136719 268.011719 150.300781 C 263.855469 152.648438 260.242188 153.007812 257.53125 152.828125 C 255.902344 147.054688 256.445312 140.199219 259.699219 133.523438 C 262.046875 128.832031 267.289062 121.4375 277.226562 118.730469 Z M 277.226562 118.730469 " clip-rule="nonzero"/></clipPath><clipPath id="0f7d85bb50"><path d="M 263 145 L 291 145 L 291 162 L 263 162 Z M 263 145 " clip-rule="nonzero"/></clipPath><clipPath id="eb6f8b1809"><path d="M 258.253906 153.910156 C 269.820312 153.910156 272.167969 147.414062 277.953125 145.070312 C 281.203125 143.808594 286.445312 143.808594 290.242188 146.152344 C 294.398438 148.496094 296.386719 151.566406 297.648438 154.089844 C 293.3125 158.421875 287.347656 161.308594 279.757812 161.847656 C 274.515625 162.207031 265.664062 161.308594 258.253906 153.910156 Z M 258.253906 153.910156 " clip-rule="nonzero"/></clipPath><clipPath id="94775d5601"><path d="M 284 148 L 288 148 L 288 151 L 284 151 Z M 284 148 " clip-rule="nonzero"/></clipPath><clipPath id="4e63abae54"><path d="M 258.253906 153.910156 C 269.820312 153.910156 272.167969 147.414062 277.953125 145.070312 C 281.203125 143.808594 286.445312 143.808594 290.242188 146.152344 C 294.398438 148.496094 296.386719 151.566406 297.648438 154.089844 C 293.3125 158.421875 287.347656 161.308594 279.757812 161.847656 C 274.515625 162.207031 265.664062 161.308594 258.253906 153.910156 Z M 258.253906 153.910156 " clip-rule="nonzero"/></clipPath><clipPath id="745c11657b"><path d="M 280 153 L 293 153 L 293 158 L 280 158 Z M 280 153 " clip-rule="nonzero"/></clipPath><clipPath id="56a2a27dd1"><path d="M 258.253906 153.910156 C 269.820312 153.910156 272.167969 147.414062 277.953125 145.070312 C 281.203125 143.808594 286.445312 143.808594 290.242188 146.152344 C 294.398438 148.496094 296.386719 151.566406 297.648438 154.089844 C 293.3125 158.421875 287.347656 161.308594 279.757812 161.847656 C 274.515625 162.207031 265.664062 161.308594 258.253906 153.910156 Z M 258.253906 153.910156 " clip-rule="nonzero"/></clipPath><clipPath id="9d4ab0b271"><path d="M 280 153 L 290 153 L 290 162 L 280 162 Z M 280 153 " clip-rule="nonzero"/></clipPath><clipPath id="efed51b959"><path d="M 258.253906 153.910156 C 269.820312 153.910156 272.167969 147.414062 277.953125 145.070312 C 281.203125 143.808594 286.445312 143.808594 290.242188 146.152344 C 294.398438 148.496094 296.386719 151.566406 297.648438 154.089844 C 293.3125 158.421875 287.347656 161.308594 279.757812 161.847656 C 274.515625 162.207031 265.664062 161.308594 258.253906 153.910156 Z M 258.253906 153.910156 " clip-rule="nonzero"/></clipPath><clipPath id="5135d2f0c1"><path d="M 280 156 L 284 156 L 284 162 L 280 162 Z M 280 156 " clip-rule="nonzero"/></clipPath><clipPath id="e6c201e15e"><path d="M 258.253906 153.910156 C 269.820312 153.910156 272.167969 147.414062 277.953125 145.070312 C 281.203125 143.808594 286.445312 143.808594 290.242188 146.152344 C 294.398438 148.496094 296.386719 151.566406 297.648438 154.089844 C 293.3125 158.421875 287.347656 161.308594 279.757812 161.847656 C 274.515625 162.207031 265.664062 161.308594 258.253906 153.910156 Z M 258.253906 153.910156 " clip-rule="nonzero"/></clipPath><clipPath id="bf2f8c4016"><path d="M 278 157 L 282 157 L 282 162 L 278 162 Z M 278 157 " clip-rule="nonzero"/></clipPath><clipPath id="5e672d87d2"><path d="M 258.253906 153.910156 C 269.820312 153.910156 272.167969 147.414062 277.953125 145.070312 C 281.203125 143.808594 286.445312 143.808594 290.242188 146.152344 C 294.398438 148.496094 296.386719 151.566406 297.648438 154.089844 C 293.3125 158.421875 287.347656 161.308594 279.757812 161.847656 C 274.515625 162.207031 265.664062 161.308594 258.253906 153.910156 Z M 258.253906 153.910156 " clip-rule="nonzero"/></clipPath><clipPath id="7f5627c8f2"><path d="M 276 158 L 281 158 L 281 162 L 276 162 Z M 276 158 " clip-rule="nonzero"/></clipPath><clipPath id="315898e4e5"><path d="M 258.253906 153.910156 C 269.820312 153.910156 272.167969 147.414062 277.953125 145.070312 C 281.203125 143.808594 286.445312 143.808594 290.242188 146.152344 C 294.398438 148.496094 296.386719 151.566406 297.648438 154.089844 C 293.3125 158.421875 287.347656 161.308594 279.757812 161.847656 C 274.515625 162.207031 265.664062 161.308594 258.253906 153.910156 Z M 258.253906 153.910156 " clip-rule="nonzero"/></clipPath><clipPath id="ab5bfdd561"><path d="M 273 158 L 279 158 L 279 162 L 273 162 Z M 273 158 " clip-rule="nonzero"/></clipPath><clipPath id="86fa704679"><path d="M 258.253906 153.910156 C 269.820312 153.910156 272.167969 147.414062 277.953125 145.070312 C 281.203125 143.808594 286.445312 143.808594 290.242188 146.152344 C 294.398438 148.496094 296.386719 151.566406 297.648438 154.089844 C 293.3125 158.421875 287.347656 161.308594 279.757812 161.847656 C 274.515625 162.207031 265.664062 161.308594 258.253906 153.910156 Z M 258.253906 153.910156 " clip-rule="nonzero"/></clipPath><clipPath id="dfc575ba1f"><path d="M 290 141 L 295 141 L 295 146 L 290 146 Z M 290 141 " clip-rule="nonzero"/></clipPath><clipPath id="ffee79cc78"><path d="M 298.371094 152.828125 C 292.589844 142.90625 285.722656 143.988281 280.84375 140.378906 C 277.953125 138.214844 275.601562 133.703125 275.601562 129.195312 C 275.601562 124.324219 277.226562 121.078125 278.675781 118.730469 C 284.457031 120.355469 290.058594 123.960938 294.398438 130.277344 C 297.289062 134.605469 301.082031 142.726562 298.371094 152.828125 Z M 298.371094 152.828125 " clip-rule="nonzero"/></clipPath><clipPath id="5d3d482bd9"><path d="M 289 137 L 294 137 L 294 143 L 289 143 Z M 289 137 " clip-rule="nonzero"/></clipPath><clipPath id="39bfb7edff"><path d="M 298.371094 152.828125 C 292.589844 142.90625 285.722656 143.988281 280.84375 140.378906 C 277.953125 138.214844 275.601562 133.703125 275.601562 129.195312 C 275.601562 124.324219 277.226562 121.078125 278.675781 118.730469 C 284.457031 120.355469 290.058594 123.960938 294.398438 130.277344 C 297.289062 134.605469 301.082031 142.726562 298.371094 152.828125 Z M 298.371094 152.828125 " clip-rule="nonzero"/></clipPath><clipPath id="bc34f5da0e"><path d="M 288 134 L 293 134 L 293 139 L 288 139 Z M 288 134 " clip-rule="nonzero"/></clipPath><clipPath id="4d11f17a9d"><path d="M 298.371094 152.828125 C 292.589844 142.90625 285.722656 143.988281 280.84375 140.378906 C 277.953125 138.214844 275.601562 133.703125 275.601562 129.195312 C 275.601562 124.324219 277.226562 121.078125 278.675781 118.730469 C 284.457031 120.355469 290.058594 123.960938 294.398438 130.277344 C 297.289062 134.605469 301.082031 142.726562 298.371094 152.828125 Z M 298.371094 152.828125 " clip-rule="nonzero"/></clipPath><clipPath id="23b28c8edb"><path d="M 287 132 L 291 132 L 291 136 L 287 136 Z M 287 132 " clip-rule="nonzero"/></clipPath><clipPath id="2ce74f3b13"><path d="M 298.371094 152.828125 C 292.589844 142.90625 285.722656 143.988281 280.84375 140.378906 C 277.953125 138.214844 275.601562 133.703125 275.601562 129.195312 C 275.601562 124.324219 277.226562 121.078125 278.675781 118.730469 C 284.457031 120.355469 290.058594 123.960938 294.398438 130.277344 C 297.289062 134.605469 301.082031 142.726562 298.371094 152.828125 Z M 298.371094 152.828125 " clip-rule="nonzero"/></clipPath><clipPath id="9f58a78e66"><path d="M 286 130 L 290 130 L 290 133 L 286 133 Z M 286 130 " clip-rule="nonzero"/></clipPath><clipPath id="64374bc276"><path d="M 298.371094 152.828125 C 292.589844 142.90625 285.722656 143.988281 280.84375 140.378906 C 277.953125 138.214844 275.601562 133.703125 275.601562 129.195312 C 275.601562 124.324219 277.226562 121.078125 278.675781 118.730469 C 284.457031 120.355469 290.058594 123.960938 294.398438 130.277344 C 297.289062 134.605469 301.082031 142.726562 298.371094 152.828125 Z M 298.371094 152.828125 " clip-rule="nonzero"/></clipPath><clipPath id="9f65548838"><path d="M 285 127 L 289 127 L 289 131 L 285 131 Z M 285 127 " clip-rule="nonzero"/></clipPath><clipPath id="269ec59dad"><path d="M 298.371094 152.828125 C 292.589844 142.90625 285.722656 143.988281 280.84375 140.378906 C 277.953125 138.214844 275.601562 133.703125 275.601562 129.195312 C 275.601562 124.324219 277.226562 121.078125 278.675781 118.730469 C 284.457031 120.355469 290.058594 123.960938 294.398438 130.277344 C 297.289062 134.605469 301.082031 142.726562 298.371094 152.828125 Z M 298.371094 152.828125 " clip-rule="nonzero"/></clipPath><clipPath id="dac7357af8"><path d="M 283 125 L 287 125 L 287 128 L 283 128 Z M 283 125 " clip-rule="nonzero"/></clipPath><clipPath id="802cc7f779"><path d="M 298.371094 152.828125 C 292.589844 142.90625 285.722656 143.988281 280.84375 140.378906 C 277.953125 138.214844 275.601562 133.703125 275.601562 129.195312 C 275.601562 124.324219 277.226562 121.078125 278.675781 118.730469 C 284.457031 120.355469 290.058594 123.960938 294.398438 130.277344 C 297.289062 134.605469 301.082031 142.726562 298.371094 152.828125 Z M 298.371094 152.828125 " clip-rule="nonzero"/></clipPath><clipPath id="2c59ae60b1"><path d="M 282 123 L 286 123 L 286 126 L 282 126 Z M 282 123 " clip-rule="nonzero"/></clipPath><clipPath id="26a9893f6b"><path d="M 298.371094 152.828125 C 292.589844 142.90625 285.722656 143.988281 280.84375 140.378906 C 277.953125 138.214844 275.601562 133.703125 275.601562 129.195312 C 275.601562 124.324219 277.226562 121.078125 278.675781 118.730469 C 284.457031 120.355469 290.058594 123.960938 294.398438 130.277344 C 297.289062 134.605469 301.082031 142.726562 298.371094 152.828125 Z M 298.371094 152.828125 " clip-rule="nonzero"/></clipPath><clipPath id="7614ff34db"><path d="M 293 139 L 297 139 L 297 146 L 293 146 Z M 293 139 " clip-rule="nonzero"/></clipPath><clipPath id="aaa0db8517"><path d="M 298.371094 152.828125 C 292.589844 142.90625 285.722656 143.988281 280.84375 140.378906 C 277.953125 138.214844 275.601562 133.703125 275.601562 129.195312 C 275.601562 124.324219 277.226562 121.078125 278.675781 118.730469 C 284.457031 120.355469 290.058594 123.960938 294.398438 130.277344 C 297.289062 134.605469 301.082031 142.726562 298.371094 152.828125 Z M 298.371094 152.828125 " clip-rule="nonzero"/></clipPath><clipPath id="8f73a089a9"><path d="M 293 136 L 296 136 L 296 143 L 293 143 Z M 293 136 " clip-rule="nonzero"/></clipPath><clipPath id="2fe826e52d"><path d="M 298.371094 152.828125 C 292.589844 142.90625 285.722656 143.988281 280.84375 140.378906 C 277.953125 138.214844 275.601562 133.703125 275.601562 129.195312 C 275.601562 124.324219 277.226562 121.078125 278.675781 118.730469 C 284.457031 120.355469 290.058594 123.960938 294.398438 130.277344 C 297.289062 134.605469 301.082031 142.726562 298.371094 152.828125 Z M 298.371094 152.828125 " clip-rule="nonzero"/></clipPath><clipPath id="b52d075b8c"><path d="M 292 133 L 295 133 L 295 140 L 292 140 Z M 292 133 " clip-rule="nonzero"/></clipPath><clipPath id="6b6da9c0d5"><path d="M 298.371094 152.828125 C 292.589844 142.90625 285.722656 143.988281 280.84375 140.378906 C 277.953125 138.214844 275.601562 133.703125 275.601562 129.195312 C 275.601562 124.324219 277.226562 121.078125 278.675781 118.730469 C 284.457031 120.355469 290.058594 123.960938 294.398438 130.277344 C 297.289062 134.605469 301.082031 142.726562 298.371094 152.828125 Z M 298.371094 152.828125 " clip-rule="nonzero"/></clipPath><clipPath id="e3dfcc8a13"><path d="M 290 130 L 293 130 L 293 136 L 290 136 Z M 290 130 " clip-rule="nonzero"/></clipPath><clipPath id="cccbc90d8b"><path d="M 298.371094 152.828125 C 292.589844 142.90625 285.722656 143.988281 280.84375 140.378906 C 277.953125 138.214844 275.601562 133.703125 275.601562 129.195312 C 275.601562 124.324219 277.226562 121.078125 278.675781 118.730469 C 284.457031 120.355469 290.058594 123.960938 294.398438 130.277344 C 297.289062 134.605469 301.082031 142.726562 298.371094 152.828125 Z M 298.371094 152.828125 " clip-rule="nonzero"/></clipPath><clipPath id="2adc1fe702"><path d="M 289 127 L 292 127 L 292 133 L 289 133 Z M 289 127 " clip-rule="nonzero"/></clipPath><clipPath id="dda3db92c1"><path d="M 298.371094 152.828125 C 292.589844 142.90625 285.722656 143.988281 280.84375 140.378906 C 277.953125 138.214844 275.601562 133.703125 275.601562 129.195312 C 275.601562 124.324219 277.226562 121.078125 278.675781 118.730469 C 284.457031 120.355469 290.058594 123.960938 294.398438 130.277344 C 297.289062 134.605469 301.082031 142.726562 298.371094 152.828125 Z M 298.371094 152.828125 " clip-rule="nonzero"/></clipPath><clipPath id="4dbdc8962f"><path d="M 287 126 L 290 126 L 290 131 L 287 131 Z M 287 126 " clip-rule="nonzero"/></clipPath><clipPath id="1cb664c19a"><path d="M 298.371094 152.828125 C 292.589844 142.90625 285.722656 143.988281 280.84375 140.378906 C 277.953125 138.214844 275.601562 133.703125 275.601562 129.195312 C 275.601562 124.324219 277.226562 121.078125 278.675781 118.730469 C 284.457031 120.355469 290.058594 123.960938 294.398438 130.277344 C 297.289062 134.605469 301.082031 142.726562 298.371094 152.828125 Z M 298.371094 152.828125 " clip-rule="nonzero"/></clipPath><clipPath id="e5d7704b4d"><path d="M 286 123 L 288 123 L 288 128 L 286 128 Z M 286 123 " clip-rule="nonzero"/></clipPath><clipPath id="322c8e75bd"><path d="M 298.371094 152.828125 C 292.589844 142.90625 285.722656 143.988281 280.84375 140.378906 C 277.953125 138.214844 275.601562 133.703125 275.601562 129.195312 C 275.601562 124.324219 277.226562 121.078125 278.675781 118.730469 C 284.457031 120.355469 290.058594 123.960938 294.398438 130.277344 C 297.289062 134.605469 301.082031 142.726562 298.371094 152.828125 Z M 298.371094 152.828125 " clip-rule="nonzero"/></clipPath><clipPath id="6321020303"><path d="M 284 122 L 286 122 L 286 126 L 284 126 Z M 284 122 " clip-rule="nonzero"/></clipPath><clipPath id="5b3aa54ec3"><path d="M 298.371094 152.828125 C 292.589844 142.90625 285.722656 143.988281 280.84375 140.378906 C 277.953125 138.214844 275.601562 133.703125 275.601562 129.195312 C 275.601562 124.324219 277.226562 121.078125 278.675781 118.730469 C 284.457031 120.355469 290.058594 123.960938 294.398438 130.277344 C 297.289062 134.605469 301.082031 142.726562 298.371094 152.828125 Z M 298.371094 152.828125 " clip-rule="nonzero"/></clipPath><clipPath id="0b8fc1294a"><path d="M 283 122 L 295 122 L 295 148 L 283 148 Z M 283 122 " clip-rule="nonzero"/></clipPath><clipPath id="dc2dc8c2bb"><path d="M 298.371094 152.828125 C 292.589844 142.90625 285.722656 143.988281 280.84375 140.378906 C 277.953125 138.214844 275.601562 133.703125 275.601562 129.195312 C 275.601562 124.324219 277.226562 121.078125 278.675781 118.730469 C 284.457031 120.355469 290.058594 123.960938 294.398438 130.277344 C 297.289062 134.605469 301.082031 142.726562 298.371094 152.828125 Z M 298.371094 152.828125 " clip-rule="nonzero"/></clipPath><clipPath id="c4026f02d4"><path d="M 295 139 L 297 139 L 297 141 L 295 141 Z M 295 139 " clip-rule="nonzero"/></clipPath><clipPath id="73e266e7bc"><path d="M 298.371094 152.828125 C 292.589844 142.90625 285.722656 143.988281 280.84375 140.378906 C 277.953125 138.214844 275.601562 133.703125 275.601562 129.195312 C 275.601562 124.324219 277.226562 121.078125 278.675781 118.730469 C 284.457031 120.355469 290.058594 123.960938 294.398438 130.277344 C 297.289062 134.605469 301.082031 142.726562 298.371094 152.828125 Z M 298.371094 152.828125 " clip-rule="nonzero"/></clipPath><clipPath id="0d941d49ce"><path d="M 290 140 L 291 140 L 291 142 L 290 142 Z M 290 140 " clip-rule="nonzero"/></clipPath><clipPath id="2814c7353a"><path d="M 298.371094 152.828125 C 292.589844 142.90625 285.722656 143.988281 280.84375 140.378906 C 277.953125 138.214844 275.601562 133.703125 275.601562 129.195312 C 275.601562 124.324219 277.226562 121.078125 278.675781 118.730469 C 284.457031 120.355469 290.058594 123.960938 294.398438 130.277344 C 297.289062 134.605469 301.082031 142.726562 298.371094 152.828125 Z M 298.371094 152.828125 " clip-rule="nonzero"/></clipPath><clipPath id="e01f469a5a"><path d="M 294 136 L 295 136 L 295 138 L 294 138 Z M 294 136 " clip-rule="nonzero"/></clipPath><clipPath id="898a1bb3b3"><path d="M 298.371094 152.828125 C 292.589844 142.90625 285.722656 143.988281 280.84375 140.378906 C 277.953125 138.214844 275.601562 133.703125 275.601562 129.195312 C 275.601562 124.324219 277.226562 121.078125 278.675781 118.730469 C 284.457031 120.355469 290.058594 123.960938 294.398438 130.277344 C 297.289062 134.605469 301.082031 142.726562 298.371094 152.828125 Z M 298.371094 152.828125 " clip-rule="nonzero"/></clipPath><clipPath id="70894705f0"><path d="M 289 137 L 290 137 L 290 139 L 289 139 Z M 289 137 " clip-rule="nonzero"/></clipPath><clipPath id="ec58a0f2e4"><path d="M 298.371094 152.828125 C 292.589844 142.90625 285.722656 143.988281 280.84375 140.378906 C 277.953125 138.214844 275.601562 133.703125 275.601562 129.195312 C 275.601562 124.324219 277.226562 121.078125 278.675781 118.730469 C 284.457031 120.355469 290.058594 123.960938 294.398438 130.277344 C 297.289062 134.605469 301.082031 142.726562 298.371094 152.828125 Z M 298.371094 152.828125 " clip-rule="nonzero"/></clipPath><clipPath id="f6cad74390"><path d="M 292 132 L 294 132 L 294 135 L 292 135 Z M 292 132 " clip-rule="nonzero"/></clipPath><clipPath id="d6c4cb879c"><path d="M 298.371094 152.828125 C 292.589844 142.90625 285.722656 143.988281 280.84375 140.378906 C 277.953125 138.214844 275.601562 133.703125 275.601562 129.195312 C 275.601562 124.324219 277.226562 121.078125 278.675781 118.730469 C 284.457031 120.355469 290.058594 123.960938 294.398438 130.277344 C 297.289062 134.605469 301.082031 142.726562 298.371094 152.828125 Z M 298.371094 152.828125 " clip-rule="nonzero"/></clipPath><clipPath id="c1d4de9afd"><path d="M 288 134 L 289 134 L 289 136 L 288 136 Z M 288 134 " clip-rule="nonzero"/></clipPath><clipPath id="dda56b935e"><path d="M 298.371094 152.828125 C 292.589844 142.90625 285.722656 143.988281 280.84375 140.378906 C 277.953125 138.214844 275.601562 133.703125 275.601562 129.195312 C 275.601562 124.324219 277.226562 121.078125 278.675781 118.730469 C 284.457031 120.355469 290.058594 123.960938 294.398438 130.277344 C 297.289062 134.605469 301.082031 142.726562 298.371094 152.828125 Z M 298.371094 152.828125 " clip-rule="nonzero"/></clipPath><clipPath id="c523f5c3f9"><path d="M 291 129 L 292 129 L 292 131 L 291 131 Z M 291 129 " clip-rule="nonzero"/></clipPath><clipPath id="be7808c9af"><path d="M 298.371094 152.828125 C 292.589844 142.90625 285.722656 143.988281 280.84375 140.378906 C 277.953125 138.214844 275.601562 133.703125 275.601562 129.195312 C 275.601562 124.324219 277.226562 121.078125 278.675781 118.730469 C 284.457031 120.355469 290.058594 123.960938 294.398438 130.277344 C 297.289062 134.605469 301.082031 142.726562 298.371094 152.828125 Z M 298.371094 152.828125 " clip-rule="nonzero"/></clipPath><clipPath id="91a70bff5c"><path d="M 289 127 L 291 127 L 291 129 L 289 129 Z M 289 127 " clip-rule="nonzero"/></clipPath><clipPath id="4e9989d223"><path d="M 298.371094 152.828125 C 292.589844 142.90625 285.722656 143.988281 280.84375 140.378906 C 277.953125 138.214844 275.601562 133.703125 275.601562 129.195312 C 275.601562 124.324219 277.226562 121.078125 278.675781 118.730469 C 284.457031 120.355469 290.058594 123.960938 294.398438 130.277344 C 297.289062 134.605469 301.082031 142.726562 298.371094 152.828125 Z M 298.371094 152.828125 " clip-rule="nonzero"/></clipPath><clipPath id="699af1decc"><path d="M 285 129 L 287 129 L 287 131 L 285 131 Z M 285 129 " clip-rule="nonzero"/></clipPath><clipPath id="360f26cb87"><path d="M 298.371094 152.828125 C 292.589844 142.90625 285.722656 143.988281 280.84375 140.378906 C 277.953125 138.214844 275.601562 133.703125 275.601562 129.195312 C 275.601562 124.324219 277.226562 121.078125 278.675781 118.730469 C 284.457031 120.355469 290.058594 123.960938 294.398438 130.277344 C 297.289062 134.605469 301.082031 142.726562 298.371094 152.828125 Z M 298.371094 152.828125 " clip-rule="nonzero"/></clipPath><clipPath id="a80267379e"><path d="M 287 125 L 289 125 L 289 127 L 287 127 Z M 287 125 " clip-rule="nonzero"/></clipPath><clipPath id="f01ea1c3b8"><path d="M 298.371094 152.828125 C 292.589844 142.90625 285.722656 143.988281 280.84375 140.378906 C 277.953125 138.214844 275.601562 133.703125 275.601562 129.195312 C 275.601562 124.324219 277.226562 121.078125 278.675781 118.730469 C 284.457031 120.355469 290.058594 123.960938 294.398438 130.277344 C 297.289062 134.605469 301.082031 142.726562 298.371094 152.828125 Z M 298.371094 152.828125 " clip-rule="nonzero"/></clipPath><clipPath id="13a5c30500"><path d="M 286 123 L 287 123 L 287 125 L 286 125 Z M 286 123 " clip-rule="nonzero"/></clipPath><clipPath id="3dee41fe3c"><path d="M 298.371094 152.828125 C 292.589844 142.90625 285.722656 143.988281 280.84375 140.378906 C 277.953125 138.214844 275.601562 133.703125 275.601562 129.195312 C 275.601562 124.324219 277.226562 121.078125 278.675781 118.730469 C 284.457031 120.355469 290.058594 123.960938 294.398438 130.277344 C 297.289062 134.605469 301.082031 142.726562 298.371094 152.828125 Z M 298.371094 152.828125 " clip-rule="nonzero"/></clipPath><clipPath id="eed03f30f3"><path d="M 283 125 L 285 125 L 285 127 L 283 127 Z M 283 125 " clip-rule="nonzero"/></clipPath><clipPath id="6ae93f434f"><path d="M 298.371094 152.828125 C 292.589844 142.90625 285.722656 143.988281 280.84375 140.378906 C 277.953125 138.214844 275.601562 133.703125 275.601562 129.195312 C 275.601562 124.324219 277.226562 121.078125 278.675781 118.730469 C 284.457031 120.355469 290.058594 123.960938 294.398438 130.277344 C 297.289062 134.605469 301.082031 142.726562 298.371094 152.828125 Z M 298.371094 152.828125 " clip-rule="nonzero"/></clipPath><clipPath id="61d3cc0431"><path d="M 284 121 L 285 121 L 285 123 L 284 123 Z M 284 121 " clip-rule="nonzero"/></clipPath><clipPath id="bd39db9605"><path d="M 298.371094 152.828125 C 292.589844 142.90625 285.722656 143.988281 280.84375 140.378906 C 277.953125 138.214844 275.601562 133.703125 275.601562 129.195312 C 275.601562 124.324219 277.226562 121.078125 278.675781 118.730469 C 284.457031 120.355469 290.058594 123.960938 294.398438 130.277344 C 297.289062 134.605469 301.082031 142.726562 298.371094 152.828125 Z M 298.371094 152.828125 " clip-rule="nonzero"/></clipPath><clipPath id="28a0322fba"><path d="M 282 123 L 284 123 L 284 124 L 282 124 Z M 282 123 " clip-rule="nonzero"/></clipPath><clipPath id="05584a4343"><path d="M 298.371094 152.828125 C 292.589844 142.90625 285.722656 143.988281 280.84375 140.378906 C 277.953125 138.214844 275.601562 133.703125 275.601562 129.195312 C 275.601562 124.324219 277.226562 121.078125 278.675781 118.730469 C 284.457031 120.355469 290.058594 123.960938 294.398438 130.277344 C 297.289062 134.605469 301.082031 142.726562 298.371094 152.828125 Z M 298.371094 152.828125 " clip-rule="nonzero"/></clipPath><clipPath id="b2530226b2"><path d="M 284 127 L 286 127 L 286 129 L 284 129 Z M 284 127 " clip-rule="nonzero"/></clipPath><clipPath id="f39530f699"><path d="M 298.371094 152.828125 C 292.589844 142.90625 285.722656 143.988281 280.84375 140.378906 C 277.953125 138.214844 275.601562 133.703125 275.601562 129.195312 C 275.601562 124.324219 277.226562 121.078125 278.675781 118.730469 C 284.457031 120.355469 290.058594 123.960938 294.398438 130.277344 C 297.289062 134.605469 301.082031 142.726562 298.371094 152.828125 Z M 298.371094 152.828125 " clip-rule="nonzero"/></clipPath><clipPath id="4cfbfae8d1"><path d="M 287 132 L 288 132 L 288 134 L 287 134 Z M 287 132 " clip-rule="nonzero"/></clipPath><clipPath id="bfc1fe1eeb"><path d="M 298.371094 152.828125 C 292.589844 142.90625 285.722656 143.988281 280.84375 140.378906 C 277.953125 138.214844 275.601562 133.703125 275.601562 129.195312 C 275.601562 124.324219 277.226562 121.078125 278.675781 118.730469 C 284.457031 120.355469 290.058594 123.960938 294.398438 130.277344 C 297.289062 134.605469 301.082031 142.726562 298.371094 152.828125 Z M 298.371094 152.828125 " clip-rule="nonzero"/></clipPath><clipPath id="eee06f1bc3"><path d="M 285 144 L 290 144 L 290 148 L 285 148 Z M 285 144 " clip-rule="nonzero"/></clipPath><clipPath id="a57e163cc0"><path d="M 298.371094 152.828125 C 292.589844 142.90625 285.722656 143.988281 280.84375 140.378906 C 277.953125 138.214844 275.601562 133.703125 275.601562 129.195312 C 275.601562 124.324219 277.226562 121.078125 278.675781 118.730469 C 284.457031 120.355469 290.058594 123.960938 294.398438 130.277344 C 297.289062 134.605469 301.082031 142.726562 298.371094 152.828125 Z M 298.371094 152.828125 " clip-rule="nonzero"/></clipPath><clipPath id="d4227ab477"><path d="M 285 141 L 289 141 L 289 145 L 285 145 Z M 285 141 " clip-rule="nonzero"/></clipPath><clipPath id="ccce3f0b56"><path d="M 298.371094 152.828125 C 292.589844 142.90625 285.722656 143.988281 280.84375 140.378906 C 277.953125 138.214844 275.601562 133.703125 275.601562 129.195312 C 275.601562 124.324219 277.226562 121.078125 278.675781 118.730469 C 284.457031 120.355469 290.058594 123.960938 294.398438 130.277344 C 297.289062 134.605469 301.082031 142.726562 298.371094 152.828125 Z M 298.371094 152.828125 " clip-rule="nonzero"/></clipPath><clipPath id="fc7edb4ed9"><path d="M 283 139 L 288 139 L 288 143 L 283 143 Z M 283 139 " clip-rule="nonzero"/></clipPath><clipPath id="9c224d2950"><path d="M 298.371094 152.828125 C 292.589844 142.90625 285.722656 143.988281 280.84375 140.378906 C 277.953125 138.214844 275.601562 133.703125 275.601562 129.195312 C 275.601562 124.324219 277.226562 121.078125 278.675781 118.730469 C 284.457031 120.355469 290.058594 123.960938 294.398438 130.277344 C 297.289062 134.605469 301.082031 142.726562 298.371094 152.828125 Z M 298.371094 152.828125 " clip-rule="nonzero"/></clipPath><clipPath id="d1e9ca88bb"><path d="M 282 137 L 286 137 L 286 140 L 282 140 Z M 282 137 " clip-rule="nonzero"/></clipPath><clipPath id="419dc9fe38"><path d="M 298.371094 152.828125 C 292.589844 142.90625 285.722656 143.988281 280.84375 140.378906 C 277.953125 138.214844 275.601562 133.703125 275.601562 129.195312 C 275.601562 124.324219 277.226562 121.078125 278.675781 118.730469 C 284.457031 120.355469 290.058594 123.960938 294.398438 130.277344 C 297.289062 134.605469 301.082031 142.726562 298.371094 152.828125 Z M 298.371094 152.828125 " clip-rule="nonzero"/></clipPath><clipPath id="d59059ae25"><path d="M 280 135 L 285 135 L 285 138 L 280 138 Z M 280 135 " clip-rule="nonzero"/></clipPath><clipPath id="55a557c2ae"><path d="M 298.371094 152.828125 C 292.589844 142.90625 285.722656 143.988281 280.84375 140.378906 C 277.953125 138.214844 275.601562 133.703125 275.601562 129.195312 C 275.601562 124.324219 277.226562 121.078125 278.675781 118.730469 C 284.457031 120.355469 290.058594 123.960938 294.398438 130.277344 C 297.289062 134.605469 301.082031 142.726562 298.371094 152.828125 Z M 298.371094 152.828125 " clip-rule="nonzero"/></clipPath><clipPath id="21f31a2666"><path d="M 279 133 L 283 133 L 283 136 L 279 136 Z M 279 133 " clip-rule="nonzero"/></clipPath><clipPath id="a1e63421da"><path d="M 298.371094 152.828125 C 292.589844 142.90625 285.722656 143.988281 280.84375 140.378906 C 277.953125 138.214844 275.601562 133.703125 275.601562 129.195312 C 275.601562 124.324219 277.226562 121.078125 278.675781 118.730469 C 284.457031 120.355469 290.058594 123.960938 294.398438 130.277344 C 297.289062 134.605469 301.082031 142.726562 298.371094 152.828125 Z M 298.371094 152.828125 " clip-rule="nonzero"/></clipPath><clipPath id="0e30211557"><path d="M 278 131 L 282 131 L 282 134 L 278 134 Z M 278 131 " clip-rule="nonzero"/></clipPath><clipPath id="4e864f95c0"><path d="M 298.371094 152.828125 C 292.589844 142.90625 285.722656 143.988281 280.84375 140.378906 C 277.953125 138.214844 275.601562 133.703125 275.601562 129.195312 C 275.601562 124.324219 277.226562 121.078125 278.675781 118.730469 C 284.457031 120.355469 290.058594 123.960938 294.398438 130.277344 C 297.289062 134.605469 301.082031 142.726562 298.371094 152.828125 Z M 298.371094 152.828125 " clip-rule="nonzero"/></clipPath><clipPath id="d82aff433c"><path d="M 277 130 L 280 130 L 280 132 L 277 132 Z M 277 130 " clip-rule="nonzero"/></clipPath><clipPath id="83961fe4c8"><path d="M 298.371094 152.828125 C 292.589844 142.90625 285.722656 143.988281 280.84375 140.378906 C 277.953125 138.214844 275.601562 133.703125 275.601562 129.195312 C 275.601562 124.324219 277.226562 121.078125 278.675781 118.730469 C 284.457031 120.355469 290.058594 123.960938 294.398438 130.277344 C 297.289062 134.605469 301.082031 142.726562 298.371094 152.828125 Z M 298.371094 152.828125 " clip-rule="nonzero"/></clipPath><clipPath id="59a2bc2869"><path d="M 289 142 L 292 142 L 292 148 L 289 148 Z M 289 142 " clip-rule="nonzero"/></clipPath><clipPath id="6950ab6219"><path d="M 298.371094 152.828125 C 292.589844 142.90625 285.722656 143.988281 280.84375 140.378906 C 277.953125 138.214844 275.601562 133.703125 275.601562 129.195312 C 275.601562 124.324219 277.226562 121.078125 278.675781 118.730469 C 284.457031 120.355469 290.058594 123.960938 294.398438 130.277344 C 297.289062 134.605469 301.082031 142.726562 298.371094 152.828125 Z M 298.371094 152.828125 " clip-rule="nonzero"/></clipPath><clipPath id="3b24b82d36"><path d="M 288 139 L 291 139 L 291 145 L 288 145 Z M 288 139 " clip-rule="nonzero"/></clipPath><clipPath id="232b62feca"><path d="M 298.371094 152.828125 C 292.589844 142.90625 285.722656 143.988281 280.84375 140.378906 C 277.953125 138.214844 275.601562 133.703125 275.601562 129.195312 C 275.601562 124.324219 277.226562 121.078125 278.675781 118.730469 C 284.457031 120.355469 290.058594 123.960938 294.398438 130.277344 C 297.289062 134.605469 301.082031 142.726562 298.371094 152.828125 Z M 298.371094 152.828125 " clip-rule="nonzero"/></clipPath><clipPath id="6275cb79d2"><path d="M 286 137 L 289 137 L 289 143 L 286 143 Z M 286 137 " clip-rule="nonzero"/></clipPath><clipPath id="d24bd6fc7c"><path d="M 298.371094 152.828125 C 292.589844 142.90625 285.722656 143.988281 280.84375 140.378906 C 277.953125 138.214844 275.601562 133.703125 275.601562 129.195312 C 275.601562 124.324219 277.226562 121.078125 278.675781 118.730469 C 284.457031 120.355469 290.058594 123.960938 294.398438 130.277344 C 297.289062 134.605469 301.082031 142.726562 298.371094 152.828125 Z M 298.371094 152.828125 " clip-rule="nonzero"/></clipPath><clipPath id="2555f241e6"><path d="M 285 134 L 287 134 L 287 140 L 285 140 Z M 285 134 " clip-rule="nonzero"/></clipPath><clipPath id="866713149a"><path d="M 298.371094 152.828125 C 292.589844 142.90625 285.722656 143.988281 280.84375 140.378906 C 277.953125 138.214844 275.601562 133.703125 275.601562 129.195312 C 275.601562 124.324219 277.226562 121.078125 278.675781 118.730469 C 284.457031 120.355469 290.058594 123.960938 294.398438 130.277344 C 297.289062 134.605469 301.082031 142.726562 298.371094 152.828125 Z M 298.371094 152.828125 " clip-rule="nonzero"/></clipPath><clipPath id="bbc7909d57"><path d="M 283 133 L 286 133 L 286 138 L 283 138 Z M 283 133 " clip-rule="nonzero"/></clipPath><clipPath id="a02d5aefa0"><path d="M 298.371094 152.828125 C 292.589844 142.90625 285.722656 143.988281 280.84375 140.378906 C 277.953125 138.214844 275.601562 133.703125 275.601562 129.195312 C 275.601562 124.324219 277.226562 121.078125 278.675781 118.730469 C 284.457031 120.355469 290.058594 123.960938 294.398438 130.277344 C 297.289062 134.605469 301.082031 142.726562 298.371094 152.828125 Z M 298.371094 152.828125 " clip-rule="nonzero"/></clipPath><clipPath id="b55f900dc4"><path d="M 282 131 L 284 131 L 284 136 L 282 136 Z M 282 131 " clip-rule="nonzero"/></clipPath><clipPath id="571cd607b6"><path d="M 298.371094 152.828125 C 292.589844 142.90625 285.722656 143.988281 280.84375 140.378906 C 277.953125 138.214844 275.601562 133.703125 275.601562 129.195312 C 275.601562 124.324219 277.226562 121.078125 278.675781 118.730469 C 284.457031 120.355469 290.058594 123.960938 294.398438 130.277344 C 297.289062 134.605469 301.082031 142.726562 298.371094 152.828125 Z M 298.371094 152.828125 " clip-rule="nonzero"/></clipPath><clipPath id="6e6bc61e01"><path d="M 280 130 L 282 130 L 282 134 L 280 134 Z M 280 130 " clip-rule="nonzero"/></clipPath><clipPath id="b8a80d7ae6"><path d="M 298.371094 152.828125 C 292.589844 142.90625 285.722656 143.988281 280.84375 140.378906 C 277.953125 138.214844 275.601562 133.703125 275.601562 129.195312 C 275.601562 124.324219 277.226562 121.078125 278.675781 118.730469 C 284.457031 120.355469 290.058594 123.960938 294.398438 130.277344 C 297.289062 134.605469 301.082031 142.726562 298.371094 152.828125 Z M 298.371094 152.828125 " clip-rule="nonzero"/></clipPath><clipPath id="0bf3d91b3e"><path d="M 278 129 L 280 129 L 280 132 L 278 132 Z M 278 129 " clip-rule="nonzero"/></clipPath><clipPath id="a5933ee895"><path d="M 298.371094 152.828125 C 292.589844 142.90625 285.722656 143.988281 280.84375 140.378906 C 277.953125 138.214844 275.601562 133.703125 275.601562 129.195312 C 275.601562 124.324219 277.226562 121.078125 278.675781 118.730469 C 284.457031 120.355469 290.058594 123.960938 294.398438 130.277344 C 297.289062 134.605469 301.082031 142.726562 298.371094 152.828125 Z M 298.371094 152.828125 " clip-rule="nonzero"/></clipPath><clipPath id="a96e7f5fbf"><path d="M 277 129 L 291 129 L 291 150 L 277 150 Z M 277 129 " clip-rule="nonzero"/></clipPath><clipPath id="aa6fa3f467"><path d="M 298.371094 152.828125 C 292.589844 142.90625 285.722656 143.988281 280.84375 140.378906 C 277.953125 138.214844 275.601562 133.703125 275.601562 129.195312 C 275.601562 124.324219 277.226562 121.078125 278.675781 118.730469 C 284.457031 120.355469 290.058594 123.960938 294.398438 130.277344 C 297.289062 134.605469 301.082031 142.726562 298.371094 152.828125 Z M 298.371094 152.828125 " clip-rule="nonzero"/></clipPath><clipPath id="854e836b5e"><path d="M 290 142 L 291 142 L 291 143 L 290 143 Z M 290 142 " clip-rule="nonzero"/></clipPath><clipPath id="ef1da130b1"><path d="M 298.371094 152.828125 C 292.589844 142.90625 285.722656 143.988281 280.84375 140.378906 C 277.953125 138.214844 275.601562 133.703125 275.601562 129.195312 C 275.601562 124.324219 277.226562 121.078125 278.675781 118.730469 C 284.457031 120.355469 290.058594 123.960938 294.398438 130.277344 C 297.289062 134.605469 301.082031 142.726562 298.371094 152.828125 Z M 298.371094 152.828125 " clip-rule="nonzero"/></clipPath><clipPath id="b52e01f771"><path d="M 285 144 L 287 144 L 287 146 L 285 146 Z M 285 144 " clip-rule="nonzero"/></clipPath><clipPath id="b44d76b073"><path d="M 298.371094 152.828125 C 292.589844 142.90625 285.722656 143.988281 280.84375 140.378906 C 277.953125 138.214844 275.601562 133.703125 275.601562 129.195312 C 275.601562 124.324219 277.226562 121.078125 278.675781 118.730469 C 284.457031 120.355469 290.058594 123.960938 294.398438 130.277344 C 297.289062 134.605469 301.082031 142.726562 298.371094 152.828125 Z M 298.371094 152.828125 " clip-rule="nonzero"/></clipPath><clipPath id="1b23fe6a19"><path d="M 288 139 L 290 139 L 290 141 L 288 141 Z M 288 139 " clip-rule="nonzero"/></clipPath><clipPath id="8cd7893c76"><path d="M 298.371094 152.828125 C 292.589844 142.90625 285.722656 143.988281 280.84375 140.378906 C 277.953125 138.214844 275.601562 133.703125 275.601562 129.195312 C 275.601562 124.324219 277.226562 121.078125 278.675781 118.730469 C 284.457031 120.355469 290.058594 123.960938 294.398438 130.277344 C 297.289062 134.605469 301.082031 142.726562 298.371094 152.828125 Z M 298.371094 152.828125 " clip-rule="nonzero"/></clipPath><clipPath id="f723bbef77"><path d="M 284 141 L 286 141 L 286 143 L 284 143 Z M 284 141 " clip-rule="nonzero"/></clipPath><clipPath id="8dbe76ed93"><path d="M 298.371094 152.828125 C 292.589844 142.90625 285.722656 143.988281 280.84375 140.378906 C 277.953125 138.214844 275.601562 133.703125 275.601562 129.195312 C 275.601562 124.324219 277.226562 121.078125 278.675781 118.730469 C 284.457031 120.355469 290.058594 123.960938 294.398438 130.277344 C 297.289062 134.605469 301.082031 142.726562 298.371094 152.828125 Z M 298.371094 152.828125 " clip-rule="nonzero"/></clipPath><clipPath id="0e6d479d50"><path d="M 287 136 L 288 136 L 288 138 L 287 138 Z M 287 136 " clip-rule="nonzero"/></clipPath><clipPath id="fdcd49ff5d"><path d="M 298.371094 152.828125 C 292.589844 142.90625 285.722656 143.988281 280.84375 140.378906 C 277.953125 138.214844 275.601562 133.703125 275.601562 129.195312 C 275.601562 124.324219 277.226562 121.078125 278.675781 118.730469 C 284.457031 120.355469 290.058594 123.960938 294.398438 130.277344 C 297.289062 134.605469 301.082031 142.726562 298.371094 152.828125 Z M 298.371094 152.828125 " clip-rule="nonzero"/></clipPath><clipPath id="596c2f53b7"><path d="M 283 139 L 285 139 L 285 140 L 283 140 Z M 283 139 " clip-rule="nonzero"/></clipPath><clipPath id="154b8704f3"><path d="M 298.371094 152.828125 C 292.589844 142.90625 285.722656 143.988281 280.84375 140.378906 C 277.953125 138.214844 275.601562 133.703125 275.601562 129.195312 C 275.601562 124.324219 277.226562 121.078125 278.675781 118.730469 C 284.457031 120.355469 290.058594 123.960938 294.398438 130.277344 C 297.289062 134.605469 301.082031 142.726562 298.371094 152.828125 Z M 298.371094 152.828125 " clip-rule="nonzero"/></clipPath><clipPath id="176be95675"><path d="M 285 134 L 286 134 L 286 136 L 285 136 Z M 285 134 " clip-rule="nonzero"/></clipPath><clipPath id="b94f2109fe"><path d="M 298.371094 152.828125 C 292.589844 142.90625 285.722656 143.988281 280.84375 140.378906 C 277.953125 138.214844 275.601562 133.703125 275.601562 129.195312 C 275.601562 124.324219 277.226562 121.078125 278.675781 118.730469 C 284.457031 120.355469 290.058594 123.960938 294.398438 130.277344 C 297.289062 134.605469 301.082031 142.726562 298.371094 152.828125 Z M 298.371094 152.828125 " clip-rule="nonzero"/></clipPath><clipPath id="186c81db41"><path d="M 283 132 L 285 132 L 285 134 L 283 134 Z M 283 132 " clip-rule="nonzero"/></clipPath><clipPath id="34cbe4bc5e"><path d="M 298.371094 152.828125 C 292.589844 142.90625 285.722656 143.988281 280.84375 140.378906 C 277.953125 138.214844 275.601562 133.703125 275.601562 129.195312 C 275.601562 124.324219 277.226562 121.078125 278.675781 118.730469 C 284.457031 120.355469 290.058594 123.960938 294.398438 130.277344 C 297.289062 134.605469 301.082031 142.726562 298.371094 152.828125 Z M 298.371094 152.828125 " clip-rule="nonzero"/></clipPath><clipPath id="63da05b0ec"><path d="M 280 135 L 282 135 L 282 136 L 280 136 Z M 280 135 " clip-rule="nonzero"/></clipPath><clipPath id="b2cae4dbe2"><path d="M 298.371094 152.828125 C 292.589844 142.90625 285.722656 143.988281 280.84375 140.378906 C 277.953125 138.214844 275.601562 133.703125 275.601562 129.195312 C 275.601562 124.324219 277.226562 121.078125 278.675781 118.730469 C 284.457031 120.355469 290.058594 123.960938 294.398438 130.277344 C 297.289062 134.605469 301.082031 142.726562 298.371094 152.828125 Z M 298.371094 152.828125 " clip-rule="nonzero"/></clipPath><clipPath id="88baf43453"><path d="M 281 131 L 283 131 L 283 133 L 281 133 Z M 281 131 " clip-rule="nonzero"/></clipPath><clipPath id="9f38e1bb9d"><path d="M 298.371094 152.828125 C 292.589844 142.90625 285.722656 143.988281 280.84375 140.378906 C 277.953125 138.214844 275.601562 133.703125 275.601562 129.195312 C 275.601562 124.324219 277.226562 121.078125 278.675781 118.730469 C 284.457031 120.355469 290.058594 123.960938 294.398438 130.277344 C 297.289062 134.605469 301.082031 142.726562 298.371094 152.828125 Z M 298.371094 152.828125 " clip-rule="nonzero"/></clipPath><clipPath id="b75408df43"><path d="M 280 130 L 281 130 L 281 131 L 280 131 Z M 280 130 " clip-rule="nonzero"/></clipPath><clipPath id="aadccd114b"><path d="M 298.371094 152.828125 C 292.589844 142.90625 285.722656 143.988281 280.84375 140.378906 C 277.953125 138.214844 275.601562 133.703125 275.601562 129.195312 C 275.601562 124.324219 277.226562 121.078125 278.675781 118.730469 C 284.457031 120.355469 290.058594 123.960938 294.398438 130.277344 C 297.289062 134.605469 301.082031 142.726562 298.371094 152.828125 Z M 298.371094 152.828125 " clip-rule="nonzero"/></clipPath><clipPath id="eeab4d3365"><path d="M 278 131 L 279 131 L 279 133 L 278 133 Z M 278 131 " clip-rule="nonzero"/></clipPath><clipPath id="07f1450b8b"><path d="M 298.371094 152.828125 C 292.589844 142.90625 285.722656 143.988281 280.84375 140.378906 C 277.953125 138.214844 275.601562 133.703125 275.601562 129.195312 C 275.601562 124.324219 277.226562 121.078125 278.675781 118.730469 C 284.457031 120.355469 290.058594 123.960938 294.398438 130.277344 C 297.289062 134.605469 301.082031 142.726562 298.371094 152.828125 Z M 298.371094 152.828125 " clip-rule="nonzero"/></clipPath><clipPath id="51f02dbc31"><path d="M 278 128 L 279 128 L 279 130 L 278 130 Z M 278 128 " clip-rule="nonzero"/></clipPath><clipPath id="704208954d"><path d="M 298.371094 152.828125 C 292.589844 142.90625 285.722656 143.988281 280.84375 140.378906 C 277.953125 138.214844 275.601562 133.703125 275.601562 129.195312 C 275.601562 124.324219 277.226562 121.078125 278.675781 118.730469 C 284.457031 120.355469 290.058594 123.960938 294.398438 130.277344 C 297.289062 134.605469 301.082031 142.726562 298.371094 152.828125 Z M 298.371094 152.828125 " clip-rule="nonzero"/></clipPath><clipPath id="17f6afdccf"><path d="M 276 130 L 278 130 L 278 131 L 276 131 Z M 276 130 " clip-rule="nonzero"/></clipPath><clipPath id="e64b616c64"><path d="M 298.371094 152.828125 C 292.589844 142.90625 285.722656 143.988281 280.84375 140.378906 C 277.953125 138.214844 275.601562 133.703125 275.601562 129.195312 C 275.601562 124.324219 277.226562 121.078125 278.675781 118.730469 C 284.457031 120.355469 290.058594 123.960938 294.398438 130.277344 C 297.289062 134.605469 301.082031 142.726562 298.371094 152.828125 Z M 298.371094 152.828125 " clip-rule="nonzero"/></clipPath><clipPath id="a1f457db1a"><path d="M 279 133 L 281 133 L 281 135 L 279 135 Z M 279 133 " clip-rule="nonzero"/></clipPath><clipPath id="07b8f76c84"><path d="M 298.371094 152.828125 C 292.589844 142.90625 285.722656 143.988281 280.84375 140.378906 C 277.953125 138.214844 275.601562 133.703125 275.601562 129.195312 C 275.601562 124.324219 277.226562 121.078125 278.675781 118.730469 C 284.457031 120.355469 290.058594 123.960938 294.398438 130.277344 C 297.289062 134.605469 301.082031 142.726562 298.371094 152.828125 Z M 298.371094 152.828125 " clip-rule="nonzero"/></clipPath><clipPath id="83d4d4adef"><path d="M 281 137 L 283 137 L 283 138 L 281 138 Z M 281 137 " clip-rule="nonzero"/></clipPath><clipPath id="06aed61a0f"><path d="M 298.371094 152.828125 C 292.589844 142.90625 285.722656 143.988281 280.84375 140.378906 C 277.953125 138.214844 275.601562 133.703125 275.601562 129.195312 C 275.601562 124.324219 277.226562 121.078125 278.675781 118.730469 C 284.457031 120.355469 290.058594 123.960938 294.398438 130.277344 C 297.289062 134.605469 301.082031 142.726562 298.371094 152.828125 Z M 298.371094 152.828125 " clip-rule="nonzero"/></clipPath></defs><path fill="#666666" d="M 239.457031 123.78125 L 239.457031 118.007812 L 240.542969 118.007812 L 241.988281 122.160156 C 242.167969 122.519531 242.167969 122.878906 242.347656 123.0625 C 242.347656 122.878906 242.53125 122.519531 242.710938 122.160156 L 244.15625 118.191406 L 245.242188 118.191406 L 245.242188 123.78125 L 244.519531 123.78125 L 244.519531 118.910156 L 242.53125 123.78125 L 241.808594 123.78125 L 240.179688 118.910156 L 240.179688 123.78125 Z M 239.457031 123.78125 " fill-opacity="1" fill-rule="nonzero"/><path fill="#666666" d="M 246.144531 123.78125 L 246.144531 118.007812 L 248.675781 118.007812 C 249.214844 118.007812 249.578125 118.007812 249.757812 118.191406 C 249.9375 118.371094 250.300781 118.550781 250.480469 118.730469 C 250.664062 118.910156 250.664062 119.273438 250.664062 119.632812 C 250.664062 119.992188 250.480469 120.355469 250.300781 120.714844 C 250.121094 121.078125 249.578125 121.257812 249.035156 121.257812 C 249.214844 121.4375 249.398438 121.4375 249.578125 121.617188 C 249.757812 121.796875 249.9375 122.160156 250.121094 122.339844 L 251.203125 123.78125 L 250.300781 123.78125 L 249.398438 122.519531 C 249.214844 122.160156 249.035156 121.976562 248.855469 121.796875 C 248.675781 121.617188 248.675781 121.4375 248.492188 121.4375 C 248.3125 121.4375 248.3125 121.257812 248.132812 121.257812 C 248.132812 121.257812 247.953125 121.257812 247.769531 121.257812 L 246.867188 121.257812 L 246.867188 123.78125 Z M 246.867188 120.535156 L 248.492188 120.535156 C 248.855469 120.535156 249.035156 120.535156 249.398438 120.355469 C 249.578125 120.355469 249.757812 120.175781 249.757812 119.992188 C 249.9375 119.8125 249.9375 119.632812 249.9375 119.453125 C 249.9375 119.09375 249.757812 118.910156 249.578125 118.730469 C 249.398438 118.550781 249.035156 118.550781 248.675781 118.550781 L 246.867188 118.550781 Z M 246.867188 120.535156 " fill-opacity="1" fill-rule="nonzero"/><g clip-path="url(#836142ee20)"><path fill="#b3b3b3" d="M 23.132812 117.109375 L 39.757812 117.109375 L 49.878906 150.121094 L 56.929688 117.109375 L 66.144531 116.925781 L 55.480469 164.375 L 44.820312 164.375 L 32.167969 124.863281 L 25.300781 154.632812 C 25.300781 154.632812 22.230469 165.277344 2.167969 164.914062 C 2.167969 164.914062 10.484375 163.652344 13.375 153.1875 Z M 23.132812 117.109375 " fill-opacity="1" fill-rule="nonzero"/></g><g clip-path="url(#8c493185b9)"><path fill="#b3b3b3" d="M 89.820312 145.972656 L 96.324219 116.925781 L 105.542969 116.925781 L 96.867188 154.632812 C 96.867188 154.632812 93.796875 166.359375 77.710938 165.457031 C 77.710938 165.457031 60.542969 165.996094 62.351562 145.792969 L 68.855469 116.746094 L 77.710938 116.746094 L 71.386719 143.808594 C 71.386719 143.808594 67.046875 156.074219 79.335938 156.796875 C 79.335938 156.796875 84.398438 157.699219 87.832031 152.828125 C 87.652344 153.1875 89.277344 150.300781 89.820312 145.972656 Z M 89.820312 145.972656 " fill-opacity="1" fill-rule="nonzero"/></g><path fill="#0498d6" d="M 136.625 117.289062 L 108.613281 117.289062 L 99.941406 155.351562 C 97.410156 163.472656 93.433594 165.457031 93.433594 165.457031 C 105.542969 165.996094 109.878906 155.535156 109.878906 155.535156 L 111.6875 148.679688 L 132.289062 148.679688 C 148.011719 148.316406 150 129.375 150 129.375 C 150.722656 115.84375 136.625 117.289062 136.625 117.289062 Z M 138.796875 132.621094 C 138.796875 132.621094 137.167969 140.019531 130.300781 140.378906 L 112.953125 140.199219 L 116.386719 125.585938 L 133.191406 125.585938 C 133.191406 125.585938 140.964844 125.046875 138.796875 132.621094 Z M 138.796875 132.621094 " fill-opacity="1" fill-rule="nonzero"/><path fill="#0498d6" d="M 192.832031 117.109375 L 172.953125 117.109375 C 172.953125 117.109375 157.046875 116.925781 150.363281 137.855469 C 150.363281 137.855469 139.335938 163.292969 164.820312 164.734375 L 181.988281 164.734375 L 184.15625 156.074219 L 168.796875 156.074219 C 168.796875 156.074219 157.410156 157.15625 159.578125 145.25 L 183.613281 145.25 L 185.78125 136.410156 L 161.566406 136.410156 L 163.011719 132.804688 C 163.011719 132.804688 165.722656 125.585938 176.203125 125.765625 L 190.84375 125.949219 Z M 192.832031 117.109375 " fill-opacity="1" fill-rule="nonzero"/><path fill="#0498d6" d="M 232.410156 117.46875 L 213.792969 117.46875 C 213.792969 117.46875 193.554688 116.925781 188.492188 140.199219 C 188.492188 140.199219 180 164.011719 201.324219 164.734375 L 221.203125 164.734375 L 223.191406 156.253906 L 206.925781 156.253906 C 206.925781 156.253906 195 157.878906 199.335938 141.28125 C 199.335938 141.28125 201.324219 126.308594 213.613281 126.128906 L 230.421875 126.128906 Z M 232.410156 117.46875 " fill-opacity="1" fill-rule="nonzero"/><g clip-path="url(#dce6c8683d)"><path fill="#0498d6" d="M 7.589844 176.460938 L 2.167969 176.460938 L 2.167969 178.625 L 6.867188 178.625 C 7.589844 178.625 7.953125 178.804688 8.3125 178.988281 C 8.496094 179.167969 8.675781 179.707031 8.675781 180.429688 L 8.675781 181.332031 C 8.675781 182.054688 8.496094 182.414062 8.3125 182.773438 C 8.132812 182.957031 7.589844 183.136719 6.867188 183.136719 L 2.53125 183.136719 C 1.808594 183.136719 1.445312 182.957031 1.085938 182.773438 C 0.902344 182.59375 0.722656 182.054688 0.722656 181.332031 L 0.722656 181.152344 L 1.808594 180.789062 L 1.808594 182.054688 L 7.410156 182.054688 L 7.410156 179.707031 L 2.890625 179.707031 C 2.167969 179.707031 1.808594 179.527344 1.445312 179.347656 C 1.265625 179.167969 1.085938 178.625 1.085938 177.902344 L 1.085938 177.183594 C 1.085938 176.460938 1.265625 175.917969 1.445312 175.738281 C 1.628906 175.558594 2.167969 175.378906 2.890625 175.378906 L 6.867188 175.378906 C 7.589844 175.378906 7.953125 175.558594 8.3125 175.738281 C 8.496094 175.917969 8.675781 176.460938 8.675781 177.003906 L 8.675781 177.183594 L 7.589844 177.542969 Z M 7.589844 176.460938 " fill-opacity="1" fill-rule="nonzero"/></g><path fill="#0498d6" d="M 21.507812 175.378906 L 21.507812 181.871094 L 26.929688 181.871094 L 26.929688 175.378906 L 28.191406 175.378906 L 28.191406 181.152344 C 28.191406 181.871094 28.011719 182.234375 27.832031 182.59375 C 27.652344 182.773438 27.109375 182.957031 26.386719 182.957031 L 21.867188 182.957031 C 21.144531 182.957031 20.785156 182.773438 20.421875 182.59375 C 20.242188 182.414062 20.0625 181.871094 20.0625 181.152344 L 20.0625 175.378906 Z M 21.507812 175.378906 " fill-opacity="1" fill-rule="nonzero"/><path fill="#0498d6" d="M 40.121094 182.957031 L 40.121094 175.378906 L 46.265625 175.378906 C 46.808594 175.378906 47.167969 175.558594 47.53125 175.738281 C 47.710938 175.917969 47.890625 176.28125 47.890625 176.820312 L 47.890625 178.445312 C 47.890625 178.988281 47.710938 179.347656 47.53125 179.527344 C 47.351562 179.707031 46.808594 179.886719 46.265625 179.886719 L 41.386719 179.886719 L 41.386719 182.773438 L 40.121094 182.773438 Z M 45.722656 176.28125 L 41.386719 176.28125 L 41.386719 178.804688 L 45.722656 178.804688 C 46.085938 178.804688 46.265625 178.804688 46.445312 178.625 C 46.625 178.445312 46.625 178.265625 46.625 178.085938 L 46.625 177.003906 C 46.625 176.640625 46.625 176.460938 46.445312 176.460938 C 46.265625 176.460938 45.902344 176.28125 45.722656 176.28125 Z M 45.722656 176.28125 " fill-opacity="1" fill-rule="nonzero"/><g clip-path="url(#91e4718633)"><path fill="#0498d6" d="M 58.734375 182.957031 L 58.734375 175.378906 L 65.964844 175.378906 L 65.964844 176.460938 L 60 176.460938 L 60 178.625 L 63.613281 178.625 L 63.613281 179.707031 L 60 179.707031 L 60 182.054688 L 66.144531 182.054688 L 66.144531 183.136719 L 58.734375 183.136719 Z M 58.734375 182.957031 " fill-opacity="1" fill-rule="nonzero"/></g><path fill="#0498d6" d="M 76.808594 182.957031 L 76.808594 175.378906 L 82.953125 175.378906 C 83.496094 175.378906 83.855469 175.558594 84.21875 175.738281 C 84.398438 175.917969 84.578125 176.28125 84.578125 176.820312 L 84.578125 178.445312 C 84.578125 178.988281 84.398438 179.347656 84.21875 179.527344 C 84.035156 179.707031 83.496094 179.886719 82.953125 179.886719 L 81.867188 179.886719 L 85.300781 182.773438 L 83.496094 182.773438 L 80.421875 179.886719 L 78.253906 179.886719 L 78.253906 182.773438 L 76.808594 182.773438 Z M 82.410156 176.28125 L 78.074219 176.28125 L 78.074219 178.988281 L 82.410156 178.988281 C 82.769531 178.988281 82.953125 178.988281 83.132812 178.804688 C 83.3125 178.625 83.3125 178.445312 83.3125 178.265625 L 83.3125 177.183594 C 83.3125 176.820312 83.3125 176.640625 83.132812 176.640625 C 82.953125 176.460938 82.769531 176.28125 82.410156 176.28125 Z M 82.410156 176.28125 " fill-opacity="1" fill-rule="nonzero"/><path fill="#0498d6" d="M 109.15625 182.957031 L 109.15625 175.378906 L 115.300781 175.378906 C 115.84375 175.378906 116.203125 175.558594 116.566406 175.738281 C 116.746094 175.917969 116.929688 176.28125 116.929688 176.820312 L 116.929688 178.445312 C 116.929688 178.988281 116.746094 179.347656 116.566406 179.527344 C 116.386719 179.707031 115.84375 179.886719 115.300781 179.886719 L 110.421875 179.886719 L 110.421875 182.773438 L 109.15625 182.773438 Z M 114.757812 176.28125 L 110.421875 176.28125 L 110.421875 178.804688 L 114.757812 178.804688 C 115.121094 178.804688 115.300781 178.804688 115.480469 178.625 C 115.664062 178.445312 115.664062 178.265625 115.664062 178.085938 L 115.664062 177.003906 C 115.664062 176.640625 115.664062 176.460938 115.480469 176.460938 C 115.121094 176.460938 114.941406 176.28125 114.757812 176.28125 Z M 114.757812 176.28125 " fill-opacity="1" fill-rule="nonzero"/><path fill="#0498d6" d="M 127.769531 182.957031 L 127.769531 175.378906 L 133.734375 175.378906 C 134.277344 175.378906 134.636719 175.558594 135 175.738281 C 135.179688 175.917969 135.363281 176.28125 135.363281 176.820312 L 135.363281 178.445312 C 135.363281 178.988281 135.179688 179.347656 135 179.527344 C 134.820312 179.707031 134.277344 179.886719 133.734375 179.886719 L 132.652344 179.886719 L 136.085938 182.773438 L 134.277344 182.773438 L 131.203125 179.886719 L 129.035156 179.886719 L 129.035156 182.773438 L 127.769531 182.773438 Z M 133.375 176.28125 L 129.035156 176.28125 L 129.035156 178.988281 L 133.375 178.988281 C 133.734375 178.988281 133.914062 178.988281 134.097656 178.804688 C 134.277344 178.625 134.277344 178.445312 134.277344 178.265625 L 134.277344 177.183594 C 134.277344 176.820312 134.277344 176.640625 134.097656 176.640625 C 133.734375 176.460938 133.554688 176.28125 133.375 176.28125 Z M 133.375 176.28125 " fill-opacity="1" fill-rule="nonzero"/><g clip-path="url(#4e39ec0bc3)"><path fill="#0498d6" d="M 146.746094 182.957031 L 146.746094 175.378906 L 153.976562 175.378906 L 153.976562 176.460938 L 148.011719 176.460938 L 148.011719 178.625 L 151.625 178.625 L 151.625 179.707031 L 148.011719 179.707031 L 148.011719 182.054688 L 154.15625 182.054688 L 154.15625 183.136719 L 146.746094 183.136719 Z M 146.746094 182.957031 " fill-opacity="1" fill-rule="nonzero"/></g><path fill="#0498d6" d="M 165.902344 176.640625 C 165.902344 177.003906 165.902344 177.363281 165.902344 177.722656 L 165.902344 182.773438 L 164.820312 182.773438 L 164.820312 175.199219 L 165.902344 175.199219 L 169.519531 180.070312 L 172.953125 175.199219 L 174.035156 175.199219 L 174.035156 182.773438 L 172.953125 182.773438 L 172.953125 176.820312 C 172.769531 177.183594 172.589844 177.363281 172.410156 177.722656 L 169.519531 181.871094 L 169.15625 181.871094 L 166.085938 177.722656 C 166.265625 177.542969 166.085938 177.183594 165.902344 176.640625 Z M 165.902344 176.640625 " fill-opacity="1" fill-rule="nonzero"/><path fill="#0498d6" d="M 185.964844 175.378906 L 187.230469 175.378906 L 187.230469 182.957031 L 185.964844 182.957031 Z M 185.964844 175.378906 " fill-opacity="1" fill-rule="nonzero"/><path fill="#0498d6" d="M 200.058594 175.378906 L 200.058594 181.871094 L 205.480469 181.871094 L 205.480469 175.378906 L 206.746094 175.378906 L 206.746094 181.152344 C 206.746094 181.871094 206.566406 182.234375 206.386719 182.59375 C 206.203125 182.773438 205.664062 182.957031 204.941406 182.957031 L 200.601562 182.957031 C 199.878906 182.957031 199.519531 182.773438 199.15625 182.59375 C 198.976562 182.414062 198.796875 181.871094 198.796875 181.152344 L 198.796875 175.378906 Z M 200.058594 175.378906 " fill-opacity="1" fill-rule="nonzero"/><path fill="#0498d6" d="M 219.578125 176.640625 C 219.578125 177.003906 219.578125 177.363281 219.578125 177.722656 L 219.578125 182.773438 L 218.675781 182.773438 L 218.675781 175.199219 L 219.757812 175.199219 L 223.375 180.070312 L 226.808594 175.199219 L 227.890625 175.199219 L 227.890625 182.773438 L 226.808594 182.773438 L 226.808594 176.820312 C 226.625 177.183594 226.445312 177.363281 226.265625 177.722656 L 223.375 181.871094 L 223.011719 181.871094 L 219.941406 177.722656 C 220.121094 177.542969 219.9375 177.183594 219.578125 176.640625 Z M 219.578125 176.640625 " fill-opacity="1" fill-rule="nonzero"/><path fill="#b3b3b3" d="M 277.226562 118.730469 C 271.445312 128.652344 275.964844 134.066406 275.058594 140.199219 C 274.515625 143.628906 271.808594 148.136719 268.011719 150.300781 C 263.855469 152.648438 260.242188 153.007812 257.53125 152.828125 C 255.902344 147.054688 256.445312 140.199219 259.699219 133.523438 C 262.046875 128.832031 267.289062 121.4375 277.226562 118.730469 Z M 277.226562 118.730469 " fill-opacity="1" fill-rule="nonzero"/><path fill="#b3b3b3" d="M 298.371094 152.828125 C 292.589844 142.90625 285.722656 143.988281 280.84375 140.378906 C 277.953125 138.214844 275.601562 133.703125 275.601562 129.195312 C 275.601562 124.324219 277.226562 121.078125 278.675781 118.730469 C 284.457031 120.355469 290.058594 123.960938 294.398438 130.277344 C 297.289062 134.605469 301.082031 142.726562 298.371094 152.828125 Z M 298.371094 152.828125 " fill-opacity="1" fill-rule="nonzero"/><path fill="#b3b3b3" d="M 258.253906 153.910156 C 269.820312 153.910156 272.167969 147.414062 277.953125 145.070312 C 281.203125 143.808594 286.445312 143.808594 290.242188 146.152344 C 294.398438 148.496094 296.386719 151.566406 297.648438 154.089844 C 293.3125 158.421875 287.347656 161.308594 279.757812 161.847656 C 274.515625 162.207031 265.664062 161.308594 258.253906 153.910156 Z M 258.253906 153.910156 " fill-opacity="1" fill-rule="nonzero"/><path fill="#b3b3b3" d="M 258.253906 153.910156 C 269.820312 153.910156 272.167969 147.414062 277.953125 145.070312 C 281.203125 143.808594 286.445312 143.808594 290.242188 146.152344 C 294.398438 148.496094 296.386719 151.566406 297.648438 154.089844 C 293.3125 158.421875 287.347656 161.308594 279.757812 161.847656 C 274.515625 162.207031 265.664062 161.308594 258.253906 153.910156 Z M 258.253906 153.910156 " fill-opacity="1" fill-rule="nonzero"/><path fill="#b3b3b3" d="M 277.226562 118.730469 C 271.445312 128.652344 275.964844 134.066406 275.058594 140.199219 C 274.515625 143.628906 271.808594 148.136719 268.011719 150.300781 C 263.855469 152.648438 260.242188 153.007812 257.53125 152.828125 C 255.902344 147.054688 256.445312 140.199219 259.699219 133.523438 C 262.046875 128.832031 267.289062 121.4375 277.226562 118.730469 Z M 277.226562 118.730469 " fill-opacity="1" fill-rule="nonzero"/><path fill="#b3b3b3" d="M 298.371094 152.828125 C 292.589844 142.90625 285.722656 143.988281 280.84375 140.378906 C 277.953125 138.214844 275.601562 133.703125 275.601562 129.195312 C 275.601562 124.324219 277.226562 121.078125 278.675781 118.730469 C 284.457031 120.355469 290.058594 123.960938 294.398438 130.277344 C 297.289062 134.605469 301.082031 142.726562 298.371094 152.828125 Z M 298.371094 152.828125 " fill-opacity="1" fill-rule="nonzero"/><g clip-path="url(#13a91acb78)"><g clip-path="url(#9f9c098f53)"><path fill="#666666" d="M 272.347656 131.179688 C 272.347656 131.179688 273.433594 132.804688 273.792969 132.984375 C 273.792969 132.984375 272.710938 134.96875 272.167969 135.871094 C 271.625 136.589844 271.082031 136.953125 270.902344 138.035156 C 270.542969 138.9375 269.820312 141.101562 270 141.824219 C 270 142.542969 268.191406 146.152344 265.121094 148.859375 C 265.121094 148.859375 264.035156 149.582031 262.953125 149.398438 L 260.964844 147.414062 C 260.964844 147.414062 260.242188 146.695312 260.421875 146.332031 C 260.601562 145.972656 259.878906 141.824219 259.335938 140.742188 C 258.792969 139.65625 258.792969 136.589844 260.421875 135.328125 C 262.226562 134.246094 262.953125 134.789062 263.675781 134.066406 C 264.398438 133.34375 267.648438 130.457031 269.457031 130.457031 C 271.082031 130.097656 271.625 129.917969 272.347656 131.179688 Z M 272.347656 131.179688 " fill-opacity="1" fill-rule="nonzero"/></g></g><g clip-path="url(#b070349708)"><g clip-path="url(#4a5a2ecdeb)"><path fill="#666666" d="M 263.132812 149.398438 C 262.953125 149.398438 262.953125 149.398438 262.769531 149.398438 L 260.78125 147.414062 C 260.601562 147.234375 260.058594 146.511719 260.242188 145.972656 C 260.421875 145.613281 259.699219 141.644531 259.15625 140.558594 C 258.613281 139.476562 258.433594 136.230469 260.421875 134.96875 C 261.324219 134.246094 262.046875 134.246094 262.589844 134.066406 C 262.953125 134.066406 263.3125 133.886719 263.492188 133.703125 C 264.214844 132.984375 267.648438 130.097656 269.457031 129.917969 L 269.636719 129.917969 C 270 129.917969 270.359375 129.917969 270.722656 129.917969 C 271.625 129.917969 272.167969 130.097656 272.710938 131 C 273.253906 131.71875 273.976562 132.621094 274.15625 132.804688 L 274.335938 132.984375 L 274.15625 133.164062 C 274.15625 133.164062 273.070312 135.328125 272.53125 136.050781 C 272.347656 136.230469 272.167969 136.410156 271.988281 136.589844 C 271.625 136.953125 271.265625 137.3125 271.082031 138.035156 C 271.082031 138.214844 270.902344 138.574219 270.902344 138.757812 C 270.542969 139.65625 270.179688 141.101562 270.179688 141.644531 C 270.179688 142.363281 268.191406 146.152344 265.121094 148.859375 C 265.121094 148.679688 264.214844 149.398438 263.132812 149.398438 Z M 262.953125 148.859375 C 263.855469 148.859375 264.578125 148.496094 264.757812 148.316406 C 267.832031 145.613281 269.636719 142.003906 269.636719 141.644531 C 269.636719 141.101562 270 140.019531 270.359375 138.574219 C 270.542969 138.214844 270.542969 138.035156 270.542969 137.855469 C 270.722656 137.132812 271.082031 136.773438 271.445312 136.230469 C 271.625 136.050781 271.808594 135.871094 271.808594 135.6875 C 272.167969 135.148438 273.070312 133.523438 273.253906 132.984375 C 272.890625 132.621094 271.988281 131.539062 271.988281 131.359375 C 271.445312 130.636719 271.082031 130.457031 270.542969 130.457031 C 270.179688 130.457031 270 130.457031 269.457031 130.457031 L 269.277344 130.457031 C 267.648438 130.636719 264.398438 133.34375 263.675781 134.066406 C 263.3125 134.425781 262.953125 134.425781 262.410156 134.605469 C 261.867188 134.605469 261.324219 134.789062 260.421875 135.328125 C 258.792969 136.410156 258.976562 139.296875 259.335938 140.378906 C 259.699219 141.28125 260.601562 145.613281 260.421875 146.152344 C 260.421875 146.332031 260.601562 146.695312 260.964844 147.054688 Z M 262.953125 148.859375 " fill-opacity="1" fill-rule="nonzero"/></g></g><g clip-path="url(#c8b21e9175)"><g clip-path="url(#698859e34e)"><path fill="#b3b3b3" d="M 272.347656 131 C 272.347656 131 273.253906 132.441406 273.613281 132.621094 C 273.613281 132.621094 272.53125 134.605469 271.988281 135.507812 C 271.445312 136.230469 271.082031 136.773438 270.722656 137.671875 C 270.359375 138.574219 269.277344 140.742188 269.457031 141.460938 C 269.457031 142.183594 267.648438 145.429688 264.578125 147.957031 C 264.578125 147.957031 263.675781 148.859375 262.589844 148.679688 L 260.964844 147.054688 C 260.964844 147.054688 262.589844 148.679688 264.9375 145.613281 C 267.289062 142.542969 267.648438 140.742188 267.832031 140.558594 C 267.832031 140.378906 269.457031 136.050781 269.820312 135.507812 C 270.179688 135.148438 270.902344 134.066406 271.625 132.984375 C 272.347656 132.082031 272.347656 131 272.347656 131 Z M 272.347656 131 " fill-opacity="1" fill-rule="nonzero"/></g></g><g clip-path="url(#f59ca9bfba)"><g clip-path="url(#cdac597054)"><path fill="#b3b3b3" d="M 260.421875 137.671875 C 260.421875 137.671875 260.964844 136.589844 264.035156 136.050781 C 264.035156 136.050781 266.023438 134.789062 267.832031 132.984375 C 269.636719 131.179688 270 132.261719 270 132.261719 C 270 132.261719 264.214844 135.328125 264.035156 143.628906 C 264.035156 143.628906 263.3125 143.988281 263.3125 137.855469 C 263.492188 138.035156 263.3125 136.230469 260.421875 137.671875 Z M 260.421875 137.671875 " fill-opacity="1" fill-rule="nonzero"/></g></g><g clip-path="url(#0f7d85bb50)"><g clip-path="url(#eb6f8b1809)"><path fill="#666666" d="M 289.699219 149.941406 C 288.613281 146.875 285.179688 146.152344 283.371094 145.792969 C 283.371094 145.792969 279.9375 150.121094 281.203125 154.8125 C 282.109375 156.617188 281.023438 158.238281 279.035156 158.601562 C 277.226562 158.960938 275.242188 157.335938 274.878906 156.796875 C 273.613281 154.8125 274.878906 149.398438 274.878906 149.398438 C 274.878906 149.398438 270.722656 154.8125 263.675781 154.992188 C 266.386719 156.796875 272.53125 157.519531 273.253906 158.238281 C 273.792969 158.238281 277.410156 162.390625 282.46875 162.027344 C 286.988281 162.027344 292.589844 157.878906 289.699219 149.941406 Z M 289.699219 149.941406 " fill-opacity="1" fill-rule="nonzero"/></g></g><g clip-path="url(#94775d5601)"><g clip-path="url(#4e63abae54)"><path fill="#b3b3b3" d="M 287.167969 149.398438 C 287.167969 150.121094 286.445312 150.484375 285.902344 150.484375 C 285.179688 150.484375 284.820312 149.761719 284.820312 149.21875 C 284.820312 148.496094 285.542969 148.136719 286.082031 148.136719 C 286.804688 148.136719 287.167969 148.679688 287.167969 149.398438 Z M 287.167969 149.398438 " fill-opacity="1" fill-rule="nonzero"/></g></g><g clip-path="url(#745c11657b)"><g clip-path="url(#56a2a27dd1)"><path fill="#b3b3b3" d="M 280.121094 153.007812 C 281.925781 154.992188 287.167969 156.4375 291.867188 154.269531 C 293.3125 152.828125 291.6875 156.074219 291.6875 156.4375 C 291.6875 157.519531 282.109375 157.878906 280.121094 153.007812 Z M 280.121094 153.007812 " fill-opacity="1" fill-rule="nonzero"/></g></g><g clip-path="url(#9d4ab0b271)"><g clip-path="url(#efed51b959)"><path fill="#b3b3b3" d="M 281.023438 153.910156 C 281.203125 156.253906 284.097656 159.863281 288.613281 160.585938 C 290.421875 160.222656 287.53125 161.667969 287.347656 162.027344 C 286.804688 162.75 280.121094 158.238281 281.023438 153.910156 Z M 281.023438 153.910156 " fill-opacity="1" fill-rule="nonzero"/></g></g><g clip-path="url(#5135d2f0c1)"><g clip-path="url(#e6c201e15e)"><path fill="#b3b3b3" d="M 281.566406 156.074219 C 280.84375 157.699219 281.203125 160.945312 283.554688 162.929688 C 284.820312 163.472656 282.46875 163.292969 282.289062 163.292969 C 281.925781 163.652344 279.398438 158.421875 281.566406 156.074219 Z M 281.566406 156.074219 " fill-opacity="1" fill-rule="nonzero"/></g></g><g clip-path="url(#bf2f8c4016)"><g clip-path="url(#5e672d87d2)"><path fill="#b3b3b3" d="M 281.386719 157.15625 C 280.300781 157.878906 279.214844 160.40625 280.121094 162.75 C 280.84375 163.652344 279.214844 162.570312 279.035156 162.570312 C 278.492188 162.570312 278.855469 157.878906 281.386719 157.15625 Z M 281.386719 157.15625 " fill-opacity="1" fill-rule="nonzero"/></g></g><g clip-path="url(#7f5627c8f2)"><g clip-path="url(#315898e4e5)"><path fill="#b3b3b3" d="M 280.480469 158.058594 C 279.214844 158.238281 277.226562 160.042969 277.046875 162.570312 C 277.226562 163.652344 276.324219 162.027344 276.144531 162.027344 C 275.78125 161.847656 277.953125 157.699219 280.480469 158.058594 Z M 280.480469 158.058594 " fill-opacity="1" fill-rule="nonzero"/></g></g><g clip-path="url(#ab5bfdd561)"><g clip-path="url(#86fa704679)"><path fill="#b3b3b3" d="M 278.855469 158.78125 C 277.589844 158.421875 275.058594 159.324219 273.792969 161.488281 C 273.613281 162.570312 273.433594 160.765625 273.253906 160.585938 C 273.070312 160.042969 276.867188 157.335938 278.855469 158.78125 Z M 278.855469 158.78125 " fill-opacity="1" fill-rule="nonzero"/></g></g><g clip-path="url(#dfc575ba1f)"><g clip-path="url(#ffee79cc78)"><path fill="#666666" d="M 292.769531 142.726562 C 293.675781 143.445312 294.035156 145.972656 294.035156 145.972656 C 293.855469 145.613281 291.503906 144.527344 290.78125 143.808594 C 289.878906 143.085938 290.242188 141.101562 290.242188 141.101562 C 290.601562 141.644531 292.046875 142.003906 292.769531 142.726562 Z M 292.769531 142.726562 " fill-opacity="1" fill-rule="nonzero"/></g></g><g clip-path="url(#5d3d482bd9)"><g clip-path="url(#39bfb7edff)"><path fill="#666666" d="M 292.046875 139.296875 C 292.953125 140.019531 293.492188 142.363281 293.3125 142.183594 C 293.132812 141.824219 290.78125 140.921875 290.058594 140.378906 C 289.15625 139.65625 289.335938 137.855469 289.335938 137.855469 C 289.878906 138.394531 291.144531 138.574219 292.046875 139.296875 Z M 292.046875 139.296875 " fill-opacity="1" fill-rule="nonzero"/></g></g><g clip-path="url(#bc34f5da0e)"><g clip-path="url(#4d11f17a9d)"><path fill="#666666" d="M 290.964844 136.050781 C 291.867188 136.773438 292.410156 138.9375 292.410156 138.757812 C 292.226562 138.394531 289.878906 137.671875 289.15625 137.3125 C 288.253906 136.773438 288.433594 134.96875 288.433594 134.96875 C 288.976562 135.328125 290.242188 135.507812 290.964844 136.050781 Z M 290.964844 136.050781 " fill-opacity="1" fill-rule="nonzero"/></g></g><g clip-path="url(#23b28c8edb)"><g clip-path="url(#2ce74f3b13)"><path fill="#666666" d="M 289.515625 133.164062 C 290.242188 133.703125 290.964844 135.6875 290.964844 135.507812 C 290.78125 135.148438 288.613281 134.789062 288.070312 134.246094 C 287.167969 133.703125 287.167969 132.082031 287.167969 132.082031 C 287.710938 132.621094 288.792969 132.621094 289.515625 133.164062 Z M 289.515625 133.164062 " fill-opacity="1" fill-rule="nonzero"/></g></g><g clip-path="url(#9f58a78e66)"><g clip-path="url(#64374bc276)"><path fill="#666666" d="M 288.253906 130.816406 C 288.976562 131.179688 289.699219 132.984375 289.699219 132.804688 C 289.515625 132.441406 287.53125 132.261719 286.988281 131.902344 C 286.265625 131.539062 286.082031 130.097656 286.082031 130.097656 C 286.625 130.277344 287.710938 130.277344 288.253906 130.816406 Z M 288.253906 130.816406 " fill-opacity="1" fill-rule="nonzero"/></g></g><g clip-path="url(#9f65548838)"><g clip-path="url(#269ec59dad)"><path fill="#666666" d="M 286.988281 128.472656 C 287.710938 128.832031 288.253906 130.457031 288.253906 130.277344 C 288.070312 130.097656 286.445312 129.734375 285.722656 129.375 C 285 129.015625 285 127.75 285 127.75 C 285.542969 128.113281 286.445312 128.113281 286.988281 128.472656 Z M 286.988281 128.472656 " fill-opacity="1" fill-rule="nonzero"/></g></g><g clip-path="url(#dac7357af8)"><g clip-path="url(#802cc7f779)"><path fill="#666666" d="M 285.722656 126.308594 C 286.265625 126.667969 286.808594 128.113281 286.808594 127.933594 C 286.625 127.75 285.179688 127.390625 284.636719 127.210938 C 284.097656 126.847656 283.914062 125.765625 283.914062 125.765625 C 284.277344 125.949219 285.179688 125.949219 285.722656 126.308594 Z M 285.722656 126.308594 " fill-opacity="1" fill-rule="nonzero"/></g></g><g clip-path="url(#2c59ae60b1)"><g clip-path="url(#26a9893f6b)"><path fill="#666666" d="M 284.277344 124.324219 C 284.820312 124.683594 285.359375 125.949219 285.359375 125.765625 C 285.179688 125.585938 283.914062 125.40625 283.371094 125.046875 C 282.832031 124.683594 282.832031 123.601562 282.832031 123.601562 C 283.011719 123.960938 283.914062 123.960938 284.277344 124.324219 Z M 284.277344 124.324219 " fill-opacity="1" fill-rule="nonzero"/></g></g><g clip-path="url(#7614ff34db)"><g clip-path="url(#aaa0db8517)"><path fill="#666666" d="M 294.035156 142.363281 C 293.492188 143.445312 294.035156 145.972656 294.035156 145.792969 C 294.035156 145.25 295.84375 143.445312 296.386719 142.542969 C 296.925781 141.460938 295.84375 139.839844 295.84375 139.839844 C 295.660156 140.558594 294.578125 141.460938 294.035156 142.363281 Z M 294.035156 142.363281 " fill-opacity="1" fill-rule="nonzero"/></g></g><g clip-path="url(#8f73a089a9)"><g clip-path="url(#2fe826e52d)"><path fill="#666666" d="M 293.132812 139.117188 C 292.769531 140.199219 293.492188 142.363281 293.3125 142.363281 C 293.3125 141.824219 294.9375 140.019531 295.300781 139.117188 C 295.660156 138.035156 294.578125 136.589844 294.578125 136.589844 C 294.578125 137.132812 293.492188 138.035156 293.132812 139.117188 Z M 293.132812 139.117188 " fill-opacity="1" fill-rule="nonzero"/></g></g><g clip-path="url(#b52d075b8c)"><g clip-path="url(#6b6da9c0d5)"><path fill="#666666" d="M 292.046875 136.050781 C 291.867188 137.132812 292.769531 139.117188 292.589844 139.117188 C 292.589844 138.757812 293.855469 136.773438 294.035156 135.871094 C 294.398438 134.789062 293.132812 133.523438 293.132812 133.523438 C 293.132812 134.066406 292.226562 134.96875 292.046875 136.050781 Z M 292.046875 136.050781 " fill-opacity="1" fill-rule="nonzero"/></g></g><g clip-path="url(#e3dfcc8a13)"><g clip-path="url(#cccbc90d8b)"><path fill="#666666" d="M 290.601562 132.984375 C 290.421875 133.886719 291.324219 135.871094 291.324219 135.871094 C 291.324219 135.507812 292.410156 133.523438 292.589844 132.804688 C 292.769531 131.71875 291.503906 130.636719 291.503906 130.636719 C 291.6875 131.179688 290.78125 132.082031 290.601562 132.984375 Z M 290.601562 132.984375 " fill-opacity="1" fill-rule="nonzero"/></g></g><g clip-path="url(#2adc1fe702)"><g clip-path="url(#dda3db92c1)"><path fill="#666666" d="M 289.335938 130.277344 C 289.15625 131.179688 290.058594 132.984375 290.058594 132.804688 C 290.058594 132.441406 290.964844 130.816406 291.144531 129.917969 C 291.324219 129.015625 290.242188 127.933594 290.242188 127.933594 C 290.242188 128.652344 289.515625 129.554688 289.335938 130.277344 Z M 289.335938 130.277344 " fill-opacity="1" fill-rule="nonzero"/></g></g><g clip-path="url(#4dbdc8962f)"><g clip-path="url(#1cb664c19a)"><path fill="#666666" d="M 287.710938 128.113281 C 287.710938 128.832031 288.613281 130.457031 288.613281 130.277344 C 288.433594 129.917969 289.335938 128.292969 289.335938 127.75 C 289.515625 126.847656 288.433594 126.128906 288.433594 126.128906 C 288.433594 126.667969 287.890625 127.390625 287.710938 128.113281 Z M 287.710938 128.113281 " fill-opacity="1" fill-rule="nonzero"/></g></g><g clip-path="url(#e5d7704b4d)"><g clip-path="url(#322c8e75bd)"><path fill="#666666" d="M 286.265625 125.949219 C 286.265625 126.667969 287.347656 127.933594 287.347656 127.75 C 287.167969 127.390625 287.710938 125.949219 287.710938 125.40625 C 287.710938 124.683594 286.625 123.960938 286.625 123.960938 C 286.625 124.503906 286.265625 125.40625 286.265625 125.949219 Z M 286.265625 125.949219 " fill-opacity="1" fill-rule="nonzero"/></g></g><g clip-path="url(#6321020303)"><g clip-path="url(#5b3aa54ec3)"><path fill="#666666" d="M 284.636719 123.960938 C 284.820312 124.683594 285.722656 125.585938 285.722656 125.585938 C 285.542969 125.40625 285.902344 123.960938 285.902344 123.421875 C 285.902344 122.699219 284.820312 122.339844 284.820312 122.339844 C 284.820312 122.699219 284.636719 123.421875 284.636719 123.960938 Z M 284.636719 123.960938 " fill-opacity="1" fill-rule="nonzero"/></g></g><g clip-path="url(#0b8fc1294a)"><g clip-path="url(#dc2dc8c2bb)"><path fill="#666666" d="M 293.855469 147.054688 C 293.855469 138.574219 288.070312 129.375 285.179688 125.226562 C 284.277344 123.78125 283.554688 123.0625 283.554688 123.0625 C 283.554688 122.878906 283.554688 122.878906 283.554688 122.699219 C 283.734375 122.699219 283.734375 122.699219 283.914062 122.699219 C 283.914062 122.699219 294.214844 135.328125 294.398438 146.875 C 294.398438 147.054688 294.214844 147.054688 294.214844 147.054688 C 293.855469 147.414062 293.855469 147.234375 293.855469 147.054688 Z M 293.855469 147.054688 " fill-opacity="1" fill-rule="nonzero"/></g></g><g clip-path="url(#c4026f02d4)"><g clip-path="url(#73e266e7bc)"><path fill="#666666" d="M 296.023438 140.378906 C 295.84375 140.378906 295.84375 140.378906 296.023438 140.378906 C 296.023438 140.378906 296.023438 139.839844 295.84375 139.296875 C 296.023438 139.839844 296.023438 140.199219 296.023438 140.378906 Z M 296.023438 140.378906 " fill-opacity="1" fill-rule="nonzero"/></g></g><g clip-path="url(#0d941d49ce)"><g clip-path="url(#2814c7353a)"><path fill="#666666" d="M 290.421875 141.824219 C 290.421875 141.824219 290.242188 141.28125 290.242188 140.742188 C 290.242188 141.28125 290.421875 141.824219 290.421875 141.824219 Z M 290.421875 141.824219 " fill-opacity="1" fill-rule="nonzero"/></g></g><g clip-path="url(#e01f469a5a)"><g clip-path="url(#898a1bb3b3)"><path fill="#666666" d="M 294.757812 137.132812 C 294.757812 137.132812 294.757812 136.953125 294.757812 137.132812 C 294.757812 137.132812 294.757812 136.589844 294.398438 136.050781 C 294.9375 136.589844 294.9375 136.953125 294.757812 137.132812 C 294.9375 136.953125 294.757812 137.132812 294.757812 137.132812 Z M 294.757812 137.132812 " fill-opacity="1" fill-rule="nonzero"/></g></g><g clip-path="url(#70894705f0)"><g clip-path="url(#ec58a0f2e4)"><path fill="#666666" d="M 289.699219 138.574219 C 289.699219 138.574219 289.335938 138.214844 289.15625 137.492188 C 289.515625 138.035156 289.699219 138.574219 289.699219 138.574219 C 289.878906 138.574219 289.878906 138.574219 289.699219 138.574219 Z M 289.699219 138.574219 " fill-opacity="1" fill-rule="nonzero"/></g></g><g clip-path="url(#f6cad74390)"><g clip-path="url(#d6c4cb879c)"><path fill="#666666" d="M 293.3125 134.066406 C 293.3125 134.066406 293.132812 133.523438 292.953125 132.984375 C 293.3125 133.523438 293.3125 133.886719 293.3125 134.066406 C 293.3125 133.886719 293.3125 134.066406 293.3125 134.066406 Z M 293.3125 134.066406 " fill-opacity="1" fill-rule="nonzero"/></g></g><g clip-path="url(#c1d4de9afd)"><g clip-path="url(#dda56b935e)"><path fill="#666666" d="M 288.792969 135.6875 C 288.792969 135.6875 288.433594 135.328125 288.253906 134.605469 C 288.613281 135.328125 288.976562 135.6875 288.792969 135.6875 C 288.976562 135.6875 288.976562 135.6875 288.792969 135.6875 C 288.976562 135.6875 288.976562 135.6875 288.792969 135.6875 Z M 288.792969 135.6875 " fill-opacity="1" fill-rule="nonzero"/></g></g><g clip-path="url(#c523f5c3f9)"><g clip-path="url(#be7808c9af)"><path fill="#666666" d="M 291.867188 131 C 291.6875 131 291.6875 131 291.867188 131 C 291.867188 131 291.6875 130.457031 291.324219 129.917969 C 291.6875 130.457031 291.867188 131 291.867188 131 Z M 291.867188 131 " fill-opacity="1" fill-rule="nonzero"/></g></g><g clip-path="url(#91a70bff5c)"><g clip-path="url(#4e9989d223)"><path fill="#666666" d="M 290.421875 128.652344 C 290.421875 128.652344 290.242188 128.113281 289.878906 127.570312 C 290.421875 128.113281 290.421875 128.472656 290.421875 128.652344 Z M 290.421875 128.652344 " fill-opacity="1" fill-rule="nonzero"/></g></g><g clip-path="url(#699af1decc)"><g clip-path="url(#360f26cb87)"><path fill="#666666" d="M 286.625 130.816406 C 286.625 130.816406 286.265625 130.457031 285.902344 129.734375 C 286.445312 130.277344 286.625 130.636719 286.625 130.816406 C 286.625 130.636719 286.625 130.816406 286.625 130.816406 Z M 286.625 130.816406 " fill-opacity="1" fill-rule="nonzero"/></g></g><g clip-path="url(#a80267379e)"><g clip-path="url(#f01ea1c3b8)"><path fill="#666666" d="M 288.613281 126.667969 C 288.613281 126.667969 288.433594 126.308594 287.890625 125.765625 C 288.433594 126.128906 288.613281 126.488281 288.613281 126.667969 C 288.792969 126.667969 288.613281 126.667969 288.613281 126.667969 Z M 288.613281 126.667969 " fill-opacity="1" fill-rule="nonzero"/></g></g><g clip-path="url(#13a5c30500)"><g clip-path="url(#3dee41fe3c)"><path fill="#666666" d="M 286.804688 124.503906 C 286.804688 124.503906 286.625 124.144531 286.265625 123.960938 C 286.625 124.144531 286.804688 124.324219 286.804688 124.503906 Z M 286.804688 124.503906 " fill-opacity="1" fill-rule="nonzero"/></g></g><g clip-path="url(#eed03f30f3)"><g clip-path="url(#6ae93f434f)"><path fill="#666666" d="M 284.277344 126.128906 C 284.277344 126.128906 283.914062 125.949219 283.734375 125.40625 C 284.097656 125.765625 284.277344 125.949219 284.277344 126.128906 Z M 284.277344 126.128906 " fill-opacity="1" fill-rule="nonzero"/></g></g><g clip-path="url(#61d3cc0431)"><g clip-path="url(#bd39db9605)"><path fill="#666666" d="M 285 122.519531 C 285 122.519531 284.820312 122.160156 284.457031 121.976562 C 284.820312 122.160156 285 122.519531 285 122.519531 Z M 285 122.519531 " fill-opacity="1" fill-rule="nonzero"/></g></g><g clip-path="url(#28a0322fba)"><g clip-path="url(#05584a4343)"><path fill="#666666" d="M 283.011719 123.960938 C 283.011719 123.960938 282.648438 123.78125 282.46875 123.242188 C 282.832031 123.78125 283.011719 123.960938 283.011719 123.960938 Z M 283.011719 123.960938 " fill-opacity="1" fill-rule="nonzero"/></g></g><g clip-path="url(#b2530226b2)"><g clip-path="url(#f39530f699)"><path fill="#666666" d="M 285.542969 128.472656 C 285.542969 128.472656 285.179688 128.113281 284.820312 127.570312 C 285.359375 128.113281 285.542969 128.472656 285.542969 128.472656 C 285.722656 128.472656 285.722656 128.472656 285.542969 128.472656 Z M 285.542969 128.472656 " fill-opacity="1" fill-rule="nonzero"/></g></g><g clip-path="url(#4cfbfae8d1)"><g clip-path="url(#bfc1fe1eeb)"><path fill="#666666" d="M 287.710938 133.164062 C 287.710938 133.164062 287.347656 132.804688 287.167969 132.082031 C 287.53125 132.804688 287.710938 133.164062 287.710938 133.164062 Z M 287.710938 133.164062 " fill-opacity="1" fill-rule="nonzero"/></g></g><g clip-path="url(#eee06f1bc3)"><g clip-path="url(#a57e163cc0)"><path fill="#666666" d="M 288.433594 145.25 C 289.335938 145.792969 290.058594 147.957031 289.878906 147.777344 C 289.699219 147.414062 287.347656 146.875 286.625 146.511719 C 285.722656 145.972656 285.722656 144.167969 285.722656 144.167969 C 286.445312 144.710938 287.710938 144.710938 288.433594 145.25 Z M 288.433594 145.25 " fill-opacity="1" fill-rule="nonzero"/></g></g><g clip-path="url(#d4227ab477)"><g clip-path="url(#ccce3f0b56)"><path fill="#666666" d="M 287.347656 142.542969 C 288.253906 143.085938 288.976562 144.890625 288.976562 144.890625 C 288.792969 144.527344 286.625 144.167969 285.902344 143.808594 C 285 143.265625 285 141.644531 285 141.644531 C 285.359375 142.003906 286.445312 142.003906 287.347656 142.542969 Z M 287.347656 142.542969 " fill-opacity="1" fill-rule="nonzero"/></g></g><g clip-path="url(#fc7edb4ed9)"><g clip-path="url(#9c224d2950)"><path fill="#666666" d="M 285.902344 139.839844 C 286.625 140.199219 287.53125 142.003906 287.53125 142.003906 C 287.347656 141.644531 285.179688 141.460938 284.636719 141.101562 C 283.734375 140.742188 283.554688 139.117188 283.554688 139.117188 C 284.097656 139.476562 285.179688 139.476562 285.902344 139.839844 Z M 285.902344 139.839844 " fill-opacity="1" fill-rule="nonzero"/></g></g><g clip-path="url(#d1e9ca88bb)"><g clip-path="url(#419dc9fe38)"><path fill="#666666" d="M 284.277344 137.671875 C 285 138.035156 285.902344 139.476562 285.902344 139.476562 C 285.722656 139.296875 283.734375 139.117188 283.191406 138.9375 C 282.46875 138.574219 282.109375 137.132812 282.109375 137.132812 C 282.648438 137.492188 283.554688 137.3125 284.277344 137.671875 Z M 284.277344 137.671875 " fill-opacity="1" fill-rule="nonzero"/></g></g><g clip-path="url(#d59059ae25)"><g clip-path="url(#55a557c2ae)"><path fill="#666666" d="M 282.832031 135.6875 C 283.554688 136.050781 284.457031 137.3125 284.277344 137.3125 C 284.097656 137.132812 282.46875 137.132812 281.746094 136.953125 C 281.023438 136.773438 280.84375 135.507812 280.84375 135.507812 C 281.386719 135.507812 282.289062 135.507812 282.832031 135.6875 Z M 282.832031 135.6875 " fill-opacity="1" fill-rule="nonzero"/></g></g><g clip-path="url(#21f31a2666)"><g clip-path="url(#a1e63421da)"><path fill="#666666" d="M 281.566406 133.886719 C 282.109375 134.066406 283.011719 135.328125 282.832031 135.328125 C 282.648438 135.148438 281.203125 135.148438 280.660156 134.96875 C 279.9375 134.789062 279.757812 133.523438 279.757812 133.523438 C 280.121094 133.886719 280.84375 133.703125 281.566406 133.886719 Z M 281.566406 133.886719 " fill-opacity="1" fill-rule="nonzero"/></g></g><g clip-path="url(#0e30211557)"><g clip-path="url(#4e864f95c0)"><path fill="#666666" d="M 280.121094 132.261719 C 280.660156 132.441406 281.386719 133.523438 281.386719 133.523438 C 281.203125 133.34375 279.9375 133.34375 279.398438 133.164062 C 278.855469 132.984375 278.675781 131.902344 278.675781 131.902344 C 278.855469 132.082031 279.578125 132.082031 280.121094 132.261719 Z M 280.121094 132.261719 " fill-opacity="1" fill-rule="nonzero"/></g></g><g clip-path="url(#d82aff433c)"><g clip-path="url(#83961fe4c8)"><path fill="#666666" d="M 278.492188 130.636719 C 279.035156 130.816406 279.578125 131.902344 279.578125 131.71875 C 279.398438 131.539062 278.132812 131.539062 277.769531 131.359375 C 277.226562 131.179688 277.046875 130.277344 277.046875 130.277344 C 277.410156 130.636719 278.132812 130.457031 278.492188 130.636719 Z M 278.492188 130.636719 " fill-opacity="1" fill-rule="nonzero"/></g></g><g clip-path="url(#59a2bc2869)"><g clip-path="url(#6950ab6219)"><path fill="#666666" d="M 289.515625 144.890625 C 289.335938 145.792969 290.058594 147.957031 290.058594 147.777344 C 290.058594 147.414062 291.324219 145.613281 291.6875 144.710938 C 292.046875 143.628906 290.78125 142.363281 290.78125 142.363281 C 290.601562 143.085938 289.699219 143.988281 289.515625 144.890625 Z M 289.515625 144.890625 " fill-opacity="1" fill-rule="nonzero"/></g></g><g clip-path="url(#3b24b82d36)"><g clip-path="url(#232b62feca)"><path fill="#666666" d="M 288.253906 142.183594 C 288.070312 143.085938 288.976562 145.070312 288.976562 144.890625 C 288.976562 144.527344 290.058594 142.726562 290.242188 141.824219 C 290.421875 140.921875 289.335938 139.65625 289.335938 139.65625 C 289.15625 140.378906 288.433594 141.28125 288.253906 142.183594 Z M 288.253906 142.183594 " fill-opacity="1" fill-rule="nonzero"/></g></g><g clip-path="url(#6275cb79d2)"><g clip-path="url(#d24bd6fc7c)"><path fill="#666666" d="M 286.804688 139.65625 C 286.804688 140.558594 287.710938 142.183594 287.710938 142.183594 C 287.53125 141.824219 288.433594 140.019531 288.613281 139.117188 C 288.792969 138.214844 287.53125 137.3125 287.53125 137.3125 C 287.53125 137.855469 286.804688 138.757812 286.804688 139.65625 Z M 286.804688 139.65625 " fill-opacity="1" fill-rule="nonzero"/></g></g><g clip-path="url(#2555f241e6)"><g clip-path="url(#866713149a)"><path fill="#666666" d="M 285.179688 137.3125 C 285.179688 138.214844 286.265625 139.65625 286.265625 139.65625 C 286.082031 139.296875 286.808594 137.492188 286.988281 136.773438 C 286.988281 135.871094 285.722656 134.96875 285.722656 134.96875 C 285.722656 135.507812 285.179688 136.410156 285.179688 137.3125 Z M 285.179688 137.3125 " fill-opacity="1" fill-rule="nonzero"/></g></g><g clip-path="url(#bbc7909d57)"><g clip-path="url(#a02d5aefa0)"><path fill="#666666" d="M 283.734375 135.148438 C 283.734375 135.871094 284.636719 137.3125 284.636719 137.3125 C 284.457031 136.953125 285.179688 135.328125 285.179688 134.789062 C 285.179688 134.066406 284.097656 133.164062 284.097656 133.164062 C 284.277344 133.523438 283.734375 134.425781 283.734375 135.148438 Z M 283.734375 135.148438 " fill-opacity="1" fill-rule="nonzero"/></g></g><g clip-path="url(#b55f900dc4)"><g clip-path="url(#571cd607b6)"><path fill="#666666" d="M 282.109375 133.523438 C 282.109375 134.246094 283.191406 135.328125 283.191406 135.328125 C 283.011719 135.148438 283.554688 133.523438 283.554688 132.984375 C 283.554688 132.261719 282.46875 131.71875 282.46875 131.71875 C 282.46875 132.082031 281.925781 132.984375 282.109375 133.523438 Z M 282.109375 133.523438 " fill-opacity="1" fill-rule="nonzero"/></g></g><g clip-path="url(#6e6bc61e01)"><g clip-path="url(#b8a80d7ae6)"><path fill="#666666" d="M 280.480469 131.902344 C 280.660156 132.441406 281.566406 133.523438 281.566406 133.34375 C 281.386719 133.164062 281.566406 131.71875 281.566406 131.179688 C 281.386719 130.457031 280.480469 130.097656 280.480469 130.097656 C 280.480469 130.636719 280.300781 131.359375 280.480469 131.902344 Z M 280.480469 131.902344 " fill-opacity="1" fill-rule="nonzero"/></g></g><g clip-path="url(#0bf3d91b3e)"><g clip-path="url(#a5933ee895)"><path fill="#666666" d="M 278.855469 130.457031 C 279.035156 131 280.121094 131.71875 279.9375 131.71875 C 279.757812 131.539062 279.9375 130.277344 279.757812 129.734375 C 279.578125 129.195312 278.675781 129.015625 278.675781 129.015625 C 278.675781 129.195312 278.675781 129.917969 278.855469 130.457031 Z M 278.855469 130.457031 " fill-opacity="1" fill-rule="nonzero"/></g></g><g clip-path="url(#a96e7f5fbf)"><g clip-path="url(#aa6fa3f467)"><path fill="#666666" d="M 289.878906 149.039062 C 288.613281 141.644531 282.289062 134.605469 279.214844 131.539062 C 278.132812 130.457031 277.589844 129.917969 277.589844 129.917969 C 277.589844 129.917969 277.410156 129.734375 277.589844 129.554688 C 277.589844 129.554688 277.769531 129.375 277.953125 129.554688 C 277.953125 129.554688 288.613281 138.9375 290.421875 149.039062 C 290.421875 149.21875 290.421875 149.21875 290.242188 149.21875 C 290.058594 149.21875 289.878906 149.21875 289.878906 149.039062 Z M 289.878906 149.039062 " fill-opacity="1" fill-rule="nonzero"/></g></g><g clip-path="url(#854e836b5e)"><g clip-path="url(#ef1da130b1)"><path fill="#666666" d="M 290.78125 142.90625 C 290.78125 142.90625 290.78125 142.363281 290.421875 142.003906 C 290.78125 142.363281 290.964844 142.726562 290.78125 142.90625 C 290.964844 142.90625 290.78125 142.90625 290.78125 142.90625 Z M 290.78125 142.90625 " fill-opacity="1" fill-rule="nonzero"/></g></g><g clip-path="url(#b52e01f771)"><g clip-path="url(#b44d76b073)"><path fill="#666666" d="M 286.265625 145.070312 C 286.265625 145.070312 286.082031 144.710938 285.902344 144.167969 C 286.082031 144.527344 286.265625 144.890625 286.265625 145.070312 C 286.265625 144.890625 286.265625 144.890625 286.265625 145.070312 Z M 286.265625 145.070312 " fill-opacity="1" fill-rule="nonzero"/></g></g><g clip-path="url(#1b23fe6a19)"><g clip-path="url(#8cd7893c76)"><path fill="#666666" d="M 289.335938 140.199219 C 289.335938 140.199219 289.15625 139.839844 288.976562 139.296875 C 289.335938 139.65625 289.515625 140.199219 289.335938 140.199219 C 289.515625 140.199219 289.335938 140.199219 289.335938 140.199219 Z M 289.335938 140.199219 " fill-opacity="1" fill-rule="nonzero"/></g></g><g clip-path="url(#f723bbef77)"><g clip-path="url(#8dbe76ed93)"><path fill="#666666" d="M 285.179688 142.183594 C 285.179688 142.183594 284.820312 141.824219 284.636719 141.28125 C 285 141.824219 285.179688 142.183594 285.179688 142.183594 C 285.359375 142.183594 285.359375 142.183594 285.179688 142.183594 Z M 285.179688 142.183594 " fill-opacity="1" fill-rule="nonzero"/></g></g><g clip-path="url(#0e6d479d50)"><g clip-path="url(#fdcd49ff5d)"><path fill="#666666" d="M 287.710938 137.855469 C 287.53125 137.855469 287.53125 137.855469 287.710938 137.855469 C 287.710938 137.855469 287.53125 137.492188 287.167969 136.953125 C 287.53125 137.3125 287.710938 137.671875 287.710938 137.855469 C 287.710938 137.671875 287.710938 137.855469 287.710938 137.855469 Z M 287.710938 137.855469 " fill-opacity="1" fill-rule="nonzero"/></g></g><g clip-path="url(#596c2f53b7)"><g clip-path="url(#154b8704f3)"><path fill="#666666" d="M 284.097656 139.839844 C 284.097656 139.839844 283.734375 139.476562 283.371094 139.117188 C 283.734375 139.476562 284.097656 139.839844 284.097656 139.839844 Z M 284.097656 139.839844 " fill-opacity="1" fill-rule="nonzero"/></g></g><g clip-path="url(#176be95675)"><g clip-path="url(#b94f2109fe)"><path fill="#666666" d="M 285.902344 135.507812 C 285.902344 135.507812 285.722656 135.148438 285.359375 134.605469 C 285.722656 134.96875 285.902344 135.328125 285.902344 135.507812 Z M 285.902344 135.507812 " fill-opacity="1" fill-rule="nonzero"/></g></g><g clip-path="url(#186c81db41)"><g clip-path="url(#34cbe4bc5e)"><path fill="#666666" d="M 284.457031 133.523438 C 284.457031 133.523438 284.277344 133.523438 284.457031 133.523438 C 284.457031 133.523438 284.277344 133.164062 283.914062 132.621094 C 284.277344 133.164062 284.457031 133.523438 284.457031 133.523438 Z M 284.457031 133.523438 " fill-opacity="1" fill-rule="nonzero"/></g></g><g clip-path="url(#63da05b0ec)"><g clip-path="url(#b2cae4dbe2)"><path fill="#666666" d="M 281.386719 135.871094 C 281.386719 135.871094 281.023438 135.507812 280.660156 135.148438 C 281.203125 135.6875 281.386719 135.871094 281.386719 135.871094 C 281.566406 135.871094 281.566406 135.871094 281.386719 135.871094 Z M 281.386719 135.871094 " fill-opacity="1" fill-rule="nonzero"/></g></g><g clip-path="url(#88baf43453)"><g clip-path="url(#9f38e1bb9d)"><path fill="#666666" d="M 282.648438 132.082031 C 282.648438 132.082031 282.46875 131.71875 281.925781 131.359375 C 282.46875 131.71875 282.648438 132.082031 282.648438 132.082031 Z M 282.648438 132.082031 " fill-opacity="1" fill-rule="nonzero"/></g></g><g clip-path="url(#b75408df43)"><g clip-path="url(#aadccd114b)"><path fill="#666666" d="M 280.660156 130.457031 C 280.660156 130.457031 280.480469 130.277344 280.121094 130.097656 C 280.480469 130.277344 280.660156 130.457031 280.660156 130.457031 Z M 280.660156 130.457031 " fill-opacity="1" fill-rule="nonzero"/></g></g><g clip-path="url(#eeab4d3365)"><g clip-path="url(#07f1450b8b)"><path fill="#666666" d="M 278.675781 132.261719 C 278.675781 132.261719 278.492188 132.082031 278.132812 131.71875 C 278.492188 132.082031 278.855469 132.261719 278.675781 132.261719 C 278.855469 132.261719 278.855469 132.261719 278.675781 132.261719 C 278.855469 132.261719 278.855469 132.261719 278.675781 132.261719 Z M 278.675781 132.261719 " fill-opacity="1" fill-rule="nonzero"/></g></g><g clip-path="url(#51f02dbc31)"><g clip-path="url(#704208954d)"><path fill="#666666" d="M 278.855469 129.195312 C 278.855469 129.195312 278.675781 129.015625 278.3125 128.832031 C 278.675781 128.832031 278.855469 129.015625 278.855469 129.195312 C 278.855469 129.015625 278.855469 129.195312 278.855469 129.195312 Z M 278.855469 129.195312 " fill-opacity="1" fill-rule="nonzero"/></g></g><g clip-path="url(#17f6afdccf)"><g clip-path="url(#e64b616c64)"><path fill="#666666" d="M 277.410156 130.636719 C 277.410156 130.636719 277.046875 130.457031 276.867188 130.097656 C 277.226562 130.457031 277.410156 130.636719 277.410156 130.636719 Z M 277.410156 130.636719 " fill-opacity="1" fill-rule="nonzero"/></g></g><g clip-path="url(#a1f457db1a)"><g clip-path="url(#07b8f76c84)"><path fill="#666666" d="M 280.300781 134.246094 C 280.121094 134.246094 280.121094 134.246094 280.300781 134.246094 C 280.300781 134.246094 279.9375 134.066406 279.578125 133.523438 C 279.9375 133.886719 280.300781 134.066406 280.300781 134.246094 C 280.300781 134.066406 280.300781 134.066406 280.300781 134.246094 Z M 280.300781 134.246094 " fill-opacity="1" fill-rule="nonzero"/></g></g><g clip-path="url(#83d4d4adef)"><g clip-path="url(#06aed61a0f)"><path fill="#666666" d="M 282.648438 137.855469 C 282.648438 137.855469 282.289062 137.492188 281.925781 137.132812 C 282.46875 137.492188 282.648438 137.855469 282.648438 137.855469 C 282.832031 137.855469 282.832031 137.855469 282.648438 137.855469 Z M 282.648438 137.855469 " fill-opacity="1" fill-rule="nonzero"/></g></g></svg>