<svg xmlns="http://www.w3.org/2000/svg" xmlns:xlink="http://www.w3.org/1999/xlink" width="400" zoomAndPan="magnify" viewBox="0 0 300 299.999988" height="400" preserveAspectRatio="xMidYMid meet" version="1.0"><defs><clipPath id="7726f69efc"><path d="M 30 30 L 270 30 L 270 270 L 30 270 Z M 30 30 " clip-rule="nonzero"/></clipPath><clipPath id="89aaed215d"><path d="M 30 45 L 30 255 C 30 263.285156 36.714844 270 45 270 L 255 270 C 263.285156 270 270 263.285156 270 255 L 270 45 C 270 36.714844 263.285156 30 255 30 L 45 30 C 36.714844 30 30 36.714844 30 45 Z M 30 45 " clip-rule="nonzero"/></clipPath><clipPath id="c0d25bc225"><path d="M 100 89 L 120 89 L 120 113 L 100 113 Z M 100 89 " clip-rule="nonzero"/></clipPath><clipPath id="c10e661fa6"><path d="M 30 45 L 30 255 C 30 263.285156 36.714844 270 45 270 L 255 270 C 263.285156 270 270 263.285156 270 255 L 270 45 C 270 36.714844 263.285156 30 255 30 L 45 30 C 36.714844 30 30 36.714844 30 45 Z M 30 45 " clip-rule="nonzero"/></clipPath><clipPath id="61f561bd27"><path d="M 119 87 L 200 87 L 200 113 L 119 113 Z M 119 87 " clip-rule="nonzero"/></clipPath><clipPath id="dbf685fb32"><path d="M 30 45 L 30 255 C 30 263.285156 36.714844 270 45 270 L 255 270 C 263.285156 270 270 263.285156 270 255 L 270 45 C 270 36.714844 263.285156 30 255 30 L 45 30 C 36.714844 30 30 36.714844 30 45 Z M 30 45 " clip-rule="nonzero"/></clipPath><clipPath id="b17d6564ab"><path d="M 83 117 L 128 117 L 128 177 L 83 177 Z M 83 117 " clip-rule="nonzero"/></clipPath><clipPath id="6a58561fd5"><path d="M 30 45 L 30 255 C 30 263.285156 36.714844 270 45 270 L 255 270 C 263.285156 270 270 263.285156 270 255 L 270 45 C 270 36.714844 263.285156 30 255 30 L 45 30 C 36.714844 30 30 36.714844 30 45 Z M 30 45 " clip-rule="nonzero"/></clipPath><clipPath id="a6fb91ac70"><path d="M 122 117 L 179 117 L 179 177 L 122 177 Z M 122 117 " clip-rule="nonzero"/></clipPath><clipPath id="f81836566b"><path d="M 30 45 L 30 255 C 30 263.285156 36.714844 270 45 270 L 255 270 C 263.285156 270 270 263.285156 270 255 L 270 45 C 270 36.714844 263.285156 30 255 30 L 45 30 C 36.714844 30 30 36.714844 30 45 Z M 30 45 " clip-rule="nonzero"/></clipPath><clipPath id="c0075c917e"><path d="M 166 116 L 228 116 L 228 179 L 166 179 Z M 166 116 " clip-rule="nonzero"/></clipPath><clipPath id="6a00a77ba4"><path d="M 30 45 L 30 255 C 30 263.285156 36.714844 270 45 270 L 255 270 C 263.285156 270 270 263.285156 270 255 L 270 45 C 270 36.714844 263.285156 30 255 30 L 45 30 C 36.714844 30 30 36.714844 30 45 Z M 30 45 " clip-rule="nonzero"/></clipPath><clipPath id="96466be831"><path d="M 81 117 L 126 117 L 126 177 L 81 177 Z M 81 117 " clip-rule="nonzero"/></clipPath><clipPath id="1e30eae949"><path d="M 30 45 L 30 255 C 30 263.285156 36.714844 270 45 270 L 255 270 C 263.285156 270 270 263.285156 270 255 L 270 45 C 270 36.714844 263.285156 30 255 30 L 45 30 C 36.714844 30 30 36.714844 30 45 Z M 30 45 " clip-rule="nonzero"/></clipPath><clipPath id="82cb882f8f"><path d="M 121 117 L 178 117 L 178 177 L 121 177 Z M 121 117 " clip-rule="nonzero"/></clipPath><clipPath id="926518c817"><path d="M 30 45 L 30 255 C 30 263.285156 36.714844 270 45 270 L 255 270 C 263.285156 270 270 263.285156 270 255 L 270 45 C 270 36.714844 263.285156 30 255 30 L 45 30 C 36.714844 30 30 36.714844 30 45 Z M 30 45 " clip-rule="nonzero"/></clipPath><clipPath id="17a5d02490"><path d="M 165 116 L 226 116 L 226 178 L 165 178 Z M 165 116 " clip-rule="nonzero"/></clipPath><clipPath id="52a35ffa2a"><path d="M 30 45 L 30 255 C 30 263.285156 36.714844 270 45 270 L 255 270 C 263.285156 270 270 263.285156 270 255 L 270 45 C 270 36.714844 263.285156 30 255 30 L 45 30 C 36.714844 30 30 36.714844 30 45 Z M 30 45 " clip-rule="nonzero"/></clipPath><clipPath id="483ebdd026"><path d="M 67 180 L 112 180 L 112 240 L 67 240 Z M 67 180 " clip-rule="nonzero"/></clipPath><clipPath id="b4412a0d04"><path d="M 30 45 L 30 255 C 30 263.285156 36.714844 270 45 270 L 255 270 C 263.285156 270 270 263.285156 270 255 L 270 45 C 270 36.714844 263.285156 30 255 30 L 45 30 C 36.714844 30 30 36.714844 30 45 Z M 30 45 " clip-rule="nonzero"/></clipPath><clipPath id="83a3695658"><path d="M 106 180 L 150 180 L 150 240 L 106 240 Z M 106 180 " clip-rule="nonzero"/></clipPath><clipPath id="2d4ca7755e"><path d="M 30 45 L 30 255 C 30 263.285156 36.714844 270 45 270 L 255 270 C 263.285156 270 270 263.285156 270 255 L 270 45 C 270 36.714844 263.285156 30 255 30 L 45 30 C 36.714844 30 30 36.714844 30 45 Z M 30 45 " clip-rule="nonzero"/></clipPath><clipPath id="efdcee5ce9"><path d="M 120 178 L 179 178 L 179 240 L 120 240 Z M 120 178 " clip-rule="nonzero"/></clipPath><clipPath id="ff76e2cde0"><path d="M 30 45 L 30 255 C 30 263.285156 36.714844 270 45 270 L 255 270 C 263.285156 270 270 263.285156 270 255 L 270 45 C 270 36.714844 263.285156 30 255 30 L 45 30 C 36.714844 30 30 36.714844 30 45 Z M 30 45 " clip-rule="nonzero"/></clipPath><clipPath id="b7270a0bf0"><path d="M 167 180 L 235 180 L 235 243 L 167 243 Z M 167 180 " clip-rule="nonzero"/></clipPath><clipPath id="65b85fe2ea"><path d="M 30 45 L 30 255 C 30 263.285156 36.714844 270 45 270 L 255 270 C 263.285156 270 270 263.285156 270 255 L 270 45 C 270 36.714844 263.285156 30 255 30 L 45 30 C 36.714844 30 30 36.714844 30 45 Z M 30 45 " clip-rule="nonzero"/></clipPath><clipPath id="927cb69646"><path d="M 66 180 L 111 180 L 111 240 L 66 240 Z M 66 180 " clip-rule="nonzero"/></clipPath><clipPath id="f91b8f2b5e"><path d="M 30 45 L 30 255 C 30 263.285156 36.714844 270 45 270 L 255 270 C 263.285156 270 270 263.285156 270 255 L 270 45 C 270 36.714844 263.285156 30 255 30 L 45 30 C 36.714844 30 30 36.714844 30 45 Z M 30 45 " clip-rule="nonzero"/></clipPath><clipPath id="f901b3a3e9"><path d="M 105 180 L 149 180 L 149 240 L 105 240 Z M 105 180 " clip-rule="nonzero"/></clipPath><clipPath id="7f4ee69098"><path d="M 30 45 L 30 255 C 30 263.285156 36.714844 270 45 270 L 255 270 C 263.285156 270 270 263.285156 270 255 L 270 45 C 270 36.714844 263.285156 30 255 30 L 45 30 C 36.714844 30 30 36.714844 30 45 Z M 30 45 " clip-rule="nonzero"/></clipPath><clipPath id="45c95b75ca"><path d="M 118 177 L 178 177 L 178 240 L 118 240 Z M 118 177 " clip-rule="nonzero"/></clipPath><clipPath id="e3a4220f17"><path d="M 30 45 L 30 255 C 30 263.285156 36.714844 270 45 270 L 255 270 C 263.285156 270 270 263.285156 270 255 L 270 45 C 270 36.714844 263.285156 30 255 30 L 45 30 C 36.714844 30 30 36.714844 30 45 Z M 30 45 " clip-rule="nonzero"/></clipPath><clipPath id="caa3df3994"><path d="M 65 57 L 234 57 L 234 243 L 65 243 Z M 65 57 " clip-rule="nonzero"/></clipPath><clipPath id="91a5b109f5"><path d="M 30 45 L 30 255 C 30 263.285156 36.714844 270 45 270 L 255 270 C 263.285156 270 270 263.285156 270 255 L 270 45 C 270 36.714844 263.285156 30 255 30 L 45 30 C 36.714844 30 30 36.714844 30 45 Z M 30 45 " clip-rule="nonzero"/></clipPath><clipPath id="da6a036e55"><path d="M 67 60 L 88 60 L 88 87 L 67 87 Z M 67 60 " clip-rule="nonzero"/></clipPath><clipPath id="e97296708c"><path d="M 30 45 L 30 255 C 30 263.285156 36.714844 270 45 270 L 255 270 C 263.285156 270 270 263.285156 270 255 L 270 45 C 270 36.714844 263.285156 30 255 30 L 45 30 C 36.714844 30 30 36.714844 30 45 Z M 30 45 " clip-rule="nonzero"/></clipPath><clipPath id="12ea9ed22a"><path d="M 66 58 L 89 58 L 89 88 L 66 88 Z M 66 58 " clip-rule="nonzero"/></clipPath><clipPath id="a1029c1fb0"><path d="M 30 45 L 30 255 C 30 263.285156 36.714844 270 45 270 L 255 270 C 263.285156 270 270 263.285156 270 255 L 270 45 C 270 36.714844 263.285156 30 255 30 L 45 30 C 36.714844 30 30 36.714844 30 45 Z M 30 45 " clip-rule="nonzero"/></clipPath></defs><g clip-path="url(#7726f69efc)"><g clip-path="url(#89aaed215d)"><path fill="#000000" d="M 30 30 L 270 30 L 270 270 L 30 270 Z M 30 30 " fill-opacity="1" fill-rule="evenodd"/></g></g><g clip-path="url(#c0d25bc225)"><g clip-path="url(#c10e661fa6)"><path fill="#ffffff" d="M 103.621094 94.25 C 103.621094 92.050781 103.839844 91.007812 101.835938 90.636719 C 101.429688 90.558594 100.835938 90.597656 100.835938 89.964844 C 100.835938 89.367188 101.148438 89.183594 101.585938 89.183594 C 102.902344 89.183594 104.277344 89.332031 105.589844 89.332031 C 107.84375 89.332031 110.097656 89.183594 112.316406 89.183594 C 113.945312 89.183594 115.632812 89.292969 117.042969 90.410156 C 118.636719 91.605469 119.480469 93.464844 119.480469 95.699219 C 119.480469 97.488281 118.824219 99.3125 117.824219 100.65625 C 116.632812 102.21875 115.039062 102.890625 113.285156 102.890625 C 112.347656 102.890625 111.753906 102.703125 110.875 102.40625 C 110.53125 102.253906 109.5 101.882812 109.15625 101.882812 C 108.59375 101.882812 108.78125 102.40625 108.78125 102.890625 L 108.78125 107.507812 C 108.78125 109.707031 108.652344 110.601562 110.625 110.972656 C 111.03125 111.046875 111.625 111.160156 111.625 111.832031 C 111.625 112.386719 111.28125 112.539062 110.875 112.539062 C 109.246094 112.539062 107.683594 112.386719 106.058594 112.386719 C 104.554688 112.386719 103.054688 112.539062 101.554688 112.539062 C 101.113281 112.539062 100.800781 112.386719 100.800781 111.832031 C 100.800781 111.234375 101.273438 111.046875 101.648438 110.972656 C 103.710938 110.5625 103.617188 109.929688 103.617188 107.507812 L 103.617188 94.25 Z M 108.78125 98.90625 C 108.78125 99.351562 108.753906 100.058594 108.96875 100.246094 C 109.375 100.621094 110.15625 100.769531 110.691406 100.769531 C 113.164062 100.769531 114.226562 98.269531 114.226562 95.625 C 114.226562 93.167969 112.816406 90.636719 110.535156 90.636719 C 109.785156 90.636719 109.09375 90.894531 108.90625 91.753906 C 108.6875 92.757812 108.78125 93.914062 108.78125 94.957031 Z M 108.78125 98.90625 " fill-opacity="1" fill-rule="evenodd"/></g></g><g clip-path="url(#61f561bd27)"><g clip-path="url(#dbf685fb32)"><path fill="#ffffff" d="M 136.09375 108.515625 C 136.0625 109.484375 136.625 109.707031 137.5 109.820312 C 137.8125 109.855469 138.09375 109.96875 138.09375 110.414062 C 138.09375 111.050781 137.03125 111.234375 136.65625 111.308594 L 133.402344 112.425781 C 133.09375 112.539062 132.433594 112.875 132.089844 112.875 C 131.527344 112.875 131.714844 111.90625 131.714844 111.496094 C 131.714844 111.273438 131.839844 110.15625 131.433594 110.15625 C 131.246094 110.15625 130.964844 110.414062 130.839844 110.527344 C 129.429688 111.753906 128.023438 112.722656 126.238281 112.722656 C 124.988281 112.722656 123.519531 112.128906 122.703125 110.9375 C 121.828125 109.632812 121.703125 107.917969 121.703125 106.316406 L 121.703125 100.355469 C 121.703125 99.6875 121.765625 98.195312 121.421875 97.5625 C 121.078125 96.929688 120.453125 96.890625 119.859375 96.742188 C 119.515625 96.667969 119.136719 96.480469 119.136719 95.960938 C 119.136719 95.328125 119.667969 95.363281 120.078125 95.363281 C 121.046875 95.363281 121.984375 95.4375 122.957031 95.4375 C 123.925781 95.4375 124.863281 95.363281 125.832031 95.363281 C 126.242188 95.363281 126.335938 95.4375 126.335938 95.960938 L 126.335938 105.980469 C 126.335938 106.835938 126.429688 108.140625 126.800781 108.886719 C 126.976562 109.234375 127.230469 109.515625 127.5625 109.722656 C 127.894531 109.929688 128.257812 110.035156 128.648438 110.042969 C 129.460938 110.042969 130.433594 109.445312 130.996094 108.773438 C 131.558594 108.101562 131.464844 107.394531 131.464844 106.5 L 131.464844 100.390625 C 131.464844 99.683594 131.558594 98.195312 131.214844 97.558594 C 130.871094 96.964844 130.242188 96.851562 129.648438 96.742188 C 129.304688 96.667969 128.929688 96.480469 128.929688 95.996094 C 128.929688 95.324219 129.460938 95.363281 129.867188 95.363281 C 130.839844 95.363281 131.808594 95.4375 132.777344 95.4375 C 133.746094 95.4375 134.714844 95.363281 135.6875 95.363281 C 136.25 95.363281 136.09375 96.109375 136.09375 96.628906 Z M 145.761719 97.785156 C 146.292969 97.785156 147.609375 94.957031 150.175781 94.957031 C 151.488281 94.957031 152.832031 96.109375 152.832031 97.785156 C 152.832031 99.460938 151.644531 100.804688 150.238281 100.804688 C 148.234375 100.804688 148.015625 98.644531 147.078125 98.644531 C 145.515625 98.644531 145.765625 102.515625 145.765625 103.671875 L 145.765625 107.359375 C 145.765625 108.21875 145.671875 109.558594 145.890625 110.339844 C 146.046875 110.898438 147.015625 110.859375 147.578125 110.972656 C 147.921875 111.046875 148.332031 111.269531 148.332031 111.753906 C 148.332031 112.386719 147.765625 112.460938 147.359375 112.460938 C 146.046875 112.460938 144.730469 112.386719 143.417969 112.386719 C 142.105469 112.386719 140.851562 112.460938 139.539062 112.460938 C 139.132812 112.460938 138.601562 112.386719 138.601562 111.753906 C 138.601562 111.269531 138.976562 111.046875 139.351562 110.972656 C 139.789062 110.898438 140.761719 110.859375 140.914062 110.339844 C 141.136719 109.558594 141.136719 108.214844 141.136719 107.359375 L 141.136719 101.882812 C 141.136719 100.320312 141.230469 99.464844 139.757812 99.238281 C 139.320312 99.203125 138.820312 99.238281 138.820312 98.605469 C 138.820312 97.933594 139.824219 97.824219 140.167969 97.710938 C 141.511719 97.300781 143.230469 96.40625 144.203125 95.179688 C 144.390625 94.917969 144.671875 94.507812 145.328125 94.507812 C 145.828125 94.507812 145.765625 95.476562 145.765625 95.847656 L 145.765625 97.785156 Z M 160.3125 107.359375 C 160.3125 108.21875 160.21875 109.558594 160.4375 110.339844 C 160.59375 110.898438 161.566406 110.859375 162.128906 110.972656 C 162.472656 111.046875 162.878906 111.269531 162.878906 111.753906 C 162.878906 112.386719 162.316406 112.460938 161.910156 112.460938 C 160.59375 112.460938 159.28125 112.386719 157.96875 112.386719 C 156.652344 112.386719 155.402344 112.460938 154.089844 112.460938 C 153.683594 112.460938 153.148438 112.386719 153.148438 111.753906 C 153.148438 111.269531 153.527344 111.046875 153.902344 110.972656 C 154.339844 110.898438 155.308594 110.859375 155.464844 110.339844 C 155.683594 109.558594 155.683594 108.214844 155.683594 107.359375 L 155.683594 101.882812 C 155.683594 100.320312 155.777344 99.464844 154.308594 99.238281 C 153.867188 99.203125 153.367188 99.238281 153.367188 98.605469 C 153.367188 97.933594 154.371094 97.824219 154.714844 97.710938 C 156.058594 97.300781 157.78125 96.40625 158.75 95.179688 C 158.9375 94.917969 159.21875 94.507812 159.875 94.507812 C 160.375 94.507812 160.3125 95.476562 160.3125 95.847656 Z M 155.183594 90.375 C 155.175781 90 155.238281 89.636719 155.375 89.285156 C 155.511719 88.933594 155.710938 88.625 155.972656 88.355469 C 156.234375 88.085938 156.539062 87.878906 156.882812 87.730469 C 157.230469 87.582031 157.589844 87.507812 157.96875 87.507812 C 159.375 87.507812 160.71875 88.511719 160.71875 90.335938 C 160.71875 92.234375 159.402344 93.390625 157.902344 93.390625 C 156.402344 93.390625 155.183594 92.234375 155.183594 90.375 Z M 170.382812 97.488281 C 170.886719 97.488281 172.449219 94.957031 175.515625 94.957031 C 176.925781 94.957031 178.328125 95.402344 179.457031 96.484375 C 180.769531 97.75 180.738281 99.3125 180.738281 101.136719 L 180.738281 107.359375 C 180.738281 108.253906 180.613281 109.632812 181.050781 110.339844 C 181.363281 110.824219 182.050781 110.859375 182.523438 110.972656 C 182.867188 111.046875 183.273438 111.269531 183.273438 111.792969 C 183.273438 112.425781 182.710938 112.460938 182.304688 112.460938 C 181.179688 112.460938 180.113281 112.386719 178.988281 112.386719 C 177.550781 112.386719 176.109375 112.460938 174.671875 112.460938 C 174.328125 112.460938 173.949219 112.351562 173.949219 111.792969 C 173.949219 111.308594 174.234375 111.085938 174.578125 110.972656 C 175.046875 110.824219 175.578125 110.714844 175.890625 110.152344 C 176.207031 109.59375 176.109375 108.066406 176.109375 107.359375 L 176.109375 101.882812 C 176.109375 100.914062 176.019531 99.5 175.578125 98.640625 C 175.140625 97.785156 174.296875 97.300781 173.453125 97.300781 C 172.636719 97.300781 171.730469 97.75 171.105469 98.382812 C 170.257812 99.238281 170.386719 100.019531 170.386719 101.289062 L 170.386719 107.359375 C 170.386719 108.066406 170.292969 109.59375 170.605469 110.152344 C 170.917969 110.710938 171.449219 110.824219 171.917969 110.972656 C 172.261719 111.085938 172.546875 111.308594 172.546875 111.792969 C 172.546875 112.351562 172.167969 112.460938 171.828125 112.460938 C 170.386719 112.460938 168.949219 112.386719 167.507812 112.386719 C 166.382812 112.386719 165.320312 112.460938 164.191406 112.460938 C 163.785156 112.460938 163.222656 112.425781 163.222656 111.792969 C 163.222656 111.269531 163.628906 111.046875 163.976562 110.972656 C 164.445312 110.859375 165.132812 110.824219 165.445312 110.339844 C 165.882812 109.632812 165.757812 108.253906 165.757812 107.359375 L 165.757812 101.882812 C 165.757812 100.320312 165.851562 99.464844 164.382812 99.238281 C 163.945312 99.203125 163.441406 99.238281 163.441406 98.605469 C 163.441406 97.933594 164.445312 97.824219 164.789062 97.710938 C 166.132812 97.300781 167.855469 96.40625 168.824219 95.179688 C 169.011719 94.917969 169.292969 94.507812 169.949219 94.507812 C 170.449219 94.507812 170.386719 95.476562 170.386719 95.847656 L 170.386719 97.488281 Z M 197.230469 107.25 C 197.230469 107.808594 197.074219 109.558594 197.949219 109.558594 C 198.292969 109.558594 198.449219 109.40625 198.730469 109.183594 C 198.917969 109.074219 199.230469 108.738281 199.484375 108.738281 C 199.734375 108.738281 199.890625 109 199.890625 109.257812 C 199.890625 109.78125 199.390625 110.375 199.078125 110.675781 C 198.105469 111.644531 196.949219 112.386719 195.636719 112.386719 C 194.414062 112.386719 193.820312 111.863281 193.320312 110.597656 C 193.257812 110.488281 193.070312 109.742188 192.789062 109.742188 C 192.414062 109.742188 190.472656 112.722656 187.375 112.722656 C 185.53125 112.722656 184.125 111.269531 184.125 109.074219 C 184.125 107.472656 184.71875 106.390625 185.808594 105.460938 C 186.65625 104.714844 188.347656 103.820312 189.410156 103.445312 C 190.503906 103.074219 191.628906 102.40625 192.382812 101.734375 C 192.601562 101.511719 192.726562 101.472656 192.726562 101.363281 L 192.726562 100.132812 C 192.726562 98.863281 192.945312 96.257812 191.320312 96.257812 C 190.191406 96.257812 189.472656 97.488281 189.0625 98.605469 C 188.753906 99.496094 188.5625 100.019531 187.71875 100.429688 C 187.0625 100.839844 185.90625 101.25 185.152344 101.25 C 184.683594 101.25 184.183594 101.023438 184.183594 100.390625 C 184.183594 99.199219 185.5625 97.523438 186.3125 96.925781 C 188 95.511719 190.128906 94.953125 192.160156 94.953125 C 193.441406 94.953125 195.070312 95.214844 196.167969 95.996094 C 197.167969 96.742188 197.230469 97.894531 197.230469 99.125 Z M 192.726562 104.789062 C 192.726562 104.679688 192.785156 103.226562 192.378906 103.226562 C 192.066406 103.226562 190.441406 104.453125 190.128906 104.679688 C 189.21875 105.347656 188.46875 106.167969 188.46875 107.511719 C 188.46875 108.664062 189.09375 109.671875 190.160156 109.671875 C 190.972656 109.671875 192.003906 109.074219 192.410156 108.253906 C 192.597656 107.84375 192.726562 107.210938 192.726562 106.578125 Z M 192.726562 104.789062 " fill-opacity="1" fill-rule="evenodd"/></g></g><g clip-path="url(#b17d6564ab)"><g clip-path="url(#6a58561fd5)"><path fill="#e7c63d" d="M 91.324219 126.25 C 91.324219 122.714844 91.050781 121.476562 87.425781 121.191406 C 84.976562 121 83.160156 121 83.160156 119.566406 C 83.160156 118.421875 83.886719 117.941406 85.066406 117.941406 C 89.238281 117.941406 93.410156 118.324219 97.582031 118.324219 C 101.210938 118.324219 104.925781 117.941406 108.554688 117.941406 C 120.164062 117.941406 127.328125 124.816406 127.328125 133.980469 C 127.328125 140.660156 122.339844 152.785156 109.914062 152.785156 C 104.019531 152.785156 100.03125 149.730469 99.574219 149.730469 C 99.121094 149.730469 99.121094 150.300781 99.121094 151.640625 L 99.121094 170.253906 C 99.121094 172.828125 100.03125 173.308594 100.847656 173.6875 C 104.382812 175.121094 107.921875 174.167969 107.921875 175.695312 C 107.921875 176.648438 106.558594 176.742188 106.109375 176.742188 C 102.84375 176.742188 100.847656 176.359375 95.222656 176.359375 C 89.511719 176.359375 87.695312 176.742188 84.882812 176.742188 C 83.707031 176.742188 83.433594 176.457031 83.433594 175.410156 C 83.433594 174.453125 86.425781 174.550781 88.332031 173.6875 C 91.144531 172.542969 91.324219 169.585938 91.324219 165.765625 Z M 99.125 146.390625 C 99.125 147.820312 99.304688 148.394531 104.65625 148.394531 C 117.808594 148.394531 119.53125 138.65625 119.53125 134.742188 C 119.53125 129.78125 116.71875 121.191406 105.292969 121.191406 C 99.578125 121.191406 99.125 122.8125 99.125 126.058594 Z M 99.125 146.390625 " fill-opacity="1" fill-rule="evenodd"/></g></g><g clip-path="url(#a6fb91ac70)"><g clip-path="url(#f81836566b)"><path fill="#e7c63d" d="M 131.648438 123.765625 C 131.648438 121.761719 129.472656 121.285156 126.207031 120.996094 C 125.210938 120.902344 123.03125 120.808594 123.03125 119.46875 C 123.03125 118.324219 124.210938 117.941406 125.03125 117.941406 C 125.753906 117.941406 132.828125 118.324219 135.550781 118.324219 C 139.628906 118.324219 143.800781 117.941406 147.882812 117.941406 C 155.414062 117.941406 164.570312 120.808594 164.570312 132.644531 C 164.570312 142.378906 154.773438 145.914062 154.773438 147.34375 C 154.773438 147.820312 155.046875 148.203125 155.503906 148.964844 L 166.203125 167.484375 C 167.925781 170.347656 169.742188 172.542969 174.277344 173.6875 C 176.726562 174.261719 178.539062 174.359375 178.539062 175.410156 C 178.539062 175.886719 178.265625 176.265625 177.632812 176.265625 C 173.820312 176.265625 172.277344 176.171875 169.378906 176.171875 C 162.03125 176.171875 161.667969 176.171875 161.214844 175.3125 L 147.882812 150.589844 C 146.976562 148.96875 144.527344 147.726562 142.171875 147.726562 C 139.449219 147.726562 139.449219 148.488281 139.449219 150.300781 L 139.449219 166.816406 C 139.449219 171.589844 139.449219 172.355469 145.796875 173.691406 C 147.429688 174.074219 149.425781 174.167969 149.425781 175.503906 C 149.425781 176.648438 147.429688 176.746094 147.066406 176.746094 C 143.710938 176.746094 140.265625 176.363281 136.910156 176.363281 C 132.738281 176.363281 128.65625 176.746094 124.304688 176.746094 C 123.847656 176.746094 122.761719 176.554688 122.851562 175.503906 C 122.851562 173.882812 125.121094 174.074219 127.296875 173.691406 C 129.472656 173.40625 131.648438 172.640625 131.648438 169.300781 Z M 139.449219 144.097656 C 139.449219 144.957031 140.265625 145.246094 144.527344 145.246094 C 149.789062 145.246094 156.769531 144.480469 156.769531 132.546875 C 156.769531 123.097656 149.878906 120.808594 142.53125 120.808594 C 141.714844 120.808594 139.449219 120.808594 139.449219 123.765625 Z M 139.449219 144.097656 " fill-opacity="1" fill-rule="evenodd"/></g></g><g clip-path="url(#c0075c917e)"><g clip-path="url(#6a00a77ba4)"><path fill="#e7c63d" d="M 196.800781 116.605469 C 218.113281 116.605469 227.183594 133.980469 227.183594 146.960938 C 227.183594 160.519531 218.566406 178.082031 196.347656 178.082031 C 179.476562 178.082031 166.6875 165.578125 166.6875 147.34375 C 166.6875 130.160156 179.476562 116.605469 196.800781 116.605469 Z M 196.800781 175.21875 C 216.753906 175.21875 217.570312 150.300781 217.570312 145.53125 C 217.570312 133.21875 210.859375 119.472656 196.4375 119.472656 C 186.640625 119.472656 176.304688 127.394531 176.304688 147.535156 C 176.304688 169.300781 189.363281 175.21875 196.800781 175.21875 Z M 196.800781 175.21875 " fill-opacity="1" fill-rule="evenodd"/></g></g><g clip-path="url(#96466be831)"><g clip-path="url(#1e30eae949)"><path fill="#ffffff" d="M 89.894531 126.128906 C 89.894531 122.597656 89.625 121.355469 85.996094 121.070312 C 83.546875 120.878906 81.734375 120.878906 81.734375 119.445312 C 81.734375 118.300781 82.457031 117.824219 83.636719 117.824219 C 87.808594 117.824219 91.980469 118.207031 96.152344 118.207031 C 99.78125 118.207031 103.5 117.824219 107.125 117.824219 C 118.734375 117.824219 125.898438 124.695312 125.898438 133.859375 C 125.898438 140.542969 120.910156 152.664062 108.488281 152.664062 C 102.589844 152.664062 98.601562 149.613281 98.148438 149.613281 C 97.695312 149.613281 97.695312 150.183594 97.695312 151.519531 L 97.695312 170.136719 C 97.695312 172.714844 98.601562 173.191406 99.417969 173.570312 C 102.957031 175.003906 106.492188 174.050781 106.492188 175.574219 C 106.492188 176.53125 105.132812 176.625 104.679688 176.625 C 101.414062 176.625 99.417969 176.242188 93.792969 176.242188 C 88.078125 176.242188 86.265625 176.625 83.453125 176.625 C 82.277344 176.625 82.003906 176.339844 82.003906 175.289062 C 82.003906 174.335938 84.996094 174.429688 86.902344 173.570312 C 89.710938 172.425781 89.894531 169.46875 89.894531 165.648438 Z M 97.695312 146.269531 C 97.695312 147.703125 97.878906 148.273438 103.226562 148.273438 C 116.378906 148.273438 118.101562 138.539062 118.101562 134.625 C 118.101562 129.660156 115.289062 121.070312 103.863281 121.070312 C 98.148438 121.070312 97.695312 122.691406 97.695312 125.9375 Z M 97.695312 146.269531 " fill-opacity="1" fill-rule="evenodd"/></g></g><g clip-path="url(#82cb882f8f)"><g clip-path="url(#926518c817)"><path fill="#ffffff" d="M 130.21875 123.644531 C 130.21875 121.640625 128.042969 121.164062 124.777344 120.878906 C 123.78125 120.78125 121.601562 120.6875 121.601562 119.347656 C 121.601562 118.207031 122.78125 117.824219 123.597656 117.824219 C 124.324219 117.824219 131.398438 118.207031 134.117188 118.207031 C 138.199219 118.207031 142.371094 117.824219 146.453125 117.824219 C 153.980469 117.824219 163.140625 120.6875 163.140625 132.523438 C 163.140625 142.261719 153.347656 145.792969 153.347656 147.222656 C 153.347656 147.703125 153.621094 148.082031 154.070312 148.847656 L 164.773438 167.367188 C 166.5 170.230469 168.3125 172.425781 172.84375 173.570312 C 175.292969 174.140625 177.109375 174.238281 177.109375 175.289062 C 177.109375 175.765625 176.835938 176.148438 176.199219 176.148438 C 172.390625 176.148438 170.851562 176.054688 167.945312 176.054688 C 160.601562 176.054688 160.238281 176.054688 159.785156 175.191406 L 146.453125 150.46875 C 145.546875 148.847656 143.097656 147.605469 140.738281 147.605469 C 138.019531 147.605469 138.019531 148.371094 138.019531 150.183594 L 138.019531 166.695312 C 138.019531 171.46875 138.019531 172.234375 144.367188 173.570312 C 146 173.953125 147.996094 174.046875 147.996094 175.386719 C 147.996094 176.53125 146 176.625 145.636719 176.625 C 142.28125 176.625 138.835938 176.242188 135.480469 176.242188 C 131.308594 176.242188 127.226562 176.625 122.875 176.625 C 122.417969 176.625 121.332031 176.433594 121.421875 175.386719 C 121.421875 173.761719 123.6875 173.953125 125.867188 173.570312 C 128.042969 173.285156 130.21875 172.519531 130.21875 169.179688 Z M 138.019531 143.980469 C 138.019531 144.835938 138.835938 145.125 143.101562 145.125 C 148.359375 145.125 155.34375 144.359375 155.34375 132.429688 C 155.34375 122.980469 148.449219 120.6875 141.105469 120.6875 C 140.289062 120.6875 138.019531 120.6875 138.019531 123.648438 Z M 138.019531 143.980469 " fill-opacity="1" fill-rule="evenodd"/></g></g><g clip-path="url(#17a5d02490)"><g clip-path="url(#52a35ffa2a)"><path fill="#ffffff" d="M 195.371094 116.484375 C 216.683594 116.484375 225.753906 133.859375 225.753906 146.839844 C 225.753906 160.398438 217.136719 177.957031 194.914062 177.957031 C 178.046875 177.957031 165.261719 165.453125 165.261719 147.222656 C 165.261719 130.042969 178.046875 116.484375 195.371094 116.484375 Z M 195.371094 175.097656 C 215.324219 175.097656 216.140625 150.183594 216.140625 145.410156 C 216.140625 133.09375 209.425781 119.347656 195.007812 119.347656 C 185.214844 119.347656 174.875 127.273438 174.875 147.414062 C 174.875 169.179688 187.9375 175.097656 195.371094 175.097656 Z M 195.371094 175.097656 " fill-opacity="1" fill-rule="evenodd"/></g></g><g clip-path="url(#483ebdd026)"><g clip-path="url(#b4412a0d04)"><path fill="#e7c63d" d="M 75.792969 188.886719 C 75.792969 185.351562 75.519531 184.113281 71.890625 183.824219 C 69.441406 183.636719 67.628906 183.636719 67.628906 182.203125 C 67.628906 181.058594 68.355469 180.578125 69.53125 180.578125 C 73.707031 180.578125 77.878906 180.960938 82.046875 180.960938 C 85.675781 180.960938 89.394531 180.578125 93.023438 180.578125 C 104.632812 180.578125 111.796875 187.453125 111.796875 196.617188 C 111.796875 203.300781 106.808594 215.421875 94.382812 215.421875 C 88.488281 215.421875 84.496094 212.367188 84.042969 212.367188 C 83.589844 212.367188 83.589844 212.941406 83.589844 214.277344 L 83.589844 232.890625 C 83.589844 235.46875 84.496094 235.945312 85.3125 236.328125 C 88.851562 237.757812 92.386719 236.804688 92.386719 238.332031 C 92.386719 239.285156 91.027344 239.382812 90.574219 239.382812 C 87.308594 239.382812 85.3125 239 79.6875 239 C 73.976562 239 72.164062 239.382812 69.351562 239.382812 C 68.171875 239.382812 67.898438 239.097656 67.898438 238.046875 C 67.898438 237.089844 70.890625 237.1875 72.796875 236.328125 C 75.609375 235.183594 75.789062 232.222656 75.789062 228.40625 L 75.789062 188.886719 Z M 83.589844 209.027344 C 83.589844 210.457031 83.773438 211.03125 89.125 211.03125 C 102.273438 211.03125 103.996094 201.296875 103.996094 197.378906 C 103.996094 192.417969 101.1875 183.824219 89.757812 183.824219 C 84.042969 183.824219 83.589844 185.445312 83.589844 188.691406 Z M 83.589844 209.027344 " fill-opacity="1" fill-rule="evenodd"/></g></g><g clip-path="url(#83a3695658)"><g clip-path="url(#2d4ca7755e)"><path fill="#e7c63d" d="M 116.445312 187.738281 C 116.445312 184.398438 113.996094 183.824219 110.1875 183.636719 C 108.554688 183.539062 106.921875 183.253906 106.921875 182.011719 C 106.921875 180.675781 108.285156 180.578125 109.101562 180.578125 C 112.726562 180.578125 115.902344 180.960938 120.074219 180.960938 C 123.523438 180.960938 126.878906 180.578125 130.324219 180.578125 C 132.046875 180.578125 133.3125 180.769531 133.3125 182.300781 C 133.3125 183.445312 130.957031 183.636719 128.78125 183.636719 C 126.238281 183.636719 124.246094 184.398438 124.246094 189.171875 L 124.246094 232.414062 C 124.246094 235.46875 125.605469 235.753906 127.875 235.753906 C 129.867188 235.753906 134.132812 235.566406 137.941406 234.992188 C 144.378906 234.035156 147.644531 226.210938 148.914062 226.210938 C 149.820312 226.210938 150 227.066406 150 227.832031 C 150 229.167969 149.546875 233.65625 148.640625 237.664062 C 148.277344 239.191406 147.28125 239.382812 146.828125 239.382812 C 142.019531 239.382812 136.304688 239 122.613281 239 C 118.257812 239 113.996094 239.382812 109.644531 239.382812 C 107.464844 239.382812 107.28125 238.808594 107.28125 237.851562 C 107.28125 236.519531 108.371094 236.421875 109.371094 236.324219 C 114.722656 235.847656 116.445312 235.277344 116.445312 229.929688 Z M 116.445312 187.738281 " fill-opacity="1" fill-rule="evenodd"/></g></g><g clip-path="url(#efdcee5ce9)"><g clip-path="url(#ff76e2cde0)"><path fill="#e7c63d" d="M 157.1875 215.992188 C 156.460938 213.609375 156.101562 213.609375 148.664062 213.511719 C 142.496094 213.417969 141.042969 213.800781 140.679688 214.566406 C 138.503906 219.242188 134.242188 232.414062 134.242188 233.464844 C 134.242188 235.375 136.144531 236.136719 136.871094 236.328125 C 139.683594 237.089844 141.496094 237.472656 141.496094 238.238281 C 141.496094 239.382812 140.046875 239.382812 139.410156 239.382812 C 136.960938 239.382812 134.058594 239.003906 131.429688 239.003906 C 127.984375 239.003906 124.445312 239.382812 121.363281 239.382812 C 120.640625 239.382812 120.273438 239.097656 120.273438 238.238281 C 120.273438 236.996094 122.632812 237.1875 124.898438 236.328125 C 126.714844 235.660156 127.167969 234.992188 127.621094 233.941406 L 150.75 178.671875 C 150.929688 178.285156 151.230469 178.09375 151.65625 178.097656 C 152.199219 178.097656 152.652344 178.386719 152.742188 178.769531 L 169.613281 229.453125 C 171.335938 234.707031 173.152344 235.949219 174.332031 236.328125 C 176.777344 237.089844 178.5 236.808594 178.5 238.238281 C 178.5 239.191406 177.773438 239.382812 176.6875 239.382812 C 172.785156 239.382812 169.703125 239.003906 166.167969 239.003906 C 162.8125 239.003906 159.636719 239.382812 156.101562 239.382812 C 155.191406 239.382812 154.828125 238.714844 154.828125 238.332031 C 154.828125 237.1875 156.644531 236.902344 159.910156 236.328125 C 160.453125 236.234375 162.175781 235.46875 162.175781 233.847656 C 162.175781 233.179688 161.8125 232.226562 161.628906 231.460938 Z M 142.585938 207.117188 C 142.40625 207.6875 142.042969 208.261719 142.042969 208.835938 C 142.042969 209.3125 147.847656 209.3125 148.570312 209.3125 C 149.117188 209.3125 154.917969 209.3125 154.917969 208.738281 C 154.917969 208.261719 154.738281 207.785156 154.46875 206.925781 L 149.660156 191.84375 C 149.570312 191.65625 149.476562 191.273438 149.117188 191.273438 C 148.933594 191.273438 148.753906 191.464844 148.664062 191.75 Z M 142.585938 207.117188 " fill-opacity="1" fill-rule="evenodd"/></g></g><g clip-path="url(#b7270a0bf0)"><g clip-path="url(#65b85fe2ea)"><path fill="#e7c63d" d="M 221.984375 186.785156 C 221.984375 184.015625 220.625 184.113281 214.730469 183.636719 C 213.550781 183.539062 211.738281 183.539062 211.738281 182.203125 C 211.738281 180.675781 213.371094 180.578125 214.460938 180.578125 C 217.816406 180.578125 221.261719 180.960938 224.617188 180.960938 C 227.25 180.960938 230.695312 180.578125 232.597656 180.578125 C 233.597656 180.578125 234.683594 180.867188 234.683594 182.105469 C 234.503906 183.351562 233.414062 183.636719 231.601562 183.636719 C 225.886719 183.636719 225.613281 185.355469 225.613281 192.515625 L 225.613281 238.8125 C 225.613281 240.625 225.433594 242.441406 224.074219 242.441406 C 222.894531 242.441406 221.714844 241.101562 220.625 239.769531 L 182.082031 192.707031 C 181.898438 192.515625 181.628906 192.324219 181.355469 192.324219 C 181.082031 192.324219 181.082031 192.800781 181.082031 194.136719 L 181.265625 224.78125 C 181.265625 227.164062 181.445312 228.503906 181.445312 230.507812 C 181.445312 235.664062 183.53125 236.136719 185.707031 236.328125 C 190.152344 236.710938 192.785156 236.613281 192.785156 238.144531 C 192.785156 239.386719 191.96875 239.386719 191.058594 239.386719 C 188.160156 239.386719 184.4375 239.003906 180.539062 239.003906 C 173.011719 239.003906 171.742188 239.386719 168.929688 239.386719 C 168.296875 239.386719 167.296875 239.289062 167.296875 238.335938 C 167.296875 236.996094 167.75 236.902344 173.917969 236.328125 C 175.824219 236.140625 176.546875 235.28125 176.546875 233.753906 L 177.636719 196.046875 C 177.726562 193.851562 177.816406 191.847656 177.816406 191.179688 C 177.816406 184.785156 176.546875 184.496094 173.824219 184.210938 C 168.476562 183.734375 167.386719 183.734375 167.386719 182.300781 C 167.386719 181.25 168.75 180.582031 170.199219 180.582031 C 171.46875 180.582031 173.554688 180.964844 176.546875 180.964844 C 179.179688 180.964844 180.449219 180.582031 181.535156 180.582031 C 183.53125 180.582031 184.4375 182.015625 185.164062 182.875 L 220.71875 226.976562 C 220.898438 227.167969 220.988281 227.453125 221.441406 227.453125 C 222.078125 227.453125 221.984375 226.402344 221.984375 224.875 Z M 221.984375 186.785156 " fill-opacity="1" fill-rule="evenodd"/></g></g><g clip-path="url(#927cb69646)"><g clip-path="url(#f91b8f2b5e)"><path fill="#ffffff" d="M 74.363281 188.765625 C 74.363281 185.234375 74.089844 183.992188 70.460938 183.703125 C 68.011719 183.515625 66.199219 183.515625 66.199219 182.082031 C 66.199219 180.9375 66.925781 180.460938 68.105469 180.460938 C 72.277344 180.460938 76.449219 180.84375 80.621094 180.84375 C 84.246094 180.84375 87.964844 180.460938 91.59375 180.460938 C 103.203125 180.460938 110.367188 187.332031 110.367188 196.5 C 110.367188 203.179688 105.378906 215.304688 92.953125 215.304688 C 87.058594 215.304688 83.070312 212.25 82.613281 212.25 C 82.160156 212.25 82.160156 212.820312 82.160156 214.160156 L 82.160156 232.773438 C 82.160156 235.347656 83.066406 235.824219 83.882812 236.207031 C 87.421875 237.640625 90.957031 236.6875 90.957031 238.214844 C 90.957031 239.167969 89.597656 239.261719 89.144531 239.261719 C 85.878906 239.261719 83.882812 238.878906 78.261719 238.878906 C 72.546875 238.878906 70.734375 239.261719 67.921875 239.261719 C 66.742188 239.261719 66.46875 238.976562 66.46875 237.925781 C 66.46875 236.972656 69.460938 237.070312 71.367188 236.207031 C 74.179688 235.0625 74.359375 232.101562 74.359375 228.285156 L 74.359375 188.765625 Z M 82.164062 208.90625 C 82.164062 210.339844 82.34375 210.910156 87.695312 210.910156 C 100.847656 210.910156 102.570312 201.171875 102.570312 197.261719 C 102.570312 192.292969 99.757812 183.703125 88.328125 183.703125 C 82.617188 183.703125 82.164062 185.328125 82.164062 188.574219 Z M 82.164062 208.90625 " fill-opacity="1" fill-rule="evenodd"/></g></g><g clip-path="url(#f901b3a3e9)"><g clip-path="url(#7f4ee69098)"><path fill="#ffffff" d="M 115.015625 187.621094 C 115.015625 184.277344 112.570312 183.703125 108.757812 183.515625 C 107.125 183.417969 105.492188 183.132812 105.492188 181.890625 C 105.492188 180.558594 106.855469 180.460938 107.671875 180.460938 C 111.296875 180.460938 114.472656 180.84375 118.644531 180.84375 C 122.09375 180.84375 125.445312 180.460938 128.894531 180.460938 C 130.617188 180.460938 131.886719 180.652344 131.886719 182.179688 C 131.886719 183.324219 129.527344 183.515625 127.351562 183.515625 C 124.808594 183.515625 122.816406 184.277344 122.816406 189.050781 L 122.816406 232.292969 C 122.816406 235.347656 124.175781 235.632812 126.445312 235.632812 C 128.441406 235.632812 132.699219 235.445312 136.511719 234.871094 C 142.949219 233.914062 146.214844 226.089844 147.484375 226.089844 C 148.390625 226.089844 148.574219 226.949219 148.574219 227.710938 C 148.574219 229.046875 148.121094 233.535156 147.214844 237.542969 C 146.851562 239.070312 145.851562 239.261719 145.398438 239.261719 C 140.59375 239.261719 134.878906 238.878906 121.183594 238.878906 C 116.832031 238.878906 112.570312 239.261719 108.214844 239.261719 C 106.035156 239.261719 105.855469 238.691406 105.855469 237.734375 C 105.855469 236.398438 106.945312 236.304688 107.941406 236.207031 C 113.292969 235.730469 115.015625 235.15625 115.015625 229.808594 Z M 115.015625 187.621094 " fill-opacity="1" fill-rule="evenodd"/></g></g><g clip-path="url(#45c95b75ca)"><g clip-path="url(#e3a4220f17)"><path fill="#ffffff" d="M 155.761719 215.875 C 155.035156 213.488281 154.671875 213.488281 147.234375 213.390625 C 141.066406 213.296875 139.613281 213.679688 139.253906 214.445312 C 137.074219 219.121094 132.8125 232.292969 132.8125 233.34375 C 132.8125 235.253906 134.71875 236.015625 135.441406 236.207031 C 138.253906 236.972656 140.066406 237.351562 140.066406 238.117188 C 140.066406 239.261719 138.617188 239.261719 137.980469 239.261719 C 135.53125 239.261719 132.632812 238.878906 130 238.878906 C 126.554688 238.878906 123.015625 239.261719 119.933594 239.261719 C 119.207031 239.261719 118.847656 238.976562 118.847656 238.117188 C 118.847656 236.875 121.203125 237.070312 123.472656 236.207031 C 125.285156 235.542969 125.738281 234.875 126.195312 233.824219 L 149.320312 178.550781 C 149.5 178.164062 149.800781 177.972656 150.226562 177.976562 C 150.773438 177.976562 151.222656 178.265625 151.316406 178.648438 L 168.183594 229.335938 C 169.90625 234.585938 171.722656 235.824219 172.902344 236.207031 C 175.351562 236.972656 177.070312 236.6875 177.070312 238.117188 C 177.070312 239.070312 176.347656 239.261719 175.261719 239.261719 C 171.359375 239.261719 168.277344 238.878906 164.738281 238.878906 C 161.382812 238.878906 158.207031 239.261719 154.671875 239.261719 C 153.761719 239.261719 153.398438 238.597656 153.398438 238.214844 C 153.398438 237.070312 155.214844 236.78125 158.480469 236.207031 C 159.027344 236.113281 160.746094 235.351562 160.746094 233.726562 C 160.746094 233.058594 160.382812 232.101562 160.199219 231.339844 Z M 141.15625 207 C 140.976562 207.570312 140.613281 208.144531 140.613281 208.714844 C 140.613281 209.195312 146.417969 209.195312 147.140625 209.195312 C 147.6875 209.195312 153.492188 209.195312 153.492188 208.621094 C 153.492188 208.144531 153.3125 207.667969 153.039062 206.804688 L 148.230469 191.722656 C 148.140625 191.535156 148.050781 191.152344 147.6875 191.152344 C 147.507812 191.152344 147.324219 191.34375 147.234375 191.628906 L 141.15625 206.996094 Z M 141.15625 207 " fill-opacity="1" fill-rule="evenodd"/></g></g><g clip-path="url(#caa3df3994)"><g clip-path="url(#91a5b109f5)"><path fill="#ffffff" d="M 220.558594 186.664062 C 220.558594 183.894531 219.199219 183.992188 213.300781 183.515625 C 212.121094 183.417969 210.3125 183.417969 210.3125 182.082031 C 210.3125 180.558594 211.945312 180.460938 213.03125 180.460938 C 216.386719 180.460938 219.832031 180.84375 223.191406 180.84375 C 225.820312 180.84375 229.265625 180.460938 231.167969 180.460938 C 232.167969 180.460938 233.257812 180.746094 233.257812 181.988281 C 233.074219 183.230469 231.984375 183.515625 230.171875 183.515625 C 224.460938 183.515625 224.1875 185.234375 224.1875 192.394531 L 224.1875 238.691406 C 224.1875 240.507812 224.003906 242.320312 222.644531 242.320312 C 221.464844 242.320312 220.285156 240.984375 219.199219 239.644531 L 180.652344 192.585938 C 180.472656 192.394531 180.199219 192.203125 179.925781 192.203125 C 179.65625 192.203125 179.65625 192.683594 179.65625 194.015625 L 179.835938 224.660156 C 179.835938 227.046875 180.015625 228.382812 180.015625 230.386719 C 180.015625 235.542969 182.105469 236.015625 184.28125 236.210938 C 188.722656 236.589844 191.355469 236.496094 191.355469 238.023438 C 191.355469 239.261719 190.539062 239.261719 189.632812 239.261719 C 186.730469 239.261719 183.011719 238.882812 179.109375 238.882812 C 171.582031 238.882812 170.3125 239.261719 167.5 239.261719 C 166.867188 239.261719 165.867188 239.167969 165.867188 238.214844 C 165.867188 236.878906 166.324219 236.785156 172.488281 236.210938 C 174.394531 236.015625 175.117188 235.160156 175.117188 233.632812 L 176.207031 195.925781 C 176.296875 193.730469 176.386719 191.726562 176.386719 191.058594 C 176.386719 184.664062 175.117188 184.378906 172.402344 184.089844 C 167.046875 183.613281 165.957031 183.613281 165.957031 182.183594 C 165.957031 181.132812 167.320312 180.460938 168.773438 180.460938 C 170.042969 180.460938 172.128906 180.84375 175.121094 180.84375 C 177.75 180.84375 179.019531 180.460938 180.109375 180.460938 C 182.105469 180.460938 183.011719 181.894531 183.734375 182.753906 L 219.289062 226.855469 C 219.46875 227.046875 219.5625 227.332031 220.015625 227.332031 C 220.648438 227.332031 220.558594 226.285156 220.558594 224.757812 Z M 89.546875 88.46875 L 89.546875 57.5625 L 65.316406 57.5625 L 65.316406 88.46875 Z M 89.546875 88.46875 " fill-opacity="1" fill-rule="evenodd"/></g></g><g clip-path="url(#da6a036e55)"><g clip-path="url(#e97296708c)"><path fill="#cf432a" d="M 68.816406 86.105469 L 67.855469 86.105469 L 67.855469 81.929688 L 69.957031 81.929688 C 70.847656 81.929688 71.386719 82.449219 71.386719 83.269531 C 71.386719 83.644531 71.152344 84.601562 69.917969 84.601562 L 68.816406 84.601562 Z M 69.707031 83.878906 C 70.425781 83.878906 70.425781 83.414062 70.425781 83.226562 C 70.425781 82.820312 70.175781 82.652344 69.578125 82.652344 L 68.816406 82.652344 L 68.816406 83.878906 Z M 75.132812 86.105469 L 74.273438 86.105469 L 74.273438 85.671875 L 74.261719 85.671875 C 74.054688 86.003906 73.695312 86.1875 73.222656 86.1875 C 72.550781 86.1875 72.0625 85.839844 72.0625 85.046875 L 72.0625 83.011719 L 72.960938 83.011719 L 72.960938 84.933594 C 72.960938 85.410156 73.269531 85.503906 73.542969 85.503906 C 73.835938 85.503906 74.234375 85.351562 74.234375 84.800781 L 74.234375 83.015625 L 75.132812 83.015625 Z M 75.960938 83.015625 L 76.820312 83.015625 L 76.820312 83.550781 L 76.832031 83.550781 C 77.015625 83.234375 77.222656 82.933594 77.765625 82.933594 C 77.824219 82.933594 77.882812 82.9375 77.941406 82.945312 L 77.941406 83.769531 C 77.863281 83.757812 77.765625 83.757812 77.683594 83.757812 C 76.984375 83.757812 76.855469 84.152344 76.855469 84.496094 L 76.855469 86.109375 L 75.960938 86.109375 Z M 79.378906 83.015625 L 79.378906 86.109375 L 78.484375 86.109375 L 78.484375 83.015625 Z M 79.378906 82.648438 L 78.484375 82.648438 L 78.484375 81.890625 L 79.378906 81.890625 Z M 83.316406 86.105469 L 82.421875 86.105469 L 82.421875 84.226562 C 82.421875 84.003906 82.410156 83.617188 81.839844 83.617188 C 81.441406 83.617188 81.136719 83.863281 81.136719 84.332031 L 81.136719 86.109375 L 80.238281 86.109375 L 80.238281 83.015625 L 81.097656 83.015625 L 81.097656 83.46875 L 81.109375 83.46875 C 81.230469 83.28125 81.484375 82.929688 82.132812 82.929688 C 82.800781 82.929688 83.316406 83.285156 83.316406 83.964844 Z M 86.910156 85.503906 C 86.910156 85.867188 87 85.949219 87.109375 85.984375 L 87.109375 86.109375 L 86.140625 86.109375 C 86.09375 85.988281 86.066406 85.867188 86.058594 85.742188 C 85.855469 85.933594 85.566406 86.1875 84.957031 86.1875 C 84.445312 86.1875 83.921875 85.925781 83.921875 85.289062 C 83.921875 84.683594 84.34375 84.375 84.914062 84.296875 L 85.71875 84.1875 C 85.859375 84.171875 86.03125 84.121094 86.03125 83.945312 C 86.03125 83.601562 85.675781 83.585938 85.445312 83.585938 C 84.996094 83.585938 84.917969 83.835938 84.894531 84.015625 L 84.027344 84.015625 C 84.132812 83.066406 84.855469 82.933594 85.554688 82.933594 C 86.035156 82.933594 86.914062 83.066406 86.914062 83.828125 L 86.914062 85.503906 Z M 86.03125 84.601562 C 85.941406 84.664062 85.792969 84.71875 85.421875 84.769531 C 85.089844 84.824219 84.8125 84.898438 84.8125 85.234375 C 84.8125 85.519531 85.058594 85.609375 85.230469 85.609375 C 85.625 85.609375 86.03125 85.375 86.03125 84.996094 Z M 80.511719 73.171875 L 80.511719 66.597656 L 73.941406 66.597656 L 73.941406 73.171875 Z M 87.082031 66.597656 L 87.082031 60.027344 L 80.511719 60.027344 L 80.511719 66.597656 Z M 73.941406 66.597656 L 73.941406 60.027344 L 67.367188 60.027344 L 67.367188 66.597656 Z M 73.941406 79.742188 L 73.941406 73.171875 L 67.367188 73.171875 L 67.367188 79.742188 Z M 87.082031 79.742188 L 87.082031 73.171875 L 80.511719 73.171875 L 80.511719 79.742188 Z M 87.082031 79.742188 " fill-opacity="1" fill-rule="evenodd"/></g></g><g clip-path="url(#12ea9ed22a)"><g clip-path="url(#a1029c1fb0)"><path fill="#cf432a" d="M 66.855469 80.664062 L 87.90625 80.664062 L 87.90625 59 L 66.855469 59 Z M 87.90625 81.488281 L 66.855469 81.488281 L 66.855469 87.03125 L 87.90625 87.03125 Z M 88.726562 87.851562 L 66.035156 87.851562 L 66.035156 58.179688 L 88.726562 58.179688 Z M 88.726562 87.851562 " fill-opacity="1" fill-rule="nonzero"/></g></g></svg>