<svg xmlns="http://www.w3.org/2000/svg" xmlns:xlink="http://www.w3.org/1999/xlink" width="400" zoomAndPan="magnify" viewBox="0 0 300 299.999988" height="400" preserveAspectRatio="xMidYMid meet" version="1.0"><path fill="#e2001a" d="M 132 193.976562 L 124.003906 193.976562 C 123.734375 193.976562 123.601562 193.710938 123.601562 193.578125 L 123.601562 169.425781 C 123.734375 169.027344 123.734375 168.492188 123.601562 168.09375 C 123.203125 165.824219 121.070312 164.355469 118.804688 164.621094 C 116.535156 165.023438 115.070312 167.15625 115.335938 169.425781 L 115.335938 199.582031 C 115.335938 200.785156 116.269531 201.851562 117.601562 201.984375 L 132 201.984375 C 132.136719 201.984375 132.269531 201.984375 132.402344 201.984375 C 134.535156 201.851562 136.132812 199.984375 136 197.847656 C 136 195.3125 134.269531 193.84375 132 193.976562 Z M 103.070312 166.625 L 81.738281 195.445312 C 81.207031 196.113281 80.941406 196.914062 80.941406 197.847656 C 80.941406 199.046875 81.472656 200.382812 82.671875 201.050781 C 84.539062 202.25 86.804688 201.851562 88.140625 200.25 L 92.273438 194.644531 L 102.269531 194.644531 L 102.269531 197.847656 C 102.40625 200.117188 104.269531 201.851562 106.402344 201.71875 C 108.671875 201.71875 110.269531 199.847656 110.269531 197.847656 L 110.269531 169.292969 C 110.269531 168.09375 109.738281 166.890625 108.9375 166.222656 C 107.203125 164.621094 104.539062 164.757812 103.070312 166.625 Z M 102.136719 186.507812 L 98.40625 186.507812 C 98.273438 186.507812 98.136719 186.371094 98.136719 186.238281 L 102.136719 180.769531 C 102.136719 180.636719 102.136719 186.507812 102.136719 186.507812 Z M 91.339844 169.425781 C 91.339844 167.292969 89.605469 165.558594 87.605469 165.558594 C 86.539062 165.558594 85.472656 165.957031 84.804688 166.625 L 75.742188 176.097656 C 75.605469 176.230469 75.472656 176.230469 75.339844 176.230469 C 75.207031 176.230469 75.074219 176.230469 75.074219 176.097656 L 66.007812 166.625 C 65.339844 165.957031 64.273438 165.421875 63.207031 165.421875 C 61.074219 165.421875 59.476562 167.15625 59.476562 169.160156 C 59.476562 170.09375 59.875 171.160156 60.410156 171.828125 L 71.472656 184.503906 L 71.605469 197.847656 C 71.605469 199.984375 73.339844 201.71875 75.472656 201.71875 C 77.605469 201.71875 79.339844 199.984375 79.339844 197.847656 L 79.605469 184.636719 L 90.40625 171.960938 C 91.070312 171.160156 91.339844 170.226562 91.339844 169.425781 Z M 44.542969 165.421875 C 34.542969 165.421875 26.410156 173.5625 26.410156 183.570312 C 26.410156 193.578125 34.542969 201.71875 44.542969 201.71875 C 54.542969 201.71875 62.675781 193.445312 62.675781 183.4375 C 62.675781 173.695312 54.542969 165.558594 44.542969 165.421875 Z M 44.542969 193.175781 C 39.078125 193.175781 34.8125 188.90625 34.8125 183.4375 C 34.8125 177.964844 39.078125 173.695312 44.542969 173.695312 C 50.007812 173.695312 54.277344 177.964844 54.277344 183.4375 C 54.277344 188.90625 50.007812 193.175781 44.542969 193.175781 Z M 235.859375 164.621094 C 233.859375 164.757812 232.257812 166.359375 232.257812 168.226562 L 232.257812 185.171875 C 232.257812 185.304688 232.125 185.4375 231.992188 185.4375 C 231.859375 185.4375 231.859375 185.4375 231.859375 185.304688 L 221.992188 167.824219 C 220.527344 165.15625 217.058594 164.355469 214.527344 165.957031 C 213.0625 166.890625 211.996094 168.625 211.859375 170.359375 L 211.859375 198.113281 C 211.996094 200.382812 213.992188 201.984375 215.992188 201.851562 C 217.992188 201.71875 219.59375 200.117188 219.726562 198.113281 L 219.726562 181.167969 C 219.726562 181.035156 219.859375 180.902344 219.992188 180.902344 C 220.125 180.902344 220.125 180.902344 220.125 181.035156 L 230.257812 198.914062 C 231.59375 201.449219 234.792969 202.25 237.324219 200.917969 C 239.058594 199.984375 239.992188 198.246094 239.992188 196.511719 L 239.992188 168.359375 C 239.859375 166.222656 238.125 164.488281 235.859375 164.621094 Z M 20.011719 186.90625 C 23.210938 184.90625 25.34375 181.433594 25.210938 177.699219 C 25.210938 177.699219 25.210938 177.699219 25.210938 177.566406 C 25.34375 171.027344 20.011719 165.558594 13.480469 165.421875 C 10.28125 165.15625 6.945312 166.222656 4.679688 168.492188 C 2.148438 171.027344 1.347656 174.230469 1.347656 177.699219 L 1.878906 197.847656 C 1.878906 199.984375 3.613281 201.71875 5.746094 201.71875 C 7.878906 201.71875 9.613281 199.984375 9.613281 197.847656 L 9.746094 188.242188 C 9.746094 187.972656 9.878906 187.839844 10.144531 187.839844 C 10.144531 187.839844 10.28125 187.839844 10.414062 187.839844 L 19.878906 200.785156 C 20.546875 201.449219 21.34375 201.71875 22.410156 201.71875 C 24.546875 201.71875 26.144531 199.984375 26.277344 197.980469 C 26.277344 197.449219 26.144531 196.914062 25.878906 196.246094 Z M 13.210938 181.300781 C 12.945312 181.300781 12.8125 181.300781 12.546875 181.300781 C 10.28125 181.167969 8.8125 179.167969 8.945312 177.164062 C 9.078125 174.898438 11.078125 173.429688 13.078125 173.5625 C 13.347656 173.5625 13.480469 173.5625 13.746094 173.5625 C 16.011719 173.695312 17.480469 175.699219 17.347656 177.699219 C 17.210938 179.835938 15.210938 181.835938 13.210938 181.300781 Z M 174.398438 189.574219 C 173.863281 189.574219 173.199219 189.707031 172.53125 189.976562 L 169.332031 192.109375 C 167.863281 193.042969 166 193.578125 164.132812 193.578125 C 158.53125 193.3125 154.398438 188.507812 154.667969 183.171875 C 154.933594 177.964844 158.933594 173.964844 164.132812 173.695312 C 166 173.695312 167.730469 174.230469 169.332031 175.164062 L 172.398438 177.300781 C 172.929688 177.566406 173.464844 177.699219 174.265625 177.699219 C 176.398438 177.699219 178.128906 175.964844 178.128906 173.828125 C 178.128906 173.027344 177.863281 171.960938 177.199219 171.292969 C 174.132812 167.691406 169.597656 165.558594 164.664062 165.558594 C 154.667969 165.558594 146.535156 173.695312 146.535156 183.703125 C 146.535156 193.3125 154 201.316406 163.597656 201.851562 C 168.796875 201.851562 173.597656 199.714844 177.199219 195.980469 C 177.730469 195.3125 178.128906 194.511719 177.996094 193.445312 C 178.398438 191.308594 176.53125 189.574219 174.398438 189.574219 Z M 248.523438 164.488281 C 246.125 164.488281 244.390625 166.492188 244.390625 168.625 L 244.390625 197.847656 C 244.390625 200.25 246.390625 201.984375 248.523438 201.984375 C 250.925781 201.984375 252.65625 199.984375 252.65625 197.847656 L 252.65625 168.625 C 252.65625 166.359375 250.925781 164.488281 248.523438 164.488281 Z M 187.863281 166.492188 C 187.0625 165.691406 185.863281 165.15625 184.664062 165.15625 C 182.261719 165.15625 180.53125 166.222656 180.53125 168.625 L 180.53125 197.847656 C 180.53125 200.117188 182.398438 201.71875 184.53125 201.71875 C 186.664062 201.71875 188.53125 199.984375 188.664062 197.847656 L 188.664062 194.644531 L 198.664062 194.644531 L 202.796875 200.25 C 203.460938 201.183594 204.792969 201.71875 205.996094 201.71875 C 208.261719 201.71875 209.859375 199.847656 209.859375 197.847656 C 209.859375 197.046875 209.59375 196.113281 209.0625 195.445312 Z M 192.664062 186.238281 C 192.664062 186.371094 192.53125 186.507812 192.394531 186.507812 L 188.664062 186.507812 L 188.664062 180.5 L 192.664062 186.105469 C 192.796875 186.105469 192.796875 186.105469 192.664062 186.238281 Z M 281.1875 164.621094 C 279.1875 164.757812 277.589844 166.359375 277.589844 168.226562 L 277.589844 185.171875 C 277.589844 185.304688 277.453125 185.4375 277.320312 185.4375 C 277.1875 185.4375 277.1875 185.4375 277.054688 185.304688 L 267.324219 167.824219 C 265.855469 165.15625 262.390625 164.355469 259.855469 165.957031 C 258.390625 166.890625 257.324219 168.625 257.191406 170.359375 L 257.191406 198.113281 C 257.191406 200.382812 259.054688 202.117188 261.191406 202.117188 C 263.324219 202.117188 265.1875 200.25 265.1875 198.113281 L 265.1875 181.167969 C 265.1875 181.035156 265.324219 180.902344 265.457031 180.902344 C 265.589844 180.902344 265.589844 180.902344 265.589844 181.035156 L 275.722656 198.914062 C 277.054688 201.449219 280.253906 202.25 282.789062 200.917969 C 284.519531 199.984375 285.453125 198.246094 285.453125 196.511719 L 285.453125 168.359375 C 285.1875 166.222656 283.320312 164.488281 281.1875 164.621094 Z M 295.585938 167.957031 C 295.585938 167.824219 295.585938 167.824219 295.585938 167.691406 C 295.585938 166.625 294.785156 166.359375 293.851562 166.359375 L 292.652344 166.359375 C 292.253906 166.359375 292.121094 166.625 292.121094 166.757812 L 292.121094 170.359375 C 292.121094 170.761719 292.253906 170.894531 292.652344 170.894531 C 293.054688 170.894531 293.1875 170.628906 293.1875 170.359375 L 293.1875 169.027344 L 293.453125 169.027344 L 294.121094 170.359375 C 294.253906 170.628906 294.386719 170.894531 294.785156 170.894531 C 295.1875 170.894531 295.320312 170.761719 295.320312 170.492188 C 295.320312 170.359375 295.320312 170.359375 295.320312 170.226562 L 294.519531 169.027344 C 295.054688 169.160156 295.585938 168.492188 295.585938 167.957031 Z M 293.988281 168.226562 L 293.1875 168.226562 L 293.1875 167.15625 L 293.988281 167.15625 C 294.386719 167.15625 294.652344 167.292969 294.652344 167.691406 C 294.652344 168.09375 294.386719 168.226562 293.988281 168.226562 Z M 293.851562 164.355469 C 291.453125 164.355469 289.585938 166.359375 289.585938 168.625 C 289.585938 170.894531 291.585938 172.894531 293.851562 172.894531 C 296.121094 172.894531 298.121094 170.894531 298.121094 168.625 C 297.984375 166.359375 296.121094 164.355469 293.851562 164.355469 Z M 293.851562 171.828125 C 291.988281 171.828125 290.652344 170.492188 290.652344 168.625 C 290.652344 166.757812 291.988281 165.421875 293.851562 165.421875 C 295.71875 165.421875 297.054688 166.757812 297.054688 168.625 C 297.054688 170.359375 295.585938 171.828125 293.851562 171.828125 Z M 293.851562 171.828125 " fill-opacity="1" fill-rule="nonzero"/><path fill="#e2001a" d="M 178.265625 145.941406 C 169.730469 139.671875 156.933594 135.933594 143.734375 135.933594 C 130.535156 135.933594 117.601562 139.671875 109.203125 145.941406 C 108.402344 146.476562 108.003906 147.410156 108.003906 148.476562 C 108.003906 150.34375 109.335938 151.679688 111.203125 151.679688 C 111.871094 151.679688 112.535156 151.414062 113.203125 151.011719 C 118.9375 146.742188 130 142.207031 144 142.207031 C 158 142.207031 168.929688 146.742188 174.664062 151.011719 L 174.796875 151.144531 C 176.132812 152.082031 178.265625 151.8125 179.195312 150.34375 C 179.996094 148.878906 179.730469 146.875 178.265625 145.941406 Z M 143.734375 143.539062 C 131.46875 143.539062 119.871094 147.144531 112.671875 153.148438 C 112.671875 153.148438 112.671875 153.148438 112.535156 153.148438 C 111.738281 153.949219 111.605469 155.28125 112.269531 156.214844 C 112.671875 156.75 113.203125 157.015625 114.003906 157.015625 C 114.535156 157.015625 114.9375 156.882812 115.335938 156.484375 C 121.734375 151.144531 132.402344 147.808594 143.601562 147.808594 C 154.800781 147.808594 165.332031 151.011719 171.863281 156.484375 C 172.796875 157.285156 174.265625 157.152344 174.929688 156.214844 C 175.730469 155.28125 175.597656 153.816406 174.664062 153.148438 C 167.464844 147.277344 155.867188 143.539062 143.734375 143.539062 Z M 97.070312 111.25 Z M 104.003906 120.457031 C 104.9375 116.585938 102.671875 112.71875 98.671875 111.515625 C 98.136719 111.382812 97.472656 111.25 96.804688 111.25 C 92.804688 111.25 89.605469 114.453125 89.605469 118.457031 C 89.605469 122.457031 92.804688 125.660156 96.804688 125.660156 C 100.40625 125.925781 103.203125 123.660156 104.003906 120.457031 Z M 143.734375 131.664062 C 147.734375 131.664062 150.933594 128.460938 150.933594 124.460938 C 150.933594 120.457031 147.734375 117.253906 143.734375 117.253906 C 139.734375 117.253906 136.535156 120.457031 136.535156 124.460938 C 136.535156 128.460938 139.601562 131.664062 143.734375 131.664062 Z M 143.734375 113.25 C 147.734375 113.25 150.933594 110.050781 150.933594 106.046875 C 150.933594 102.042969 147.734375 98.707031 143.734375 98.707031 C 139.734375 98.707031 136.535156 101.910156 136.535156 105.914062 C 136.402344 110.050781 139.601562 113.25 143.734375 113.25 Z M 122.402344 119.789062 C 118.535156 120.855469 116.269531 124.992188 117.335938 128.863281 C 118.136719 131.933594 121.070312 134.066406 124.269531 134.199219 L 124.402344 134.199219 C 124.9375 134.199219 125.601562 134.066406 126.269531 133.933594 C 130.136719 132.867188 132.402344 128.863281 131.46875 124.992188 C 130.667969 121.789062 127.734375 119.523438 124.402344 119.523438 C 123.601562 119.523438 123.070312 119.65625 122.402344 119.789062 Z M 113.335938 136.203125 C 114.269531 132.332031 112.003906 128.195312 108.003906 127.261719 C 107.46875 127.128906 106.804688 126.996094 106.136719 126.996094 C 104.9375 126.996094 103.605469 127.394531 102.40625 127.929688 C 100.671875 128.863281 99.472656 130.597656 99.070312 132.332031 C 98.539062 134.332031 98.804688 136.203125 99.871094 137.9375 C 101.070312 140.203125 103.472656 141.40625 106.136719 141.539062 C 107.335938 141.539062 108.804688 141.273438 109.871094 140.605469 C 111.605469 139.671875 112.9375 138.070312 113.335938 136.203125 Z M 161.199219 133.800781 C 161.867188 133.933594 162.398438 134.066406 163.199219 134.066406 C 167.199219 134.066406 170.398438 130.730469 170.398438 126.863281 C 170.398438 123.527344 168.132812 120.722656 165.066406 119.921875 C 164.398438 119.789062 163.867188 119.65625 163.066406 119.65625 C 159.066406 119.65625 155.867188 122.992188 155.867188 126.996094 C 155.734375 130.0625 158 133 161.199219 133.800781 Z M 166 116.1875 C 166.53125 116.320312 167.199219 116.453125 168 116.453125 C 171.996094 116.453125 175.199219 113.117188 175.199219 109.25 C 175.199219 105.914062 172.929688 103.109375 169.863281 102.308594 C 169.199219 102.175781 168.664062 102.042969 167.863281 102.042969 C 163.867188 102.042969 160.664062 105.378906 160.664062 109.382812 C 160.664062 112.316406 162.933594 115.253906 166 116.1875 Z M 184.929688 128.0625 C 183.863281 127.394531 182.53125 127.128906 181.332031 127.128906 C 177.332031 127.128906 174.132812 130.332031 174.132812 134.332031 C 174.132812 134.867188 174.265625 135.535156 174.398438 136.203125 C 174.796875 138.070312 176.132812 139.671875 177.730469 140.605469 C 181.195312 142.738281 185.730469 141.40625 187.730469 137.9375 C 188.664062 136.203125 188.929688 134.332031 188.53125 132.332031 C 187.730469 130.730469 186.53125 129.128906 184.929688 128.0625 Z M 197.59375 116.855469 C 197.195312 114.984375 195.863281 113.382812 194.261719 112.449219 C 190.796875 110.316406 186.261719 111.648438 184.261719 115.121094 C 183.332031 116.855469 183.0625 118.722656 183.464844 120.722656 C 183.863281 122.589844 185.195312 124.191406 186.796875 125.125 C 190.261719 127.261719 194.796875 126.0625 196.796875 122.589844 C 197.863281 120.722656 198.128906 118.457031 197.59375 116.855469 Z M 119.601562 116.453125 C 120.269531 116.453125 120.9375 116.320312 121.601562 116.1875 C 125.46875 115.121094 127.734375 110.984375 126.800781 107.246094 C 126.003906 104.042969 123.070312 101.910156 119.871094 101.910156 C 119.203125 101.910156 118.667969 102.042969 117.871094 102.175781 C 114.003906 103.242188 111.738281 107.378906 112.671875 111.117188 C 113.46875 114.183594 116.269531 116.453125 119.601562 116.453125 Z M 119.601562 116.453125 " fill-opacity="1" fill-rule="nonzero"/></svg>